<svg width="160" height="110" viewBox="0 0 160 110" fill="none" xmlns="http://www.w3.org/2000/svg">
<path d="M37.199 99.8903V101.056H32.6697V99.8903H37.199ZM33.0857 92.525V101.056H31.615V92.525H33.0857ZM36.6072 96.0875V97.236H32.6697V96.0875H36.6072ZM37.1697 92.525V93.6969H32.6697V92.525H37.1697ZM39.4877 94.7164L40.6947 96.8199L41.9252 94.7164H43.4779L41.556 97.8278L43.5541 101.056H42.0013L40.7123 98.8649L39.4232 101.056H37.8646L39.8568 97.8278L37.9408 94.7164H39.4877ZM47.5009 94.7164V95.7477H43.9267V94.7164H47.5009ZM44.958 93.1637H46.3701V99.3043C46.3701 99.4996 46.3974 99.65 46.4521 99.7555C46.5107 99.8571 46.5908 99.9254 46.6924 99.9606C46.7939 99.9957 46.9131 100.013 47.0498 100.013C47.1474 100.013 47.2412 100.007 47.331 99.9957C47.4209 99.984 47.4931 99.9723 47.5478 99.9606L47.5537 101.039C47.4365 101.074 47.2998 101.105 47.1435 101.132C46.9912 101.16 46.8154 101.173 46.6162 101.173C46.292 101.173 46.0049 101.117 45.7549 101.004C45.5049 100.886 45.3095 100.697 45.1689 100.435C45.0283 100.173 44.958 99.8258 44.958 99.3922V93.1637ZM51.5357 101.173C51.067 101.173 50.6431 101.097 50.2642 100.945C49.8892 100.789 49.5689 100.572 49.3033 100.295C49.0416 100.017 48.8404 99.691 48.6998 99.316C48.5592 98.941 48.4888 98.5367 48.4888 98.1031V97.8688C48.4888 97.3727 48.5611 96.9235 48.7056 96.5211C48.8502 96.1188 49.0513 95.775 49.3092 95.4899C49.567 95.2008 49.8717 94.9801 50.2232 94.8278C50.5748 94.6754 50.9556 94.5992 51.3658 94.5992C51.8189 94.5992 52.2154 94.6754 52.5552 94.8278C52.8951 94.9801 53.1763 95.1949 53.399 95.4723C53.6256 95.7457 53.7935 96.0719 53.9029 96.4508C54.0162 96.8297 54.0728 97.2477 54.0728 97.7047V98.3082H49.1744V97.2946H52.6783V97.1832C52.6705 96.9293 52.6197 96.691 52.5259 96.4684C52.4361 96.2457 52.2974 96.066 52.1099 95.9293C51.9224 95.7926 51.6724 95.7242 51.3599 95.7242C51.1256 95.7242 50.9166 95.775 50.733 95.8766C50.5533 95.9742 50.4029 96.1168 50.2818 96.3043C50.1607 96.4918 50.067 96.7184 50.0006 96.984C49.9381 97.2457 49.9068 97.5406 49.9068 97.8688V98.1031C49.9068 98.3805 49.9439 98.6383 50.0181 98.8766C50.0963 99.111 50.2095 99.316 50.358 99.4918C50.5064 99.6676 50.6861 99.8063 50.897 99.9078C51.108 100.005 51.3482 100.054 51.6177 100.054C51.9576 100.054 52.2603 99.986 52.5259 99.8492C52.7916 99.7125 53.022 99.5192 53.2174 99.2692L53.9615 99.9899C53.8248 100.189 53.647 100.38 53.4283 100.564C53.2095 100.744 52.942 100.89 52.6256 101.004C52.3131 101.117 51.9498 101.173 51.5357 101.173ZM56.7424 95.9235V101.056H55.3302V94.7164H56.6779L56.7424 95.9235ZM58.6818 94.6754L58.6701 95.9879C58.5842 95.9723 58.4904 95.9606 58.3888 95.9528C58.2912 95.9449 58.1935 95.941 58.0959 95.941C57.8537 95.941 57.6408 95.9762 57.4572 96.0465C57.2736 96.1129 57.1193 96.2106 56.9943 96.3395C56.8732 96.4645 56.7795 96.6168 56.7131 96.7965C56.6467 96.9762 56.6076 97.1774 56.5959 97.4L56.2736 97.4235C56.2736 97.025 56.3127 96.6559 56.3908 96.316C56.4689 95.9762 56.5861 95.6774 56.7424 95.4196C56.9025 95.1617 57.1017 94.9606 57.34 94.816C57.5822 94.6715 57.8615 94.5992 58.1779 94.5992C58.2638 94.5992 58.3556 94.6071 58.4533 94.6227C58.5549 94.6383 58.631 94.6559 58.6818 94.6754ZM61.2283 94.7164V101.056H59.8103V94.7164H61.2283ZM59.7166 93.0524C59.7166 92.8375 59.7869 92.6598 59.9275 92.5192C60.072 92.3746 60.2713 92.3024 60.5252 92.3024C60.7752 92.3024 60.9724 92.3746 61.117 92.5192C61.2615 92.6598 61.3338 92.8375 61.3338 93.0524C61.3338 93.2633 61.2615 93.4391 61.117 93.5797C60.9724 93.7203 60.7752 93.7906 60.5252 93.7906C60.2713 93.7906 60.072 93.7203 59.9275 93.5797C59.7869 93.4391 59.7166 93.2633 59.7166 93.0524ZM62.6556 97.9567V97.8219C62.6556 97.3649 62.722 96.941 62.8549 96.5504C62.9877 96.1559 63.1791 95.8141 63.4291 95.525C63.683 95.2321 63.9916 95.0055 64.3549 94.8453C64.722 94.6813 65.1361 94.5992 65.597 94.5992C66.0619 94.5992 66.4759 94.6813 66.8392 94.8453C67.2064 95.0055 67.517 95.2321 67.7709 95.525C68.0248 95.8141 68.2181 96.1559 68.3509 96.5504C68.4838 96.941 68.5502 97.3649 68.5502 97.8219V97.9567C68.5502 98.4137 68.4838 98.8375 68.3509 99.2281C68.2181 99.6188 68.0248 99.9606 67.7709 100.254C67.517 100.543 67.2084 100.769 66.8451 100.933C66.4818 101.093 66.0697 101.173 65.6088 101.173C65.1439 101.173 64.7279 101.093 64.3607 100.933C63.9974 100.769 63.6888 100.543 63.4349 100.254C63.181 99.9606 62.9877 99.6188 62.8549 99.2281C62.722 98.8375 62.6556 98.4137 62.6556 97.9567ZM64.0677 97.8219V97.9567C64.0677 98.2418 64.097 98.5114 64.1556 98.7653C64.2142 99.0192 64.306 99.2418 64.431 99.4332C64.556 99.6246 64.7162 99.775 64.9115 99.8844C65.1068 99.9938 65.3392 100.048 65.6088 100.048C65.8705 100.048 66.097 99.9938 66.2884 99.8844C66.4838 99.775 66.6439 99.6246 66.7689 99.4332C66.8939 99.2418 66.9857 99.0192 67.0443 98.7653C67.1068 98.5114 67.1381 98.2418 67.1381 97.9567V97.8219C67.1381 97.5406 67.1068 97.275 67.0443 97.025C66.9857 96.7711 66.892 96.5465 66.7631 96.3512C66.6381 96.1559 66.4779 96.0035 66.2826 95.8942C66.0912 95.7809 65.8627 95.7242 65.597 95.7242C65.3314 95.7242 65.1009 95.7809 64.9056 95.8942C64.7142 96.0035 64.556 96.1559 64.431 96.3512C64.306 96.5465 64.2142 96.7711 64.1556 97.025C64.097 97.275 64.0677 97.5406 64.0677 97.8219ZM71.3017 95.9235V101.056H69.8896V94.7164H71.2373L71.3017 95.9235ZM73.2412 94.6754L73.2295 95.9879C73.1435 95.9723 73.0498 95.9606 72.9482 95.9528C72.8506 95.9449 72.7529 95.941 72.6552 95.941C72.4131 95.941 72.2002 95.9762 72.0166 96.0465C71.833 96.1129 71.6787 96.2106 71.5537 96.3395C71.4326 96.4645 71.3388 96.6168 71.2724 96.7965C71.206 96.9762 71.167 97.1774 71.1552 97.4L70.833 97.4235C70.833 97.025 70.872 96.6559 70.9502 96.316C71.0283 95.9762 71.1455 95.6774 71.3017 95.4196C71.4619 95.1617 71.6611 94.9606 71.8994 94.816C72.1416 94.6715 72.4209 94.5992 72.7373 94.5992C72.8232 94.5992 72.915 94.6071 73.0127 94.6227C73.1142 94.6383 73.1904 94.6559 73.2412 94.6754ZM82.5939 98.2789H84.0588C84.0119 98.8375 83.8556 99.3356 83.59 99.7731C83.3244 100.207 82.9513 100.548 82.4709 100.798C81.9904 101.048 81.4064 101.173 80.7189 101.173C80.1916 101.173 79.717 101.08 79.2951 100.892C78.8732 100.701 78.5119 100.431 78.2111 100.084C77.9103 99.7321 77.6799 99.3082 77.5197 98.8121C77.3634 98.316 77.2853 97.7614 77.2853 97.1481V96.4391C77.2853 95.8258 77.3654 95.2711 77.5256 94.775C77.6896 94.2789 77.924 93.8551 78.2287 93.5035C78.5334 93.1481 78.8986 92.8766 79.3244 92.6891C79.7541 92.5016 80.2365 92.4078 80.7717 92.4078C81.4513 92.4078 82.0256 92.5328 82.4943 92.7828C82.9631 93.0328 83.3263 93.3785 83.5842 93.8199C83.8459 94.2614 84.006 94.7672 84.0646 95.3375H82.5998C82.5607 94.9703 82.4748 94.6559 82.342 94.3942C82.2131 94.1324 82.0217 93.9332 81.7677 93.7965C81.5138 93.6559 81.1818 93.5856 80.7717 93.5856C80.4357 93.5856 80.1427 93.6481 79.8927 93.7731C79.6427 93.8981 79.4338 94.0817 79.2658 94.3239C79.0978 94.566 78.9709 94.8649 78.8849 95.2203C78.8029 95.5719 78.7619 95.9742 78.7619 96.4274V97.1481C78.7619 97.5778 78.799 97.9684 78.8732 98.3199C78.9513 98.6676 79.0685 98.9664 79.2248 99.2164C79.3849 99.4664 79.5881 99.6598 79.8342 99.7965C80.0802 99.9332 80.3752 100.002 80.7189 100.002C81.1369 100.002 81.4748 99.9352 81.7326 99.8024C81.9943 99.6696 82.1916 99.4762 82.3244 99.2223C82.4611 98.9645 82.5509 98.65 82.5939 98.2789ZM88.9783 99.7848V96.7614C88.9783 96.5348 88.9373 96.3395 88.8552 96.1754C88.7732 96.0114 88.6482 95.8844 88.4802 95.7946C88.3162 95.7047 88.1091 95.6598 87.8591 95.6598C87.6287 95.6598 87.4295 95.6989 87.2615 95.777C87.0935 95.8551 86.9627 95.9606 86.8689 96.0934C86.7752 96.2262 86.7283 96.3766 86.7283 96.5446H85.322C85.322 96.2946 85.3826 96.0524 85.5037 95.818C85.6248 95.5836 85.8006 95.3746 86.031 95.191C86.2615 95.0074 86.5369 94.8629 86.8572 94.7574C87.1775 94.652 87.5369 94.5992 87.9353 94.5992C88.4119 94.5992 88.8338 94.6793 89.2009 94.8395C89.572 94.9996 89.8631 95.2418 90.074 95.566C90.2888 95.8864 90.3963 96.2887 90.3963 96.7731V99.5914C90.3963 99.8805 90.4158 100.14 90.4548 100.371C90.4978 100.597 90.5584 100.795 90.6365 100.963V101.056H89.1892C89.1228 100.904 89.0701 100.711 89.031 100.476C88.9959 100.238 88.9783 100.007 88.9783 99.7848ZM89.1834 97.2008L89.1951 98.0739H88.1814C87.9197 98.0739 87.6892 98.0992 87.49 98.15C87.2908 98.1969 87.1248 98.2672 86.992 98.361C86.8591 98.4547 86.7595 98.568 86.6931 98.7008C86.6267 98.8336 86.5935 98.984 86.5935 99.152C86.5935 99.3199 86.6326 99.4742 86.7107 99.6149C86.7888 99.7516 86.9021 99.859 87.0506 99.9371C87.2029 100.015 87.3865 100.054 87.6013 100.054C87.8904 100.054 88.1423 99.9957 88.3572 99.8785C88.5759 99.7574 88.7478 99.611 88.8728 99.4391C88.9978 99.2633 89.0642 99.0973 89.072 98.941L89.5291 99.568C89.4822 99.7281 89.4021 99.9 89.2888 100.084C89.1756 100.267 89.0271 100.443 88.8435 100.611C88.6638 100.775 88.447 100.91 88.1931 101.015C87.9431 101.121 87.6541 101.173 87.3259 101.173C86.9119 101.173 86.5427 101.091 86.2185 100.927C85.8943 100.759 85.6404 100.535 85.4568 100.254C85.2732 99.9684 85.1814 99.6461 85.1814 99.2867C85.1814 98.9508 85.2439 98.6539 85.3689 98.3961C85.4978 98.1344 85.6853 97.9156 85.9314 97.7399C86.1814 97.5641 86.4861 97.4313 86.8455 97.3414C87.2048 97.2477 87.615 97.2008 88.0759 97.2008H89.1834ZM93.4408 95.9235V101.056H92.0287V94.7164H93.3763L93.4408 95.9235ZM95.3802 94.6754L95.3685 95.9879C95.2826 95.9723 95.1888 95.9606 95.0873 95.9528C94.9896 95.9449 94.892 95.941 94.7943 95.941C94.5521 95.941 94.3392 95.9762 94.1556 96.0465C93.972 96.1129 93.8177 96.2106 93.6927 96.3395C93.5717 96.4645 93.4779 96.6168 93.4115 96.7965C93.3451 96.9762 93.306 97.1774 93.2943 97.4L92.972 97.4235C92.972 97.025 93.0111 96.6559 93.0892 96.316C93.1674 95.9762 93.2845 95.6774 93.4408 95.4196C93.601 95.1617 93.8002 94.9606 94.0385 94.816C94.2806 94.6715 94.5599 94.5992 94.8763 94.5992C94.9623 94.5992 95.0541 94.6071 95.1517 94.6227C95.2533 94.6383 95.3295 94.6559 95.3802 94.6754ZM101.833 99.1403L103.532 92.525H104.422L104.323 94.2301L102.506 101.056H101.581L101.833 99.1403ZM100.561 92.525L101.938 99.0875L102.061 101.056H101.077L99.1021 92.525H100.561ZM106.35 99.0699L107.71 92.525H109.174L107.2 101.056H106.215L106.35 99.0699ZM104.768 92.525L106.45 99.1578L106.696 101.056H105.77L103.983 94.2301L103.889 92.525H104.768ZM113.649 99.7848V96.7614C113.649 96.5348 113.608 96.3395 113.526 96.1754C113.444 96.0114 113.319 95.8844 113.151 95.7946C112.986 95.7047 112.779 95.6598 112.529 95.6598C112.299 95.6598 112.1 95.6989 111.932 95.777C111.764 95.8551 111.633 95.9606 111.539 96.0934C111.445 96.2262 111.399 96.3766 111.399 96.5446H109.992C109.992 96.2946 110.053 96.0524 110.174 95.818C110.295 95.5836 110.471 95.3746 110.701 95.191C110.932 95.0074 111.207 94.8629 111.528 94.7574C111.848 94.652 112.207 94.5992 112.606 94.5992C113.082 94.5992 113.504 94.6793 113.871 94.8395C114.242 94.9996 114.533 95.2418 114.744 95.566C114.959 95.8864 115.067 96.2887 115.067 96.7731V99.5914C115.067 99.8805 115.086 100.14 115.125 100.371C115.168 100.597 115.229 100.795 115.307 100.963V101.056H113.86C113.793 100.904 113.74 100.711 113.701 100.476C113.666 100.238 113.649 100.007 113.649 99.7848ZM113.854 97.2008L113.865 98.0739H112.852C112.59 98.0739 112.36 98.0992 112.16 98.15C111.961 98.1969 111.795 98.2672 111.662 98.361C111.529 98.4547 111.43 98.568 111.363 98.7008C111.297 98.8336 111.264 98.984 111.264 99.152C111.264 99.3199 111.303 99.4742 111.381 99.6149C111.459 99.7516 111.572 99.859 111.721 99.9371C111.873 100.015 112.057 100.054 112.272 100.054C112.561 100.054 112.813 99.9957 113.028 99.8785C113.246 99.7574 113.418 99.611 113.543 99.4391C113.668 99.2633 113.735 99.0973 113.742 98.941L114.199 99.568C114.153 99.7281 114.072 99.9 113.959 100.084C113.846 100.267 113.697 100.443 113.514 100.611C113.334 100.775 113.117 100.91 112.863 101.015C112.613 101.121 112.324 101.173 111.996 101.173C111.582 101.173 111.213 101.091 110.889 100.927C110.565 100.759 110.311 100.535 110.127 100.254C109.944 99.9684 109.852 99.6461 109.852 99.2867C109.852 98.9508 109.914 98.6539 110.039 98.3961C110.168 98.1344 110.356 97.9156 110.602 97.7399C110.852 97.5641 111.156 97.4313 111.516 97.3414C111.875 97.2477 112.285 97.2008 112.746 97.2008H113.854ZM120.25 99.3395C120.25 99.1989 120.215 99.0719 120.144 98.9586C120.074 98.8414 119.939 98.736 119.74 98.6422C119.545 98.5485 119.256 98.4625 118.873 98.3844C118.537 98.3102 118.228 98.2223 117.947 98.1207C117.67 98.0153 117.431 97.8883 117.232 97.7399C117.033 97.5914 116.879 97.4156 116.769 97.2125C116.66 97.0094 116.605 96.775 116.605 96.5094C116.605 96.2516 116.662 96.0074 116.775 95.777C116.888 95.5465 117.051 95.3434 117.261 95.1676C117.472 94.9918 117.728 94.8531 118.029 94.7516C118.334 94.65 118.674 94.5992 119.049 94.5992C119.58 94.5992 120.035 94.6891 120.414 94.8688C120.797 95.0446 121.09 95.2848 121.293 95.5895C121.496 95.8903 121.597 96.2301 121.597 96.609H120.185C120.185 96.441 120.142 96.2848 120.056 96.1403C119.974 95.9918 119.849 95.8727 119.681 95.7828C119.513 95.6891 119.303 95.6422 119.049 95.6422C118.806 95.6422 118.605 95.6813 118.445 95.7594C118.289 95.8336 118.172 95.9313 118.094 96.0524C118.019 96.1735 117.982 96.3063 117.982 96.4508C117.982 96.5563 118.002 96.652 118.041 96.7379C118.084 96.8199 118.154 96.8961 118.252 96.9664C118.349 97.0328 118.482 97.0953 118.65 97.1539C118.822 97.2125 119.037 97.2692 119.295 97.3239C119.779 97.4254 120.195 97.5563 120.543 97.7164C120.894 97.8727 121.164 98.0758 121.351 98.3258C121.539 98.5719 121.633 98.8844 121.633 99.2633C121.633 99.5446 121.572 99.8024 121.451 100.037C121.334 100.267 121.162 100.468 120.935 100.64C120.709 100.808 120.437 100.939 120.121 101.033C119.808 101.127 119.457 101.173 119.066 101.173C118.492 101.173 118.006 101.072 117.607 100.869C117.209 100.662 116.906 100.398 116.699 100.078C116.496 99.7535 116.394 99.4176 116.394 99.0699H117.76C117.775 99.3317 117.847 99.5406 117.976 99.6969C118.109 99.8492 118.273 99.9606 118.469 100.031C118.668 100.097 118.873 100.13 119.084 100.13C119.338 100.13 119.551 100.097 119.722 100.031C119.894 99.9606 120.025 99.8668 120.115 99.7496C120.205 99.6285 120.25 99.4918 120.25 99.3395ZM124.413 92.0563V101.056H123.007V92.0563H124.413ZM124.167 97.652L123.71 97.6461C123.714 97.2086 123.775 96.8043 123.892 96.4332C124.013 96.0621 124.181 95.7399 124.396 95.4664C124.615 95.1891 124.876 94.9762 125.181 94.8278C125.486 94.6754 125.824 94.5992 126.195 94.5992C126.507 94.5992 126.788 94.6422 127.038 94.7281C127.292 94.8141 127.511 94.9528 127.695 95.1442C127.878 95.3317 128.017 95.5778 128.111 95.8824C128.208 96.1832 128.257 96.5504 128.257 96.984V101.056H126.839V96.9723C126.839 96.6676 126.794 96.4254 126.704 96.2457C126.619 96.066 126.492 95.9371 126.324 95.859C126.156 95.777 125.951 95.736 125.708 95.736C125.454 95.736 125.23 95.7867 125.035 95.8883C124.843 95.9899 124.683 96.1285 124.554 96.3043C124.425 96.4801 124.328 96.6832 124.261 96.9137C124.199 97.1442 124.167 97.3903 124.167 97.652Z" fill="#4274FE"/>
<path d="M46.4022 44.6461C45.7332 44.6461 45.1924 44.0493 45.1924 43.311V37.9543C45.1924 37.216 45.7332 36.6191 46.4022 36.6191C47.0712 36.6191 47.612 37.216 47.612 37.9543V43.311C47.612 44.0493 47.07 44.6461 46.4022 44.6461Z" fill="#4274FE"/>
<path d="M47.6119 41.9674H45.1922C44.5232 41.9674 43.9824 41.3706 43.9824 40.6323C43.9824 39.8939 44.5232 39.2971 45.1922 39.2971H47.6119C48.2809 39.2971 48.8217 39.8939 48.8217 40.6323C48.8217 41.3706 48.2797 41.9674 47.6119 41.9674Z" fill="#4274FE"/>
<path d="M51.244 9.93738C50.575 9.93738 50.0342 9.34056 50.0342 8.60222V3.24556C50.0342 2.50722 50.575 1.9104 51.244 1.9104C51.913 1.9104 52.4538 2.50722 52.4538 3.24556V8.60222C52.4538 9.34056 51.9118 9.93738 51.244 9.93738Z" fill="#4274FE"/>
<path d="M52.4537 7.25894H50.034C49.365 7.25894 48.8242 6.66212 48.8242 5.92378C48.8242 5.18544 49.365 4.58862 50.034 4.58862H52.4537C53.1227 4.58862 53.6635 5.18544 53.6635 5.92378C53.6635 6.66212 53.1215 7.25894 52.4537 7.25894Z" fill="#4274FE"/>
<path d="M65.8077 16.6029C65.1386 16.6029 64.5918 16.0061 64.5918 15.2678C64.5918 14.5294 65.1265 13.9326 65.7944 13.9326H65.8077C66.4755 13.9326 67.0175 14.5294 67.0175 15.2678C67.0175 16.0061 66.4743 16.6029 65.8077 16.6029Z" fill="#4274FE"/>
<path d="M46.4395 25.9484C45.7705 25.9484 45.2236 25.3516 45.2236 24.6132C45.2236 23.8749 45.7584 23.2781 46.4262 23.2781H46.4395C47.1073 23.2781 47.6493 23.8749 47.6493 24.6132C47.6493 25.3516 47.1073 25.9484 46.4395 25.9484Z" fill="#4274FE"/>
<path d="M82.6869 7.25905C80.0181 7.25905 77.8477 4.86377 77.8477 1.91841C77.8477 1.18007 78.3884 0.583252 79.0575 0.583252C79.7265 0.583252 80.2673 1.18007 80.2673 1.91841C80.2673 3.39109 81.3525 4.58873 82.6869 4.58873C83.356 4.58873 83.8968 5.18555 83.8968 5.92389C83.8968 6.66223 83.356 7.25905 82.6869 7.25905Z" fill="#4274FE"/>
<path d="M79.0614 11.2593C78.3924 11.2593 77.8516 10.6625 77.8516 9.92416C77.8516 6.98281 80.0208 4.58887 82.6872 4.58887C83.3563 4.58887 83.8971 5.18568 83.8971 5.92403C83.8971 6.66237 83.3563 7.25918 82.6872 7.25918C81.354 7.25918 80.2712 8.45549 80.2712 9.92416C80.2712 10.6625 79.7292 11.2593 79.0614 11.2593Z" fill="#4274FE"/>
<path d="M75.4286 7.25905C74.7595 7.25905 74.2188 6.66223 74.2188 5.92389C74.2188 5.18555 74.7595 4.58873 75.4286 4.58873C76.763 4.58873 77.8482 3.39109 77.8482 1.91841C77.8482 1.18007 78.389 0.583252 79.058 0.583252C79.7271 0.583252 80.2679 1.18007 80.2679 1.91841C80.2679 4.86377 78.0974 7.25905 75.4286 7.25905Z" fill="#4274FE"/>
<path d="M79.0544 11.2593C78.3854 11.2593 77.8446 10.6625 77.8446 9.92416C77.8446 8.45415 76.7606 7.25918 75.4286 7.25918C74.7595 7.25918 74.2188 6.66237 74.2188 5.92403C74.2188 5.18568 74.7595 4.58887 75.4286 4.58887C78.095 4.58887 80.2642 6.98281 80.2642 9.92416C80.2642 10.6625 79.7234 11.2593 79.0544 11.2593Z" fill="#4274FE"/>
<path d="M111.739 44.6461C111.07 44.6461 110.529 44.0493 110.529 43.311V37.9543C110.529 37.216 111.07 36.6191 111.739 36.6191C112.408 36.6191 112.949 37.216 112.949 37.9543V43.311C112.949 44.0493 112.408 44.6461 111.739 44.6461Z" fill="#4274FE"/>
<path d="M112.949 41.9674H110.529C109.86 41.9674 109.319 41.3706 109.319 40.6323C109.319 39.8939 109.86 39.2971 110.529 39.2971H112.949C113.618 39.2971 114.159 39.8939 114.159 40.6323C114.159 41.3706 113.618 41.9674 112.949 41.9674Z" fill="#4274FE"/>
<path d="M106.898 9.93738C106.229 9.93738 105.688 9.34056 105.688 8.60222V3.24556C105.688 2.50722 106.229 1.9104 106.898 1.9104C107.567 1.9104 108.108 2.50722 108.108 3.24556V8.60222C108.108 9.34056 107.566 9.93738 106.898 9.93738Z" fill="#4274FE"/>
<path d="M108.108 7.25894H105.688C105.019 7.25894 104.479 6.66212 104.479 5.92378C104.479 5.18544 105.019 4.58862 105.688 4.58862H108.108C108.777 4.58862 109.318 5.18544 109.318 5.92378C109.318 6.66212 108.776 7.25894 108.108 7.25894Z" fill="#4274FE"/>
<path d="M92.4063 16.6029C91.7373 16.6029 91.1904 16.0061 91.1904 15.2678C91.1904 14.5294 91.7252 13.9326 92.393 13.9326H92.4063C93.0741 13.9326 93.6161 14.5294 93.6161 15.2678C93.6161 16.0061 93.0741 16.6029 92.4063 16.6029Z" fill="#4274FE"/>
<path d="M111.774 25.9484C111.105 25.9484 110.559 25.3516 110.559 24.6132C110.559 23.8749 111.093 23.2781 111.761 23.2781H111.774C112.442 23.2781 112.984 23.8749 112.984 24.6132C112.984 25.3516 112.442 25.9484 111.774 25.9484Z" fill="#4274FE"/>
<path d="M106.876 70.0039H51.244C50.575 70.0039 50.0342 69.4071 50.0342 68.6687V49.9765C50.0342 49.2382 50.575 48.6414 51.244 48.6414H106.876C107.545 48.6414 108.086 49.2382 108.086 49.9765V68.6687C108.086 69.4071 107.545 70.0039 106.876 70.0039ZM52.4538 67.3336H105.667V51.3117H52.4538V67.3336Z" fill="#4274FE"/>
<path d="M65.7641 78.0121H53.6659C52.9968 78.0121 52.4561 77.4153 52.4561 76.6769V68.6687C52.4561 67.9303 52.9968 67.3335 53.6659 67.3335H65.7653C66.4343 67.3335 66.9751 67.9303 66.9751 68.6687V76.6769C66.9739 77.4153 66.4331 78.0121 65.7641 78.0121ZM54.8757 75.3418H64.5555V70.0038H54.8757V75.3418Z" fill="#4274FE"/>
<path d="M104.455 78.0121H92.3553C91.6863 78.0121 91.1455 77.4153 91.1455 76.6769V68.6687C91.1455 67.9303 91.6863 67.3335 92.3553 67.3335H104.455C105.124 67.3335 105.665 67.9303 105.665 68.6687V76.6769C105.665 77.4153 105.124 78.0121 104.455 78.0121ZM93.5652 75.3418H103.245V70.0038H93.5652V75.3418Z" fill="#4274FE"/>
<path d="M51.2449 51.3116C50.8892 51.3116 50.5372 51.1394 50.2988 50.8096C49.8814 50.2328 49.9673 49.3917 50.4888 48.9337L56.5379 43.6064C57.0617 43.1445 57.8215 43.2419 58.2377 43.816C58.6551 44.3928 58.5692 45.234 58.0477 45.6919L51.9986 51.0192C51.7748 51.2168 51.5087 51.3116 51.2449 51.3116Z" fill="#4274FE"/>
<path d="M106.875 51.3115C106.61 51.3115 106.345 51.2167 106.121 51.0191L100.072 45.6918C99.5495 45.2325 99.4648 44.3914 99.8822 43.8159C100.298 43.2405 101.061 43.1457 101.582 43.6063L107.631 48.9336C108.154 49.3929 108.238 50.234 107.821 50.8095C107.583 51.1393 107.231 51.3115 106.875 51.3115Z" fill="#4274FE"/>
<path d="M100.827 45.984H57.2928C56.6238 45.984 56.083 45.3872 56.083 44.6489C56.083 43.9105 56.6238 43.3137 57.2928 43.3137H100.827C101.496 43.3137 102.037 43.9105 102.037 44.6489C102.037 45.3872 101.496 45.984 100.827 45.984Z" fill="#4274FE"/>
<path d="M91.1542 63.3283C90.4851 63.3283 89.9443 62.7315 89.9443 61.9931C89.9443 57.5751 93.2 53.9822 97.2033 53.9822C97.8723 53.9822 98.4131 54.579 98.4131 55.3173C98.4131 56.0557 97.8723 56.6525 97.2033 56.6525C94.5344 56.6525 92.364 59.0478 92.364 61.9931C92.364 62.7315 91.8232 63.3283 91.1542 63.3283Z" fill="#4274FE"/>
<path d="M95.9872 63.3283C95.3181 63.3283 94.7773 62.7315 94.7773 61.9931C94.7773 61.2548 95.3181 60.658 95.9872 60.658C98.656 60.658 100.826 58.2627 100.826 55.3173C100.826 54.579 101.367 53.9822 102.036 53.9822C102.705 53.9822 103.246 54.579 103.246 55.3173C103.246 59.7354 99.9905 63.3283 95.9872 63.3283Z" fill="#4274FE"/>
<path d="M102.036 56.6525H97.203C96.534 56.6525 95.9932 56.0557 95.9932 55.3173C95.9932 54.579 96.534 53.9822 97.203 53.9822H102.036C102.705 53.9822 103.246 54.579 103.246 55.3173C103.246 56.0557 102.705 56.6525 102.036 56.6525Z" fill="#4274FE"/>
<path d="M95.9874 63.328H91.1542C90.4851 63.328 89.9443 62.7312 89.9443 61.9929C89.9443 61.2545 90.4851 60.6577 91.1542 60.6577H95.9874C96.6564 60.6577 97.1972 61.2545 97.1972 61.9929C97.1972 62.7312 96.6564 63.328 95.9874 63.328Z" fill="#4274FE"/>
<path d="M66.9669 63.3283C66.2979 63.3283 65.7571 62.7315 65.7571 61.9931C65.7571 59.0478 63.5867 56.6525 60.9178 56.6525C60.2488 56.6525 59.708 56.0557 59.708 55.3173C59.708 54.579 60.2488 53.9822 60.9178 53.9822C64.9211 53.9822 68.1768 57.5751 68.1768 61.9931C68.1768 62.7315 67.6348 63.3283 66.9669 63.3283Z" fill="#4274FE"/>
<path d="M62.1339 63.3283C58.1306 63.3283 54.875 59.7354 54.875 55.3173C54.875 54.579 55.4158 53.9822 56.0848 53.9822C56.7539 53.9822 57.2946 54.579 57.2946 55.3173C57.2946 58.2627 59.4651 60.658 62.1339 60.658C62.803 60.658 63.3438 61.2548 63.3438 61.9931C63.3438 62.7315 62.8018 63.3283 62.1339 63.3283Z" fill="#4274FE"/>
<path d="M60.9181 56.6525H56.0848C55.4158 56.6525 54.875 56.0557 54.875 55.3173C54.875 54.579 55.4158 53.9822 56.0848 53.9822H60.9181C61.5871 53.9822 62.1279 54.579 62.1279 55.3173C62.1279 56.0557 61.5859 56.6525 60.9181 56.6525Z" fill="#4274FE"/>
<path d="M66.9669 63.328H62.1336C61.4646 63.328 60.9238 62.7312 60.9238 61.9929C60.9238 61.2545 61.4646 60.6577 62.1336 60.6577H66.9669C67.6359 60.6577 68.1767 61.2545 68.1767 61.9929C68.1767 62.7312 67.6347 63.328 66.9669 63.328Z" fill="#4274FE"/>
<path d="M77.8555 64.6686C73.1868 64.6686 69.3867 60.4748 69.3867 55.3225C69.3867 54.5841 69.9275 53.9873 70.5965 53.9873C71.2656 53.9873 71.8064 54.5841 71.8064 55.3225C71.8064 59.0035 74.52 61.9983 77.8555 61.9983C78.5245 61.9983 79.0653 62.5951 79.0653 63.3334C79.0653 64.0718 78.5233 64.6686 77.8555 64.6686Z" fill="#4274FE"/>
<path d="M80.2655 64.6686C79.5965 64.6686 79.0557 64.0718 79.0557 63.3334C79.0557 62.5951 79.5965 61.9983 80.2655 61.9983C83.601 61.9983 86.3146 59.0035 86.3146 55.3225C86.3146 54.5841 86.8554 53.9873 87.5244 53.9873C88.1934 53.9873 88.7342 54.5841 88.7342 55.3225C88.7342 60.4748 84.9342 64.6686 80.2655 64.6686Z" fill="#4274FE"/>
<path d="M80.2651 64.6711H77.8612C77.1922 64.6711 76.6514 64.0742 76.6514 63.3359C76.6514 62.5975 77.1922 62.0007 77.8612 62.0007H80.2651C80.9341 62.0007 81.4749 62.5975 81.4749 63.3359C81.4749 64.0742 80.9341 64.6711 80.2651 64.6711Z" fill="#4274FE"/>
<path d="M87.5244 56.6576H70.5965C69.9275 56.6576 69.3867 56.0608 69.3867 55.3225C69.3867 54.5841 69.9275 53.9873 70.5965 53.9873H87.5244C88.1934 53.9873 88.7342 54.5841 88.7342 55.3225C88.7342 56.0608 88.1934 56.6576 87.5244 56.6576Z" fill="#4274FE"/>
<path d="M86.5581 60.663H71.5624C70.8933 60.663 70.3525 60.0662 70.3525 59.3278C70.3525 58.5895 70.8933 57.9927 71.5624 57.9927H86.5581C87.2271 57.9927 87.7679 58.5895 87.7679 59.3278C87.7679 60.0662 87.2271 60.663 86.5581 60.663Z" fill="#4274FE"/>
<path d="M57.2928 31.2975C56.6238 31.2975 56.083 30.7007 56.083 29.9624C56.083 25.5443 59.3386 21.9514 63.3419 21.9514C64.011 21.9514 64.5517 22.5482 64.5517 23.2866C64.5517 24.0249 64.011 24.6217 63.3419 24.6217C60.6731 24.6217 58.5026 27.017 58.5026 29.9624C58.5026 30.7007 57.9606 31.2975 57.2928 31.2975Z" fill="#4274FE"/>
<path d="M60.9227 31.2974C60.2537 31.2974 59.7129 30.7006 59.7129 29.9623C59.7129 27.7539 61.3413 25.9568 63.3424 25.9568C64.0114 25.9568 64.5522 26.5536 64.5522 27.2919C64.5522 28.0303 64.0114 28.6271 63.3424 28.6271C62.6745 28.6271 62.1325 29.2253 62.1325 29.9623C62.1325 30.7006 61.5905 31.2974 60.9227 31.2974Z" fill="#4274FE"/>
<path d="M57.2928 45.984C56.6238 45.984 56.083 45.3872 56.083 44.6489V29.9621C56.083 29.2238 56.6238 28.627 57.2928 28.627C57.9619 28.627 58.5027 29.2238 58.5027 29.9621V44.6489C58.5027 45.3872 57.9607 45.984 57.2928 45.984Z" fill="#4274FE"/>
<path d="M60.9227 45.984C60.2537 45.984 59.7129 45.3872 59.7129 44.6489V29.9621C59.7129 29.2238 60.2537 28.627 60.9227 28.627C61.5917 28.627 62.1325 29.2238 62.1325 29.9621V44.6489C62.1325 45.3872 61.5905 45.984 60.9227 45.984Z" fill="#4274FE"/>
<path d="M100.827 31.2975C100.158 31.2975 99.6175 30.7007 99.6175 29.9624C99.6175 27.017 97.447 24.6217 94.7782 24.6217C94.1091 24.6217 93.5684 24.0249 93.5684 23.2866C93.5684 22.5482 94.1091 21.9514 94.7782 21.9514C98.7815 21.9514 102.037 25.5443 102.037 29.9624C102.037 30.7007 101.496 31.2975 100.827 31.2975Z" fill="#4274FE"/>
<path d="M97.1978 31.2974C96.5288 31.2974 95.988 30.7006 95.988 29.9623C95.988 29.2253 95.446 28.6271 94.7782 28.6271C94.1091 28.6271 93.5684 28.0303 93.5684 27.2919C93.5684 26.5536 94.1091 25.9568 94.7782 25.9568C96.7792 25.9568 98.4076 27.7539 98.4076 29.9623C98.4076 30.7006 97.8669 31.2974 97.1978 31.2974Z" fill="#4274FE"/>
<path d="M100.827 45.984C100.158 45.984 99.6172 45.3872 99.6172 44.6489V29.9621C99.6172 29.2238 100.158 28.627 100.827 28.627C101.496 28.627 102.037 29.2238 102.037 29.9621V44.6489C102.037 45.3872 101.496 45.984 100.827 45.984Z" fill="#4274FE"/>
<path d="M97.1971 45.984C96.5281 45.984 95.9873 45.3872 95.9873 44.6489V29.9621C95.9873 29.2238 96.5281 28.627 97.1971 28.627C97.8662 28.627 98.4069 29.2238 98.4069 29.9621V44.6489C98.4069 45.3872 97.8662 45.984 97.1971 45.984Z" fill="#4274FE"/>
<path d="M94.7786 24.6217H63.3426C62.6736 24.6217 62.1328 24.0249 62.1328 23.2866C62.1328 22.5482 62.6736 21.9514 63.3426 21.9514H94.7786C95.4477 21.9514 95.9885 22.5482 95.9885 23.2866C95.9885 24.0249 95.4477 24.6217 94.7786 24.6217Z" fill="#4274FE"/>
<path d="M94.7786 28.6295H63.3426C62.6736 28.6295 62.1328 28.0327 62.1328 27.2944C62.1328 26.556 62.6736 25.9592 63.3426 25.9592H94.7786C95.4477 25.9592 95.9885 26.556 95.9885 27.2944C95.9885 28.0327 95.4477 28.6295 94.7786 28.6295Z" fill="#4274FE"/>
<path d="M116.552 78.0117H41.5428C40.8738 78.0117 40.333 77.4149 40.333 76.6766C40.333 75.9382 40.8738 75.3414 41.5428 75.3414H116.552C117.221 75.3414 117.762 75.9382 117.762 76.6766C117.762 77.4149 117.221 78.0117 116.552 78.0117Z" fill="#4274FE"/>
</svg>
