<svg width="156" height="110" viewBox="0 0 156 110" fill="none" xmlns="http://www.w3.org/2000/svg">
<path d="M32.6819 92.4691V101H31.2112V92.4691H32.6819ZM35.9198 96.014V101H34.5077V94.6605H35.8378L35.9198 96.014ZM35.6678 97.5961L35.2108 97.5902C35.2147 97.141 35.2772 96.7289 35.3983 96.3539C35.5233 95.9789 35.6952 95.6566 35.9139 95.3871C36.1366 95.1176 36.4022 94.9105 36.7108 94.766C37.0194 94.6176 37.3631 94.5433 37.7421 94.5433C38.0467 94.5433 38.3221 94.5863 38.5682 94.6722C38.8182 94.7543 39.0311 94.889 39.2069 95.0765C39.3866 95.264 39.5233 95.5082 39.6171 95.809C39.7108 96.1058 39.7577 96.4711 39.7577 96.9047V101H38.3397V96.8988C38.3397 96.5941 38.2948 96.3539 38.2049 96.1781C38.119 95.9984 37.9921 95.8715 37.8241 95.7972C37.66 95.7191 37.4549 95.6801 37.2089 95.6801C36.9667 95.6801 36.7499 95.7308 36.5585 95.8324C36.3671 95.934 36.2049 96.0726 36.0721 96.2484C35.9432 96.4242 35.8436 96.6273 35.7733 96.8578C35.703 97.0883 35.6678 97.3344 35.6678 97.5961ZM44.2553 94.6605V95.6918H40.6811V94.6605H44.2553ZM41.7124 93.1078H43.1245V99.2484C43.1245 99.4437 43.1518 99.5941 43.2065 99.6996C43.2651 99.8011 43.3452 99.8695 43.4467 99.9047C43.5483 99.9398 43.6674 99.9574 43.8042 99.9574C43.9018 99.9574 43.9956 99.9515 44.0854 99.9398C44.1753 99.9281 44.2475 99.9164 44.3022 99.9047L44.3081 100.983C44.1909 101.018 44.0542 101.049 43.8979 101.077C43.7456 101.104 43.5698 101.118 43.3706 101.118C43.0463 101.118 42.7592 101.061 42.5092 100.948C42.2592 100.83 42.0639 100.641 41.9233 100.379C41.7827 100.118 41.7124 99.7699 41.7124 99.3363V93.1078ZM48.2901 101.118C47.8214 101.118 47.3975 101.041 47.0186 100.889C46.6436 100.733 46.3233 100.516 46.0577 100.239C45.796 99.9613 45.5948 99.6351 45.4542 99.2601C45.3135 98.8851 45.2432 98.4808 45.2432 98.0472V97.8129C45.2432 97.3168 45.3155 96.8676 45.46 96.4652C45.6046 96.0629 45.8057 95.7191 46.0635 95.434C46.3214 95.1449 46.626 94.9242 46.9776 94.7719C47.3292 94.6195 47.71 94.5433 48.1202 94.5433C48.5733 94.5433 48.9698 94.6195 49.3096 94.7719C49.6495 94.9242 49.9307 95.139 50.1534 95.4164C50.3799 95.6898 50.5479 96.016 50.6573 96.3949C50.7706 96.7738 50.8272 97.1918 50.8272 97.6488V98.2523H45.9288V97.2386H49.4327V97.1273C49.4249 96.8734 49.3741 96.6351 49.2803 96.4125C49.1905 96.1898 49.0518 96.0101 48.8643 95.8734C48.6768 95.7367 48.4268 95.6683 48.1143 95.6683C47.8799 95.6683 47.671 95.7191 47.4874 95.8207C47.3077 95.9183 47.1573 96.0609 47.0362 96.2484C46.9151 96.4359 46.8214 96.6625 46.7549 96.9281C46.6924 97.1898 46.6612 97.4847 46.6612 97.8129V98.0472C46.6612 98.3246 46.6983 98.5824 46.7725 98.8207C46.8506 99.0551 46.9639 99.2601 47.1124 99.4359C47.2608 99.6117 47.4405 99.7504 47.6514 99.8519C47.8624 99.9496 48.1026 99.9984 48.3721 99.9984C48.712 99.9984 49.0147 99.9301 49.2803 99.7933C49.546 99.6566 49.7764 99.4633 49.9717 99.2133L50.7159 99.934C50.5792 100.133 50.4014 100.325 50.1827 100.508C49.9639 100.688 49.6964 100.834 49.3799 100.948C49.0674 101.061 48.7042 101.118 48.2901 101.118ZM53.4967 95.8676V101H52.0846V94.6605H53.4323L53.4967 95.8676ZM55.4362 94.6195L55.4245 95.932C55.3385 95.9164 55.2448 95.9047 55.1432 95.8969C55.0456 95.889 54.9479 95.8851 54.8503 95.8851C54.6081 95.8851 54.3952 95.9203 54.2116 95.9906C54.028 96.057 53.8737 96.1547 53.7487 96.2836C53.6276 96.4086 53.5339 96.5609 53.4674 96.7406C53.401 96.9203 53.362 97.1215 53.3503 97.3441L53.028 97.3676C53.028 96.9691 53.0671 96.6 53.1452 96.2601C53.2233 95.9203 53.3405 95.6215 53.4967 95.3636C53.6569 95.1058 53.8561 94.9047 54.0944 94.7601C54.3366 94.6156 54.6159 94.5433 54.9323 94.5433C55.0182 94.5433 55.11 94.5511 55.2077 94.5668C55.3092 94.5824 55.3854 94.6 55.4362 94.6195ZM57.9827 94.6605V101H56.5647V94.6605H57.9827ZM56.471 92.9965C56.471 92.7816 56.5413 92.6039 56.6819 92.4633C56.8264 92.3187 57.0256 92.2465 57.2796 92.2465C57.5296 92.2465 57.7268 92.3187 57.8713 92.4633C58.0159 92.6039 58.0881 92.7816 58.0881 92.9965C58.0881 93.2074 58.0159 93.3832 57.8713 93.5238C57.7268 93.6644 57.5296 93.7347 57.2796 93.7347C57.0256 93.7347 56.8264 93.6644 56.6819 93.5238C56.5413 93.3832 56.471 93.2074 56.471 92.9965ZM59.41 97.9008V97.766C59.41 97.309 59.4764 96.8851 59.6092 96.4945C59.7421 96.1 59.9335 95.7582 60.1835 95.4691C60.4374 95.1761 60.746 94.9496 61.1092 94.7894C61.4764 94.6254 61.8905 94.5433 62.3514 94.5433C62.8163 94.5433 63.2303 94.6254 63.5936 94.7894C63.9608 94.9496 64.2713 95.1761 64.5253 95.4691C64.7792 95.7582 64.9725 96.1 65.1053 96.4945C65.2381 96.8851 65.3046 97.309 65.3046 97.766V97.9008C65.3046 98.3578 65.2381 98.7816 65.1053 99.1722C64.9725 99.5629 64.7792 99.9047 64.5253 100.198C64.2713 100.487 63.9628 100.713 63.5995 100.877C63.2362 101.037 62.8241 101.118 62.3631 101.118C61.8983 101.118 61.4823 101.037 61.1151 100.877C60.7518 100.713 60.4432 100.487 60.1893 100.198C59.9354 99.9047 59.7421 99.5629 59.6092 99.1722C59.4764 98.7816 59.41 98.3578 59.41 97.9008ZM60.8221 97.766V97.9008C60.8221 98.1859 60.8514 98.4554 60.91 98.7094C60.9686 98.9633 61.0604 99.1859 61.1854 99.3773C61.3104 99.5687 61.4706 99.7191 61.6659 99.8285C61.8612 99.9379 62.0936 99.9926 62.3631 99.9926C62.6249 99.9926 62.8514 99.9379 63.0428 99.8285C63.2381 99.7191 63.3983 99.5687 63.5233 99.3773C63.6483 99.1859 63.7401 98.9633 63.7987 98.7094C63.8612 98.4554 63.8924 98.1859 63.8924 97.9008V97.766C63.8924 97.4847 63.8612 97.2191 63.7987 96.9691C63.7401 96.7152 63.6463 96.4906 63.5174 96.2953C63.3924 96.1 63.2323 95.9476 63.037 95.8383C62.8456 95.725 62.6171 95.6683 62.3514 95.6683C62.0858 95.6683 61.8553 95.725 61.66 95.8383C61.4686 95.9476 61.3104 96.1 61.1854 96.2953C61.0604 96.4906 60.9686 96.7152 60.91 96.9691C60.8514 97.2191 60.8221 97.4847 60.8221 97.766ZM68.0561 95.8676V101H66.644V94.6605H67.9917L68.0561 95.8676ZM69.9956 94.6195L69.9838 95.932C69.8979 95.9164 69.8042 95.9047 69.7026 95.8969C69.6049 95.889 69.5073 95.8851 69.4096 95.8851C69.1674 95.8851 68.9546 95.9203 68.771 95.9906C68.5874 96.057 68.4331 96.1547 68.3081 96.2836C68.187 96.4086 68.0932 96.5609 68.0268 96.7406C67.9604 96.9203 67.9213 97.1215 67.9096 97.3441L67.5874 97.3676C67.5874 96.9691 67.6264 96.6 67.7046 96.2601C67.7827 95.9203 67.8999 95.6215 68.0561 95.3636C68.2163 95.1058 68.4155 94.9047 68.6538 94.7601C68.896 94.6156 69.1753 94.5433 69.4917 94.5433C69.5776 94.5433 69.6694 94.5511 69.7671 94.5668C69.8686 94.5824 69.9448 94.6 69.9956 94.6195ZM79.3483 98.223H80.8131C80.7663 98.7816 80.61 99.2797 80.3444 99.7172C80.0788 100.151 79.7057 100.493 79.2253 100.743C78.7448 100.993 78.1608 101.118 77.4733 101.118C76.946 101.118 76.4713 101.024 76.0495 100.836C75.6276 100.645 75.2663 100.375 74.9655 100.028C74.6647 99.6761 74.4342 99.2523 74.2741 98.7562C74.1178 98.2601 74.0397 97.7054 74.0397 97.0922V96.3832C74.0397 95.7699 74.1198 95.2152 74.2799 94.7191C74.444 94.223 74.6784 93.7992 74.9831 93.4476C75.2878 93.0922 75.653 92.8207 76.0788 92.6332C76.5085 92.4457 76.9909 92.3519 77.526 92.3519C78.2057 92.3519 78.7799 92.4769 79.2487 92.7269C79.7174 92.9769 80.0807 93.3226 80.3385 93.764C80.6003 94.2054 80.7604 94.7113 80.819 95.2816H79.3542C79.3151 94.9144 79.2292 94.6 79.0963 94.3383C78.9674 94.0765 78.776 93.8773 78.5221 93.7406C78.2682 93.6 77.9362 93.5297 77.526 93.5297C77.1901 93.5297 76.8971 93.5922 76.6471 93.7172C76.3971 93.8422 76.1881 94.0258 76.0202 94.2679C75.8522 94.5101 75.7253 94.809 75.6393 95.1644C75.5573 95.516 75.5163 95.9183 75.5163 96.3715V97.0922C75.5163 97.5219 75.5534 97.9125 75.6276 98.264C75.7057 98.6117 75.8229 98.9105 75.9792 99.1605C76.1393 99.4105 76.3424 99.6039 76.5885 99.7406C76.8346 99.8773 77.1295 99.9457 77.4733 99.9457C77.8913 99.9457 78.2292 99.8793 78.487 99.7465C78.7487 99.6136 78.946 99.4203 79.0788 99.1664C79.2155 98.9086 79.3053 98.5941 79.3483 98.223ZM85.7327 99.7289V96.7054C85.7327 96.4789 85.6917 96.2836 85.6096 96.1195C85.5276 95.9554 85.4026 95.8285 85.2346 95.7386C85.0706 95.6488 84.8635 95.6039 84.6135 95.6039C84.3831 95.6039 84.1839 95.6429 84.0159 95.7211C83.8479 95.7992 83.7171 95.9047 83.6233 96.0375C83.5296 96.1703 83.4827 96.3207 83.4827 96.4886H82.0764C82.0764 96.2386 82.137 95.9965 82.2581 95.7621C82.3792 95.5277 82.5549 95.3187 82.7854 95.1351C83.0159 94.9515 83.2913 94.807 83.6116 94.7015C83.9319 94.5961 84.2913 94.5433 84.6897 94.5433C85.1663 94.5433 85.5882 94.6234 85.9553 94.7836C86.3264 94.9437 86.6174 95.1859 86.8284 95.5101C87.0432 95.8304 87.1507 96.2328 87.1507 96.7172V99.5355C87.1507 99.8246 87.1702 100.084 87.2092 100.315C87.2522 100.541 87.3128 100.739 87.3909 100.907V101H85.9436C85.8772 100.848 85.8245 100.655 85.7854 100.42C85.7503 100.182 85.7327 99.9515 85.7327 99.7289ZM85.9378 97.1449L85.9495 98.0179H84.9358C84.6741 98.0179 84.4436 98.0433 84.2444 98.0941C84.0452 98.141 83.8792 98.2113 83.7464 98.3051C83.6135 98.3988 83.5139 98.5121 83.4475 98.6449C83.3811 98.7777 83.3479 98.9281 83.3479 99.0961C83.3479 99.264 83.387 99.4183 83.4651 99.559C83.5432 99.6957 83.6565 99.8031 83.8049 99.8812C83.9573 99.9594 84.1409 99.9984 84.3557 99.9984C84.6448 99.9984 84.8967 99.9398 85.1116 99.8226C85.3303 99.7015 85.5022 99.5551 85.6272 99.3832C85.7522 99.2074 85.8186 99.0414 85.8264 98.8851L86.2835 99.5121C86.2366 99.6722 86.1565 99.8441 86.0432 100.028C85.9299 100.211 85.7815 100.387 85.5979 100.555C85.4182 100.719 85.2014 100.854 84.9475 100.959C84.6975 101.065 84.4085 101.118 84.0803 101.118C83.6663 101.118 83.2971 101.036 82.9729 100.871C82.6487 100.703 82.3948 100.479 82.2112 100.198C82.0276 99.9125 81.9358 99.5902 81.9358 99.2308C81.9358 98.8949 81.9983 98.598 82.1233 98.3402C82.2522 98.0785 82.4397 97.8597 82.6858 97.684C82.9358 97.5082 83.2405 97.3754 83.5999 97.2855C83.9592 97.1918 84.3694 97.1449 84.8303 97.1449H85.9378ZM90.1952 95.8676V101H88.7831V94.6605H90.1307L90.1952 95.8676ZM92.1346 94.6195L92.1229 95.932C92.037 95.9164 91.9432 95.9047 91.8417 95.8969C91.744 95.889 91.6463 95.8851 91.5487 95.8851C91.3065 95.8851 91.0936 95.9203 90.91 95.9906C90.7264 96.057 90.5721 96.1547 90.4471 96.2836C90.326 96.4086 90.2323 96.5609 90.1659 96.7406C90.0995 96.9203 90.0604 97.1215 90.0487 97.3441L89.7264 97.3676C89.7264 96.9691 89.7655 96.6 89.8436 96.2601C89.9217 95.9203 90.0389 95.6215 90.1952 95.3636C90.3553 95.1058 90.5546 94.9047 90.7928 94.7601C91.035 94.6156 91.3143 94.5433 91.6307 94.5433C91.7167 94.5433 91.8085 94.5511 91.9061 94.5668C92.0077 94.5824 92.0838 94.6 92.1346 94.6195ZM98.587 99.0844L100.286 92.4691H101.177L101.077 94.1742L99.2608 101H98.335L98.587 99.0844ZM97.3155 92.4691L98.6924 99.0316L98.8155 101H97.8311L95.8565 92.4691H97.3155ZM103.105 99.014L104.464 92.4691H105.929L103.954 101H102.97L103.105 99.014ZM101.523 92.4691L103.204 99.1019L103.45 101H102.524L100.737 94.1742L100.644 92.4691H101.523ZM110.403 99.7289V96.7054C110.403 96.4789 110.362 96.2836 110.28 96.1195C110.198 95.9554 110.073 95.8285 109.905 95.7386C109.741 95.6488 109.534 95.6039 109.284 95.6039C109.053 95.6039 108.854 95.6429 108.686 95.7211C108.518 95.7992 108.387 95.9047 108.294 96.0375C108.2 96.1703 108.153 96.3207 108.153 96.4886H106.747C106.747 96.2386 106.807 95.9965 106.928 95.7621C107.049 95.5277 107.225 95.3187 107.456 95.1351C107.686 94.9515 107.962 94.807 108.282 94.7015C108.602 94.5961 108.962 94.5433 109.36 94.5433C109.837 94.5433 110.258 94.6234 110.626 94.7836C110.997 94.9437 111.288 95.1859 111.499 95.5101C111.714 95.8304 111.821 96.2328 111.821 96.7172V99.5355C111.821 99.8246 111.84 100.084 111.88 100.315C111.923 100.541 111.983 100.739 112.061 100.907V101H110.614C110.548 100.848 110.495 100.655 110.456 100.42C110.421 100.182 110.403 99.9515 110.403 99.7289ZM110.608 97.1449L110.62 98.0179H109.606C109.344 98.0179 109.114 98.0433 108.915 98.0941C108.715 98.141 108.549 98.2113 108.417 98.3051C108.284 98.3988 108.184 98.5121 108.118 98.6449C108.051 98.7777 108.018 98.9281 108.018 99.0961C108.018 99.264 108.057 99.4183 108.135 99.559C108.214 99.6957 108.327 99.8031 108.475 99.8812C108.628 99.9594 108.811 99.9984 109.026 99.9984C109.315 99.9984 109.567 99.9398 109.782 99.8226C110.001 99.7015 110.173 99.5551 110.298 99.3832C110.423 99.2074 110.489 99.0414 110.497 98.8851L110.954 99.5121C110.907 99.6722 110.827 99.8441 110.714 100.028C110.6 100.211 110.452 100.387 110.268 100.555C110.089 100.719 109.872 100.854 109.618 100.959C109.368 101.065 109.079 101.118 108.751 101.118C108.337 101.118 107.967 101.036 107.643 100.871C107.319 100.703 107.065 100.479 106.882 100.198C106.698 99.9125 106.606 99.5902 106.606 99.2308C106.606 98.8949 106.669 98.598 106.794 98.3402C106.923 98.0785 107.11 97.8597 107.356 97.684C107.606 97.5082 107.911 97.3754 108.27 97.2855C108.63 97.1918 109.04 97.1449 109.501 97.1449H110.608ZM117.004 99.2836C117.004 99.1429 116.969 99.016 116.899 98.9027C116.828 98.7855 116.694 98.6801 116.494 98.5863C116.299 98.4926 116.01 98.4066 115.627 98.3285C115.291 98.2543 114.983 98.1664 114.701 98.0648C114.424 97.9594 114.186 97.8324 113.987 97.684C113.787 97.5355 113.633 97.3597 113.524 97.1566C113.414 96.9535 113.36 96.7191 113.36 96.4535C113.36 96.1957 113.416 95.9515 113.53 95.7211C113.643 95.4906 113.805 95.2875 114.016 95.1117C114.227 94.9359 114.483 94.7972 114.783 94.6957C115.088 94.5941 115.428 94.5433 115.803 94.5433C116.334 94.5433 116.789 94.6332 117.168 94.8129C117.551 94.9886 117.844 95.2289 118.047 95.5336C118.25 95.8344 118.352 96.1742 118.352 96.5531H116.94C116.94 96.3851 116.897 96.2289 116.811 96.0844C116.729 95.9359 116.604 95.8168 116.436 95.7269C116.268 95.6332 116.057 95.5863 115.803 95.5863C115.561 95.5863 115.36 95.6254 115.199 95.7035C115.043 95.7777 114.926 95.8754 114.848 95.9965C114.774 96.1176 114.737 96.2504 114.737 96.3949C114.737 96.5004 114.756 96.5961 114.795 96.682C114.838 96.764 114.908 96.8402 115.006 96.9105C115.104 96.9769 115.237 97.0394 115.405 97.098C115.576 97.1566 115.791 97.2133 116.049 97.2679C116.533 97.3695 116.949 97.5004 117.297 97.6605C117.649 97.8168 117.918 98.0199 118.106 98.2699C118.293 98.516 118.387 98.8285 118.387 99.2074C118.387 99.4886 118.326 99.7465 118.205 99.9808C118.088 100.211 117.916 100.412 117.69 100.584C117.463 100.752 117.192 100.883 116.875 100.977C116.563 101.071 116.211 101.118 115.821 101.118C115.246 101.118 114.76 101.016 114.362 100.813C113.963 100.606 113.66 100.342 113.453 100.022C113.25 99.6976 113.149 99.3617 113.149 99.014H114.514C114.53 99.2758 114.602 99.4847 114.731 99.641C114.864 99.7933 115.028 99.9047 115.223 99.975C115.422 100.041 115.627 100.075 115.838 100.075C116.092 100.075 116.305 100.041 116.477 99.975C116.649 99.9047 116.78 99.8109 116.869 99.6937C116.959 99.5726 117.004 99.4359 117.004 99.2836ZM121.168 92.0004V101H119.762V92.0004H121.168ZM120.922 97.5961L120.465 97.5902C120.469 97.1527 120.529 96.7484 120.646 96.3773C120.767 96.0062 120.935 95.684 121.15 95.4105C121.369 95.1332 121.631 94.9203 121.935 94.7719C122.24 94.6195 122.578 94.5433 122.949 94.5433C123.262 94.5433 123.543 94.5863 123.793 94.6722C124.047 94.7582 124.265 94.8969 124.449 95.0883C124.633 95.2758 124.771 95.5219 124.865 95.8265C124.963 96.1273 125.012 96.4945 125.012 96.9281V101H123.594V96.9164C123.594 96.6117 123.549 96.3695 123.459 96.1898C123.373 96.0101 123.246 95.8812 123.078 95.8031C122.91 95.7211 122.705 95.6801 122.463 95.6801C122.209 95.6801 121.984 95.7308 121.789 95.8324C121.598 95.934 121.437 96.0726 121.308 96.2484C121.18 96.4242 121.082 96.6273 121.015 96.8578C120.953 97.0883 120.922 97.3344 120.922 97.5961Z" fill="#5084FC"/>
<path d="M45.3508 44.6111C44.6821 44.6111 44.1416 44.0146 44.1416 43.2767V37.9228C44.1416 37.1849 44.6821 36.5884 45.3508 36.5884C46.0195 36.5884 46.56 37.1849 46.56 37.9228V43.2767C46.56 44.0146 46.0183 44.6111 45.3508 44.6111Z" fill="#5084FC"/>
<path d="M46.5602 41.9338H44.1418C43.4731 41.9338 42.9326 41.3373 42.9326 40.5993C42.9326 39.8614 43.4731 39.2649 44.1418 39.2649H46.5602C47.2288 39.2649 47.7693 39.8614 47.7693 40.5993C47.7693 41.3373 47.2276 41.9338 46.5602 41.9338Z" fill="#5084FC"/>
<path d="M50.1897 9.9207C49.521 9.9207 48.9805 9.3242 48.9805 8.58624V3.23241C48.9805 2.49445 49.521 1.89795 50.1897 1.89795C50.8583 1.89795 51.3988 2.49445 51.3988 3.23241V8.58624C51.3988 9.3242 50.8571 9.9207 50.1897 9.9207Z" fill="#5084FC"/>
<path d="M51.399 7.24337H48.9807C48.312 7.24337 47.7715 6.64687 47.7715 5.90892C47.7715 5.17096 48.312 4.57446 48.9807 4.57446H51.399C52.0677 4.57446 52.6082 5.17096 52.6082 5.90892C52.6082 6.64687 52.0665 7.24337 51.399 7.24337Z" fill="#5084FC"/>
<path d="M64.7465 16.5827C64.0778 16.5827 63.5312 15.9862 63.5312 15.2483C63.5312 14.5103 64.0657 13.9138 64.7332 13.9138H64.7465C65.4139 13.9138 65.9557 14.5103 65.9557 15.2483C65.9557 15.9862 65.4127 16.5827 64.7465 16.5827Z" fill="#5084FC"/>
<path d="M45.3891 25.9231C44.7204 25.9231 44.1738 25.3266 44.1738 24.5886C44.1738 23.8507 44.7083 23.2542 45.3758 23.2542H45.3891C46.0565 23.2542 46.5982 23.8507 46.5982 24.5886C46.5982 25.3266 46.0565 25.9231 45.3891 25.9231Z" fill="#5084FC"/>
<path d="M81.617 7.24381C78.9495 7.24381 76.7803 4.8498 76.7803 1.90599C76.7803 1.16804 77.3208 0.571533 77.9895 0.571533C78.6581 0.571533 79.1986 1.16804 79.1986 1.90599C79.1986 3.37789 80.2833 4.5749 81.617 4.5749C82.2857 4.5749 82.8262 5.1714 82.8262 5.90936C82.8262 6.64731 82.2857 7.24381 81.617 7.24381Z" fill="#5084FC"/>
<path d="M77.9924 11.2419C77.3237 11.2419 76.7832 10.6454 76.7832 9.90743C76.7832 6.96763 78.9513 4.57495 81.6163 4.57495C82.285 4.57495 82.8255 5.17145 82.8255 5.90941C82.8255 6.64736 82.285 7.24386 81.6163 7.24386C80.2838 7.24386 79.2016 8.43953 79.2016 9.90743C79.2016 10.6454 78.6599 11.2419 77.9924 11.2419Z" fill="#5084FC"/>
<path d="M74.3625 7.24381C73.6938 7.24381 73.1533 6.64731 73.1533 5.90936C73.1533 5.1714 73.6938 4.5749 74.3625 4.5749C75.6962 4.5749 76.7809 3.37789 76.7809 1.90599C76.7809 1.16804 77.3214 0.571533 77.9901 0.571533C78.6587 0.571533 79.1992 1.16804 79.1992 1.90599C79.1992 4.8498 77.03 7.24381 74.3625 7.24381Z" fill="#5084FC"/>
<path d="M77.9864 11.2419C77.3177 11.2419 76.7772 10.6454 76.7772 9.90743C76.7772 8.4382 75.6938 7.24386 74.3625 7.24386C73.6938 7.24386 73.1533 6.64736 73.1533 5.90941C73.1533 5.17145 73.6938 4.57495 74.3625 4.57495C77.0275 4.57495 79.1956 6.96763 79.1956 9.90743C79.1956 10.6454 78.6551 11.2419 77.9864 11.2419Z" fill="#5084FC"/>
<path d="M110.654 44.6111C109.985 44.6111 109.444 44.0146 109.444 43.2767V37.9228C109.444 37.1849 109.985 36.5884 110.654 36.5884C111.322 36.5884 111.863 37.1849 111.863 37.9228V43.2767C111.863 44.0146 111.322 44.6111 110.654 44.6111Z" fill="#5084FC"/>
<path d="M111.863 41.9338H109.445C108.776 41.9338 108.235 41.3373 108.235 40.5993C108.235 39.8614 108.776 39.2649 109.445 39.2649H111.863C112.532 39.2649 113.072 39.8614 113.072 40.5993C113.072 41.3373 112.532 41.9338 111.863 41.9338Z" fill="#5084FC"/>
<path d="M105.815 9.9207C105.146 9.9207 104.605 9.3242 104.605 8.58624V3.23241C104.605 2.49445 105.146 1.89795 105.815 1.89795C106.483 1.89795 107.024 2.49445 107.024 3.23241V8.58624C107.024 9.3242 106.482 9.9207 105.815 9.9207Z" fill="#5084FC"/>
<path d="M107.024 7.24337H104.606C103.937 7.24337 103.396 6.64687 103.396 5.90892C103.396 5.17096 103.937 4.57446 104.606 4.57446H107.024C107.693 4.57446 108.233 5.17096 108.233 5.90892C108.233 6.64687 107.692 7.24337 107.024 7.24337Z" fill="#5084FC"/>
<path d="M91.3314 16.5827C90.6628 16.5827 90.1162 15.9862 90.1162 15.2483C90.1162 14.5103 90.6507 13.9138 91.3181 13.9138H91.3314C91.9989 13.9138 92.5406 14.5103 92.5406 15.2483C92.5406 15.9862 91.9989 16.5827 91.3314 16.5827Z" fill="#5084FC"/>
<path d="M110.689 25.9231C110.02 25.9231 109.474 25.3266 109.474 24.5886C109.474 23.8507 110.008 23.2542 110.676 23.2542H110.689C111.356 23.2542 111.898 23.8507 111.898 24.5886C111.898 25.3266 111.356 25.9231 110.689 25.9231Z" fill="#5084FC"/>
<path d="M105.794 69.9555H50.1906C49.522 69.9555 48.9814 69.359 48.9814 68.6211V49.9387C48.9814 49.2007 49.522 48.6042 50.1906 48.6042H105.794C106.462 48.6042 107.003 49.2007 107.003 49.9387V68.6211C107.003 69.359 106.462 69.9555 105.794 69.9555ZM51.3998 67.2866H104.585V51.2732H51.3998V67.2866Z" fill="#5084FC"/>
<path d="M64.7034 77.9593H52.6115C51.9428 77.9593 51.4023 77.3628 51.4023 76.6249V68.6208C51.4023 67.8829 51.9428 67.2864 52.6115 67.2864H64.7046C65.3733 67.2864 65.9138 67.8829 65.9138 68.6208V76.6249C65.9125 77.3628 65.372 77.9593 64.7034 77.9593ZM53.8207 75.2904H63.4954V69.9553H53.8207V75.2904Z" fill="#5084FC"/>
<path d="M103.373 77.9593H91.2795C90.6108 77.9593 90.0703 77.3628 90.0703 76.6249V68.6208C90.0703 67.8829 90.6108 67.2864 91.2795 67.2864H103.373C104.041 67.2864 104.582 67.8829 104.582 68.6208V76.6249C104.582 77.3628 104.041 77.9593 103.373 77.9593ZM92.4887 75.2904H102.163V69.9553H92.4887V75.2904Z" fill="#5084FC"/>
<path d="M50.1915 51.273C49.836 51.273 49.4842 51.1008 49.246 50.7712C48.8288 50.1947 48.9146 49.354 49.4358 48.8963L55.4817 43.5719C56.0053 43.1101 56.7647 43.2075 57.1806 43.7814C57.5978 44.3578 57.5119 45.1986 56.9908 45.6563L50.9449 50.9807C50.7212 51.1782 50.4551 51.273 50.1915 51.273Z" fill="#5084FC"/>
<path d="M105.792 51.2729C105.527 51.2729 105.262 51.1781 105.039 50.9806L98.9928 45.6561C98.4705 45.1971 98.3858 44.3564 98.803 43.7812C99.2189 43.2061 99.9807 43.1113 100.502 43.5717L106.548 48.8962C107.07 49.3553 107.155 50.196 106.738 50.7711C106.499 51.1007 106.148 51.2729 105.792 51.2729Z" fill="#5084FC"/>
<path d="M99.7478 45.9482H56.2365C55.5678 45.9482 55.0273 45.3517 55.0273 44.6138C55.0273 43.8758 55.5678 43.2793 56.2365 43.2793H99.7478C100.416 43.2793 100.957 43.8758 100.957 44.6138C100.957 45.3517 100.416 45.9482 99.7478 45.9482Z" fill="#5084FC"/>
<path d="M90.0793 63.2831C89.4106 63.2831 88.8701 62.6866 88.8701 61.9486C88.8701 57.5329 92.124 53.9419 96.1252 53.9419C96.7939 53.9419 97.3344 54.5384 97.3344 55.2764C97.3344 56.0143 96.7939 56.6108 96.1252 56.6108C93.4578 56.6108 91.2885 59.0048 91.2885 61.9486C91.2885 62.6866 90.748 63.2831 90.0793 63.2831Z" fill="#5084FC"/>
<path d="M94.9094 63.2831C94.2407 63.2831 93.7002 62.6866 93.7002 61.9486C93.7002 61.2107 94.2407 60.6142 94.9094 60.6142C97.5768 60.6142 99.7461 58.2202 99.7461 55.2764C99.7461 54.5384 100.287 53.9419 100.955 53.9419C101.624 53.9419 102.164 54.5384 102.164 55.2764C102.164 59.6921 98.9106 63.2831 94.9094 63.2831Z" fill="#5084FC"/>
<path d="M100.956 56.6108H96.1252C95.4565 56.6108 94.916 56.0143 94.916 55.2764C94.916 54.5384 95.4565 53.9419 96.1252 53.9419H100.956C101.625 53.9419 102.165 54.5384 102.165 55.2764C102.165 56.0143 101.625 56.6108 100.956 56.6108Z" fill="#5084FC"/>
<path d="M94.91 63.2832H90.0793C89.4106 63.2832 88.8701 62.6867 88.8701 61.9487C88.8701 61.2108 89.4106 60.6143 90.0793 60.6143H94.91C95.5787 60.6143 96.1192 61.2108 96.1192 61.9487C96.1192 62.6867 95.5787 63.2832 94.91 63.2832Z" fill="#5084FC"/>
<path d="M65.9045 63.2831C65.2358 63.2831 64.6953 62.6866 64.6953 61.9486C64.6953 59.0048 62.5261 56.6108 59.8586 56.6108C59.1899 56.6108 58.6494 56.0143 58.6494 55.2764C58.6494 54.5384 59.1899 53.9419 59.8586 53.9419C63.8598 53.9419 67.1137 57.5329 67.1137 61.9486C67.1137 62.6866 66.572 63.2831 65.9045 63.2831Z" fill="#5084FC"/>
<path d="M61.0744 63.2831C57.0732 63.2831 53.8193 59.6921 53.8193 55.2764C53.8193 54.5384 54.3598 53.9419 55.0285 53.9419C55.6972 53.9419 56.2377 54.5384 56.2377 55.2764C56.2377 58.2202 58.407 60.6142 61.0744 60.6142C61.7431 60.6142 62.2836 61.2107 62.2836 61.9486C62.2836 62.6866 61.7419 63.2831 61.0744 63.2831Z" fill="#5084FC"/>
<path d="M59.8592 56.6108H55.0285C54.3598 56.6108 53.8193 56.0143 53.8193 55.2764C53.8193 54.5384 54.3598 53.9419 55.0285 53.9419H59.8592C60.5279 53.9419 61.0684 54.5384 61.0684 55.2764C61.0684 56.0143 60.5267 56.6108 59.8592 56.6108Z" fill="#5084FC"/>
<path d="M65.9051 63.2832H61.0744C60.4057 63.2832 59.8652 62.6867 59.8652 61.9487C59.8652 61.2108 60.4057 60.6143 61.0744 60.6143H65.9051C66.5738 60.6143 67.1143 61.2108 67.1143 61.9487C67.1143 62.6867 66.5726 63.2832 65.9051 63.2832Z" fill="#5084FC"/>
<path d="M76.7875 64.6227C72.1213 64.6227 68.3232 60.4311 68.3232 55.2815C68.3232 54.5435 68.8637 53.947 69.5324 53.947C70.2011 53.947 70.7416 54.5435 70.7416 55.2815C70.7416 58.9606 73.4538 61.9538 76.7875 61.9538C77.4562 61.9538 77.9967 62.5503 77.9967 63.2882C77.9967 64.0262 77.455 64.6227 76.7875 64.6227Z" fill="#5084FC"/>
<path d="M79.1965 64.6227C78.5278 64.6227 77.9873 64.0262 77.9873 63.2882C77.9873 62.5503 78.5278 61.9538 79.1965 61.9538C82.5302 61.9538 85.2424 58.9606 85.2424 55.2815C85.2424 54.5435 85.7829 53.947 86.4516 53.947C87.1203 53.947 87.6608 54.5435 87.6608 55.2815C87.6608 60.4311 83.8627 64.6227 79.1965 64.6227Z" fill="#5084FC"/>
<path d="M79.1958 64.6252H76.7932C76.1245 64.6252 75.584 64.0287 75.584 63.2908C75.584 62.5528 76.1245 61.9563 76.7932 61.9563H79.1958C79.8645 61.9563 80.405 62.5528 80.405 63.2908C80.405 64.0287 79.8645 64.6252 79.1958 64.6252Z" fill="#5084FC"/>
<path d="M86.4513 56.6159H69.5324C68.8637 56.6159 68.3232 56.0194 68.3232 55.2815C68.3232 54.5435 68.8637 53.947 69.5324 53.947H86.4513C87.12 53.947 87.6605 54.5435 87.6605 55.2815C87.6605 56.0194 87.12 56.6159 86.4513 56.6159Z" fill="#5084FC"/>
<path d="M85.4861 60.6196H70.4982C69.8296 60.6196 69.2891 60.0231 69.2891 59.2851C69.2891 58.5472 69.8296 57.9507 70.4982 57.9507H85.4861C86.1548 57.9507 86.6953 58.5472 86.6953 59.2851C86.6953 60.0231 86.1548 60.6196 85.4861 60.6196Z" fill="#5084FC"/>
<path d="M56.2365 31.2694C55.5678 31.2694 55.0273 30.6729 55.0273 29.935C55.0273 25.5192 58.2813 21.9282 62.2824 21.9282C62.9511 21.9282 63.4916 22.5247 63.4916 23.2627C63.4916 24.0006 62.9511 24.5971 62.2824 24.5971C59.615 24.5971 57.4457 26.9911 57.4457 29.935C57.4457 30.6729 56.904 31.2694 56.2365 31.2694Z" fill="#5084FC"/>
<path d="M59.8645 31.2695C59.1958 31.2695 58.6553 30.673 58.6553 29.935C58.6553 27.7278 60.2828 25.9316 62.2828 25.9316C62.9515 25.9316 63.492 26.5281 63.492 27.2661C63.492 28.0041 62.9515 28.6006 62.2828 28.6006C61.6154 28.6006 61.0736 29.1984 61.0736 29.935C61.0736 30.673 60.5319 31.2695 59.8645 31.2695Z" fill="#5084FC"/>
<path d="M56.2365 45.9483C55.5678 45.9483 55.0273 45.3518 55.0273 44.6138V29.9348C55.0273 29.1968 55.5678 28.6003 56.2365 28.6003C56.9052 28.6003 57.4457 29.1968 57.4457 29.9348V44.6138C57.4457 45.3518 56.904 45.9483 56.2365 45.9483Z" fill="#5084FC"/>
<path d="M59.8645 45.9483C59.1958 45.9483 58.6553 45.3518 58.6553 44.6138V29.9348C58.6553 29.1968 59.1958 28.6003 59.8645 28.6003C60.5331 28.6003 61.0736 29.1968 61.0736 29.9348V44.6138C61.0736 45.3518 60.5319 45.9483 59.8645 45.9483Z" fill="#5084FC"/>
<path d="M99.7473 31.2694C99.0786 31.2694 98.5381 30.6729 98.5381 29.935C98.5381 26.9911 96.3688 24.5971 93.7014 24.5971C93.0327 24.5971 92.4922 24.0006 92.4922 23.2627C92.4922 22.5247 93.0327 21.9282 93.7014 21.9282C97.7026 21.9282 100.956 25.5192 100.956 29.935C100.956 30.6729 100.416 31.2694 99.7473 31.2694Z" fill="#5084FC"/>
<path d="M96.1197 31.2695C95.4511 31.2695 94.9106 30.673 94.9106 29.935C94.9106 29.1984 94.3688 28.6006 93.7014 28.6006C93.0327 28.6006 92.4922 28.0041 92.4922 27.2661C92.4922 26.5281 93.0327 25.9316 93.7014 25.9316C95.7014 25.9316 97.3289 27.7278 97.3289 29.935C97.3289 30.673 96.7884 31.2695 96.1197 31.2695Z" fill="#5084FC"/>
<path d="M99.7473 45.9483C99.0786 45.9483 98.5381 45.3518 98.5381 44.6138V29.9348C98.5381 29.1968 99.0786 28.6003 99.7473 28.6003C100.416 28.6003 100.956 29.1968 100.956 29.9348V44.6138C100.956 45.3518 100.416 45.9483 99.7473 45.9483Z" fill="#5084FC"/>
<path d="M96.1193 45.9483C95.4507 45.9483 94.9102 45.3518 94.9102 44.6138V29.9348C94.9102 29.1968 95.4507 28.6003 96.1193 28.6003C96.788 28.6003 97.3285 29.1968 97.3285 29.9348V44.6138C97.3285 45.3518 96.788 45.9483 96.1193 45.9483Z" fill="#5084FC"/>
<path d="M93.7019 24.5971H62.2824C61.6137 24.5971 61.0732 24.0006 61.0732 23.2627C61.0732 22.5247 61.6137 21.9282 62.2824 21.9282H93.7019C94.3705 21.9282 94.911 22.5247 94.911 23.2627C94.911 24.0006 94.3705 24.5971 93.7019 24.5971Z" fill="#5084FC"/>
<path d="M93.7019 28.603H62.2824C61.6137 28.603 61.0732 28.0065 61.0732 27.2685C61.0732 26.5306 61.6137 25.9341 62.2824 25.9341H93.7019C94.3705 25.9341 94.911 26.5306 94.911 27.2685C94.911 28.0065 94.3705 28.603 93.7019 28.603Z" fill="#5084FC"/>
<path d="M115.464 77.959H40.4943C39.8257 77.959 39.2852 77.3624 39.2852 76.6245C39.2852 75.8865 39.8257 75.29 40.4943 75.29H115.464C116.132 75.29 116.673 75.8865 116.673 76.6245C116.673 77.3624 116.132 77.959 115.464 77.959Z" fill="#5084FC"/>
</svg>
