<svg width="32" height="32" viewBox="0 0 32 32" fill="none" xmlns="http://www.w3.org/2000/svg">
<path fill-rule="evenodd" clip-rule="evenodd" d="M15.9993 28.0001C22.6267 28.0001 27.9993 22.6274 27.9993 16.0001C27.9993 9.37275 22.6267 4.00008 15.9993 4.00008C9.37202 4.00008 3.99935 9.37275 3.99935 16.0001C3.99935 22.6274 9.37202 28.0001 15.9993 28.0001ZM15.9993 29.3334C23.3633 29.3334 29.3327 23.3641 29.3327 16.0001C29.3327 8.63608 23.3633 2.66675 15.9993 2.66675C8.63535 2.66675 2.66602 8.63608 2.66602 16.0001C2.66602 23.3641 8.63535 29.3334 15.9993 29.3334Z" fill="#140730"/>
<path d="M8 23.7534C8 23.0648 8.51467 22.4828 9.2 22.4068C14.3433 21.8374 17.68 21.8888 22.812 22.4194C23.0683 22.4463 23.3112 22.5473 23.511 22.71C23.7108 22.8727 23.859 23.09 23.9373 23.3355C24.0157 23.581 24.0208 23.844 23.9521 24.0923C23.8835 24.3407 23.744 24.5637 23.5507 24.7341C17.494 30.0134 14.0327 29.9408 8.42667 24.7394C8.15333 24.4861 8 24.1261 8 23.7541V23.7534Z" fill="#140730"/>
<path fill-rule="evenodd" clip-rule="evenodd" d="M22.7427 23.0822C17.6514 22.5555 14.3627 22.5062 9.27203 23.0695C9.10446 23.089 8.94997 23.1697 8.83816 23.296C8.72635 23.4223 8.66506 23.5855 8.66603 23.7542C8.66603 23.9448 8.74536 24.1255 8.87936 24.2508C11.658 26.8282 13.7634 27.9928 15.8214 28.0002C17.8867 28.0075 20.1054 26.8522 23.112 24.2322C23.2075 24.1471 23.2763 24.0362 23.31 23.9128C23.3436 23.7895 23.3407 23.659 23.3016 23.5372C23.2625 23.4155 23.1888 23.3077 23.0896 23.2271C22.9904 23.1464 22.8699 23.0963 22.7427 23.0828V23.0822Z" fill="#140730"/>
<path fill-rule="evenodd" clip-rule="evenodd" d="M9.12537 21.7441C14.3227 21.1688 17.708 21.2208 22.88 21.7561C23.2656 21.7963 23.631 21.9481 23.9316 22.1929C24.2322 22.4376 24.4549 22.7647 24.5725 23.134C24.6901 23.5034 24.6974 23.899 24.5936 24.2725C24.4898 24.646 24.2794 24.9811 23.988 25.2368C20.938 27.8954 18.398 29.3434 15.8167 29.3334C13.228 29.3241 10.8 27.8514 7.9727 25.2281C7.77027 25.0395 7.6089 24.8113 7.49866 24.5575C7.38843 24.3038 7.33171 24.0301 7.33204 23.7534C7.33106 23.2564 7.5135 22.7765 7.84441 22.4056C8.17532 22.0347 8.63143 21.7989 9.12537 21.7434V21.7441Z" fill="#140730"/>
<path d="M21.3327 13.3333C21.3327 14.7478 20.7708 16.1044 19.7706 17.1046C18.7704 18.1048 17.4138 18.6667 15.9993 18.6667C14.5849 18.6667 13.2283 18.1048 12.2281 17.1046C11.2279 16.1044 10.666 14.7478 10.666 13.3333C10.666 11.9188 11.2279 10.5623 12.2281 9.5621C13.2283 8.5619 14.5849 8 15.9993 8C17.4138 8 18.7704 8.5619 19.7706 9.5621C20.7708 10.5623 21.3327 11.9188 21.3327 13.3333Z" fill="#140730"/>
<path fill-rule="evenodd" clip-rule="evenodd" d="M15.9993 17.3333C17.0602 17.3333 18.0776 16.9119 18.8278 16.1618C19.5779 15.4116 19.9993 14.3942 19.9993 13.3333C19.9993 12.2725 19.5779 11.2551 18.8278 10.5049C18.0776 9.75476 17.0602 9.33333 15.9993 9.33333C14.9385 9.33333 13.9211 9.75476 13.1709 10.5049C12.4208 11.2551 11.9993 12.2725 11.9993 13.3333C11.9993 14.3942 12.4208 15.4116 13.1709 16.1618C13.9211 16.9119 14.9385 17.3333 15.9993 17.3333ZM15.9993 18.6667C17.4138 18.6667 18.7704 18.1048 19.7706 17.1046C20.7708 16.1044 21.3327 14.7478 21.3327 13.3333C21.3327 11.9188 20.7708 10.5623 19.7706 9.5621C18.7704 8.5619 17.4138 8 15.9993 8C14.5849 8 13.2283 8.5619 12.2281 9.5621C11.2279 10.5623 10.666 11.9188 10.666 13.3333C10.666 14.7478 11.2279 16.1044 12.2281 17.1046C13.2283 18.1048 14.5849 18.6667 15.9993 18.6667Z" fill="#140730"/>
</svg>
