<svg width="649" height="439" viewBox="0 0 649 439" fill="none" xmlns="http://www.w3.org/2000/svg">
<path d="M646.503 295.22C643.823 305.841 637.885 321.136 632.8 330.461C545.349 490.767 123.645 458.621 24.8248 330.461C-10.7198 285.166 -3.58972 214.947 18.1391 162.331C51.2858 75.855 142.672 50.1027 226.089 62.5646C306.918 71.5641 397.416 -14.841 502.103 2.56324C614.295 21.1995 660.735 188.161 646.503 295.22Z" fill="#FFE0AB"/>
<path d="M645.015 301.473L619.175 300.765L612.179 300.581L607.743 300.46C605.669 300.404 603.998 298.407 603.998 295.999V253.084C603.998 250.676 605.669 248.602 607.743 248.446L648.457 245.26C649.621 265.97 647.984 291.985 645.015 301.473Z" fill="#495F63"/>
<path d="M619.175 330.433H612.179V300.581L619.175 300.772V330.433Z" fill="#5289AF"/>
<path d="M627.144 267.358L608.251 267.797V262.756L627.144 262.168V267.358ZM627.144 271.274L608.251 271.606V276.641L627.144 276.464V271.274ZM627.144 280.379L608.251 280.45V285.492L627.144 285.562V280.379ZM627.144 289.485L608.251 289.294V294.335L627.144 294.668V289.485Z" fill="#FCFFD2"/>
<path d="M639.789 315.223C637.726 320.412 635.393 325.489 632.8 330.433V301.14L639.789 301.331V315.223Z" fill="#5289AF"/>
<path d="M137.326 162.331V331.24H25.4384C25.2269 330.971 25.0294 330.709 24.8249 330.432C19.9866 324.09 15.7128 317.332 12.0528 310.238C10.4018 306.96 8.9877 303.567 7.82127 300.085C3.13135 286.504 0.430237 268.703 0.430237 249.04C0.449192 229.81 2.93327 210.663 7.82127 192.07C10.4848 181.898 13.9467 171.954 18.1743 162.331H137.326Z" fill="#FCFFD2"/>
<path d="M144.724 143.079V339.39H137.326V162.331H18.139C19.3521 159.584 20.6309 156.867 21.9756 154.181C23.8563 150.405 25.8921 146.704 28.0831 143.079H144.724Z" fill="#5084FC"/>
<path d="M7.78596 192.07V300.085C3.09604 286.504 0.394928 268.703 0.394928 249.04C0.413883 229.81 2.89797 210.663 7.78596 192.07Z" fill="#5084FC"/>
<path d="M151.093 134.929V331.24H143.73V154.181H21.9756C25.3084 147.52 29.078 141.088 33.2596 134.929H151.093Z" fill="#140730"/>
<path d="M160.847 139.992V214.65L208.12 214.423V132.061L160.847 139.992Z" fill="#5084FC"/>
<path d="M163.089 145.061V209.205L192.202 208.716L205.418 208.49V138.455L163.089 145.061Z" fill="#FCFFD2"/>
<path d="M211.519 131.495V214.402L270.485 214.119V121.603L211.519 131.495Z" fill="#5084FC"/>
<path d="M214.283 137.074V208.341L238.001 207.952L263.094 207.534L267.086 207.463V128.84L214.283 137.074Z" fill="#FCFFD2"/>
<path d="M274.787 120.881V214.098L350.39 213.722V108.207L274.787 120.881Z" fill="#5084FC"/>
<path d="M322.709 120.18L278.278 127.098V207.272L345.975 206.139V116.548L322.709 120.18Z" fill="#FCFFD2"/>
<path d="M356.398 106.996V212.604L442.044 212.179V92.6362L356.398 106.996Z" fill="#5084FC"/>
<path d="M410.682 106.196L360.348 114.041V204.872L437.044 203.59V102.089L410.682 106.196Z" fill="#FCFFD2"/>
<path d="M632.8 330.432C548.664 491.503 111.937 457.884 24.8248 330.432H632.8Z" fill="url(#paint0_linear_1392_294899)"/>
<path d="M611.763 357.806C603.157 366.568 593.675 374.417 583.468 381.229C537.465 397.422 440.718 408.574 328.816 408.574C235.335 408.574 152.433 400.786 100.858 388.791C89.23 383.29 78.0256 376.928 67.3373 369.758C61.874 366.067 56.681 362.201 51.7584 358.16C50.2703 356.935 48.8104 355.703 47.3717 354.436C53.1971 345.472 73.1909 337.251 103.418 330.432C155.155 318.764 236.866 311.23 328.816 311.23C420.767 311.23 502.47 318.764 554.186 330.432C588.179 338.094 609.196 347.539 611.763 357.806Z" fill="white"/>
<path d="M560.456 394.732L548.925 400.248C520.214 401.883 457.948 402.032 351.109 401.508C267.248 401.097 187.858 401.112 130.556 401.225C127.735 400.205 124.977 399.15 122.241 398.074L119.907 397.182L118.129 396.474C113.16 394.449 108.308 392.324 103.573 390.101C181.292 382.312 294.372 384.437 326.178 385.591C364.079 386.964 523.578 390.321 560.456 394.732Z" fill="#A83B3B"/>
<path d="M524.128 374.255L521.307 381.626C521.307 381.626 506.828 376.428 506.828 390.568L534.629 390.816L533.12 377.639L524.128 374.255Z" fill="#324376"/>
<path d="M602.778 371.026L610.289 381.47L602.778 390.809H582.939C582.939 390.809 579.483 382.936 593.744 381.519L597.714 377.037L602.778 371.026Z" fill="#324376"/>
<path d="M568.291 235.347C568.199 241.075 566.606 248.871 564.285 257.297C557.515 281.909 544.538 311.987 544.538 311.987L534.213 379.778V379.99L533.776 379.884L526.858 378.255L521.258 376.938L524.001 309.035L533.452 252.907L537.683 227.926C537.683 227.926 568.644 212.943 568.291 235.347Z" fill="#7A9FF5"/>
<path d="M564.292 257.311C557.522 281.923 544.545 312.002 544.545 312.002L534.22 379.792L533.762 379.891L526.843 378.262C530.024 364.533 541.795 313.489 540.807 313.921C539.7 314.395 534.975 315.485 534.679 315.549C537.384 311.877 539.712 307.939 541.626 303.795C543.36 299.943 545.49 280.514 546.95 265.241C547.138 263.312 547.827 261.466 548.949 259.889C550.072 258.312 551.587 257.059 553.344 256.256C555.101 255.453 557.037 255.127 558.959 255.312C560.88 255.497 562.72 256.187 564.292 257.311Z" fill="#5084FC"/>
<path d="M606.248 374.63L600.874 376.648L593.758 379.31L568.143 317.383L551.175 255.342L551.139 255.243L548.629 246.074L548.389 245.182L546.428 238.051C546.428 238.051 565.371 211.549 576.754 230.61C577.234 231.41 577.685 232.274 578.165 233.208C588.207 254.514 588.257 308.674 588.257 308.674L606.248 374.63Z" fill="#7A9FF5"/>
<path d="M606.248 374.63L600.874 376.648L587.707 327.423L584.709 311.003L579.709 314.77C579.709 314.77 581.775 286.759 574.589 266.976C568.813 251.066 554.179 247.108 548.622 246.06C547.268 245.805 546.449 245.72 546.435 245.67C547.066 245.439 547.718 245.271 548.382 245.167C551.203 244.566 556.083 243.666 556.083 243.666L578.165 233.208C588.207 254.514 588.257 308.674 588.257 308.674L606.248 374.63Z" fill="#5084FC"/>
<path d="M593.751 379.296L568.136 317.369L551.168 255.328C552.056 257.976 571.056 314.374 572.156 317.149C573.256 319.925 593.327 378.064 593.751 379.296Z" fill="#4278F6"/>
<path d="M533.416 252.921L526.032 309.283L521.223 376.952L523.966 309.049L533.416 252.921Z" fill="#4278F6"/>
<path d="M530.793 177.83C530.793 177.83 527.168 191.935 523.536 203.576C522.224 207.782 520.912 211.669 519.77 214.451C519.53 215.018 519.304 215.542 519.065 216.009C518.485 217.287 517.821 218.524 517.076 219.712C515.871 221.062 514.488 222.239 512.964 223.21L511.173 223.515C504.367 224.676 480.036 228.754 471.305 229.179C464.831 229.484 462.137 230.595 461.587 230.234C461.269 230.022 461.678 229.307 462.503 227.657C464.21 224.216 494.197 213.623 508.429 208.752C510.679 192.933 516.561 167.896 516.561 167.896C529.587 162.734 530.793 177.83 530.793 177.83Z" fill="#5084FC"/>
<path d="M523.536 203.576C522.224 207.782 520.912 211.669 519.77 214.452C519.53 215.018 519.304 215.542 519.065 216.009C518.485 217.287 517.821 218.524 517.076 219.712C515.871 221.062 514.488 222.239 512.964 223.21L511.173 223.515C504.367 224.676 480.036 228.754 471.305 229.179C464.831 229.484 462.137 230.595 461.587 230.234C474.246 227.919 502.28 222.601 508.056 219.996C515.567 216.604 516.977 200.432 516.977 200.432L523.536 203.576Z" fill="#B52828"/>
<path d="M507.562 203.172C507.562 203.172 519.121 212.242 527.923 205.905C527.923 205.905 528.91 203.597 530.13 200.042C533.811 189.421 539.665 167.797 527.923 164.172C520.694 161.934 515.609 162.529 510.658 185.605C509.72 189.974 509.071 193.287 508.613 195.801C507.527 201.756 507.562 203.172 507.562 203.172Z" fill="#7A9FF5"/>
<path d="M507.562 203.172C507.562 203.172 519.121 212.242 527.923 205.905C527.923 205.905 528.91 203.597 530.13 200.042C524.862 201.82 516.103 203.037 508.613 195.794C507.527 201.756 507.562 203.172 507.562 203.172Z" fill="#F5DD90"/>
<path d="M563.538 238.285C564.204 241.209 563.806 244.275 562.416 246.93C555.364 248.92 545.956 249.954 534.256 247.95C534.256 247.95 533.36 246.237 531.928 243.241C530.807 240.898 529.354 237.761 527.76 234.037C526.836 231.912 525.863 229.583 524.876 227.112V227.069C522.457 221.029 519.939 214.105 517.823 206.911C512.069 187.368 509.262 165.843 519.368 154.457C520.342 153.356 521.432 152.363 522.619 151.497C541.738 137.442 551.894 154.62 554.652 161.198C561.224 176.846 562.268 198.81 574.102 219.082C575.866 222.038 577.421 225.114 578.757 228.287C576.19 231.53 571.634 235.325 563.538 238.285Z" fill="#4278F6"/>
<path d="M578.743 228.294C576.19 231.53 571.634 235.325 563.538 238.285C563.39 237.435 563.213 236.685 563.157 236.047C562.938 233.753 559.236 230.149 560.216 219.981C561.196 209.814 551.4 219.33 543.995 225.398C536.59 231.466 538.001 215.344 538.001 215.344C538.001 215.344 547.134 184.245 545.497 169.489C543.861 154.733 519.333 154.493 519.333 154.493C520.307 153.391 521.397 152.399 522.584 151.533C541.703 137.478 551.859 154.655 554.616 161.233C561.189 176.882 562.233 198.846 574.067 219.118C575.837 222.063 577.399 225.13 578.743 228.294Z" fill="#7A9FF5"/>
<path d="M562.416 246.93C555.364 248.92 545.956 249.954 534.256 247.95C534.256 247.95 533.36 246.236 531.928 243.241C546.097 242.951 556.252 240.954 563.538 238.285C564.204 241.209 563.806 244.275 562.416 246.93Z" fill="#F5DD90"/>
<path d="M467.222 226.871C467.222 226.871 455.79 224.902 454.809 225.802C453.829 226.701 462.567 236.047 462.567 236.047C462.567 236.047 468.611 228.315 468.611 228.259C468.611 228.202 467.222 226.871 467.222 226.871Z" fill="#5084FC"/>
<path d="M579.018 238.292C579.018 238.292 573.524 243.808 562.416 246.938C563.806 244.283 564.204 241.216 563.538 238.292C571.634 235.332 576.19 231.537 578.743 228.301C582.523 237.563 579.018 238.292 579.018 238.292Z" fill="#4278F6"/>
<path d="M519.347 154.493C519.163 154.995 510.884 177.632 517.802 206.946C512.047 187.403 509.24 165.864 519.347 154.493Z" fill="#F5DD90"/>
<path d="M527.76 234.072C526.836 231.948 525.863 229.618 524.876 227.147C525.955 229.404 526.918 231.716 527.76 234.072Z" fill="#4278F6"/>
<path d="M535.617 151.179L531.618 153.749L525.807 157.459C525.318 157.77 524.748 157.93 524.17 157.917C523.591 157.904 523.029 157.721 522.554 157.389C522.079 157.057 521.712 156.592 521.499 156.051C521.286 155.511 521.236 154.919 521.357 154.351L522.838 147.398L523.035 146.477L524.008 141.917L525.631 134.341L528.155 132.153L534.228 126.892L534.933 138.618L535.617 151.179Z" fill="#5084FC"/>
<path d="M539.827 118.523C539.496 125.129 537.147 133.314 536.096 136.734C535.828 137.439 535.418 138.08 534.89 138.618C532.62 141.16 527.711 144.417 523.007 146.477C520.832 147.509 518.505 148.18 516.117 148.467C514.283 148.609 512.872 148.191 512.231 146.994C509.269 141.464 511.025 123.529 511.025 123.529C514.692 98.9874 537.38 106.061 539.333 112.483C539.829 114.455 539.996 116.496 539.827 118.523Z" fill="#F1BFAD"/>
<path d="M536.096 136.734C535.828 137.439 535.418 138.08 534.89 138.618L535.596 151.179L531.618 153.749C531.66 150.577 531.512 145.514 530.158 144.403C529.27 143.695 526.096 145.337 522.838 147.398L523.035 146.477C520.86 147.509 518.533 148.181 516.145 148.467C516.559 148.212 517.003 147.95 517.478 147.681C520.025 146.23 522.248 144.268 524.008 141.917C526.113 139.022 527.532 135.683 528.155 132.153C528.994 127.351 528.857 122.428 527.753 117.68L539.855 118.523C539.496 125.129 537.147 133.314 536.096 136.734Z" fill="#F1B7A3"/>
<path d="M530.793 117.078V129.824L533.17 129.073C533.17 129.073 534.897 122.7 537.719 122.403C540.54 122.106 537.521 131.679 537.521 131.679C537.521 131.679 543.234 122.403 544.101 117.05C544.968 111.697 533.868 105.459 527.443 107.583C521.018 109.707 530.793 117.078 530.793 117.078Z" fill="#14223D"/>
<path d="M540.323 128.629C540.632 125.933 539.696 123.61 538.234 123.441C536.771 123.272 535.335 125.321 535.026 128.017C534.717 130.713 535.653 133.036 537.115 133.205C538.578 133.374 540.014 131.325 540.323 128.629Z" fill="#B52828"/>
<path d="M539.091 128.631C539.4 125.935 538.709 123.641 537.549 123.507C536.388 123.373 535.196 125.45 534.888 128.146C534.579 130.842 535.269 133.136 536.43 133.271C537.591 133.405 538.783 131.328 539.091 128.631Z" fill="#5084FC"/>
<path d="M519.333 133.003C520.373 133.003 521.216 131.817 521.216 130.355C521.216 128.892 520.373 127.707 519.333 127.707C518.293 127.707 517.45 128.892 517.45 130.355C517.45 131.817 518.293 133.003 519.333 133.003Z" fill="#14223D"/>
<path d="M518.592 131.778C518.83 131.778 519.022 131.508 519.022 131.176C519.022 130.844 518.83 130.574 518.592 130.574C518.354 130.574 518.162 130.844 518.162 131.176C518.162 131.508 518.354 131.778 518.592 131.778Z" fill="white"/>
<path d="M512.929 129.901C513.794 129.901 514.495 128.919 514.495 127.706C514.495 126.494 513.794 125.511 512.929 125.511C512.064 125.511 511.363 126.494 511.363 127.706C511.363 128.919 512.064 129.901 512.929 129.901Z" fill="#14223D"/>
<path d="M512.499 129.236C512.736 129.236 512.929 128.966 512.929 128.634C512.929 128.302 512.736 128.032 512.499 128.032C512.261 128.032 512.069 128.302 512.069 128.634C512.069 128.966 512.261 129.236 512.499 129.236Z" fill="white"/>
<path d="M513.14 137.095C512.695 137.105 512.253 137.003 511.857 136.798C511.618 136.66 511.411 136.474 511.248 136.25C511.085 136.027 510.971 135.772 510.912 135.502C510.397 133.513 514.093 130.192 514.84 129.547L515.461 130.255C513.789 131.707 511.561 134.214 511.829 135.261C511.855 135.408 511.913 135.548 511.998 135.67C512.084 135.792 512.194 135.894 512.322 135.97C512.848 136.183 513.432 136.205 513.973 136.033L514.255 136.94C513.893 137.045 513.517 137.098 513.14 137.095Z" fill="#B52828"/>
<path d="M511.871 138.03C511.871 138.03 519.791 138.108 520.2 138.689C520.609 139.269 516.892 143.602 514.318 142.576C511.744 141.549 511.871 138.03 511.871 138.03Z" fill="white"/>
<path d="M522.69 110.784C522.69 110.784 491.116 112.497 497.512 121.992C506.68 135.559 535.596 120.704 535.596 120.704L522.69 110.784Z" fill="#F5DD90"/>
<path d="M525.729 111.407C525.729 111.407 492.695 110.805 499.092 120.3C508.26 133.867 536.632 120.243 536.632 120.243L525.729 111.407Z" fill="#7A9FF5"/>
<path d="M543.509 119.358C540.201 120.265 536.81 120.827 533.388 121.037C528.627 121.293 523.853 121.028 519.149 120.244C517.618 120.053 516.178 119.408 515.013 118.392C513.848 117.375 513.012 116.033 512.612 114.537C512.226 112.912 512.478 111.2 513.317 109.757C515.849 105.325 520.122 100.743 527.076 100.51C528.364 100.469 529.652 100.564 530.92 100.793C531.364 100.878 531.816 100.97 532.281 101.076C550.286 105.388 543.509 119.358 543.509 119.358Z" fill="#4278F6"/>
<path d="M543.509 119.358C540.201 120.265 536.81 120.827 533.388 121.037C536.103 109.849 533.649 103.887 530.948 100.793C531.392 100.878 531.844 100.97 532.309 101.076C550.286 105.388 543.509 119.358 543.509 119.358Z" fill="#7A9FF5"/>
<path d="M527.104 100.503C521.368 103.173 516.614 107.588 513.514 113.12C513.252 113.616 512.95 114.09 512.612 114.537C512.226 112.912 512.478 111.2 513.317 109.757C515.877 105.289 520.151 100.708 527.104 100.503Z" fill="#F5DD90"/>
<path d="M148.004 277.136H58.7544V340.968H148.004V277.136Z" fill="#112855"/>
<path d="M315.713 296.969H226.463V360.801H315.713V296.969Z" fill="#112855"/>
<path d="M94.151 345.493C94.151 366.388 85.8502 384.38 97.0919 392.551V397.231H126.712C144.703 397.231 159.302 374.071 159.302 345.493C159.302 316.916 144.739 293.804 126.748 293.804H97.1271V298.478C85.8502 306.613 94.151 324.612 94.151 345.493Z" fill="#112855"/>
<path d="M97.5785 397.231C112.866 397.231 125.26 374.071 125.26 345.5C125.26 316.93 112.866 293.769 97.5785 293.769C82.2906 293.769 69.8974 316.93 69.8974 345.5C69.8974 374.071 82.2906 397.231 97.5785 397.231Z" fill="#97A0B6"/>
<path d="M80.7583 345.493C80.7583 370.042 90.8857 386.334 97.5856 386.334C100.315 386.334 103.615 383.629 106.563 378.765C107.128 377.83 107.678 376.832 108.207 375.749C108.503 375.161 108.785 374.545 109.06 373.908C109.582 372.718 110.083 371.458 110.555 370.112C110.795 369.404 111.035 368.696 111.26 367.932C113.414 360.65 114.476 353.088 114.413 345.493C114.413 344.226 114.413 342.979 114.335 341.754C114.302 341.018 114.26 340.289 114.208 339.567C114.046 337.117 113.771 334.766 113.418 332.521C113.313 331.813 113.193 331.176 113.073 330.517C111.571 322.446 108.961 315.931 106.077 311.463C103.192 306.996 100.167 304.659 97.6138 304.659C90.8857 304.666 80.7583 320.952 80.7583 345.493Z" fill="#586BA4"/>
<path d="M88.3045 340.912C91.7179 343.284 97.1342 345.231 97.4727 343.213C97.8112 341.195 92.8604 335.984 89.447 333.612C86.0335 331.24 85.4129 332.628 85.1026 334.638C84.7923 336.649 84.891 338.547 88.3045 340.912Z" fill="#97A0B6"/>
<path d="M94.7364 368.555C96.8521 362.359 99.391 351.965 98.587 350.719C97.783 349.473 93.9394 357.849 91.8237 364.044C89.7079 370.24 90.1381 371.925 90.9421 373.171C91.7461 374.418 92.6277 374.757 94.7364 368.555Z" fill="#97A0B6"/>
<path d="M106.133 368.562C107.544 372.697 108.404 373.922 109.06 373.901C109.582 372.711 110.083 371.451 110.555 370.105C110.279 368.036 109.771 366.005 109.039 364.051C106.923 357.856 103.087 349.479 102.283 350.733C101.479 351.986 104.017 362.359 106.133 368.562Z" fill="#97A0B6"/>
<path d="M103.425 343.213C103.728 345.231 109.152 343.284 112.593 340.912C113.182 340.516 113.734 340.068 114.244 339.574C114.081 337.124 113.806 334.773 113.454 332.529C112.753 332.802 112.092 333.166 111.486 333.612C108.037 335.984 103.115 341.195 103.425 343.213Z" fill="#97A0B6"/>
<path d="M110.661 365.432C110.915 366.338 111.119 367.167 111.26 367.917C113.412 360.641 114.475 353.083 114.413 345.493C114.413 344.226 114.413 342.979 114.335 341.754L114.258 341.825C114.062 342.076 113.971 342.393 114.004 342.71C114.039 343.56 114.06 344.431 114.06 345.302C114.06 352.602 112.798 359.279 110.703 364.42C110.586 364.745 110.571 365.098 110.661 365.432Z" fill="#B9B9BB"/>
<path d="M97.381 316.958C93.7278 318.749 90.6318 323.685 88.7558 330.347C88.6571 330.673 88.4808 330.843 88.3044 330.758C87.7901 330.466 87.2159 330.296 86.6259 330.263C86.3543 330.262 86.0864 330.325 85.8431 330.447C85.5116 330.617 85.2366 329.859 85.3847 329.208C87.7967 318.983 92.4372 311.548 97.917 309.785C98.2626 309.679 98.5094 310.493 98.3261 311.102C97.9297 312.766 97.7215 314.469 97.7054 316.179C97.716 316.325 97.6922 316.472 97.6358 316.607C97.5795 316.743 97.4922 316.863 97.381 316.958Z" fill="#B9B9BB"/>
<path d="M102.536 311.102C102.935 312.766 103.146 314.469 103.164 316.179C103.152 316.326 103.176 316.473 103.232 316.608C103.289 316.744 103.376 316.864 103.489 316.958C107.142 318.743 110.231 323.678 112.114 330.348C112.205 330.673 112.389 330.843 112.558 330.751C112.727 330.659 112.911 330.588 113.073 330.525C111.571 322.453 108.961 315.939 106.077 311.471C105.139 310.735 104.082 310.168 102.953 309.793C102.607 309.679 102.36 310.479 102.536 311.102Z" fill="#B9B9BB"/>
<path d="M84.5455 338.986C85.0048 340.079 85.7124 341.049 86.6118 341.818C86.8079 342.069 86.899 342.386 86.8657 342.703C86.8234 343.553 86.8093 344.417 86.8093 345.295C86.8093 352.588 88.0717 359.272 90.1593 364.413C90.282 364.746 90.2993 365.11 90.2086 365.453C89.7197 367.026 89.419 368.652 89.313 370.297C89.2777 371.047 88.8616 371.387 88.6077 370.856C85.5187 364.349 83.6075 355.279 83.6075 345.302C83.6075 343.291 83.6827 341.323 83.8332 339.397C83.8896 338.682 84.3198 338.412 84.5455 338.986Z" fill="#B9B9BB"/>
<path d="M92.7334 377.25C95.0396 379.792 97.6702 381.222 100.435 381.222C102.703 381.162 104.875 380.293 106.563 378.772C107.128 377.837 107.678 376.839 108.207 375.756C108.177 375.698 108.139 375.646 108.094 375.6C107.278 374.627 106.654 373.507 106.253 372.3C106.133 372.01 105.95 371.918 105.781 372.074C105.096 372.809 104.268 373.395 103.348 373.795C102.429 374.196 101.437 374.402 100.435 374.402C99.4324 374.402 98.4407 374.196 97.5211 373.795C96.6016 373.395 95.7738 372.809 95.089 372.074C94.9268 371.918 94.7363 372.01 94.6164 372.3C94.2144 373.507 93.5847 374.625 92.7616 375.593C92.598 375.837 92.5083 376.123 92.5033 376.417C92.4983 376.711 92.5782 377 92.7334 377.25Z" fill="#B9B9BB"/>
<path d="M98.6364 319.295C98.6364 326.963 99.4403 338.554 100.435 338.554C101.429 338.554 102.233 326.963 102.233 319.295C102.233 311.626 101.429 310.798 100.435 310.798C99.4403 310.798 98.6364 311.655 98.6364 319.295Z" fill="#97A0B6"/>
<path d="M100.435 349.338C101.428 349.338 102.233 347.62 102.233 345.5C102.233 343.381 101.428 341.662 100.435 341.662C99.4415 341.662 98.6364 343.381 98.6364 345.5C98.6364 347.62 99.4415 349.338 100.435 349.338Z" fill="#97A0B6"/>
<path d="M287.503 345.493C287.503 366.388 279.209 384.38 290.443 392.551V397.231H318.132C336.123 397.231 350.714 374.071 350.714 345.493C350.714 316.916 336.123 293.804 318.132 293.804H290.422V298.478C279.209 306.613 287.503 324.612 287.503 345.493Z" fill="#112855"/>
<path d="M290.436 397.231C310.546 397.231 326.848 374.071 326.848 345.5C326.848 316.93 310.546 293.769 290.436 293.769C270.327 293.769 254.024 316.93 254.024 345.5C254.024 374.071 270.327 397.231 290.436 397.231Z" fill="#97A0B6"/>
<path d="M264.885 345.493C264.885 367.627 276.592 386.334 290.436 386.334C294.245 386.259 297.927 384.947 300.93 382.596C302.697 381.263 304.298 379.723 305.698 378.007C306.185 377.42 306.657 376.797 307.108 376.152C307.905 375.019 308.667 373.823 309.386 372.548C309.796 371.84 310.19 371.054 310.571 370.268C314.202 362.519 316.049 354.049 315.973 345.486C315.973 343.957 315.917 342.446 315.804 340.954C315.748 340.161 315.677 339.361 315.586 338.575C315.318 336.148 314.899 333.741 314.33 331.367C314.154 330.659 313.971 329.909 313.759 329.193C311.001 319.365 305.846 311.449 299.562 307.463C296.839 305.657 293.657 304.675 290.394 304.631C276.592 304.666 264.885 323.366 264.885 345.493Z" fill="#586BA4"/>
<path d="M275.612 340.537C280.796 343.093 289.012 345.196 289.491 343.022C289.971 340.848 282.488 335.233 277.298 332.663C272.107 330.093 271.176 331.594 270.71 333.775C270.245 335.956 270.407 338.002 275.612 340.537Z" fill="#97A0B6"/>
<path d="M285.359 370.375C288.56 363.683 292.411 352.475 291.205 351.129C289.999 349.784 284.153 358.819 280.937 365.51C277.721 372.201 278.377 374.007 279.597 375.352C280.817 376.698 282.15 377.059 285.359 370.375Z" fill="#97A0B6"/>
<path d="M302.658 370.375C304.823 374.885 306.135 376.188 307.137 376.152C307.934 375.019 308.695 373.823 309.415 372.548C309.351 371.097 308.709 368.944 307.08 365.517C303.878 358.826 298.032 349.791 296.812 351.136C295.592 352.482 299.457 363.683 302.658 370.375Z" fill="#97A0B6"/>
<path d="M298.554 343.036C299.012 345.21 307.235 343.114 312.426 340.551C313.56 340.021 314.629 339.363 315.614 338.589C315.346 336.163 314.927 333.755 314.358 331.381C313.096 331.634 311.877 332.071 310.741 332.677C305.55 335.233 298.081 340.855 298.554 343.036Z" fill="#97A0B6"/>
<path d="M309.542 366.997C309.978 368.056 310.332 369.147 310.599 370.261C314.231 362.512 316.077 354.042 316.002 345.479C316.002 343.949 315.945 342.439 315.832 340.947C315.565 341.153 315.287 341.344 315 341.521C314.862 341.635 314.754 341.783 314.688 341.95C314.621 342.117 314.598 342.298 314.619 342.477C314.676 343.397 314.704 344.325 314.704 345.266C314.704 353.14 312.786 360.348 309.605 365.864C309.513 366.037 309.46 366.228 309.449 366.423C309.438 366.619 309.47 366.815 309.542 366.997Z" fill="#B9B9BB"/>
<path d="M289.371 314.714C283.828 316.647 279.124 321.964 276.268 329.151C276.127 329.512 275.852 329.689 275.563 329.597C274.75 329.276 273.889 329.096 273.017 329.066C272.611 329.061 272.207 329.128 271.825 329.264C271.317 329.441 270.894 328.627 271.12 327.926C274.773 316.894 281.797 308.872 290.161 306.974C290.683 306.861 291.057 307.682 290.782 308.391C290.19 310.158 289.869 312.006 289.83 313.871C289.84 314.04 289.802 314.209 289.721 314.358C289.64 314.507 289.519 314.63 289.371 314.714Z" fill="#B9B9BB"/>
<path d="M297.207 308.398C297.799 310.161 298.12 312.004 298.159 313.864C298.15 314.037 298.192 314.21 298.278 314.36C298.364 314.511 298.492 314.634 298.646 314.714C304.196 316.647 308.893 321.964 311.749 329.158C311.89 329.512 312.158 329.689 312.454 329.597C312.896 329.434 313.348 329.304 313.808 329.208C311.051 319.38 305.895 311.464 299.612 307.477C299.034 307.276 298.445 307.108 297.849 306.974C297.313 306.854 296.939 307.718 297.207 308.398Z" fill="#B9B9BB"/>
<path d="M269.878 338.476C270.659 339.741 271.736 340.794 273.017 341.542C273.155 341.656 273.263 341.804 273.329 341.971C273.396 342.138 273.419 342.319 273.398 342.498C273.348 343.419 273.32 344.346 273.32 345.288C273.32 353.162 275.238 360.37 278.412 365.885C278.5 366.056 278.552 366.243 278.563 366.434C278.574 366.626 278.544 366.818 278.475 366.997C277.747 368.657 277.29 370.424 277.121 372.23C277.079 373.037 276.416 373.405 276.063 372.832C271.366 365.808 268.461 356.05 268.461 345.26C268.46 343.131 268.576 341.003 268.806 338.887C268.884 338.143 269.54 337.867 269.878 338.476Z" fill="#B9B9BB"/>
<path d="M282.312 379.756C285.621 382.465 289.743 383.975 294.012 384.04C296.389 384.039 298.742 383.557 300.931 382.624C302.697 381.292 304.298 379.751 305.698 378.036L305.635 377.986C304.76 377.399 303.871 376.23 302.814 374.446C302.787 374.38 302.746 374.321 302.695 374.273C302.644 374.224 302.582 374.187 302.516 374.164C302.449 374.141 302.378 374.133 302.307 374.14C302.237 374.147 302.169 374.17 302.108 374.205C299.715 375.836 296.89 376.707 293.998 376.707C291.106 376.707 288.281 375.836 285.888 374.205C285.641 374.035 285.352 374.134 285.182 374.446C284.16 376.244 283.25 377.413 282.361 377.986C282.128 378.218 281.992 378.532 281.983 378.861C281.974 379.191 282.092 379.512 282.312 379.756Z" fill="#B9B9BB"/>
<path d="M291.276 317.256C291.276 325.526 292.503 338.037 294.012 338.037C295.521 338.037 296.769 325.526 296.769 317.256C296.769 308.985 295.542 308.1 294.04 308.1C292.538 308.1 291.276 308.992 291.276 317.256Z" fill="#97A0B6"/>
<path d="M294.005 349.642C295.512 349.642 296.734 347.788 296.734 345.5C296.734 343.212 295.512 341.358 294.005 341.358C292.498 341.358 291.276 343.212 291.276 345.5C291.276 347.788 292.498 349.642 294.005 349.642Z" fill="#97A0B6"/>
<path d="M490.149 345.493C490.149 366.388 481.849 384.38 493.09 392.551V397.231H520.771C538.769 397.231 553.361 374.071 553.361 345.493C553.361 316.916 538.769 293.804 520.771 293.804H493.09V298.478C481.849 306.613 490.149 324.612 490.149 345.493Z" fill="#112855"/>
<path d="M493.083 397.231C513.193 397.231 529.495 374.071 529.495 345.5C529.495 316.93 513.193 293.769 493.083 293.769C472.973 293.769 456.671 316.93 456.671 345.5C456.671 374.071 472.973 397.231 493.083 397.231Z" fill="#112855"/>
<path d="M493.083 386.334C507.199 386.334 518.641 368.052 518.641 345.5C518.641 322.948 507.199 304.666 493.083 304.666C478.968 304.666 467.525 322.948 467.525 345.5C467.525 368.052 478.968 386.334 493.083 386.334Z" fill="#112855"/>
<path d="M596.614 326.729L596.106 332.344L593.469 361.92C592.997 367.076 590.625 371.87 586.817 375.362C583.009 378.854 578.04 380.792 572.882 380.797H361.758C361.103 380.797 360.454 380.797 359.805 380.712L342.879 379.091C336.348 378.445 330.322 375.279 326.071 370.259C321.82 365.24 319.677 358.76 320.092 352.184C320.17 350.832 320.205 349.458 320.205 348.085C320.205 319.507 303.9 296.346 283.786 296.346C263.672 296.346 247.402 319.535 247.402 348.113C247.399 352.653 247.822 357.183 248.664 361.644C248.866 362.641 248.832 363.672 248.566 364.653C248.299 365.635 247.808 366.54 247.131 367.297C246.454 368.054 245.61 368.641 244.666 369.012C243.722 369.383 242.705 369.527 241.697 369.433L173.633 362.926L173.259 362.89L128.038 358.564C126.932 358.461 125.858 358.135 124.88 357.607C123.902 357.078 123.04 356.357 122.345 355.487C121.65 354.617 121.137 353.615 120.835 352.542C120.534 351.468 120.451 350.345 120.591 349.239C121.103 345.207 121.357 341.146 121.352 337.081C121.352 308.511 108.961 285.357 93.6785 285.357C78.3957 285.357 65.9903 308.511 65.9903 337.081C65.9903 339.418 66.0749 341.719 66.2301 343.971C66.2995 344.847 66.1241 345.725 65.7236 346.507C65.323 347.288 64.7133 347.942 63.9628 348.394C63.2124 348.847 62.3511 349.08 61.4758 349.068C60.6005 349.056 59.746 348.799 59.0083 348.325C54.5141 345.348 50.8819 341.233 48.4784 336.396C46.0749 331.558 44.9852 326.17 45.3194 320.775L47.7666 280.578L45.1431 267.252C44.6509 264.747 44.7906 262.157 45.5493 259.72C46.3081 257.282 47.6618 255.074 49.4874 253.296L65.2498 237.867L71.456 230.426C89.3462 208.954 113.735 193.941 140.909 187.673L184.529 177.611C196.628 174.818 209.006 173.431 221.421 173.476L315.529 173.809C365.972 173.987 415.091 190.033 455.98 219.691L489.225 243.808L498.471 246.931L557.804 266.997C565.133 269.469 571.887 273.407 577.657 278.574C584.21 284.441 589.334 291.74 592.636 299.908C594.626 304.801 595.927 309.948 596.501 315.202C596.924 319.031 596.961 322.893 596.614 326.729Z" fill="#324376"/>
<path d="M596.106 332.344L595.662 337.301L593.469 361.92C593.304 363.736 592.9 365.521 592.27 367.231C591.802 367.293 591.331 367.326 590.859 367.33H379.023C376.431 367.33 373.945 366.299 372.109 364.462C370.272 362.625 369.236 360.133 369.227 357.53V338.767C369.225 337.347 369.529 335.945 370.117 334.654C370.706 333.364 371.566 332.217 372.638 331.292C373.71 330.368 374.969 329.686 376.328 329.296C377.687 328.906 379.114 328.815 380.511 329.031L431.642 336.727C433.833 337.054 435.849 338.118 437.361 339.744L444.872 347.837C445.79 348.823 446.899 349.61 448.131 350.148C449.364 350.687 450.693 350.965 452.038 350.966H551.774C553.117 350.965 554.445 350.686 555.677 350.147C556.908 349.609 558.016 348.823 558.932 347.837L567.057 339.121C568.211 337.872 569.67 336.947 571.288 336.437L587.932 331.261C589.29 330.828 590.727 330.7 592.14 330.887C593.552 331.074 594.907 331.572 596.106 332.344Z" fill="#112855"/>
<path d="M595.662 337.308L593.469 361.92C593.304 363.736 592.9 365.521 592.27 367.231C591.802 367.293 591.331 367.326 590.859 367.33H379.023C376.431 367.33 373.945 366.298 372.109 364.462C370.272 362.625 369.236 360.132 369.227 357.53V342.519C369.406 341.232 369.837 339.994 370.495 338.876C371.154 337.757 372.027 336.781 373.064 336.004C374.101 335.227 375.282 334.664 376.537 334.348C377.792 334.033 379.097 333.97 380.377 334.164L431.472 341.861C433.666 342.186 435.685 343.25 437.199 344.877L444.752 353.013C445.671 353.997 446.783 354.78 448.017 355.314C449.251 355.847 450.581 356.12 451.925 356.114H551.675C553.016 356.115 554.343 355.838 555.573 355.302C556.804 354.766 557.911 353.982 558.827 352.998L566.951 344.268C568.107 343.021 569.565 342.096 571.183 341.584L587.834 336.409C589.128 335.999 590.494 335.867 591.843 336.022C593.192 336.177 594.493 336.615 595.662 337.308Z" fill="#97A0B6"/>
<path d="M571.408 312.561L565.921 321.596C564.012 324.734 561.462 327.429 558.438 329.504C555.415 331.579 551.987 332.986 548.382 333.633C546.942 333.902 545.481 334.039 544.016 334.044H471.672C467.228 334.044 462.858 332.897 458.983 330.714C455.107 328.53 451.856 325.383 449.541 321.575L444.054 312.54C443.587 311.771 443.332 310.892 443.316 309.992C443.299 309.092 443.522 308.203 443.961 307.418C444.399 306.633 445.038 305.979 445.812 305.524C446.586 305.069 447.466 304.829 448.363 304.829H480.382C481.355 304.83 482.31 305.094 483.146 305.594L483.238 305.65C484.032 306.154 484.681 306.857 485.121 307.69C485.443 308.308 485.921 308.829 486.508 309.202C487.095 309.575 487.77 309.786 488.464 309.814H536.421C537.043 309.812 537.657 309.664 538.212 309.382L538.452 309.24C539.062 308.871 539.562 308.342 539.898 307.711C540.26 307.02 540.769 306.417 541.388 305.944C542.006 305.47 542.721 305.138 543.48 304.971C543.86 304.888 544.248 304.848 544.637 304.85H567.127C568.022 304.856 568.899 305.099 569.668 305.556C570.438 306.013 571.073 306.667 571.509 307.452C571.944 308.236 572.164 309.122 572.147 310.02C572.129 310.918 571.874 311.795 571.408 312.561Z" fill="#97A0B6"/>
<path d="M495.918 334.065H471.672C467.227 334.066 462.858 332.92 458.982 330.737C455.106 328.553 451.855 325.405 449.541 321.596L444.047 312.561C443.58 311.792 443.325 310.913 443.309 310.013C443.292 309.113 443.515 308.224 443.954 307.439C444.392 306.654 445.031 306 445.805 305.545C446.579 305.09 447.459 304.85 448.356 304.85H480.368C481.343 304.85 482.301 305.114 483.139 305.615L483.231 305.671C484.025 306.176 484.676 306.879 485.121 307.711C485.442 308.328 485.919 308.85 486.505 309.222C487.09 309.595 487.764 309.807 488.457 309.835H491.722C492.468 310.38 493.307 310.783 494.197 311.024C498.126 312.214 495.453 328.23 495.918 334.065Z" fill="#97A0B6"/>
<path d="M518.606 334.065H508.288C511.286 330.857 516.631 330.829 518.606 334.065Z" fill="#97A0B6"/>
<path d="M571.408 312.561L565.928 321.596C564.015 324.732 561.463 327.426 558.439 329.5C555.414 331.575 551.987 332.983 548.382 333.633C546.941 333.896 545.48 334.031 544.016 334.037H525.172C525.948 325.858 526.209 316.03 525.927 312.61C525.857 311.668 525.84 310.722 525.877 309.778H536.4C537.018 309.777 537.627 309.629 538.177 309.346C538.261 309.297 538.353 309.254 538.424 309.205C539.022 308.831 539.509 308.302 539.834 307.675C540.2 306.986 540.711 306.384 541.33 305.911C541.95 305.438 542.664 305.105 543.424 304.935C543.804 304.852 544.192 304.812 544.581 304.815H567.071C567.975 304.806 568.866 305.041 569.649 305.496C570.431 305.951 571.078 306.608 571.522 307.4C571.965 308.191 572.188 309.088 572.168 309.996C572.148 310.904 571.886 311.79 571.408 312.561Z" fill="#97A0B6"/>
<path d="M433.454 308.992V310.515C433.454 311.311 433.289 312.099 432.971 312.828C432.652 313.558 432.187 314.213 431.604 314.753C431.021 315.293 430.333 315.706 429.584 315.966C428.834 316.226 428.039 316.328 427.248 316.264L417.466 315.457L399.976 314.041L374.192 311.917C372.756 311.799 371.417 311.145 370.44 310.082C369.463 309.02 368.919 307.627 368.917 306.181V291.1C368.917 290.188 369.134 289.289 369.548 288.477C369.962 287.665 370.562 286.964 371.298 286.43C372.035 285.897 372.887 285.546 373.785 285.408C374.683 285.269 375.601 285.346 376.463 285.633L396.711 292.459L402.875 294.541L421.289 300.75L429.519 303.526C430.665 303.905 431.662 304.637 432.369 305.619C433.075 306.601 433.455 307.781 433.454 308.992Z" fill="#586BA4"/>
<path d="M596.501 315.202L585.217 316.257C582.34 316.533 579.864 314.02 579.737 310.777C579.737 310.692 579.737 310.6 579.737 310.515V308.992C579.698 307.838 580.008 306.698 580.626 305.724C581.244 304.75 582.141 303.986 583.2 303.533L589.724 301.041L592.665 299.915C594.644 304.807 595.936 309.952 596.501 315.202Z" fill="#586BA4"/>
<path d="M268.454 265.482C265.195 267.606 182.413 269.291 138.532 269.383C137.305 269.393 136.092 269.658 134.972 270.162C133.852 270.666 132.848 271.399 132.024 272.312C131.2 273.226 130.574 274.302 130.185 275.471C129.797 276.64 129.654 277.878 129.766 279.105C130.873 292.622 125.76 306.996 125.76 306.996C124.548 298.539 121.832 290.371 117.742 282.879C113.62 275.306 108.022 268.643 101.281 263.287C95.3993 258.529 90.7517 252.326 91.2101 250.804C91.9577 248.375 263.094 254.245 263.094 254.245C263.094 254.245 272.749 262.65 268.454 265.482Z" fill="#4761A0"/>
<path d="M260.654 184.918H332.533C382.822 184.923 431.414 203.18 469.351 236.324L475.762 241.924C476.098 242.215 476.338 242.602 476.449 243.033C476.56 243.465 476.537 243.92 476.384 244.338C476.231 244.756 475.954 245.117 475.591 245.372C475.228 245.628 474.795 245.767 474.352 245.769H306.361C303.762 245.771 301.2 245.157 298.882 243.979C296.564 242.8 294.555 241.09 293.018 238.986L257.755 190.71C257.36 190.17 257.121 189.53 257.066 188.862C257.01 188.193 257.139 187.523 257.439 186.924C257.739 186.324 258.198 185.82 258.765 185.466C259.332 185.112 259.986 184.923 260.654 184.918Z" fill="#97A0B6"/>
<path d="M470.966 242.307H306.361C304.302 242.307 302.272 241.821 300.434 240.889C298.597 239.957 297.003 238.604 295.782 236.94L279.978 215.315L260.52 188.657C260.497 188.633 260.484 188.601 260.484 188.568C260.484 188.535 260.497 188.503 260.52 188.48C260.531 188.447 260.553 188.419 260.583 188.401C260.612 188.382 260.648 188.375 260.682 188.381H332.533C350.323 188.38 368.037 190.705 385.229 195.298C391.548 196.984 397.771 198.968 403.897 201.253C427.055 209.893 448.468 222.659 467.109 238.936L470.966 242.307Z" fill="#324376"/>
<path d="M279.138 235.403L245.286 187.439C244.723 186.641 243.985 185.983 243.13 185.515C242.274 185.047 241.323 184.783 240.349 184.741C227.733 184.182 178.901 183.283 125.944 199.101C125.498 199.234 125.068 199.415 124.66 199.639C120.683 201.855 98.7492 214.558 87.6415 231.898C87.0228 232.855 86.6712 233.961 86.6236 235.101C86.576 236.241 86.8341 237.373 87.3709 238.379C87.9078 239.384 88.7036 240.227 89.6754 240.818C90.6472 241.409 91.7593 241.728 92.8956 241.74L273.807 245.507C274.991 245.543 276.162 245.244 277.187 244.646C278.212 244.047 279.049 243.172 279.604 242.121C280.159 241.069 280.409 239.883 280.327 238.695C280.245 237.508 279.833 236.368 279.138 235.403Z" fill="#97A0B6"/>
<path d="M119.688 207.505C116.502 217.467 114.018 227.641 112.255 237.952L95.5826 237.605C94.9123 237.59 94.2589 237.391 93.6935 237.029C93.1281 236.667 92.6723 236.157 92.3757 235.553C92.079 234.95 91.9529 234.276 92.011 233.605C92.0691 232.934 92.3092 232.293 92.7052 231.749C100.301 221.171 112.057 212.469 119.688 207.505Z" fill="#112855"/>
<path d="M115.971 212.554C115.12 215.471 114.323 218.443 113.581 221.468C112.424 226.165 111.404 230.966 110.52 235.871L99.5461 235.637L95.6249 235.552C95.3312 235.559 95.0418 235.48 94.7915 235.326C94.5413 235.171 94.3409 234.947 94.2144 234.681C94.0774 234.414 94.018 234.114 94.0429 233.814C94.0679 233.515 94.1762 233.229 94.3555 232.989C100.414 224.577 109.264 217.333 115.971 212.554Z" fill="#324376"/>
<path d="M271.035 241.287L182.004 239.439C182.135 222.994 184.508 206.644 189.057 190.845C202.15 189.417 215.31 188.686 228.48 188.657C233.191 188.657 236.943 188.763 239.44 188.869C239.997 188.894 240.54 189.047 241.029 189.316C241.518 189.585 241.939 189.962 242.261 190.42L274.082 235.481C274.472 236.036 274.702 236.688 274.746 237.366C274.79 238.044 274.646 238.721 274.331 239.322C274.016 239.923 273.541 240.424 272.959 240.771C272.377 241.118 271.711 241.297 271.035 241.287Z" fill="#112855"/>
<path d="M272.53 238.342C272.4 238.604 272.198 238.825 271.949 238.978C271.699 239.131 271.412 239.21 271.12 239.206L253.044 238.837L204.629 237.867L184.113 237.435C184.395 222.347 186.597 207.356 190.665 192.827C203.227 191.506 215.849 190.83 228.48 190.802C233.353 190.802 237.084 190.916 239.362 191.015H239.411C239.645 191.028 239.873 191.095 240.077 191.211C240.281 191.326 240.456 191.487 240.589 191.68L265.576 227.083L272.41 236.763C272.566 236.992 272.659 237.259 272.68 237.536C272.701 237.813 272.65 238.091 272.53 238.342Z" fill="#324376"/>
<path d="M189.057 190.845C184.508 206.644 182.135 222.994 182.004 239.439L112.255 237.981C114.018 227.669 116.502 217.495 119.688 207.534C122.89 205.459 125.33 204.029 126.508 203.385C126.745 203.253 126.995 203.149 127.255 203.073C147.447 197.138 168.132 193.046 189.057 190.845Z" fill="#112855"/>
<path d="M186.221 193.259C182.355 207.633 180.254 222.429 179.966 237.315L125.789 236.182L114.723 235.948C115.943 229.25 117.481 222.559 119.251 216.186C119.956 213.694 120.661 211.23 121.437 208.851C124.258 207.059 126.423 205.792 127.523 205.169C127.623 205.118 127.727 205.076 127.834 205.041C129.816 204.454 131.811 203.873 133.821 203.321C144.069 200.489 154.697 198.124 165.635 196.24C172.382 195.051 179.244 194.057 186.221 193.259Z" fill="#324376"/>
<path d="M547.218 309.814L544.016 334.058C545.481 334.053 546.942 333.916 548.382 333.647L551.979 309.814H547.218ZM539.961 312.646C539.636 313.273 539.149 313.801 538.551 314.175L538.304 314.317C538.111 314.413 537.91 314.494 537.704 314.558L535.821 334.037H540.081L542.839 310.118C541.595 310.58 540.569 311.492 539.961 312.674V312.646ZM528.755 314.77L527.577 334.065H531.879L533.416 314.77H528.755ZM519.847 314.77L519.354 334.065H523.663L524.516 314.77H519.847ZM510.961 314.77L511.131 334.065H515.44L515.616 314.77H510.961ZM506.73 314.77H502.068L502.928 334.065H507.238L506.73 314.77ZM497.83 314.77H493.168L494.705 334.065H499.014L497.83 314.77ZM488.929 314.77H488.541C487.847 314.745 487.171 314.535 486.584 314.161C485.997 313.788 485.519 313.265 485.198 312.646C484.856 312.006 484.391 311.441 483.83 310.982L486.482 334.065H490.784L488.929 314.77ZM479.373 309.814H474.613L478.266 334.065H482.575L479.373 309.814Z" fill="#324376"/>
<path d="M422.22 305.502C422.221 307.413 421.795 309.3 420.972 311.023C420.149 312.746 418.951 314.262 417.466 315.457L399.976 314.041C398.729 312.638 397.805 310.976 397.271 309.174C396.736 307.371 396.603 305.473 396.882 303.613C397.161 301.754 397.844 299.979 398.883 298.414C399.923 296.85 401.293 295.535 402.896 294.562L421.31 300.772C421.91 302.276 422.219 303.881 422.22 305.502Z" fill="#B9B9BB"/>
<path d="M396.739 292.707C396.741 294.529 396.308 296.325 395.477 297.945C394.646 299.565 393.441 300.961 391.962 302.018C390.484 303.075 388.775 303.76 386.978 304.018C385.181 304.276 383.349 304.098 381.635 303.499C379.921 302.901 378.375 301.899 377.125 300.577C375.876 299.256 374.959 297.653 374.453 295.903C373.947 294.154 373.865 292.308 374.215 290.52C374.564 288.732 375.335 287.054 376.463 285.626L396.711 292.452C396.739 292.551 396.739 292.629 396.739 292.707Z" fill="#B9B9BB"/>
<path d="M591.099 305.261C591.103 306.588 590.734 307.889 590.033 309.014C589.333 310.14 588.331 311.044 587.141 311.622C585.952 312.201 584.624 312.43 583.31 312.285C581.997 312.139 580.751 311.623 579.716 310.798C579.716 310.713 579.716 310.621 579.716 310.536V309.014C579.677 307.859 579.987 306.72 580.605 305.745C581.223 304.771 582.12 304.007 583.179 303.554L589.702 301.062C590.606 302.274 591.096 303.747 591.099 305.261Z" fill="#B9B9BB"/>
<path d="M284.555 290.398C284.555 290.398 244.207 287.665 242.134 349.338C242.134 349.338 243.29 361.552 236.386 362.253C229.482 362.954 129.625 354.634 129.364 353.714C129.103 352.793 128.906 344.87 136.269 341.677C143.631 338.483 222.076 347.815 226.47 344.07C230.864 340.324 230.772 279.077 284.555 290.398Z" fill="#4761A0"/>
<path d="M562.17 296.969C562.17 296.969 453.526 298.945 435.577 296.969C417.628 294.994 319.584 252.829 319.584 252.829C450.056 256.9 488.139 250.06 498.471 246.93L557.804 266.997C565.133 269.469 571.887 273.407 577.657 278.574C578.165 289.4 562.17 296.969 562.17 296.969Z" fill="url(#paint1_linear_1392_294899)"/>
<path d="M308.977 259.817C308.977 259.817 347.886 277.151 354.452 292.388C361.018 307.626 354.96 367.372 366.787 374.099C366.787 374.099 346.511 379.707 339.606 363.605C332.702 347.504 356.716 294.442 308.977 259.817Z" fill="url(#paint2_linear_1392_294899)"/>
<path d="M186.221 193.259C183.964 201.543 182.314 209.983 181.285 218.509C176.426 224.138 171.531 230.298 166.665 237.039L125.76 236.182C136.339 222.913 151.502 208.511 165.607 196.233C172.373 195.048 179.244 194.057 186.221 193.259Z" fill="white"/>
<path d="M208.86 191.305C200.858 197.992 193.318 205.216 186.292 212.929C187.342 206.122 188.811 199.387 190.693 192.764C197.23 192.084 203.345 191.616 208.86 191.305Z" fill="white"/>
<path d="M272.41 236.678C272.582 236.917 272.684 237.199 272.706 237.493C272.727 237.787 272.666 238.081 272.53 238.342C272.4 238.605 272.198 238.825 271.949 238.978C271.699 239.131 271.412 239.21 271.12 239.206L253.044 238.837C257.015 234.745 261.204 230.801 265.548 226.999L272.41 236.678Z" fill="white"/>
<path d="M385.229 195.298C366.187 209.169 347.964 226.17 332.441 242.307H306.347C304.288 242.307 302.258 241.821 300.42 240.889C298.583 239.957 296.989 238.604 295.768 236.94L279.963 215.315C293.289 205.375 307.292 196.384 321.869 188.409H332.498C350.298 188.396 368.025 190.712 385.229 195.298Z" fill="#4761A0"/>
<path d="M423.764 209.884C413.228 220.144 402.987 231.325 393.579 242.307H360.313C373.385 227.139 387.992 213.376 403.897 201.239C410.666 203.769 417.297 206.655 423.764 209.884Z" fill="white"/>
<path d="M115.971 212.554C115.12 215.471 114.323 218.443 113.581 221.468C108.58 226.22 103.827 230.985 99.5461 235.63L95.6249 235.545C95.3312 235.552 95.0418 235.473 94.7915 235.319C94.5413 235.164 94.3409 234.94 94.2144 234.674C94.0774 234.407 94.018 234.107 94.0429 233.807C94.0679 233.508 94.1762 233.222 94.3555 232.982C100.414 224.577 109.264 217.333 115.971 212.554Z" fill="white"/>
<path d="M133.857 203.321C128.976 207.484 124.061 211.818 119.286 216.186C119.991 213.694 120.697 211.23 121.472 208.851C124.293 207.059 126.459 205.792 127.559 205.169C127.659 205.118 127.762 205.076 127.869 205.041C129.816 204.454 131.811 203.88 133.857 203.321Z" fill="white"/>
<path d="M273.228 255.201L273.087 255.342C272.622 255.801 272.07 256.161 271.465 256.405C270.86 256.648 270.213 256.768 269.561 256.759H229.291C227.539 256.763 225.832 256.193 224.432 255.134C223.032 254.076 222.014 252.588 221.533 250.896L221.498 250.768L221.315 250.117L219.107 242.364V242.328L219.072 242.208C218.763 241.114 218.687 239.968 218.85 238.843C219.012 237.718 219.409 236.64 220.015 235.68C220.621 234.719 221.421 233.898 222.365 233.27C223.308 232.641 224.373 232.22 225.49 232.033L238.89 229.788C239.952 229.608 241.023 229.483 242.098 229.413C242.804 229.364 243.509 229.342 244.214 229.342C249.182 229.351 254.081 230.504 258.534 232.714C262.987 234.924 266.876 238.131 269.899 242.087C271.688 244.442 273.152 247.029 274.251 249.777C274.618 250.684 274.717 251.678 274.535 252.64C274.354 253.602 273.9 254.491 273.228 255.201Z" fill="url(#paint3_linear_1392_294899)"/>
<path d="M269.152 254.988C269.092 255.063 269.029 255.134 268.962 255.201C268.494 255.701 267.927 256.099 267.299 256.368C266.67 256.638 265.992 256.773 265.308 256.766H225.038C223.286 256.77 221.58 256.2 220.18 255.141C218.779 254.083 217.762 252.595 217.281 250.903L217.133 250.393L221.505 250.775L221.322 250.124L219.114 242.371V242.335H214.883V242.194C214.574 241.1 214.498 239.953 214.66 238.829C214.823 237.704 215.22 236.626 215.826 235.665C216.431 234.705 217.232 233.884 218.176 233.256C219.119 232.627 220.184 232.206 221.301 232.019L234.665 229.774C236.432 229.475 238.22 229.326 240.011 229.328C240.716 229.328 241.421 229.328 242.127 229.399C246.724 229.719 251.201 231.018 255.259 233.211C259.317 235.404 262.863 238.439 265.661 242.116C267.452 244.462 268.914 247.045 270.005 249.791C270.352 250.653 270.457 251.593 270.306 252.51C270.155 253.427 269.756 254.285 269.152 254.988Z" fill="url(#paint4_linear_1392_294899)"/>
<path d="M221.526 250.775L217.154 250.386L217.083 250.124L214.876 242.364L214.869 242.349L219.128 242.335L219.136 242.364L221.343 250.124L221.526 250.775Z" fill="url(#paint5_linear_1392_294899)"/>
<path d="M289.28 249.033C289.28 253.176 285.344 256.418 280.817 256.015L273.108 255.342L271.564 255.201L269.173 254.988L221.547 250.775L221.364 250.124L219.157 242.37V242.335L265.703 242.094H267.918H269.949L281.543 242.038H281.585C285.81 242.016 289.28 245.153 289.28 249.033Z" fill="#97A0B6"/>
<path d="M181.306 218.509C180.558 224.669 180.112 230.938 179.966 237.315L166.686 237.039C171.552 230.298 176.447 224.138 181.306 218.509Z" fill="#4761A0"/>
<path d="M239.411 190.958C226.343 203.703 214.079 221.886 204.629 237.832L184.113 237.4C184.29 229.204 185.009 221.029 186.264 212.929C193.29 205.216 200.83 197.992 208.832 191.305C216.766 190.866 223.459 190.739 228.452 190.739C233.325 190.739 237.056 190.852 239.334 190.951L239.411 190.958Z" fill="#4761A0"/>
<path d="M372.57 289.004C372.57 289.004 369.862 303.802 374.989 308.121C380.116 312.441 411.725 312.639 411.725 312.639C411.725 312.639 377.753 309.559 372.57 289.004Z" fill="white"/>
<path d="M587.7 303.802C587.7 303.802 582.523 304.779 582.008 308.943C581.493 313.106 585.859 314.77 585.859 314.77C585.859 314.77 582.121 308.072 587.7 303.802Z" fill="white"/>
<path d="M174.056 279.098C177.674 283.976 182.18 290.045 181.687 301.756C181.341 309.977 179.134 319.295 176.99 328.315C173.788 341.832 170.762 354.599 173.978 362.805L173.654 362.933L173.28 362.897C170.078 354.486 173.111 341.691 176.32 328.153C178.435 319.167 180.657 309.877 180.996 301.728C181.475 290.285 177.244 284.571 173.499 279.53C170.678 275.72 168.231 272.449 168.647 267.493C169.556 256.433 181.257 239.928 181.757 239.234L182.321 239.637C182.194 239.815 170.233 256.681 169.331 267.556C168.908 272.201 171.277 275.395 174.056 279.098Z" fill="#112855"/>
<path d="M128.962 358.791C126.205 351.32 127.488 346.279 129.117 339.899C131.007 332.5 133.349 323.288 131.268 305.912C128.447 282.815 115.668 272.109 107.995 265.708C104.687 262.947 102.297 260.95 101.873 258.982C100.463 252.609 111.662 237.372 112.142 236.727L112.692 237.138C112.579 237.294 101.239 252.779 102.551 258.833C102.924 260.568 105.23 262.501 108.432 265.206C116.225 271.649 129.131 282.475 131.952 305.841C134.068 323.338 131.691 332.613 129.787 340.069C128.13 346.576 126.966 351.278 129.611 358.55L128.962 358.791Z" fill="#112855"/>
<path d="M188.337 266.707C193.771 266.707 198.175 264.481 198.175 261.736C198.175 258.991 193.771 256.766 188.337 256.766C182.904 256.766 178.499 258.991 178.499 261.736C178.499 264.481 182.904 266.707 188.337 266.707Z" fill="#97A0B6"/>
<path d="M198.288 259.378H177.758C176.898 259.378 176.2 260.079 176.2 260.943V262.034C176.2 262.898 176.898 263.598 177.758 263.598H198.288C199.149 263.598 199.847 262.898 199.847 262.034V260.943C199.847 260.079 199.149 259.378 198.288 259.378Z" fill="#324376"/>
<path d="M117.234 261.467C121.627 261.467 125.189 259.667 125.189 257.445C125.189 255.224 121.627 253.424 117.234 253.424C112.84 253.424 109.279 255.224 109.279 257.445C109.279 259.667 112.84 261.467 117.234 261.467Z" fill="#97A0B6"/>
<path d="M125.274 255.533H108.686C107.989 255.533 107.424 256.101 107.424 256.801V257.672C107.424 258.372 107.989 258.939 108.686 258.939H125.274C125.971 258.939 126.536 258.372 126.536 257.672V256.801C126.536 256.101 125.971 255.533 125.274 255.533Z" fill="#324376"/>
<path d="M127.566 139.729C127.566 139.729 131.325 145.472 130.507 147.766C129.689 150.06 125.789 149.487 125.789 149.487L127.566 139.729Z" fill="#F1B7A3"/>
<path d="M129.625 136.125C129.625 136.125 129.216 155.095 125.394 160.497C124.688 161.545 123.341 161.864 121.698 161.63C119.582 161.354 116.881 160.178 114.18 158.585C114.018 158.5 113.856 158.401 113.686 158.302C109.201 155.569 104.744 151.731 102.762 148.899C102.274 148.271 101.923 147.548 101.732 146.775C100.83 141.776 98.5588 127.487 101.394 121.015C103.989 115.11 124.745 110.819 128.899 130.036C129.325 132.039 129.569 134.078 129.625 136.125Z" fill="#F1BFAD"/>
<path d="M115.287 170.608L100.421 161.92L102.762 148.885L104.941 136.713L112.995 145.578L114.187 158.585L114.892 166.353L115.287 170.608Z" fill="#F1BFAD"/>
<path d="M114.187 158.564L114.892 166.353L108.975 165.546C108.975 165.546 111.733 157.884 113.679 158.288C113.872 158.321 114.047 158.421 114.173 158.571L114.187 158.564Z" fill="#F1BFAD"/>
<path d="M119.265 128.167L123.729 131.551V144.013L122.072 144.339C122.072 144.339 121.056 137.457 118.256 137.563C115.457 137.669 116.028 146.307 112.438 150.159C109.363 153.459 106.528 153.565 102.501 150.322C98.4742 147.079 97.3669 132.479 97.3669 132.479L119.265 128.167Z" fill="#324376"/>
<path d="M129.625 136.125C129.625 136.125 129.216 155.095 125.394 160.497C124.688 161.545 123.341 161.864 121.698 161.63C131.007 154.939 122.904 130.029 122.904 130.029H128.92C129.34 132.035 129.576 134.076 129.625 136.125Z" fill="#F1BFAD"/>
<path d="M116.275 122.778C116.275 122.778 139.09 116.576 144.534 124.258C149.979 131.941 113.186 133.548 113.186 133.548L116.275 122.778Z" fill="#5084FC"/>
<path d="M130.055 131.658C127.333 132.539 124.549 133.213 121.726 133.676C115.781 134.702 107.367 135.34 98.8691 133.265L97.5362 132.925C97.5362 132.925 91.7319 120.888 105.477 115.868H105.534L105.632 115.825C106.557 115.498 107.499 115.222 108.453 114.997L108.996 114.869C126.028 111.124 130.055 131.658 130.055 131.658Z" fill="#4278F6"/>
<path d="M130.055 131.657C127.333 132.539 124.549 133.213 121.726 133.675C121.726 133.442 121.726 133.208 121.726 132.967C121.494 119.826 113.856 115.974 109.032 114.855C126.028 111.124 130.055 131.657 130.055 131.657Z" fill="#7A9FF5"/>
<path d="M98.8691 133.229L97.5362 132.89C97.5362 132.89 91.7319 120.852 105.477 115.832C104.405 116.3 98.594 119.5 98.8691 133.229Z" fill="#F5DD90"/>
<path d="M128.666 142.647C129.176 142.647 129.59 141.73 129.59 140.6C129.59 139.47 129.176 138.554 128.666 138.554C128.156 138.554 127.742 139.47 127.742 140.6C127.742 141.73 128.156 142.647 128.666 142.647Z" fill="#14223D"/>
<path d="M126.099 137.372L125.168 137.173C125.69 134.716 128.962 134.546 129.096 134.539L129.138 135.495C129.138 135.495 126.48 135.637 126.099 137.372Z" fill="#324376"/>
<path d="M120.513 147.759C121.499 147.759 122.298 145.889 122.298 143.581C122.298 141.274 121.499 139.404 120.513 139.404C119.528 139.404 118.729 141.274 118.729 143.581C118.729 145.889 119.528 147.759 120.513 147.759Z" fill="#F1BFAD"/>
<path d="M315.106 270.636C313.942 271.225 313.049 272.242 312.613 273.475C312.177 274.708 312.231 276.063 312.765 277.257C314.034 280.266 315.72 286.518 315.981 298.676C316.397 318.501 321.482 318.374 324.493 327.218C327.504 336.061 321.101 343.765 326.834 348.842C332.568 353.919 336.32 309.665 335.177 298.676C334.211 289.216 323.421 266.749 315.106 270.636Z" fill="#4761A0"/>
<path d="M224.397 229.193C224.397 229.193 252.24 225.023 278.532 227.912C304.823 230.801 327.526 245.245 330.297 245.507C333.069 245.769 345.65 249.522 351.525 252.46C357.4 255.399 351.363 262.019 355.284 268.788C359.205 275.557 360.221 304.298 357.4 309.856C354.579 315.414 347.639 301.904 341.539 301.798C335.438 301.692 331.94 325.115 328.802 317.376C325.664 309.637 326.827 288.982 319.556 272.371C314.838 261.594 266.585 233.895 225.433 231.601C184.282 229.307 224.397 229.193 224.397 229.193Z" fill="#728CCC"/>
<path d="M339.331 308.1C339.331 308.1 337.265 322.261 337.371 328.889C337.477 335.516 337.265 369.956 340.53 370.261C343.796 370.565 339.882 338.023 345.213 335.842C350.545 333.661 342.928 296.856 339.331 308.1Z" fill="#728CCC"/>
<path d="M350.714 246.93C350.714 246.93 366.117 243 373.987 249.054C381.858 255.108 350.714 246.93 350.714 246.93Z" fill="white"/>
<path d="M339.042 243.992C339.042 243.992 358.274 231.445 360.454 237.888C362.633 244.332 339.042 243.992 339.042 243.992Z" fill="white"/>
<path d="M301.509 261.58C301.509 261.58 278.941 265.907 279.385 259.116C279.829 252.326 301.509 261.58 301.509 261.58Z" fill="white"/>
<path d="M297.63 267.344C297.63 267.344 287.658 276.322 286.501 271.741C285.344 267.16 297.63 267.344 297.63 267.344Z" fill="white"/>
<path d="M230.906 230.149C230.906 230.149 266.874 228.896 292.171 237.832C317.469 246.768 292.305 240.013 293.286 243.057C294.266 246.102 318.421 255.094 323.379 262.062C328.337 269.029 293.652 247.405 281.064 242.016C267.184 236.047 246.147 230.255 230.906 230.149Z" fill="white"/>
<path d="M325.071 278.574C325.071 278.574 326.926 307.76 329.86 309.729C332.794 311.697 331.496 294.151 339.987 296.983C348.479 299.816 339.444 267.762 334.761 265.354C330.079 262.947 332.039 267.436 331.602 274.757C331.165 282.079 326.115 269.992 325.071 278.574Z" fill="url(#paint6_linear_1392_294899)"/>
<path d="M347.047 294.874C347.047 294.874 346.412 313.545 349.868 321.851C353.324 330.156 349.536 363.492 353.02 368.413C356.504 373.334 361.483 376.69 361.73 379.034C361.977 381.378 365.214 381.611 364.234 377.682C363.254 373.752 358.14 368.937 356.476 362.812C354.812 356.688 354.283 326.588 358.155 325.625C362.026 324.662 361.815 320.081 361.681 314.614C361.547 309.148 362.443 291.878 356.455 290.349C350.467 288.82 347.019 286.724 347.047 294.874Z" fill="url(#paint7_linear_1392_294899)"/>
<path d="M335.206 242.307C335.996 242.307 336.637 241.663 336.637 240.869C336.637 240.075 335.996 239.432 335.206 239.432C334.415 239.432 333.774 240.075 333.774 240.869C333.774 241.663 334.415 242.307 335.206 242.307Z" fill="white"/>
<path d="M344.776 236.047C346.642 236.047 348.154 234.529 348.154 232.656C348.154 230.783 346.642 229.264 344.776 229.264C342.91 229.264 341.398 230.783 341.398 232.656C341.398 234.529 342.91 236.047 344.776 236.047Z" fill="white"/>
<path d="M360.066 258.663C361.413 258.663 362.506 257.566 362.506 256.213C362.506 254.86 361.413 253.763 360.066 253.763C358.718 253.763 357.626 254.86 357.626 256.213C357.626 257.566 358.718 258.663 360.066 258.663Z" fill="white"/>
<path d="M304.083 270.19C305.298 270.19 306.283 269.201 306.283 267.981C306.283 266.761 305.298 265.772 304.083 265.772C302.868 265.772 301.883 266.761 301.883 267.981C301.883 269.201 302.868 270.19 304.083 270.19Z" fill="white"/>
<path d="M307.454 283.049C309.32 283.049 310.832 281.53 310.832 279.657C310.832 277.784 309.32 276.265 307.454 276.265C305.588 276.265 304.076 277.784 304.076 279.657C304.076 281.53 305.588 283.049 307.454 283.049Z" fill="white"/>
<path d="M381.047 252.22C382.079 252.22 382.916 251.379 382.916 250.343C382.916 249.307 382.079 248.467 381.047 248.467C380.015 248.467 379.178 249.307 379.178 250.343C379.178 251.379 380.015 252.22 381.047 252.22Z" fill="white"/>
<path d="M201.074 224.357L200.524 229.25L200.059 233.421L199.854 235.283C198.824 235.163 197.696 235.056 196.483 234.936C195.418 234.837 194.275 234.731 193.077 234.639H192.78C189.959 234.412 186.849 234.207 183.485 234.044C166.658 233.215 143.991 233.392 126.642 237.308C125.231 237.619 123.906 237.959 122.594 238.32C119.996 239.026 117.447 239.901 114.963 240.94C112.252 242.046 109.696 243.503 107.36 245.274C106.021 246.335 104.807 247.546 103.742 248.885C101.077 252.191 98.9467 256.426 97.0848 261.325C96.1609 263.782 95.2864 266.409 94.4613 269.164C93.1636 273.455 91.9365 278.057 90.6741 282.858C90.6036 283.12 90.533 283.375 90.4696 283.637C84.6795 305.537 77.5 331.934 55.341 348.127C52.2957 350.348 49.0709 352.309 45.7002 353.99C45.2277 354.224 44.7552 354.457 44.2897 354.698C42.7758 353.353 41.2924 351.988 39.8396 350.605C38.4291 349.274 37.0539 347.915 35.7209 346.541C37.4277 345.833 39.1273 345.019 40.7988 344.176C48.932 340.1 55.9688 334.118 61.3145 326.736C71.3361 313.135 75.892 295.893 80.0742 280.047C81.2943 275.444 82.4932 270.906 83.7979 266.551C84.1153 265.503 84.4326 264.462 84.7711 263.436C85.2413 262.019 85.7115 260.603 86.1816 259.187C88.6853 252.255 91.7038 246.06 95.8718 241.167C96.1398 240.848 96.4148 240.537 96.6899 240.232C97.8838 238.923 99.1809 237.713 100.569 236.614C100.773 236.451 100.985 236.295 101.196 236.147C103.069 234.752 105.061 233.527 107.149 232.486C110.847 230.647 114.71 229.163 118.687 228.054C121.656 227.183 124.78 226.453 127.989 225.823C130.401 225.351 132.855 224.945 135.352 224.605C157.066 221.553 181.144 222.736 193.253 223.671L196.659 223.954C199.142 224.138 200.679 224.315 201.074 224.357Z" fill="#5084FC"/>
<path d="M200.524 229.25L200.059 233.42L199.854 235.283C198.824 235.162 197.696 235.056 196.483 234.936C195.418 234.837 194.275 234.73 193.077 234.638H192.78C189.959 234.412 186.849 234.206 183.485 234.044C166.658 233.215 143.991 233.392 126.642 237.308C125.231 237.619 123.906 237.959 122.594 238.32C119.996 239.026 117.447 239.901 114.963 240.94C112.252 242.046 109.696 243.503 107.36 245.273C106.021 246.335 104.807 247.546 103.742 248.885C101.077 252.191 98.9467 256.426 97.0848 261.325C96.161 263.782 95.2864 266.409 94.4613 269.164C93.1636 273.454 91.9365 278.057 90.6741 282.858C90.6036 283.12 90.5331 283.374 90.4696 283.636C84.6795 305.537 77.5 331.933 55.341 348.127C52.2957 350.347 49.0709 352.308 45.7003 353.99C45.2277 354.223 44.7552 354.457 44.2898 354.698C42.7758 353.352 41.2924 351.988 39.8396 350.605C40.7494 350.187 41.6451 349.756 42.5407 349.309C50.6717 345.226 57.7075 339.243 63.0565 331.863C73.071 318.261 77.627 301.019 81.8162 285.18C83.0292 280.571 84.2281 276.039 85.5399 271.684C85.8502 270.629 86.1676 269.56 86.5131 268.569C86.9833 267.124 87.4535 265.708 87.9236 264.32C90.4273 257.388 93.4528 251.193 97.6208 246.3C97.8888 245.982 98.1639 245.67 98.4319 245.366C99.6266 244.057 100.926 242.849 102.318 241.754C102.518 241.585 102.728 241.426 102.945 241.28C104.817 239.888 106.807 238.663 108.891 237.619C112.597 235.767 116.47 234.271 120.457 233.151C123.426 232.288 126.55 231.551 129.766 230.921C132.171 230.454 134.632 230.05 137.122 229.703C158.837 226.651 182.914 227.834 195.023 228.769L198.436 229.052L200.524 229.25Z" fill="#5084FC"/>
<path d="M196.73 222.453L196.462 236.005L224.319 233.017L224.446 226.552L196.73 222.453Z" fill="#FFEDBB"/>
<path d="M224.455 225.609L224.29 233.927C224.276 234.631 224.833 235.213 225.534 235.227L226.409 235.244C227.11 235.258 227.689 234.699 227.703 233.995L227.868 225.677C227.882 224.973 227.325 224.392 226.624 224.378L225.75 224.36C225.049 224.346 224.469 224.905 224.455 225.609Z" fill="#5084FC"/>
<path d="M193.447 219.413L193.06 238.849C193.046 239.553 193.603 240.135 194.304 240.149L195.178 240.167C195.88 240.181 196.459 239.621 196.473 238.918L196.86 219.481C196.874 218.777 196.318 218.195 195.616 218.181L194.742 218.164C194.041 218.15 193.461 218.709 193.447 219.413Z" fill="#5084FC"/>
<path d="M198.14 228.238C198.14 228.238 197.865 234.136 198.627 234.299C199.389 234.461 223.177 232.061 223.177 232.061L198.14 228.238Z" fill="#5084FC"/>
<path d="M122.439 260.525C121.557 264.505 120.951 266.841 120.951 266.841C117.03 268.001 113.019 268.83 108.961 269.32C92.952 271.146 82.7612 266.19 73.9103 262.713C70.243 261.297 66.3147 259.647 67.3303 251.625C80.2346 258.682 94.7492 262.238 109.441 261.942C113.807 261.859 118.157 261.385 122.439 260.525Z" fill="#F5DD90"/>
<path d="M128.92 394.689L131.141 398.938C131.141 398.938 142.827 397.047 147.948 401.246C153.068 405.445 150.543 409.743 150.543 409.743H121.515L119.787 397.812L128.92 394.689Z" fill="#14223D"/>
<path d="M56.0181 392.884L55.0519 398.81C55.0519 398.81 65.8281 397.04 70.9482 401.239C76.0683 405.438 73.5435 409.736 73.5435 409.736H40.9962L44.3391 393.344L56.0181 392.884Z" fill="#14223D"/>
<path d="M105.647 251.321L102.043 264.491L82.8035 334.816L57.1182 396.899L54.2338 396.601L42.174 395.348L42.5619 393.974L61.6177 325.667C61.6177 325.667 61.6601 286.016 67.7957 259.817V259.761C69.3402 253.183 71.2726 247.462 73.6846 243.433C85.7091 223.394 105.647 251.321 105.647 251.321Z" fill="#7A9FF5"/>
<path d="M102.043 264.462L82.8035 334.787L57.1182 396.87L54.2338 396.573C60.1931 381.123 76.4562 338.724 78.9599 328.889C82.0348 316.795 76.8441 256.05 76.8441 256.05L102.043 264.462Z" fill="#5084FC"/>
<path d="M132.15 396.594L126.099 398.421L123.102 399.306L118.546 400.722L107.649 329.137C107.649 329.137 82.9657 272.038 82.6342 248.453C82.3028 224.867 114.921 240.664 114.921 240.664L118.179 260.001L129.294 326.057L132.15 396.594Z" fill="#7A9FF5"/>
<path d="M126.099 398.421C126.282 388.635 126.698 349.614 122.417 321.518C117.481 289.166 86.5907 262.94 86.5907 262.94L118.158 259.98L129.272 326.035L132.129 396.594L126.099 398.421Z" fill="#5084FC"/>
<path d="M64.5093 322.396C67.3938 333.675 48.4789 381.165 42.5266 393.974L61.6178 325.667C61.6178 325.667 61.6601 286.016 67.7958 259.817V259.76C67.7958 259.76 61.1593 309.29 64.5093 322.396Z" fill="#4278F6"/>
<path d="M123.102 399.306L118.546 400.722L107.649 329.137C107.649 329.137 120.097 382.05 123.102 399.306Z" fill="#4278F6"/>
<path d="M87.7967 164.342C76.879 174.308 67.3435 185.701 59.4456 198.216C59.217 198.652 59.0976 199.138 59.0976 199.632C59.0976 200.125 59.217 200.611 59.4456 201.048C59.4456 201.048 50.4113 210.84 50.9826 214.544C51.5538 218.247 53.9728 225.165 73.9244 232.082C93.8759 239 69.9256 219.67 69.9256 219.67L69.4601 212.589L77.3237 210.097L75.6946 220.562L77.4365 222.644L83.3324 196.084L87.7967 164.342Z" fill="white"/>
<path d="M95.2018 239.786C91.9788 238.88 87.035 237.308 81.6328 235.254C78.5297 234.072 75.2855 232.727 72.1048 231.254C63.8252 227.402 56.1591 222.686 53.4086 217.716C52.1674 215.471 51.2929 213.574 52.9361 211.612L60.6939 202.287L64.742 197.508L84.5737 173.802C84.5737 173.802 98.6787 166.487 102.6 183.325C102.6 183.325 93.2412 193.833 83.3395 204.001C79.3266 208.114 75.2291 212.172 71.6182 215.45C74.6155 219.217 79.0304 221.78 83.7415 223.678C94.4895 228.025 106.782 228.96 107.346 232.882C108.087 238.285 112.142 244.551 95.2018 239.786Z" fill="#F1BFAD"/>
<path d="M83.7133 223.706C82.7259 229.647 81.8232 234.865 81.5975 235.261C78.4944 234.079 75.2503 232.734 72.0696 231.261C71.047 225.519 68.7619 214.225 66.2654 212.143C63.9239 210.182 61.78 205.155 60.6939 202.287L64.742 197.507L68.2683 195.504L83.3183 204C79.3054 208.114 75.2079 212.171 71.5971 215.45C74.6155 219.238 79.0022 221.801 83.7133 223.706Z" fill="#F1B7A3"/>
<path d="M84.6653 205.572C84.1011 206.004 83.7767 206.231 83.7767 206.231L80.7018 208.893L79.6017 209.849L76.9711 212.143C74.3348 212.023 71.7588 211.311 69.4319 210.061C62.725 206.422 60.6375 199.348 60.6375 199.348C60.6375 199.348 61.8364 197.55 63.6982 194.838C68.4798 187.871 77.641 174.835 82.0841 170.714C88.241 164.979 101.648 162.501 105.555 175.154C109.032 186.384 89.179 202.159 84.6653 205.572Z" fill="#7A9FF5"/>
<path d="M72.8947 204.871C71.9445 206.73 70.7825 208.472 69.4319 210.062C62.725 206.422 60.6375 199.349 60.6375 199.349C60.6375 199.349 61.8364 197.55 63.6982 194.838C65.1934 197.939 67.9227 201.586 72.8947 204.871Z" fill="#F5DD90"/>
<path d="M80.7018 208.893L79.6017 209.849L79.9754 208.589L80.7018 208.893Z" fill="#F5DD90"/>
<path d="M79.9754 208.589L79.6016 209.849L76.971 212.143C74.3348 212.023 71.7588 211.311 69.4319 210.061C70.7825 208.472 71.9445 206.73 72.8947 204.871C75.1278 206.341 77.4995 207.586 79.9754 208.589Z" fill="#4278F6"/>
<path d="M85.025 191.305L79.9754 208.589C77.5092 207.584 75.1471 206.339 72.9229 204.871C79.51 192.452 83.3254 170.318 83.3254 170.318L85.025 191.305Z" fill="#5084FC"/>
<path d="M122.439 260.525C121.557 264.505 120.951 266.841 120.951 266.841C116.282 268.231 111.485 269.14 106.634 269.553C91.9859 270.7 82.3239 266.013 73.8891 262.741C70.2218 261.325 66.2936 259.676 67.3091 251.653C67.69 248.531 68.8325 244.445 71.0187 239.035C80.2575 216.094 77.2461 198.924 79.7004 181.222C80.582 174.849 85.688 158.394 101.796 159.576C104.872 159.85 107.89 160.581 110.753 161.743C139.308 172.867 127.065 239.517 122.439 260.525Z" fill="#4278F6"/>
<path d="M122.439 260.525C121.557 264.504 120.95 266.841 120.95 266.841C116.282 268.231 111.485 269.14 106.634 269.553C109.674 264.597 108.933 260.398 105.019 257.473C100.512 254.117 114.42 239.687 117.008 232.812C119.596 225.936 111.839 234.44 109.307 229.845C106.775 225.249 119.836 197.713 115.316 176.896C112.868 165.652 106.853 161.247 101.824 159.569C104.9 159.843 107.918 160.574 110.781 161.736C139.308 172.867 127.065 239.517 122.439 260.525Z" fill="#7A9FF5"/>
<path d="M181.539 239.538C176.644 240.027 167.053 240.954 157.102 241.747C146.17 242.647 134.809 243.425 128.736 243.397C127.489 243.39 126.273 243.003 125.249 242.288C124.226 241.572 123.442 240.561 123.003 239.389L119.575 230.262L118.228 226.673L105.647 193.259C105.647 193.259 106.218 177.306 122.749 182.135C122.749 182.135 126.275 192.565 129.879 204.425C131.995 211.393 134.11 218.856 135.486 224.959C152.539 226.375 184.818 230.716 190.136 232.748C195.171 234.716 194.156 238.292 181.539 239.538Z" fill="#F1B7A3"/>
<path d="M181.539 239.538C176.644 240.027 167.053 240.954 157.102 241.747C141.537 240.565 138.271 229.052 132.785 226.878C128.511 225.193 122.164 228.648 119.575 230.248L118.228 226.659C118.933 217.539 122.918 201.635 122.918 201.635L129.886 204.376C132.002 211.343 134.118 218.806 135.493 224.91C152.546 226.326 184.825 230.666 190.143 232.698C195.171 234.716 194.156 238.292 181.539 239.538Z" fill="#F1BFAD"/>
<path d="M125.915 215.96C126.712 220.059 127.326 223.437 127.636 225.32C124.009 226.891 120 227.352 116.112 226.644C116.112 226.644 114.653 223.741 112.643 219.599C108.82 211.683 103.03 199.242 101.739 193.854C100.618 189.152 101.591 182.893 105.061 178.921C107.635 175.975 111.592 174.297 117.093 175.473C128.546 177.93 132.531 203.038 133.314 208.652C133.405 209.361 133.448 209.757 133.448 209.757L133.666 210.819C131.327 212.877 128.719 214.607 125.915 215.96Z" fill="#7A9FF5"/>
<path d="M87.7896 215.556C91.1938 215.556 93.9535 209.251 93.9535 201.473C93.9535 193.695 91.1938 187.389 87.7896 187.389C84.3854 187.389 81.6257 193.695 81.6257 201.473C81.6257 209.251 84.3854 215.556 87.7896 215.556Z" fill="#F5DD90"/>
<path d="M127.636 225.32C124.009 226.892 120 227.352 116.112 226.644C116.112 226.644 114.653 223.741 112.643 219.599C117.249 219.198 121.746 217.965 125.915 215.96C126.712 220.059 127.312 223.437 127.636 225.32Z" fill="#F5DD90"/>
<path d="M184.226 235.474C184.226 235.474 197.061 242.625 198.803 241.478C200.545 240.331 205.856 237.124 207.407 234.589C208.959 232.054 193.429 234.348 192.597 233.286C191.765 232.224 194.007 228.669 195.46 225.745C196.913 222.821 191.878 224.456 189.508 227.742C187.138 231.027 182.096 231.36 182.096 231.36L184.226 235.474Z" fill="#F1BFAD"/>
<path d="M135.218 218.615C133.411 221.557 130.771 223.892 127.636 225.32C127.312 223.437 126.712 220.059 125.915 215.96C128.709 214.605 131.307 212.875 133.638 210.819L135.218 218.615Z" fill="#4278F6"/>
<path d="M133.638 210.819C131.307 212.875 128.709 214.605 125.915 215.96C124.103 206.571 121.282 193.351 118.405 185.23C115.351 176.584 109.18 177.257 105.061 178.921C107.635 175.975 111.592 174.297 117.093 175.473C128.546 177.93 132.531 203.037 133.314 208.652C133.405 209.361 133.448 209.757 133.448 209.757L133.638 210.819Z" fill="#5084FC"/>
<path d="M122.439 260.525C121.557 264.504 120.951 266.841 120.951 266.841C117.03 268.001 113.019 268.83 108.961 269.319C109.691 266.946 109.862 264.435 109.462 261.984C113.822 261.886 118.165 261.398 122.439 260.525Z" fill="#4278F6"/>
<path d="M488.407 252.46C488.407 252.46 496.045 254.634 496.341 255.576C496.638 256.518 496.412 259.909 496.412 259.909C496.412 259.909 476.608 268.597 475.064 268.781C473.519 268.965 465.762 263.117 465.592 261.701C465.423 260.285 466.77 257.502 466.77 257.502L488.407 252.46Z" fill="#FFBA9F"/>
<path d="M498.373 251.781C508.366 245.528 541.548 224.471 542.359 217.843C543.65 207.392 546.591 170.92 546.591 170.92C546.591 170.92 543.607 155.951 530.031 165.106C530.031 165.106 528.762 193.096 529.326 210.026C520.807 217.709 490.438 247.044 490.537 251.554C490.713 256.709 488.153 258.182 498.373 251.781Z" fill="#5084FC"/>
<path d="M548.467 194.463C547.945 198.18 547.423 200.644 547.423 200.644C545.772 202.407 543.628 203.626 541.273 204.142C534.404 205.707 526.914 201.891 526.914 201.891C526.914 201.891 526.611 200.524 526.533 194.456C526.533 191.9 526.533 188.515 526.59 184.054C526.985 162.522 531.082 159.336 537.507 159.555C538.128 159.555 538.769 159.619 539.425 159.69C551.64 160.979 550.039 183.346 548.467 194.463Z" fill="#7A9FF5"/>
<path d="M542.944 196.835C542.535 199.016 542.02 201.303 541.386 203.703C541.351 203.852 541.308 203.993 541.273 204.142C534.404 205.707 526.914 201.89 526.914 201.89C526.914 201.89 526.611 200.524 526.533 194.456C528.92 196.054 531.632 197.097 534.471 197.508C537.31 197.92 540.205 197.69 542.944 196.835Z" fill="#F5DD90"/>
<path d="M494.169 248.432C494.169 248.432 482.617 249.48 478.999 251.413C475.381 253.346 476.178 254.082 476.178 254.082C474.246 255.012 472.464 256.227 470.889 257.686C468.851 259.761 471.509 263.131 473.195 263.244C474.881 263.358 484.93 260.27 488.33 258.373C491.729 256.475 493.231 253.296 494.169 248.432Z" fill="#5084FC"/>
<path d="M525.172 334.065H518.606C516.631 330.829 511.286 330.857 508.288 334.065H495.918C495.453 328.23 498.126 312.235 494.169 311.003C493.279 310.762 492.44 310.359 491.694 309.814H525.877C525.84 310.758 525.857 311.704 525.927 312.646C526.209 316.059 525.976 325.887 525.172 334.065Z" fill="url(#paint8_linear_1392_294899)"/>
<path d="M495.918 334.065H508.288C508.082 334.287 507.891 334.524 507.717 334.773C504.332 339.368 505.023 354.939 504.642 363.627C504.261 372.315 501.271 371.663 500.453 368.059C499.635 364.455 500.453 357.566 500.453 351.66C500.453 345.755 498.655 337.889 496.497 336.083C496.172 335.786 495.996 335.077 495.918 334.065Z" fill="url(#paint9_linear_1392_294899)"/>
<path d="M518.606 334.065H525.172C524.615 340.062 523.762 345.182 522.661 346.222C520.045 348.679 519.883 342.123 519.354 336.387C519.29 335.565 519.034 334.769 518.606 334.065Z" fill="url(#paint10_linear_1392_294899)"/>
<path d="M529.502 292.615C525.56 290.646 518.416 284.741 523.155 292.615C527.147 299.242 526.04 304.709 525.884 309.814H491.694C489.247 307.93 488.647 304.064 487.3 293.769C485.572 280.656 468.611 264.207 468.611 264.207C468.611 264.207 496.694 266.055 502.914 266.813C509.135 267.571 518.254 276.542 521.956 279.714C525.659 282.886 533.438 294.576 529.502 292.615Z" fill="url(#paint11_linear_1392_294899)"/>
<path d="M472.194 266.572C472.198 266.041 472.074 265.516 471.833 265.042C471.592 264.569 471.24 264.162 470.807 263.855C470.375 263.548 469.874 263.351 469.35 263.28C468.825 263.21 468.291 263.268 467.793 263.45C468.009 262.924 468.119 262.361 468.117 261.793C468.118 261.211 468.005 260.635 467.784 260.097C467.563 259.559 467.238 259.071 466.829 258.659C466.419 258.247 465.933 257.921 465.398 257.698C464.863 257.475 464.289 257.36 463.709 257.36C462.748 257.36 461.813 257.679 461.051 258.267C460.928 257.74 460.66 257.259 460.277 256.879C459.895 256.498 459.414 256.233 458.888 256.114C458.363 255.995 457.815 256.027 457.307 256.206C456.799 256.384 456.351 256.703 456.015 257.125C455.679 257.547 455.467 258.056 455.405 258.593C455.343 259.13 455.432 259.673 455.663 260.162C455.894 260.65 456.258 261.063 456.711 261.354C457.165 261.645 457.691 261.802 458.23 261.807C458.593 261.807 458.952 261.735 459.288 261.595C459.288 261.665 459.288 261.736 459.288 261.807C459.286 262.563 459.479 263.307 459.846 263.967C460.213 264.628 460.743 265.182 461.385 265.578C462.027 265.974 462.76 266.198 463.512 266.228C464.265 266.258 465.013 266.094 465.684 265.751C465.608 266.023 465.568 266.304 465.564 266.586C465.564 267.467 465.913 268.312 466.533 268.935C467.153 269.557 467.995 269.907 468.872 269.907C469.749 269.907 470.59 269.557 471.211 268.935C471.831 268.312 472.179 267.467 472.179 266.586L472.194 266.572Z" fill="white"/>
<path d="M490.791 275.395C490.45 275.393 490.117 275.493 489.833 275.682C489.549 275.871 489.328 276.141 489.196 276.456C489.065 276.772 489.03 277.119 489.095 277.455C489.161 277.791 489.324 278.099 489.565 278.341C489.805 278.584 490.112 278.749 490.446 278.816C490.78 278.883 491.126 278.85 491.441 278.719C491.756 278.589 492.025 278.367 492.214 278.083C492.404 277.799 492.505 277.464 492.505 277.122C492.506 276.896 492.462 276.671 492.376 276.462C492.291 276.252 492.165 276.062 492.005 275.901C491.846 275.74 491.657 275.613 491.449 275.526C491.24 275.439 491.017 275.395 490.791 275.395Z" fill="white"/>
<path d="M499.705 276.492C499.071 276.492 498.45 276.681 497.923 277.035C497.395 277.389 496.984 277.892 496.741 278.481C496.498 279.07 496.434 279.717 496.558 280.342C496.682 280.967 496.988 281.541 497.436 281.992C497.885 282.443 498.457 282.749 499.079 282.874C499.702 282.998 500.347 282.934 500.933 282.69C501.52 282.447 502.021 282.034 502.374 281.504C502.726 280.974 502.914 280.351 502.914 279.714C502.912 278.86 502.574 278.042 501.972 277.438C501.371 276.834 500.556 276.494 499.705 276.492Z" fill="white"/>
<path d="M508.154 273.816C508.158 273.752 508.158 273.688 508.154 273.625C508.154 273.153 507.968 272.701 507.636 272.368C507.304 272.035 506.854 271.847 506.384 271.847C506.098 271.848 505.817 271.921 505.566 272.06C505.926 271.49 506.117 270.83 506.116 270.155C506.116 270.098 506.116 270.049 506.116 269.999C506.43 270.119 506.766 270.167 507.101 270.141C507.436 270.115 507.761 270.015 508.053 269.849C508.345 269.683 508.597 269.454 508.791 269.179C508.984 268.904 509.116 268.589 509.175 268.257C509.234 267.925 509.219 267.585 509.132 267.259C509.045 266.933 508.888 266.631 508.671 266.374C508.455 266.116 508.184 265.91 507.879 265.769C507.574 265.628 507.242 265.557 506.906 265.56C506.713 265.563 506.521 265.591 506.335 265.645C506.29 265.379 506.214 265.12 506.109 264.873H506.159C506.46 264.874 506.755 264.786 507.008 264.62C507.26 264.454 507.458 264.217 507.577 263.939C507.696 263.66 507.731 263.353 507.677 263.055C507.624 262.757 507.484 262.482 507.276 262.263C507.067 262.044 506.799 261.891 506.505 261.824C506.211 261.757 505.904 261.778 505.621 261.885C505.339 261.992 505.095 262.18 504.918 262.425C504.741 262.671 504.641 262.963 504.628 263.266C504.142 262.996 503.597 262.853 503.041 262.848C502.515 262.849 501.998 262.978 501.532 263.223C501.393 262.615 501.115 262.048 500.721 261.566C501.082 261.319 501.378 260.988 501.584 260.602C501.79 260.215 501.9 259.784 501.905 259.346C501.909 258.907 501.808 258.474 501.609 258.084C501.411 257.693 501.121 257.356 500.765 257.102C500.409 256.848 499.997 256.685 499.564 256.625C499.131 256.565 498.691 256.612 498.28 256.76C497.869 256.909 497.5 257.155 497.204 257.478C496.908 257.8 496.694 258.19 496.581 258.614C495.897 257.984 495.045 257.568 494.13 257.417C493.214 257.265 492.274 257.384 491.425 257.759C490.576 258.135 489.853 258.75 489.346 259.53C488.839 260.311 488.569 261.222 488.57 262.154C488.57 262.303 488.57 262.451 488.57 262.6C488.215 262.521 487.853 262.48 487.491 262.48C486.637 262.481 485.798 262.706 485.057 263.13C484.315 263.554 483.696 264.165 483.259 264.901C482.914 264.99 482.578 265.113 482.258 265.269C481.954 264.909 481.576 264.618 481.15 264.419C480.724 264.22 480.259 264.116 479.789 264.115C479.26 264.116 478.738 264.245 478.269 264.492C477.8 264.738 477.397 265.095 477.095 265.531C476.818 266.169 476.339 266.697 475.731 267.033C475.124 267.369 474.423 267.493 473.738 267.386C473.265 267.372 472.796 267.478 472.375 267.693C471.953 267.909 471.592 268.227 471.325 268.619C471.058 269.012 470.894 269.465 470.847 269.937C470.8 270.41 470.873 270.887 471.058 271.324C471.243 271.761 471.534 272.145 471.905 272.439C472.276 272.734 472.715 272.93 473.182 273.01C473.648 273.089 474.127 273.05 474.574 272.895C475.021 272.74 475.423 272.475 475.741 272.123C476.077 272.274 476.433 272.372 476.799 272.414C476.603 272.892 476.503 273.405 476.503 273.922C476.504 274.652 476.701 275.369 477.074 275.997C476.666 276.144 476.306 276.402 476.033 276.741C475.761 277.081 475.586 277.489 475.529 277.921C475.472 278.353 475.534 278.792 475.708 279.191C475.883 279.59 476.163 279.934 476.519 280.184C476.875 280.433 477.292 280.581 477.725 280.609C478.158 280.637 478.591 280.545 478.976 280.343C479.36 280.141 479.682 279.837 479.907 279.464C480.131 279.091 480.249 278.663 480.248 278.227C480.248 278.142 480.248 278.057 480.248 277.972H480.586C481.459 277.974 482.309 277.688 483.005 277.158H483.062C483.259 277.405 483.509 277.604 483.794 277.741C484.078 277.878 484.389 277.95 484.705 277.951C484.984 277.951 485.26 277.897 485.518 277.79C485.776 277.683 486.01 277.526 486.207 277.328C487.373 277.099 488.453 276.549 489.325 275.739C490.198 274.928 490.827 273.889 491.144 272.739C491.446 272.873 491.773 272.942 492.103 272.945C492.516 272.943 492.922 272.833 493.281 272.626C493.851 273.332 494.658 273.805 495.55 273.959C496.443 274.113 497.36 273.936 498.133 273.462C498.659 273.695 499.229 273.816 499.804 273.816H500.002C500.126 274.281 500.411 274.686 500.806 274.958C501.202 275.231 501.681 275.352 502.158 275.301C502.634 275.25 503.077 275.029 503.406 274.679C503.735 274.328 503.928 273.872 503.951 273.391C504.249 273.267 504.529 273.103 504.783 272.902C504.701 273.109 504.658 273.33 504.656 273.554C504.657 273.876 504.747 274.192 504.915 274.467C505.083 274.742 505.323 274.965 505.608 275.111C505.526 275.339 505.483 275.578 505.481 275.82C505.486 276.214 505.6 276.599 505.81 276.932C506.019 277.264 506.318 277.532 506.67 277.705C507.023 277.877 507.417 277.948 507.808 277.909C508.198 277.87 508.57 277.722 508.882 277.483C509.194 277.244 509.433 276.922 509.573 276.554C509.713 276.186 509.749 275.786 509.676 275.399C509.602 275.011 509.423 274.652 509.158 274.362C508.893 274.071 508.553 273.86 508.176 273.752L508.154 273.816ZM494.501 266.841H494.607L494.67 266.912L494.473 267.004C494.488 266.951 494.497 266.896 494.501 266.841Z" fill="white"/>
<path d="M513.472 266.19C512.79 266.19 512.137 266.461 511.654 266.944C511.172 267.428 510.9 268.083 510.898 268.767C510.456 268.766 510.023 268.893 509.651 269.133C509.28 269.374 508.985 269.717 508.804 270.122C508.624 270.527 508.563 270.976 508.632 271.415C508.7 271.853 508.893 272.262 509.188 272.593C509.483 272.923 509.867 273.161 510.294 273.276C510.721 273.392 511.172 273.381 511.593 273.244C512.013 273.108 512.385 272.851 512.664 272.507C512.942 272.162 513.115 271.744 513.162 271.302C513.265 271.309 513.369 271.309 513.472 271.302C514.153 271.302 514.806 271.031 515.287 270.547C515.769 270.064 516.039 269.408 516.039 268.725C516.039 268.041 515.769 267.386 515.287 266.902C514.806 266.419 514.153 266.147 513.472 266.147V266.19Z" fill="white"/>
<path d="M463.597 255.944C463.849 255.944 464.099 255.894 464.332 255.797C464.566 255.7 464.777 255.557 464.956 255.378C465.134 255.198 465.275 254.985 465.371 254.75C465.467 254.516 465.516 254.265 465.515 254.011C465.518 253.966 465.518 253.921 465.515 253.877C465.652 253.905 465.791 253.919 465.931 253.919C466.353 253.919 466.765 253.796 467.119 253.566C467.473 253.336 467.753 253.009 467.927 252.623C468.291 253.342 468.897 253.909 469.637 254.224C470.377 254.539 471.203 254.582 471.972 254.345C472.74 254.108 473.4 253.607 473.836 252.929C474.272 252.251 474.456 251.441 474.356 250.64C474.255 249.84 473.876 249.101 473.286 248.553C472.696 248.005 471.933 247.684 471.13 247.646C470.327 247.608 469.537 247.855 468.898 248.345C468.259 248.835 467.813 249.535 467.638 250.322C467.351 249.964 466.959 249.705 466.518 249.58C466.077 249.456 465.609 249.473 465.178 249.629C464.747 249.785 464.375 250.072 464.115 250.45C463.854 250.828 463.717 251.278 463.724 251.738C463.727 251.869 463.741 251.999 463.766 252.128H463.611C463.349 252.112 463.086 252.15 462.839 252.24C462.592 252.329 462.366 252.469 462.175 252.65C461.983 252.83 461.831 253.048 461.727 253.291C461.623 253.533 461.569 253.793 461.569 254.057C461.569 254.321 461.623 254.582 461.727 254.824C461.831 255.066 461.983 255.284 462.175 255.465C462.366 255.646 462.592 255.785 462.839 255.875C463.086 255.965 463.349 256.003 463.611 255.987L463.597 255.944Z" fill="white"/>
<path d="M516.004 265.56C516.748 265.56 517.351 264.954 517.351 264.207C517.351 263.46 516.748 262.855 516.004 262.855C515.26 262.855 514.657 263.46 514.657 264.207C514.657 264.954 515.26 265.56 516.004 265.56Z" fill="white"/>
<path d="M548.467 194.463C547.945 198.18 547.423 200.644 547.423 200.644C547.253 200.821 547.084 200.998 546.908 201.161C546.732 201.324 546.541 201.501 546.351 201.664C546.16 201.827 546.019 201.926 545.85 202.053L545.638 202.202C545.325 202.435 544.995 202.646 544.651 202.832C544.496 202.924 544.341 203.002 544.193 203.073L544.129 203.108L543.854 203.243C543.727 203.307 543.593 203.363 543.452 203.42C543.062 203.592 542.662 203.739 542.253 203.859C541.936 203.958 541.618 204.043 541.301 204.121C541.301 203.972 541.379 203.831 541.414 203.682C542.049 201.282 542.564 198.994 542.973 196.814C544.888 196.246 546.732 195.457 548.467 194.463Z" fill="#4278F6"/>
<path d="M548.467 194.463C546.724 195.467 544.871 196.263 542.944 196.835C547.684 171.295 537.761 159.832 537.507 159.555C538.128 159.555 538.769 159.619 539.425 159.69C551.64 160.979 550.039 183.346 548.467 194.463Z" fill="#5084FC"/>
<defs>
<linearGradient id="paint0_linear_1392_294899" x1="328.809" y1="307.201" x2="328.809" y2="407.243" gradientUnits="userSpaceOnUse">
<stop stop-color="#586BA4"/>
<stop offset="1" stop-color="#F76C5E"/>
</linearGradient>
<linearGradient id="paint1_linear_1392_294899" x1="394.983" y1="281.371" x2="539.998" y2="261.081" gradientUnits="userSpaceOnUse">
<stop stop-color="#4761A0"/>
<stop offset="1" stop-color="#324376"/>
</linearGradient>
<linearGradient id="paint2_linear_1392_294899" x1="308.977" y1="317.397" x2="366.787" y2="317.397" gradientUnits="userSpaceOnUse">
<stop stop-color="#4761A0"/>
<stop offset="1" stop-color="#324376"/>
</linearGradient>
<linearGradient id="paint3_linear_1392_294899" x1="218.783" y1="243.057" x2="274.639" y2="243.057" gradientUnits="userSpaceOnUse">
<stop stop-color="#4761A0"/>
<stop offset="1" stop-color="#324376"/>
</linearGradient>
<linearGradient id="paint4_linear_1392_294899" x1="214.53" y1="243.058" x2="270.386" y2="243.058" gradientUnits="userSpaceOnUse">
<stop stop-color="#4761A0"/>
<stop offset="1" stop-color="#324376"/>
</linearGradient>
<linearGradient id="paint5_linear_1392_294899" x1="214.869" y1="246.555" x2="221.519" y2="246.555" gradientUnits="userSpaceOnUse">
<stop stop-color="#4761A0"/>
<stop offset="1" stop-color="#324376"/>
</linearGradient>
<linearGradient id="paint6_linear_1392_294899" x1="335.347" y1="325.002" x2="333.811" y2="268.166" gradientUnits="userSpaceOnUse">
<stop offset="0.05" stop-color="#728CCC"/>
<stop offset="0.34" stop-color="#748ECD"/>
<stop offset="0.49" stop-color="#7C94D0"/>
<stop offset="0.62" stop-color="#8AA0D5"/>
<stop offset="0.72" stop-color="#9DAFDC"/>
<stop offset="0.82" stop-color="#B6C4E5"/>
<stop offset="0.91" stop-color="#D5DDF0"/>
<stop offset="0.99" stop-color="#F9FAFD"/>
<stop offset="1" stop-color="white"/>
</linearGradient>
<linearGradient id="paint7_linear_1392_294899" x1="358.416" y1="379.877" x2="353.973" y2="297.743" gradientUnits="userSpaceOnUse">
<stop offset="0.05" stop-color="#4761A0"/>
<stop offset="0.32" stop-color="#4963A1"/>
<stop offset="0.46" stop-color="#516AA5"/>
<stop offset="0.57" stop-color="#5F76AC"/>
<stop offset="0.67" stop-color="#7286B6"/>
<stop offset="0.76" stop-color="#8C9CC3"/>
<stop offset="0.84" stop-color="#AAB6D3"/>
<stop offset="0.92" stop-color="#CFD6E6"/>
<stop offset="0.99" stop-color="#F9FAFC"/>
<stop offset="1" stop-color="white"/>
</linearGradient>
<linearGradient id="paint8_linear_1392_294899" x1="503.204" y1="301.607" x2="517.506" y2="339.111" gradientUnits="userSpaceOnUse">
<stop offset="0.05" stop-color="#4761A0"/>
<stop offset="0.24" stop-color="#425B97"/>
<stop offset="1" stop-color="#324376"/>
</linearGradient>
<linearGradient id="paint9_linear_1392_294899" x1="506.694" y1="359.654" x2="480.591" y2="263.743" gradientUnits="userSpaceOnUse">
<stop offset="0.05" stop-color="#4761A0"/>
<stop offset="0.32" stop-color="#4963A1"/>
<stop offset="0.46" stop-color="#516AA5"/>
<stop offset="0.57" stop-color="#5F76AC"/>
<stop offset="0.67" stop-color="#7286B6"/>
<stop offset="0.76" stop-color="#8C9CC3"/>
<stop offset="0.84" stop-color="#AAB6D3"/>
<stop offset="0.92" stop-color="#CFD6E6"/>
<stop offset="0.99" stop-color="#F9FAFC"/>
<stop offset="1" stop-color="white"/>
</linearGradient>
<linearGradient id="paint10_linear_1392_294899" x1="526.738" y1="354.202" x2="500.634" y2="258.291" gradientUnits="userSpaceOnUse">
<stop offset="0.05" stop-color="#4761A0"/>
<stop offset="0.32" stop-color="#4963A1"/>
<stop offset="0.46" stop-color="#516AA5"/>
<stop offset="0.57" stop-color="#5F76AC"/>
<stop offset="0.67" stop-color="#7286B6"/>
<stop offset="0.76" stop-color="#8C9CC3"/>
<stop offset="0.84" stop-color="#AAB6D3"/>
<stop offset="0.92" stop-color="#CFD6E6"/>
<stop offset="0.99" stop-color="#F9FAFC"/>
<stop offset="1" stop-color="white"/>
</linearGradient>
<linearGradient id="paint11_linear_1392_294899" x1="520.567" y1="355.88" x2="494.463" y2="259.969" gradientUnits="userSpaceOnUse">
<stop offset="0.05" stop-color="#4761A0"/>
<stop offset="0.32" stop-color="#4963A1"/>
<stop offset="0.46" stop-color="#516AA5"/>
<stop offset="0.57" stop-color="#5F76AC"/>
<stop offset="0.67" stop-color="#7286B6"/>
<stop offset="0.76" stop-color="#8C9CC3"/>
<stop offset="0.84" stop-color="#AAB6D3"/>
<stop offset="0.92" stop-color="#CFD6E6"/>
<stop offset="0.99" stop-color="#F9FAFC"/>
<stop offset="1" stop-color="white"/>
</linearGradient>
</defs>
</svg>
