<svg width="78" height="79" viewBox="0 0 78 79" fill="none" xmlns="http://www.w3.org/2000/svg">
<path d="M6.4022 44.6461C5.73317 44.6461 5.19238 44.0493 5.19238 43.311V37.9543C5.19238 37.216 5.73317 36.6191 6.4022 36.6191C7.07124 36.6191 7.61203 37.216 7.61203 37.9543V43.311C7.61203 44.0493 7.07003 44.6461 6.4022 44.6461Z" fill="#4274FE"/>
<path d="M7.61188 41.9674H5.19224C4.52321 41.9674 3.98242 41.3706 3.98242 40.6323C3.98242 39.8939 4.52321 39.2971 5.19224 39.2971H7.61188C8.28092 39.2971 8.8217 39.8939 8.8217 40.6323C8.8217 41.3706 8.27971 41.9674 7.61188 41.9674Z" fill="#4274FE"/>
<path d="M11.244 9.93738C10.575 9.93738 10.0342 9.34056 10.0342 8.60222V3.24556C10.0342 2.50722 10.575 1.9104 11.244 1.9104C11.913 1.9104 12.4538 2.50722 12.4538 3.24556V8.60222C12.4538 9.34056 11.9118 9.93738 11.244 9.93738Z" fill="#4274FE"/>
<path d="M12.4537 7.25894H10.034C9.36501 7.25894 8.82422 6.66212 8.82422 5.92378C8.82422 5.18544 9.36501 4.58862 10.034 4.58862H12.4537C13.1227 4.58862 13.6635 5.18544 13.6635 5.92378C13.6635 6.66212 13.1215 7.25894 12.4537 7.25894Z" fill="#4274FE"/>
<path d="M25.8077 16.6029C25.1386 16.6029 24.5918 16.0061 24.5918 15.2678C24.5918 14.5294 25.1265 13.9326 25.7944 13.9326H25.8077C26.4755 13.9326 27.0175 14.5294 27.0175 15.2678C27.0175 16.0061 26.4743 16.6029 25.8077 16.6029Z" fill="#4274FE"/>
<path d="M6.4395 25.9484C5.77047 25.9484 5.22363 25.3516 5.22363 24.6132C5.22363 23.8749 5.75837 23.2781 6.4262 23.2781H6.4395C7.10732 23.2781 7.64932 23.8749 7.64932 24.6132C7.64932 25.3516 7.10732 25.9484 6.4395 25.9484Z" fill="#4274FE"/>
<path d="M42.6869 7.25905C40.0181 7.25905 37.8477 4.86377 37.8477 1.91841C37.8477 1.18007 38.3884 0.583252 39.0575 0.583252C39.7265 0.583252 40.2673 1.18007 40.2673 1.91841C40.2673 3.39109 41.3525 4.58873 42.6869 4.58873C43.356 4.58873 43.8968 5.18555 43.8968 5.92389C43.8968 6.66223 43.356 7.25905 42.6869 7.25905Z" fill="#4274FE"/>
<path d="M39.0614 11.2593C38.3924 11.2593 37.8516 10.6625 37.8516 9.92416C37.8516 6.98281 40.0208 4.58887 42.6872 4.58887C43.3563 4.58887 43.8971 5.18568 43.8971 5.92403C43.8971 6.66237 43.3563 7.25918 42.6872 7.25918C41.354 7.25918 40.2712 8.45549 40.2712 9.92416C40.2712 10.6625 39.7292 11.2593 39.0614 11.2593Z" fill="#4274FE"/>
<path d="M35.4286 7.25905C34.7595 7.25905 34.2188 6.66223 34.2188 5.92389C34.2188 5.18555 34.7595 4.58873 35.4286 4.58873C36.763 4.58873 37.8482 3.39109 37.8482 1.91841C37.8482 1.18007 38.389 0.583252 39.058 0.583252C39.7271 0.583252 40.2679 1.18007 40.2679 1.91841C40.2679 4.86377 38.0974 7.25905 35.4286 7.25905Z" fill="#4274FE"/>
<path d="M39.0544 11.2593C38.3854 11.2593 37.8446 10.6625 37.8446 9.92416C37.8446 8.45415 36.7606 7.25918 35.4286 7.25918C34.7595 7.25918 34.2188 6.66237 34.2188 5.92403C34.2188 5.18568 34.7595 4.58887 35.4286 4.58887C38.095 4.58887 40.2642 6.98281 40.2642 9.92416C40.2642 10.6625 39.7234 11.2593 39.0544 11.2593Z" fill="#4274FE"/>
<path d="M71.7391 44.6461C71.0701 44.6461 70.5293 44.0493 70.5293 43.311V37.9543C70.5293 37.216 71.0701 36.6191 71.7391 36.6191C72.4081 36.6191 72.9489 37.216 72.9489 37.9543V43.311C72.9489 44.0493 72.4081 44.6461 71.7391 44.6461Z" fill="#4274FE"/>
<path d="M72.9488 41.9674H70.5292C69.8601 41.9674 69.3193 41.3706 69.3193 40.6323C69.3193 39.8939 69.8601 39.2971 70.5292 39.2971H72.9488C73.6178 39.2971 74.1586 39.8939 74.1586 40.6323C74.1586 41.3706 73.6178 41.9674 72.9488 41.9674Z" fill="#4274FE"/>
<path d="M66.8983 9.93738C66.2293 9.93738 65.6885 9.34056 65.6885 8.60222V3.24556C65.6885 2.50722 66.2293 1.9104 66.8983 1.9104C67.5673 1.9104 68.1081 2.50722 68.1081 3.24556V8.60222C68.1081 9.34056 67.5661 9.93738 66.8983 9.93738Z" fill="#4274FE"/>
<path d="M68.108 7.25894H65.6883C65.0193 7.25894 64.4785 6.66212 64.4785 5.92378C64.4785 5.18544 65.0193 4.58862 65.6883 4.58862H68.108C68.777 4.58862 69.3178 5.18544 69.3178 5.92378C69.3178 6.66212 68.7758 7.25894 68.108 7.25894Z" fill="#4274FE"/>
<path d="M52.4063 16.6029C51.7373 16.6029 51.1904 16.0061 51.1904 15.2678C51.1904 14.5294 51.7252 13.9326 52.393 13.9326H52.4063C53.0741 13.9326 53.6161 14.5294 53.6161 15.2678C53.6161 16.0061 53.0741 16.6029 52.4063 16.6029Z" fill="#4274FE"/>
<path d="M71.7745 25.9484C71.1054 25.9484 70.5586 25.3516 70.5586 24.6132C70.5586 23.8749 71.0933 23.2781 71.7612 23.2781H71.7745C72.4423 23.2781 72.9843 23.8749 72.9843 24.6132C72.9843 25.3516 72.4423 25.9484 71.7745 25.9484Z" fill="#4274FE"/>
<path d="M66.8764 70.0039H11.244C10.575 70.0039 10.0342 69.4071 10.0342 68.6687V49.9765C10.0342 49.2382 10.575 48.6414 11.244 48.6414H66.8764C67.5454 48.6414 68.0862 49.2382 68.0862 49.9765V68.6687C68.0862 69.4071 67.5454 70.0039 66.8764 70.0039ZM12.4538 67.3336H65.6666V51.3117H12.4538V67.3336Z" fill="#4274FE"/>
<path d="M25.7641 78.0121H13.6659C12.9968 78.0121 12.4561 77.4153 12.4561 76.6769V68.6687C12.4561 67.9303 12.9968 67.3335 13.6659 67.3335H25.7653C26.4343 67.3335 26.9751 67.9303 26.9751 68.6687V76.6769C26.9739 77.4153 26.4331 78.0121 25.7641 78.0121ZM14.8757 75.3418H24.5555V70.0038H14.8757V75.3418Z" fill="#4274FE"/>
<path d="M64.4547 78.0121H52.3553C51.6863 78.0121 51.1455 77.4153 51.1455 76.6769V68.6687C51.1455 67.9303 51.6863 67.3335 52.3553 67.3335H64.4547C65.1238 67.3335 65.6646 67.9303 65.6646 68.6687V76.6769C65.6646 77.4153 65.1238 78.0121 64.4547 78.0121ZM53.5652 75.3418H63.2449V70.0038H53.5652V75.3418Z" fill="#4274FE"/>
<path d="M11.2449 51.3116C10.8892 51.3116 10.5372 51.1394 10.2988 50.8096C9.88145 50.2328 9.96735 49.3917 10.4888 48.9337L16.5379 43.6064C17.0617 43.1445 17.8215 43.2419 18.2377 43.816C18.6551 44.3928 18.5692 45.234 18.0477 45.6919L11.9986 51.0192C11.7748 51.2168 11.5087 51.3116 11.2449 51.3116Z" fill="#4274FE"/>
<path d="M66.875 51.3115C66.6101 51.3115 66.3451 51.2167 66.1213 51.0191L60.0722 45.6918C59.5495 45.2325 59.4648 44.3914 59.8822 43.8159C60.2984 43.2405 61.0606 43.1457 61.582 43.6063L67.6311 48.9336C68.1538 49.3929 68.2385 50.234 67.8211 50.8095C67.5828 51.1393 67.2307 51.3115 66.875 51.3115Z" fill="#4274FE"/>
<path d="M60.827 45.984H17.2928C16.6238 45.984 16.083 45.3872 16.083 44.6489C16.083 43.9105 16.6238 43.3137 17.2928 43.3137H60.827C61.4961 43.3137 62.0369 43.9105 62.0369 44.6489C62.0369 45.3872 61.4961 45.984 60.827 45.984Z" fill="#4274FE"/>
<path d="M51.1542 63.3283C50.4851 63.3283 49.9443 62.7315 49.9443 61.9931C49.9443 57.5751 53.2 53.9822 57.2033 53.9822C57.8723 53.9822 58.4131 54.579 58.4131 55.3173C58.4131 56.0557 57.8723 56.6525 57.2033 56.6525C54.5344 56.6525 52.364 59.0478 52.364 61.9931C52.364 62.7315 51.8232 63.3283 51.1542 63.3283Z" fill="#4274FE"/>
<path d="M55.9872 63.3283C55.3181 63.3283 54.7773 62.7315 54.7773 61.9931C54.7773 61.2548 55.3181 60.658 55.9872 60.658C58.656 60.658 60.8265 58.2627 60.8265 55.3173C60.8265 54.579 61.3672 53.9822 62.0363 53.9822C62.7053 53.9822 63.2461 54.579 63.2461 55.3173C63.2461 59.7354 59.9905 63.3283 55.9872 63.3283Z" fill="#4274FE"/>
<path d="M62.0362 56.6525H57.203C56.534 56.6525 55.9932 56.0557 55.9932 55.3173C55.9932 54.579 56.534 53.9822 57.203 53.9822H62.0362C62.7053 53.9822 63.246 54.579 63.246 55.3173C63.246 56.0557 62.7053 56.6525 62.0362 56.6525Z" fill="#4274FE"/>
<path d="M55.9874 63.328H51.1542C50.4851 63.328 49.9443 62.7312 49.9443 61.9929C49.9443 61.2545 50.4851 60.6577 51.1542 60.6577H55.9874C56.6564 60.6577 57.1972 61.2545 57.1972 61.9929C57.1972 62.7312 56.6564 63.328 55.9874 63.328Z" fill="#4274FE"/>
<path d="M26.9669 63.3283C26.2979 63.3283 25.7571 62.7315 25.7571 61.9931C25.7571 59.0478 23.5867 56.6525 20.9178 56.6525C20.2488 56.6525 19.708 56.0557 19.708 55.3173C19.708 54.579 20.2488 53.9822 20.9178 53.9822C24.9211 53.9822 28.1768 57.5751 28.1768 61.9931C28.1768 62.7315 27.6348 63.3283 26.9669 63.3283Z" fill="#4274FE"/>
<path d="M22.1339 63.3283C18.1306 63.3283 14.875 59.7354 14.875 55.3173C14.875 54.579 15.4158 53.9822 16.0848 53.9822C16.7539 53.9822 17.2946 54.579 17.2946 55.3173C17.2946 58.2627 19.4651 60.658 22.1339 60.658C22.803 60.658 23.3438 61.2548 23.3438 61.9931C23.3438 62.7315 22.8018 63.3283 22.1339 63.3283Z" fill="#4274FE"/>
<path d="M20.9181 56.6525H16.0848C15.4158 56.6525 14.875 56.0557 14.875 55.3173C14.875 54.579 15.4158 53.9822 16.0848 53.9822H20.9181C21.5871 53.9822 22.1279 54.579 22.1279 55.3173C22.1279 56.0557 21.5859 56.6525 20.9181 56.6525Z" fill="#4274FE"/>
<path d="M26.9669 63.328H22.1336C21.4646 63.328 20.9238 62.7312 20.9238 61.9929C20.9238 61.2545 21.4646 60.6577 22.1336 60.6577H26.9669C27.6359 60.6577 28.1767 61.2545 28.1767 61.9929C28.1767 62.7312 27.6347 63.328 26.9669 63.328Z" fill="#4274FE"/>
<path d="M37.8555 64.6686C33.1868 64.6686 29.3867 60.4748 29.3867 55.3225C29.3867 54.5841 29.9275 53.9873 30.5965 53.9873C31.2656 53.9873 31.8064 54.5841 31.8064 55.3225C31.8064 59.0035 34.52 61.9983 37.8555 61.9983C38.5245 61.9983 39.0653 62.5951 39.0653 63.3334C39.0653 64.0718 38.5233 64.6686 37.8555 64.6686Z" fill="#4274FE"/>
<path d="M40.2655 64.6686C39.5965 64.6686 39.0557 64.0718 39.0557 63.3334C39.0557 62.5951 39.5965 61.9983 40.2655 61.9983C43.601 61.9983 46.3146 59.0035 46.3146 55.3225C46.3146 54.5841 46.8554 53.9873 47.5244 53.9873C48.1934 53.9873 48.7342 54.5841 48.7342 55.3225C48.7342 60.4748 44.9342 64.6686 40.2655 64.6686Z" fill="#4274FE"/>
<path d="M40.2651 64.6711H37.8612C37.1922 64.6711 36.6514 64.0742 36.6514 63.3359C36.6514 62.5975 37.1922 62.0007 37.8612 62.0007H40.2651C40.9341 62.0007 41.4749 62.5975 41.4749 63.3359C41.4749 64.0742 40.9341 64.6711 40.2651 64.6711Z" fill="#4274FE"/>
<path d="M47.5244 56.6576H30.5965C29.9275 56.6576 29.3867 56.0608 29.3867 55.3225C29.3867 54.5841 29.9275 53.9873 30.5965 53.9873H47.5244C48.1934 53.9873 48.7342 54.5841 48.7342 55.3225C48.7342 56.0608 48.1934 56.6576 47.5244 56.6576Z" fill="#4274FE"/>
<path d="M46.5581 60.663H31.5624C30.8933 60.663 30.3525 60.0662 30.3525 59.3278C30.3525 58.5895 30.8933 57.9927 31.5624 57.9927H46.5581C47.2271 57.9927 47.7679 58.5895 47.7679 59.3278C47.7679 60.0662 47.2271 60.663 46.5581 60.663Z" fill="#4274FE"/>
<path d="M17.2928 31.2975C16.6238 31.2975 16.083 30.7007 16.083 29.9624C16.083 25.5443 19.3386 21.9514 23.3419 21.9514C24.011 21.9514 24.5517 22.5482 24.5517 23.2866C24.5517 24.0249 24.011 24.6217 23.3419 24.6217C20.6731 24.6217 18.5026 27.017 18.5026 29.9624C18.5026 30.7007 17.9606 31.2975 17.2928 31.2975Z" fill="#4274FE"/>
<path d="M20.9227 31.2974C20.2537 31.2974 19.7129 30.7006 19.7129 29.9623C19.7129 27.7539 21.3413 25.9568 23.3424 25.9568C24.0114 25.9568 24.5522 26.5536 24.5522 27.2919C24.5522 28.0303 24.0114 28.6271 23.3424 28.6271C22.6745 28.6271 22.1325 29.2253 22.1325 29.9623C22.1325 30.7006 21.5905 31.2974 20.9227 31.2974Z" fill="#4274FE"/>
<path d="M17.2928 45.984C16.6238 45.984 16.083 45.3872 16.083 44.6489V29.9621C16.083 29.2238 16.6238 28.627 17.2928 28.627C17.9619 28.627 18.5027 29.2238 18.5027 29.9621V44.6489C18.5027 45.3872 17.9607 45.984 17.2928 45.984Z" fill="#4274FE"/>
<path d="M20.9227 45.984C20.2537 45.984 19.7129 45.3872 19.7129 44.6489V29.9621C19.7129 29.2238 20.2537 28.627 20.9227 28.627C21.5917 28.627 22.1325 29.2238 22.1325 29.9621V44.6489C22.1325 45.3872 21.5905 45.984 20.9227 45.984Z" fill="#4274FE"/>
<path d="M60.8273 31.2975C60.1583 31.2975 59.6175 30.7007 59.6175 29.9624C59.6175 27.017 57.447 24.6217 54.7782 24.6217C54.1091 24.6217 53.5684 24.0249 53.5684 23.2866C53.5684 22.5482 54.1091 21.9514 54.7782 21.9514C58.7815 21.9514 62.0371 25.5443 62.0371 29.9624C62.0371 30.7007 61.4963 31.2975 60.8273 31.2975Z" fill="#4274FE"/>
<path d="M57.1978 31.2974C56.5288 31.2974 55.988 30.7006 55.988 29.9623C55.988 29.2253 55.446 28.6271 54.7782 28.6271C54.1091 28.6271 53.5684 28.0303 53.5684 27.2919C53.5684 26.5536 54.1091 25.9568 54.7782 25.9568C56.7792 25.9568 58.4076 27.7539 58.4076 29.9623C58.4076 30.7006 57.8669 31.2974 57.1978 31.2974Z" fill="#4274FE"/>
<path d="M60.827 45.984C60.158 45.984 59.6172 45.3872 59.6172 44.6489V29.9621C59.6172 29.2238 60.158 28.627 60.827 28.627C61.496 28.627 62.0368 29.2238 62.0368 29.9621V44.6489C62.0368 45.3872 61.496 45.984 60.827 45.984Z" fill="#4274FE"/>
<path d="M57.1971 45.984C56.5281 45.984 55.9873 45.3872 55.9873 44.6489V29.9621C55.9873 29.2238 56.5281 28.627 57.1971 28.627C57.8662 28.627 58.4069 29.2238 58.4069 29.9621V44.6489C58.4069 45.3872 57.8662 45.984 57.1971 45.984Z" fill="#4274FE"/>
<path d="M54.7786 24.6217H23.3426C22.6736 24.6217 22.1328 24.0249 22.1328 23.2866C22.1328 22.5482 22.6736 21.9514 23.3426 21.9514H54.7786C55.4477 21.9514 55.9885 22.5482 55.9885 23.2866C55.9885 24.0249 55.4477 24.6217 54.7786 24.6217Z" fill="#4274FE"/>
<path d="M54.7786 28.6295H23.3426C22.6736 28.6295 22.1328 28.0327 22.1328 27.2944C22.1328 26.556 22.6736 25.9592 23.3426 25.9592H54.7786C55.4477 25.9592 55.9885 26.556 55.9885 27.2944C55.9885 28.0327 55.4477 28.6295 54.7786 28.6295Z" fill="#4274FE"/>
<path d="M76.5518 78.0117H1.54283C0.873798 78.0117 0.333008 77.4149 0.333008 76.6766C0.333008 75.9382 0.873798 75.3414 1.54283 75.3414H76.5518C77.2208 75.3414 77.7616 75.9382 77.7616 76.6766C77.7616 77.4149 77.2208 78.0117 76.5518 78.0117Z" fill="#4274FE"/>
</svg>
