<?xml version="1.0" encoding="UTF-8"?>
<svg xmlns="http://www.w3.org/2000/svg" xmlns:xlink="http://www.w3.org/1999/xlink" viewBox="0 0 24 24" width="24px" height="24px">
<g id="surface6191569">
<path style=" stroke:none;fill-rule:nonzero;fill:rgb(0%,0%,0%);fill-opacity:1;" d="M 17.929688 2.976562 C 17.144531 2.976562 16.359375 3.28125 15.75 3.890625 L 3.890625 15.75 L 3.84375 15.984375 L 3.023438 20.109375 L 2.789062 21.210938 L 3.890625 20.976562 L 8.015625 20.15625 L 8.25 20.109375 L 20.109375 8.25 C 21.328125 7.03125 21.328125 5.109375 20.109375 3.890625 C 19.5 3.28125 18.714844 2.976562 17.929688 2.976562 Z M 17.929688 4.40625 C 18.308594 4.40625 18.6875 4.578125 19.054688 4.945312 C 19.785156 5.675781 19.785156 6.464844 19.054688 7.195312 L 18.515625 7.710938 L 16.289062 5.484375 L 16.804688 4.945312 C 17.171875 4.578125 17.550781 4.40625 17.929688 4.40625 Z M 15.234375 6.539062 L 17.460938 8.765625 L 8.390625 17.835938 C 7.898438 16.875 7.125 16.101562 6.164062 15.609375 Z M 5.203125 16.828125 C 6.101562 17.191406 6.808594 17.898438 7.171875 18.796875 L 4.710938 19.289062 Z M 5.203125 16.828125 "/>
</g>
</svg>
