<svg width="80" height="80" viewBox="0 0 80 80" fill="none" xmlns="http://www.w3.org/2000/svg">
<path opacity="0.2" d="M52.5 17.5V67.5H17.5V17.5C17.5 16.1739 18.0268 14.9021 18.9645 13.9645C19.9021 13.0268 21.1739 12.5 22.5 12.5H47.5C48.8261 12.5 50.0979 13.0268 51.0355 13.9645C51.9732 14.9021 52.5 16.1739 52.5 17.5Z" fill="#5084FC"/>
<path d="M75.3031 21.7675L69.2678 15.7322C69.0357 15.5 68.7601 15.3159 68.4567 15.1902C68.1534 15.0646 67.8283 14.9999 67.5 14.9999C67.1717 14.9999 66.8466 15.0646 66.5433 15.1902C66.2399 15.3159 65.9643 15.5 65.7322 15.7322C65.5 15.9643 65.3159 16.2399 65.1902 16.5433C65.0646 16.8466 64.9999 17.1717 64.9999 17.5C64.9999 17.8283 65.0646 18.1534 65.1902 18.4567C65.3159 18.7601 65.5 19.0357 65.7322 19.2678L71.7675 25.3031C72.0004 25.5347 72.1851 25.8102 72.3108 26.1137C72.4366 26.4171 72.5009 26.7425 72.5 27.0709V52.5C72.5 53.163 72.2366 53.7989 71.7678 54.2678C71.2989 54.7366 70.663 55 70 55C69.337 55 68.7011 54.7366 68.2322 54.2678C67.7634 53.7989 67.5 53.163 67.5 52.5V40C67.4978 38.0116 66.7069 36.1052 65.3008 34.6992C63.8948 33.2931 61.9884 32.5022 60 32.5H55V17.5C54.9978 15.5116 54.2069 13.6052 52.8008 12.1992C51.3948 10.7931 49.4884 10.0022 47.5 10H22.5C20.5116 10.0022 18.6052 10.7931 17.1992 12.1992C15.7931 13.6052 15.0022 15.5116 15 17.5V65H10C9.33696 65 8.70107 65.2634 8.23223 65.7322C7.76339 66.2011 7.5 66.837 7.5 67.5C7.5 68.163 7.76339 68.7989 8.23223 69.2678C8.70107 69.7366 9.33696 70 10 70H60C60.663 70 61.2989 69.7366 61.7678 69.2678C62.2366 68.7989 62.5 68.163 62.5 67.5C62.5 66.837 62.2366 66.2011 61.7678 65.7322C61.2989 65.2634 60.663 65 60 65H55V37.5H60C60.6628 37.5008 61.2982 37.7645 61.7669 38.2331C62.2355 38.7018 62.4992 39.3372 62.5 40V52.5C62.5 54.4891 63.2902 56.3968 64.6967 57.8033C66.1032 59.2098 68.0109 60 70 60C71.9891 60 73.8968 59.2098 75.3033 57.8033C76.7098 56.3968 77.5 54.4891 77.5 52.5V27.0709C77.5026 26.0856 77.3098 25.1096 76.9327 24.1993C76.5556 23.2891 76.0017 22.4626 75.3031 21.7678V21.7675ZM20 65V17.5C20.0008 16.8372 20.2645 16.2018 20.7331 15.7331C21.2018 15.2645 21.8372 15.0008 22.5 15H47.5C48.1628 15.0008 48.7982 15.2645 49.2669 15.7331C49.7355 16.2018 49.9992 16.8372 50 17.5V65H20ZM45 35C45 35.663 44.7366 36.2989 44.2678 36.7678C43.7989 37.2366 43.163 37.5 42.5 37.5H27.5C26.837 37.5 26.2011 37.2366 25.7322 36.7678C25.2634 36.2989 25 35.663 25 35C25 34.337 25.2634 33.7011 25.7322 33.2322C26.2011 32.7634 26.837 32.5 27.5 32.5H42.5C43.163 32.5 43.7989 32.7634 44.2678 33.2322C44.7366 33.7011 45 34.337 45 35Z" fill="#5084FC"/>
</svg>
