<svg width="33" height="32" viewBox="0 0 33 32" fill="none" xmlns="http://www.w3.org/2000/svg">
<path fill-rule="evenodd" clip-rule="evenodd" d="M0.5 16C0.5 11.7565 2.18571 7.68687 5.18629 4.68629C8.18687 1.68571 12.2565 0 16.5 0C20.7435 0 24.8131 1.68571 27.8137 4.68629C30.8143 7.68687 32.5 11.7565 32.5 16C32.5 20.2435 30.8143 24.3131 27.8137 27.3137C24.8131 30.3143 20.7435 32 16.5 32C12.2565 32 8.18687 30.3143 5.18629 27.3137C2.18571 24.3131 0.5 20.2435 0.5 16H0.5ZM15.5869 22.848L24.7987 11.3323L23.1347 10.0011L15.2797 19.8165L9.716 15.1808L8.35067 16.8192L15.5869 22.8501V22.848Z" fill="#6FCF97"/>
</svg>
