<svg width="32" height="32" viewBox="0 0 32 32" fill="none" xmlns="http://www.w3.org/2000/svg">
<path d="M28.106 9.33338C27.8756 8.93421 27.5457 8.60156 27.1485 8.36788C26.7512 8.1342 26.3002 8.00747 25.8393 8.00005H8.77268L7.99935 4.98672C7.92122 4.69583 7.7469 4.43997 7.50479 4.26081C7.26267 4.08165 6.96703 3.98974 6.66602 4.00005H3.99935C3.64573 4.00005 3.30659 4.14053 3.05654 4.39057C2.80649 4.64062 2.66602 4.97976 2.66602 5.33338C2.66602 5.687 2.80649 6.02614 3.05654 6.27619C3.30659 6.52624 3.64573 6.66672 3.99935 6.66672H5.65268L9.33268 20.3467C9.41082 20.6376 9.58513 20.8935 9.82725 21.0726C10.0694 21.2518 10.365 21.3437 10.666 21.3334H22.666C22.9122 21.3326 23.1534 21.2637 23.3629 21.1343C23.5724 21.0048 23.7419 20.8199 23.8527 20.6L28.226 11.8534C28.4156 11.4561 28.5038 11.018 28.4829 10.5783C28.4619 10.1386 28.3325 9.71089 28.106 9.33338Z" fill="#140730"/>
<path d="M10 28C11.1046 28 12 27.1046 12 26C12 24.8954 11.1046 24 10 24C8.89543 24 8 24.8954 8 26C8 27.1046 8.89543 28 10 28Z" fill="#140730"/>
<path d="M23.334 28C24.4386 28 25.334 27.1046 25.334 26C25.334 24.8954 24.4386 24 23.334 24C22.2294 24 21.334 24.8954 21.334 26C21.334 27.1046 22.2294 28 23.334 28Z" fill="#140730"/>
</svg>
