<svg width="24" height="30" viewBox="0 0 24 30" fill="none" xmlns="http://www.w3.org/2000/svg">
<path d="M12 16.3335C14.2091 16.3335 16 14.5426 16 12.3335C16 10.1244 14.2091 8.3335 12 8.3335C9.79086 8.3335 8 10.1244 8 12.3335C8 14.5426 9.79086 16.3335 12 16.3335Z" stroke="#5084FC" stroke-width="2" stroke-linecap="round" stroke-linejoin="round"/>
<path d="M12.0007 1.66675C9.17168 1.66675 6.45857 2.79055 4.45818 4.79094C2.45779 6.79133 1.33398 9.50444 1.33398 12.3334C1.33398 14.8561 1.86998 16.5067 3.33398 18.3334L12.0007 28.3334L20.6673 18.3334C22.1313 16.5067 22.6673 14.8561 22.6673 12.3334C22.6673 9.50444 21.5435 6.79133 19.5431 4.79094C17.5427 2.79055 14.8296 1.66675 12.0007 1.66675V1.66675Z" stroke="#5084FC" stroke-width="2" stroke-linecap="round" stroke-linejoin="round"/>
</svg>
