<svg width="8" height="22" viewBox="0 0 8 22" fill="none" xmlns="http://www.w3.org/2000/svg">
<path d="M1 7C1 6.20435 1.31607 5.44129 1.87868 4.87868C2.44129 4.31607 3.20435 4 4 4V4C4.79565 4 5.55871 4.31607 6.12132 4.87868C6.68393 5.44129 7 6.20435 7 7V20.4C7 20.4788 6.98448 20.5568 6.95433 20.6296C6.92417 20.7024 6.87998 20.7685 6.82426 20.8243C6.76855 20.88 6.70241 20.9242 6.62961 20.9543C6.55681 20.9845 6.47879 21 6.4 21H1.6C1.52121 21 1.44319 20.9845 1.37039 20.9543C1.29759 20.9242 1.23145 20.88 1.17574 20.8243C1.12002 20.7685 1.07583 20.7024 1.04567 20.6296C1.01552 20.5568 1 20.4788 1 20.4V7Z" stroke="#5084FC" stroke-width="1.5" stroke-linecap="round"/>
<path d="M1 10H7" stroke="#5084FC" stroke-width="1.5" stroke-linecap="round"/>
<path d="M4 1H5M4 4V1V4ZM4 1H3H4Z" stroke="#5084FC" stroke-width="1.5" stroke-linecap="round"/>
</svg>
