<svg width="17" height="18" viewBox="0 0 17 18" fill="none" xmlns="http://www.w3.org/2000/svg">
<path d="M8.5 0H2.5C1.4 0 0.5 0.9 0.5 2V18H10.5V10.5H12V15.5C12 16.163 12.2634 16.7989 12.7322 17.2678C13.2011 17.7366 13.837 18 14.5 18C15.163 18 15.7989 17.7366 16.2678 17.2678C16.7366 16.7989 17 16.163 17 15.5V6C17 5.31 16.72 4.68 16.27 4.23L16.28 4.22L12.56 0.5L11.5 1.56L13.61 3.67C12.67 4.03 12 4.93 12 6C12 6.3283 12.0647 6.65339 12.1903 6.95671C12.3159 7.26002 12.5001 7.53562 12.7322 7.76777C13.2011 8.23661 13.837 8.5 14.5 8.5C14.86 8.5 15.19 8.42 15.5 8.29V15.5C15.5 16.05 15.05 16.5 14.5 16.5C13.95 16.5 13.5 16.05 13.5 15.5V11C13.5 9.9 12.6 9 11.5 9H10.5V2C10.5 0.9 9.6 0 8.5 0ZM8.5 8V16H2.5V2H8.5V8ZM14.5 7C13.95 7 13.5 6.55 13.5 6C13.5 5.45 13.95 5 14.5 5C15.05 5 15.5 5.45 15.5 6C15.5 6.55 15.05 7 14.5 7ZM6.5 3L2.5 10.5H4.5V15L8.5 8H6.5V3Z" fill="#5084FC"/>
</svg>
