<svg width="22" height="18" viewBox="0 0 22 18" fill="none" xmlns="http://www.w3.org/2000/svg">
<path d="M21.0909 3.53025L19.2803 1.71966C19.2107 1.65001 19.128 1.59476 19.037 1.55707C18.946 1.51938 18.8485 1.49998 18.75 1.49998C18.6515 1.49998 18.554 1.51938 18.463 1.55707C18.372 1.59476 18.2893 1.65001 18.2197 1.71966C18.15 1.7893 18.0948 1.87198 18.0571 1.96298C18.0194 2.05398 18 2.15151 18 2.25C18 2.34849 18.0194 2.44602 18.0571 2.53702C18.0948 2.62802 18.15 2.7107 18.2197 2.78034L20.0303 4.59094C20.1001 4.66042 20.1555 4.74306 20.1932 4.8341C20.231 4.92513 20.2503 5.02274 20.25 5.12128V12.75C20.25 12.9489 20.171 13.1397 20.0303 13.2803C19.8897 13.421 19.6989 13.5 19.5 13.5C19.3011 13.5 19.1103 13.421 18.9697 13.2803C18.829 13.1397 18.75 12.9489 18.75 12.75V9C18.7493 8.40347 18.5121 7.83156 18.0903 7.40975C17.6684 6.98794 17.0965 6.75067 16.5 6.75H15V2.25C14.9993 1.65347 14.7621 1.08156 14.3403 0.65975C13.9184 0.237938 13.3465 0.000669968 12.75 0H5.25C4.65347 0.000669968 4.08156 0.237938 3.65975 0.65975C3.23794 1.08156 3.00067 1.65347 3 2.25V16.5H1.5C1.30109 16.5 1.11032 16.579 0.96967 16.7197C0.829018 16.8603 0.75 17.0511 0.75 17.25C0.75 17.4489 0.829018 17.6397 0.96967 17.7803C1.11032 17.921 1.30109 18 1.5 18H16.5C16.6989 18 16.8897 17.921 17.0303 17.7803C17.171 17.6397 17.25 17.4489 17.25 17.25C17.25 17.0511 17.171 16.8603 17.0303 16.7197C16.8897 16.579 16.6989 16.5 16.5 16.5H15V8.25H16.5C16.6988 8.25025 16.8895 8.32935 17.0301 8.46994C17.1707 8.61054 17.2498 8.80116 17.25 9V12.75C17.25 13.3467 17.4871 13.919 17.909 14.341C18.331 14.7629 18.9033 15 19.5 15C20.0967 15 20.669 14.7629 21.091 14.341C21.5129 13.919 21.75 13.3467 21.75 12.75V5.12128C21.7508 4.82569 21.6929 4.53289 21.5798 4.2598C21.4667 3.98672 21.3005 3.73878 21.0909 3.53034V3.53025ZM4.5 16.5V2.25C4.50025 2.05116 4.57935 1.86054 4.71994 1.71994C4.86054 1.57935 5.05116 1.50025 5.25 1.5H12.75C12.9488 1.50025 13.1395 1.57935 13.2801 1.71994C13.4207 1.86054 13.4998 2.05116 13.5 2.25V16.5H4.5ZM12 7.5C12 7.69891 11.921 7.88968 11.7803 8.03033C11.6397 8.17098 11.4489 8.25 11.25 8.25H6.75C6.55109 8.25 6.36032 8.17098 6.21967 8.03033C6.07902 7.88968 6 7.69891 6 7.5C6 7.30109 6.07902 7.11032 6.21967 6.96967C6.36032 6.82902 6.55109 6.75 6.75 6.75H11.25C11.4489 6.75 11.6397 6.82902 11.7803 6.96967C11.921 7.11032 12 7.30109 12 7.5Z" fill="#5084FC"/>
</svg>
