<svg width="589" height="500" viewBox="0 0 589 500" fill="none" xmlns="http://www.w3.org/2000/svg">
<rect width="589" height="500" rx="25" fill="#D7EBFF"/>
<g clip-path="url(#clip0_29156_288477)">
<path d="M337.5 319.887H333.822V225.177C333.822 224.689 334.015 224.221 334.36 223.876C334.705 223.531 335.173 223.338 335.661 223.338H375.2V227.016H337.5V319.887Z" fill="#5084FC"/>
<path d="M524.161 454.136H347.614V450.458H522.322V227.016H485.541V223.338H524.161C524.649 223.338 525.117 223.531 525.461 223.876C525.806 224.221 526 224.689 526 225.177V452.297C526 452.784 525.806 453.252 525.461 453.597C525.117 453.942 524.649 454.136 524.161 454.136Z" fill="#5084FC"/>
<path d="M354.97 321.726H351.292V242.647C351.292 242.16 351.486 241.692 351.831 241.347C352.176 241.002 352.644 240.808 353.131 240.808H372.441V244.486H354.97V321.726Z" fill="#5084FC"/>
<path d="M506.69 437.584H352.212C351.724 437.584 351.256 437.391 350.911 437.046C350.567 436.701 350.373 436.233 350.373 435.745V356.667H354.051V433.906H504.851V244.486H484.622V240.808H506.69C507.178 240.808 507.646 241.002 507.991 241.347C508.336 241.692 508.529 242.16 508.529 242.647V435.745C508.529 436.233 508.336 436.701 507.991 437.046C507.646 437.391 507.178 437.584 506.69 437.584Z" fill="#5084FC"/>
<path d="M429.911 229.774C427.819 229.774 425.775 229.154 424.036 227.992C422.297 226.83 420.942 225.179 420.141 223.246C419.341 221.314 419.131 219.188 419.539 217.137C419.947 215.086 420.954 213.201 422.433 211.723C423.912 210.244 425.796 209.237 427.848 208.829C429.899 208.421 432.025 208.63 433.957 209.43C435.889 210.231 437.541 211.586 438.703 213.325C439.865 215.064 440.485 217.108 440.485 219.2C440.483 222.004 439.368 224.692 437.385 226.674C435.403 228.657 432.714 229.772 429.911 229.774ZM429.911 212.303C428.547 212.303 427.213 212.708 426.079 213.466C424.945 214.223 424.061 215.301 423.539 216.561C423.017 217.821 422.881 219.207 423.147 220.545C423.413 221.883 424.07 223.112 425.034 224.076C425.999 225.041 427.227 225.698 428.565 225.964C429.903 226.23 431.29 226.093 432.55 225.571C433.81 225.049 434.887 224.165 435.645 223.031C436.403 221.897 436.807 220.564 436.807 219.2C436.807 217.371 436.08 215.617 434.787 214.323C433.494 213.03 431.74 212.303 429.911 212.303Z" fill="#5084FC"/>
<path d="M474.507 247.245H384.395C383.907 247.245 383.439 247.051 383.094 246.706C382.749 246.361 382.556 245.894 382.556 245.406V220.579C382.556 220.091 382.749 219.623 383.094 219.279C383.439 218.934 383.907 218.74 384.395 218.74H403.704V222.418H386.234V243.567H472.668V222.418H454.958C454.484 222.418 454.029 222.236 453.686 221.909C453.344 221.582 453.14 221.135 453.119 220.662C452.904 214.508 450.323 208.675 445.914 204.378C441.505 200.08 435.608 197.649 429.451 197.591V193.913C436.25 193.97 442.788 196.535 447.812 201.117C452.835 205.699 455.989 211.975 456.669 218.74H474.507C474.995 218.74 475.463 218.934 475.808 219.279C476.152 219.623 476.346 220.091 476.346 220.579V245.406C476.346 245.894 476.152 246.361 475.808 246.706C475.463 247.051 474.995 247.245 474.507 247.245Z" fill="#5084FC"/>
<path d="M407.383 356.667H375.2C374.712 356.667 374.244 356.473 373.899 356.128C373.554 355.784 373.361 355.316 373.361 354.828V322.645C373.361 322.157 373.554 321.69 373.899 321.345C374.244 321 374.712 320.806 375.2 320.806H395.429V324.484H377.039V352.989H407.383V356.667Z" fill="#5084FC"/>
<path d="M407.383 303.335H375.2C374.712 303.335 374.244 303.142 373.899 302.797C373.554 302.452 373.361 301.984 373.361 301.496V269.313C373.361 268.826 373.554 268.358 373.899 268.013C374.244 267.668 374.712 267.474 375.2 267.474H397.268V271.152H377.039V299.657H407.383V303.335Z" fill="#5084FC"/>
<path d="M487.38 284.945H421.175V288.623H487.38V284.945Z" fill="#5084FC"/>
<path d="M485.541 332.76H476.346V329.082H485.541V332.76ZM467.151 332.76H457.956V329.082H467.151V332.76ZM448.761 332.76H439.566V329.082H448.761V332.76ZM430.37 332.76H421.175V329.082H430.37V332.76Z" fill="#5084FC"/>
<path d="M487.38 343.794H453.358V347.472H487.38V343.794Z" fill="#5084FC"/>
<path d="M438.646 343.794H421.175V347.472H438.646V343.794Z" fill="#5084FC"/>
<path d="M398.27 294.876C397.785 294.876 397.319 294.684 396.974 294.342L385.682 283.051L388.284 280.449L397.884 290.057L409.838 269.534L413.019 271.373L399.843 293.956C399.704 294.203 399.509 294.415 399.275 294.574C399.04 294.734 398.772 294.837 398.491 294.876H398.27Z" fill="#5084FC"/>
<path d="M396.394 346.065C396.124 346.065 395.857 346.006 395.613 345.892C395.368 345.777 395.151 345.611 394.978 345.403L385.572 334.111L388.395 331.757L396.229 341.164L409.92 320.622L412.973 322.663L397.921 345.247C397.762 345.485 397.55 345.684 397.301 345.826C397.052 345.968 396.773 346.05 396.486 346.065H396.394Z" fill="#5084FC"/>
<path d="M468.53 413.677C464.984 413.677 461.517 412.625 458.568 410.655C455.62 408.685 453.322 405.885 451.964 402.608C450.607 399.332 450.252 395.727 450.944 392.248C451.636 388.77 453.344 385.575 455.851 383.068C458.359 380.56 461.554 378.852 465.032 378.16C468.51 377.469 472.115 377.824 475.392 379.181C478.668 380.538 481.469 382.836 483.439 385.785C485.409 388.733 486.461 392.2 486.461 395.746C486.453 400.5 484.562 405.056 481.201 408.417C477.84 411.778 473.283 413.67 468.53 413.677ZM468.53 381.494C465.711 381.494 462.956 382.33 460.612 383.896C458.268 385.462 456.441 387.688 455.363 390.292C454.284 392.897 454.002 395.762 454.551 398.527C455.101 401.292 456.459 403.831 458.452 405.824C460.445 407.818 462.985 409.175 465.75 409.725C468.514 410.275 471.38 409.993 473.984 408.914C476.589 407.835 478.814 406.008 480.38 403.665C481.947 401.321 482.783 398.565 482.783 395.746C482.78 391.967 481.278 388.343 478.605 385.671C475.933 382.999 472.309 381.496 468.53 381.494Z" fill="#5084FC"/>
<path d="M440.485 392.528H401.865V396.206H440.485V392.528Z" fill="#5084FC"/>
<path d="M468.53 401.723C471.831 401.723 474.507 399.047 474.507 395.746C474.507 392.445 471.831 389.77 468.53 389.77C465.229 389.77 462.553 392.445 462.553 395.746C462.553 399.047 465.229 401.723 468.53 401.723Z" fill="#5084FC"/>
<path d="M203.49 182.511L202.68 178.925L211.085 177.031L212.059 169.04C212.091 168.751 212.191 168.474 212.351 168.231C212.511 167.988 212.726 167.786 212.979 167.643C214.765 166.667 216.434 165.492 217.953 164.139C218.172 163.944 218.433 163.804 218.716 163.731C218.999 163.657 219.296 163.652 219.581 163.716L227.434 165.491L231.351 159.293L226.376 152.958C226.195 152.728 226.07 152.457 226.015 152.17C225.959 151.882 225.972 151.584 226.054 151.303C226.629 149.354 226.978 147.345 227.094 145.317C227.111 145.026 227.198 144.743 227.347 144.492C227.496 144.241 227.702 144.029 227.949 143.873L234.753 139.57L233.144 132.416L225.153 131.497C224.866 131.463 224.59 131.363 224.349 131.203C224.108 131.043 223.908 130.829 223.765 130.577C222.782 128.794 221.604 127.125 220.252 125.602C220.057 125.384 219.917 125.123 219.844 124.84C219.77 124.557 219.765 124.26 219.829 123.975L221.604 116.113L215.416 112.205L209.273 117.023C209.04 117.207 208.766 117.331 208.475 117.385C208.184 117.439 207.883 117.423 207.6 117.336C205.543 116.711 203.419 116.335 201.274 116.214C200.984 116.195 200.703 116.108 200.454 115.959C200.204 115.81 199.994 115.605 199.839 115.359L195.683 108.803L188.538 110.412L187.619 117.98C187.587 118.269 187.487 118.546 187.327 118.789C187.167 119.032 186.952 119.234 186.699 119.377C184.77 120.439 182.973 121.726 181.348 123.212C181.129 123.41 180.867 123.552 180.582 123.627C180.297 123.703 179.998 123.708 179.711 123.644L172.198 121.952L168.281 128.14L173.136 134.319L170.24 136.591L164.594 129.391C164.36 129.093 164.224 128.73 164.204 128.351C164.184 127.972 164.282 127.597 164.484 127.276L169.78 118.89C169.982 118.568 170.279 118.316 170.63 118.17C170.98 118.023 171.368 117.989 171.739 118.072L179.601 119.846C181.005 118.64 182.512 117.56 184.106 116.619L185.026 108.683C185.069 108.306 185.229 107.951 185.482 107.668C185.736 107.384 186.071 107.187 186.442 107.102L196.124 104.923C196.495 104.84 196.883 104.874 197.234 105.021C197.584 105.167 197.881 105.419 198.083 105.741L202.432 112.619C204.221 112.773 205.993 113.081 207.729 113.538L214.165 108.5C214.464 108.263 214.829 108.126 215.21 108.106C215.59 108.086 215.967 108.185 216.289 108.389L224.666 113.695C224.988 113.897 225.24 114.193 225.386 114.544C225.533 114.895 225.567 115.282 225.484 115.653L223.645 123.874C224.716 125.158 225.681 126.527 226.533 127.966L234.891 128.968C235.268 129.014 235.622 129.176 235.903 129.431C236.185 129.686 236.381 130.022 236.463 130.393L238.652 140.076C238.734 140.447 238.7 140.834 238.554 141.185C238.407 141.536 238.155 141.832 237.833 142.034L230.716 146.531C230.565 148.197 230.279 149.848 229.861 151.468L235.056 158.089C235.291 158.387 235.427 158.75 235.447 159.129C235.466 159.507 235.369 159.883 235.167 160.204L229.87 168.599C229.667 168.919 229.37 169.169 229.019 169.314C228.669 169.459 228.282 169.492 227.912 169.408L219.691 167.569C218.406 168.641 217.038 169.61 215.6 170.466L214.579 178.824C214.533 179.2 214.373 179.553 214.12 179.834C213.866 180.116 213.532 180.312 213.163 180.396L203.49 182.511Z" fill="#5084FC"/>
<path d="M238.586 140.065L234.999 140.874L233.105 132.469L225.115 131.495C224.826 131.463 224.548 131.363 224.305 131.203C224.062 131.043 223.861 130.828 223.717 130.575C222.742 128.789 221.566 127.12 220.214 125.601C220.019 125.382 219.879 125.121 219.805 124.838C219.732 124.555 219.727 124.258 219.791 123.973L221.565 116.12L215.368 112.203L209.032 117.178C208.802 117.36 208.532 117.484 208.244 117.54C207.956 117.596 207.659 117.582 207.377 117.5C205.428 116.925 203.42 116.576 201.391 116.461C201.1 116.443 200.817 116.356 200.566 116.207C200.315 116.059 200.103 115.852 199.948 115.605L195.644 108.801L188.49 110.41L187.571 118.401C187.538 118.688 187.437 118.964 187.277 119.205C187.118 119.446 186.903 119.646 186.651 119.789C184.868 120.772 183.2 121.95 181.677 123.302C181.459 123.497 181.197 123.637 180.914 123.71C180.631 123.784 180.335 123.789 180.049 123.725L172.187 121.95L168.28 128.138L173.098 134.281C173.281 134.514 173.405 134.788 173.459 135.079C173.514 135.371 173.497 135.671 173.41 135.954C172.786 138.011 172.409 140.135 172.289 142.281C172.269 142.57 172.182 142.851 172.033 143.1C171.885 143.35 171.679 143.56 171.433 143.715L164.877 147.871L166.486 155.016L174.054 155.935C174.343 155.967 174.621 156.067 174.864 156.227C175.106 156.387 175.308 156.602 175.452 156.855C176.513 158.785 177.8 160.581 179.286 162.206C179.484 162.425 179.626 162.687 179.702 162.972C179.777 163.257 179.783 163.556 179.718 163.843L178.026 171.356L184.215 175.273L192.665 173.314L185.465 178.96C185.167 179.194 184.804 179.33 184.425 179.35C184.047 179.37 183.671 179.272 183.35 179.07L174.964 173.774C174.642 173.572 174.391 173.275 174.244 172.925C174.098 172.574 174.063 172.186 174.146 171.815L175.921 163.953C174.714 162.549 173.634 161.042 172.693 159.448L164.758 158.528C164.38 158.485 164.025 158.325 163.742 158.072C163.459 157.818 163.261 157.483 163.176 157.112L160.997 147.43C160.914 147.059 160.948 146.671 161.095 146.321C161.242 145.97 161.493 145.673 161.815 145.471L168.693 141.122C168.848 139.333 169.155 137.561 169.613 135.826L164.574 129.389C164.338 129.09 164.2 128.725 164.18 128.345C164.161 127.964 164.26 127.587 164.464 127.265L169.769 118.888C169.971 118.566 170.268 118.314 170.618 118.168C170.969 118.021 171.357 117.987 171.728 118.07L179.948 119.909C181.233 118.838 182.601 117.873 184.04 117.022L185.042 108.663C185.088 108.286 185.25 107.932 185.505 107.651C185.76 107.369 186.097 107.173 186.468 107.091L196.15 104.902C196.521 104.82 196.909 104.854 197.259 105C197.61 105.147 197.907 105.399 198.109 105.721L202.605 112.838C204.271 112.989 205.923 113.275 207.543 113.693L214.163 108.498C214.461 108.264 214.825 108.127 215.203 108.107C215.582 108.088 215.957 108.185 216.278 108.387L224.673 113.684C224.994 113.887 225.244 114.184 225.388 114.535C225.533 114.885 225.566 115.272 225.482 115.642L223.643 123.863C224.716 125.148 225.684 126.516 226.54 127.954L234.898 128.975C235.274 129.021 235.627 129.181 235.909 129.434C236.19 129.688 236.386 130.022 236.471 130.391L238.586 140.065Z" fill="#5084FC"/>
<path d="M200.74 160.995V157.317C203.16 157.316 205.529 156.629 207.573 155.336C209.618 154.042 211.254 152.196 212.291 150.01C213.328 147.824 213.725 145.39 213.434 142.988C213.143 140.586 212.176 138.316 210.647 136.442C209.118 134.567 207.089 133.164 204.794 132.397C202.5 131.629 200.035 131.528 197.686 132.105C195.337 132.682 193.199 133.913 191.521 135.656C189.843 137.399 188.694 139.582 188.207 141.951L184.603 141.216C185.229 138.164 186.708 135.353 188.868 133.108C191.027 130.863 193.78 129.277 196.805 128.534C199.83 127.79 203.004 127.92 205.958 128.908C208.912 129.896 211.526 131.701 213.495 134.115C215.465 136.529 216.709 139.452 217.084 142.544C217.459 145.637 216.949 148.772 215.613 151.586C214.278 154.401 212.172 156.779 209.539 158.444C206.906 160.109 203.855 160.994 200.74 160.995Z" fill="#5084FC"/>
<path d="M216.853 140.421L213.3 141.373C212.673 139.036 211.396 136.926 209.618 135.285C207.84 133.645 205.633 132.543 203.253 132.107C200.873 131.671 198.419 131.918 196.174 132.821C193.93 133.723 191.987 135.244 190.572 137.206C189.157 139.169 188.328 141.492 188.18 143.907C188.032 146.321 188.572 148.729 189.738 150.849C190.903 152.969 192.646 154.715 194.764 155.884C196.881 157.054 199.287 157.599 201.702 157.456L201.925 161.128C198.815 161.313 195.717 160.612 192.989 159.107C190.262 157.602 188.018 155.354 186.516 152.624C185.015 149.894 184.319 146.795 184.509 143.686C184.699 140.576 185.766 137.584 187.588 135.058C189.41 132.531 191.911 130.572 194.801 129.41C197.691 128.247 200.852 127.928 203.916 128.49C206.98 129.051 209.822 130.47 212.112 132.582C214.402 134.694 216.046 137.412 216.853 140.421Z" fill="#5084FC"/>
<path d="M173.826 44.0323H144.402V47.7104H173.826V44.0323Z" fill="#5084FC"/>
<path d="M167.389 183.798H84.6332C84.1455 183.798 83.6777 183.605 83.3329 183.26C82.988 182.915 82.7942 182.447 82.7942 181.959V45.8714C82.7942 45.3836 82.988 44.9159 83.3329 44.571C83.6777 44.2261 84.1455 44.0323 84.6332 44.0323H126.011V47.7104H86.4722V180.12H164.171L167.389 183.798Z" fill="#5084FC"/>
<path d="M236.353 106.559H232.675V47.7104H193.136V44.0323H234.514C235.002 44.0323 235.469 44.2261 235.814 44.571C236.159 44.9159 236.353 45.3836 236.353 45.8714V106.559Z" fill="#5084FC"/>
<path d="M234.514 71.6178H231.756V67.9397H234.514V71.6178ZM222.56 71.6178H213.365V67.9397H222.56V71.6178ZM204.17 71.6178H194.975V67.9397H204.17V71.6178ZM185.78 71.6178H176.585V67.9397H185.78V71.6178ZM167.39 71.6178H158.194V67.9397H167.39V71.6178ZM148.999 71.6178H139.804V67.9397H148.999V71.6178ZM130.609 71.6178H121.414V67.9397H130.609V71.6178ZM112.219 71.6178H103.024V67.9397H112.219V71.6178ZM93.8284 71.6178H84.6333V67.9397H93.8284V71.6178Z" fill="#5084FC"/>
<path d="M131.988 60.1882H131.786C129.717 60.0861 127.768 59.1861 126.348 57.6772C124.928 56.1684 124.148 54.1681 124.172 52.0965V33.9177C124.148 31.8461 124.928 29.8458 126.348 28.337C127.768 26.8281 129.717 25.9281 131.786 25.826C132.829 25.799 133.867 25.9812 134.839 26.3619C135.811 26.7425 136.697 27.314 137.444 28.0424C138.191 28.7709 138.785 29.6417 139.19 30.6034C139.596 31.5651 139.804 32.5982 139.804 33.6419V52.4183C139.804 54.4912 138.981 56.4792 137.515 57.945C136.049 59.4107 134.061 60.2342 131.988 60.2342V60.1882ZM131.988 29.4489H131.878C130.756 29.52 129.706 30.0275 128.954 30.8626C128.201 31.6978 127.805 32.7943 127.85 33.9177V52.1425C127.82 53.2565 128.222 54.339 128.973 55.1622C129.725 55.9854 130.766 56.4851 131.878 56.5561C132.431 56.5722 132.981 56.4769 133.497 56.276C134.012 56.0751 134.482 55.7727 134.878 55.3868C135.274 55.0008 135.589 54.5392 135.803 54.0292C136.018 53.5193 136.128 52.9715 136.126 52.4183V33.5959C136.126 32.4976 135.69 31.4442 134.915 30.6667C134.139 29.8893 133.087 29.4513 131.988 29.4489Z" fill="#5084FC"/>
<path d="M187.159 60.1882C185.086 60.1882 183.098 59.3647 181.633 57.899C180.167 56.4332 179.343 54.4452 179.343 52.3723V33.5958C179.343 32.5522 179.552 31.5191 179.957 30.5574C180.362 29.5957 180.956 28.7249 181.704 27.9964C182.451 27.2679 183.336 26.6965 184.308 26.3158C185.28 25.9352 186.318 25.753 187.361 25.78C189.439 25.8823 191.395 26.7888 192.816 28.3075C194.237 29.8262 195.011 31.8382 194.975 33.9177V52.1424C194.999 54.214 194.219 56.2143 192.799 57.7232C191.38 59.232 189.431 60.132 187.361 60.2341L187.159 60.1882ZM187.159 29.4488C186.061 29.4513 185.008 29.8893 184.233 30.6667C183.457 31.4442 183.021 32.4976 183.021 33.5958V52.3723C183.02 52.9255 183.13 53.4733 183.344 53.9832C183.558 54.4932 183.873 54.9548 184.269 55.3408C184.666 55.7267 185.135 56.0291 185.651 56.23C186.166 56.4309 186.717 56.5261 187.269 56.5101C188.382 56.4391 189.423 55.9394 190.174 55.1162C190.925 54.293 191.328 53.2105 191.297 52.0965V33.9177C191.328 32.8037 190.925 31.7211 190.174 30.8979C189.423 30.0747 188.382 29.575 187.269 29.504L187.159 29.4488Z" fill="#5084FC"/>
<path d="M137.965 158.972H84.6333V162.65H137.965V158.972Z" fill="#5084FC"/>
<path d="M205.301 196.948L204.979 193.269C213.92 192.49 222.474 189.267 229.706 183.952C236.938 178.638 242.569 171.437 245.984 163.138C249.398 154.838 250.465 145.759 249.067 136.894C247.669 128.029 243.86 119.719 238.056 112.874C232.253 106.028 224.679 100.91 216.162 98.0793C207.646 95.2487 198.515 94.8145 189.769 96.8244C181.022 98.8342 172.996 103.211 166.57 109.475C160.143 115.739 155.563 123.65 153.33 132.342L149.771 131.423C152.171 122.074 157.095 113.565 164.005 106.826C170.916 100.088 179.546 95.3799 188.953 93.2173C198.359 91.0546 208.179 91.5207 217.339 94.5644C226.498 97.6082 234.644 103.112 240.886 110.475C247.127 117.838 251.223 126.775 252.726 136.309C254.229 145.843 253.08 155.607 249.407 164.533C245.733 173.458 239.675 181.201 231.896 186.915C224.117 192.629 214.917 196.093 205.301 196.929V196.948Z" fill="#5084FC"/>
<path d="M252.522 154.203L248.883 153.561C250.443 144.723 249.541 135.626 246.276 127.264C243.01 118.902 237.507 111.597 230.368 106.149C223.228 100.701 214.728 97.319 205.797 96.3733C196.865 95.4275 187.846 96.9543 179.727 100.787C171.607 104.619 164.699 110.609 159.758 118.102C154.818 125.596 152.035 134.303 151.714 143.272C151.393 152.241 153.547 161.127 157.939 168.957C162.331 176.787 168.793 183.261 176.618 187.669L174.808 190.868C166.391 186.129 159.44 179.169 154.715 170.748C149.989 162.328 147.672 152.772 148.016 143.126C148.36 133.479 151.352 124.115 156.665 116.056C161.978 107.997 169.407 101.554 178.14 97.4326C186.873 93.3111 196.572 91.6695 206.178 92.6874C215.783 93.7053 224.925 97.3435 232.602 103.204C240.28 109.064 246.197 116.921 249.707 125.915C253.217 134.909 254.185 144.694 252.504 154.198L252.522 154.203Z" fill="#5084FC"/>
<path d="M126.011 107.479H105.782C105.294 107.479 104.827 107.285 104.482 106.94C104.137 106.595 103.943 106.128 103.943 105.64V86.33C103.943 85.8423 104.137 85.3745 104.482 85.0296C104.827 84.6847 105.294 84.491 105.782 84.491H126.011C126.499 84.491 126.967 84.6847 127.312 85.0296C127.657 85.3745 127.85 85.8423 127.85 86.33V105.64C127.85 106.128 127.657 106.595 127.312 106.94C126.967 107.285 126.499 107.479 126.011 107.479ZM107.621 103.801H124.172V88.169H107.621V103.801Z" fill="#5084FC"/>
<path d="M153.597 107.479H143.482C142.994 107.479 142.527 107.285 142.182 106.94C141.837 106.595 141.643 106.128 141.643 105.64V86.33C141.643 85.8423 141.837 85.3745 142.182 85.0296C142.527 84.6847 142.994 84.491 143.482 84.491H163.711C164.199 84.491 164.667 84.6847 165.012 85.0296C165.357 85.3745 165.55 85.8423 165.55 86.33V98.2837H161.872V88.169H145.321V103.801H153.597V107.479Z" fill="#5084FC"/>
<path d="M126.011 142.42H105.782C105.294 142.42 104.827 142.227 104.482 141.882C104.137 141.537 103.943 141.069 103.943 140.581V121.272C103.943 120.784 104.137 120.316 104.482 119.971C104.827 119.626 105.294 119.432 105.782 119.432H126.011C126.499 119.432 126.967 119.626 127.312 119.971C127.657 120.316 127.85 120.784 127.85 121.272V140.581C127.85 141.069 127.657 141.537 127.312 141.882C126.967 142.227 126.499 142.42 126.011 142.42ZM107.621 138.742H124.172V123.111H107.621V138.742Z" fill="#5084FC"/>
<path d="M309.721 213.223H287.027C283.429 213.221 279.911 212.159 276.913 210.17L278.936 207.099C281.339 208.695 284.161 209.546 287.046 209.545H309.739C313.688 209.535 317.471 207.961 320.262 205.167C323.052 202.374 324.621 198.588 324.626 194.64V108.591C324.621 104.64 323.049 100.851 320.255 98.0571C317.461 95.2629 313.673 93.691 309.721 93.6861H287.119C283.168 93.691 279.379 95.2629 276.585 98.0571C273.791 100.851 272.219 104.64 272.214 108.591V204.947H268.536V108.591C268.538 103.664 270.497 98.9382 273.981 95.4537C277.466 91.9692 282.191 90.0105 287.119 90.0081H309.721C314.649 90.0105 319.374 91.9692 322.859 95.4537C326.343 98.9382 328.302 103.664 328.304 108.591V194.64C328.302 199.567 326.343 204.293 322.859 207.777C319.374 211.262 314.649 213.22 309.721 213.223Z" fill="#5084FC"/>
<path d="M303.478 234.372H293.363C292.875 234.372 292.407 234.178 292.063 233.833C291.718 233.488 291.524 233.02 291.524 232.533V211.384H295.202V230.694H301.639V211.384H305.317V232.533C305.317 233.02 305.123 233.488 304.778 233.833C304.433 234.178 303.965 234.372 303.478 234.372Z" fill="#5084FC"/>
<path d="M305.317 90.9276H301.639V72.3442C301.641 70.2014 302.493 68.147 304.009 66.6317C305.524 65.1165 307.578 64.2642 309.721 64.2617H318.19C322.092 64.2617 325.834 62.7117 328.593 59.9526C331.352 57.1935 332.902 53.4514 332.902 49.5495V32.9982H326.465V49.7426C326.463 51.8855 325.611 53.9399 324.095 55.4551C322.58 56.9704 320.526 57.8227 318.383 57.8251H309.914C306.012 57.8251 302.27 59.3752 299.511 62.1342C296.752 64.8933 295.202 68.6354 295.202 72.5373V90.9276H291.524V72.5373C291.524 67.6599 293.462 62.9823 296.91 59.5335C300.359 56.0846 305.037 54.1471 309.914 54.1471H318.411C319.578 54.1446 320.697 53.6798 321.522 52.8543C322.348 52.0289 322.813 50.91 322.815 49.7426V31.1592C322.815 30.6715 323.009 30.2037 323.354 29.8588C323.699 29.5139 324.166 29.3202 324.654 29.3202H334.769C335.256 29.3202 335.724 29.5139 336.069 29.8588C336.414 30.2037 336.608 30.6715 336.608 31.1592V49.5495C336.608 54.4269 334.67 59.1045 331.221 62.5534C327.772 66.0022 323.095 67.9398 318.217 67.9398H309.721C308.554 67.9422 307.435 68.407 306.609 69.2325C305.784 70.058 305.319 71.1768 305.317 72.3442V90.9276Z" fill="#5084FC"/>
<path d="M319.109 126.789H270.375V130.467H319.109V126.789Z" fill="#5084FC"/>
<path d="M326.465 171.845H308.075V175.523H326.465V171.845Z" fill="#5084FC"/>
<path d="M422.095 117.594H418.417V194.833H422.095V117.594Z" fill="#5084FC"/>
<path d="M422.573 207.706H332.902V204.028H421.175V197.591H336.58V193.913H422.573C423.178 193.913 423.758 194.153 424.185 194.581C424.613 195.009 424.853 195.589 424.853 196.193V205.389C424.858 205.691 424.803 205.992 424.69 206.273C424.578 206.554 424.411 206.809 424.198 207.025C423.986 207.241 423.733 207.412 423.454 207.529C423.175 207.646 422.875 207.706 422.573 207.706Z" fill="#5084FC"/>
<path d="M422.573 119.432H334.741V115.754H421.175V109.318H391.751V105.64H422.573C422.872 105.64 423.169 105.699 423.446 105.813C423.722 105.928 423.974 106.096 424.185 106.308C424.397 106.519 424.565 106.771 424.68 107.047C424.794 107.324 424.853 107.621 424.853 107.92V117.115C424.858 117.418 424.803 117.718 424.69 117.999C424.578 118.28 424.411 118.536 424.198 118.752C423.986 118.967 423.733 119.139 423.454 119.255C423.175 119.372 422.876 119.433 422.573 119.432Z" fill="#5084FC"/>
<path d="M422.095 106.559H418.417V99.2032C418.417 98.9593 418.32 98.7254 418.147 98.553C417.975 98.3805 417.741 98.2836 417.497 98.2836H333.822V94.6056H417.497C418.717 94.6056 419.886 95.09 420.748 95.9522C421.611 96.8144 422.095 97.9838 422.095 99.2032V106.559Z" fill="#5084FC"/>
<path d="M409.221 96.4446H405.543V89.1897C405.543 89.0556 405.517 88.9229 405.466 88.7991C405.414 88.6753 405.339 88.5627 405.245 88.468C405.15 88.3732 405.037 88.298 404.913 88.2467C404.79 88.1954 404.657 88.169 404.523 88.169H390.932C390.798 88.169 390.666 88.1954 390.542 88.2467C390.418 88.298 390.305 88.3732 390.211 88.468C390.116 88.5627 390.041 88.6753 389.989 88.7991C389.938 88.9229 389.912 89.0556 389.912 89.1897V96.4446H386.234V89.1897C386.234 87.9435 386.729 86.7484 387.61 85.8672C388.491 84.986 389.686 84.491 390.932 84.491H404.523C405.769 84.491 406.964 84.986 407.845 85.8672C408.726 86.7484 409.221 87.9435 409.221 89.1897V96.4446Z" fill="#5084FC"/>
<path d="M353.343 189.316C353.062 189.317 352.786 189.254 352.533 189.132C352.148 188.945 351.84 188.63 351.662 188.241C351.484 187.851 351.448 187.412 351.559 186.998L358.299 161.73H345.987C345.657 161.73 345.334 161.642 345.051 161.474C344.767 161.307 344.534 161.066 344.375 160.778C344.216 160.49 344.138 160.164 344.148 159.835C344.158 159.506 344.256 159.185 344.433 158.907L366.501 123.966C366.733 123.604 367.085 123.336 367.495 123.207C367.905 123.077 368.347 123.096 368.744 123.259C369.142 123.421 369.47 123.718 369.672 124.098C369.873 124.477 369.936 124.915 369.848 125.336L364.809 148.857H380.928C381.27 148.857 381.604 148.952 381.895 149.132C382.185 149.311 382.42 149.568 382.573 149.874C382.726 150.179 382.79 150.521 382.76 150.861C382.729 151.201 382.604 151.526 382.399 151.799L354.814 188.58C354.643 188.808 354.42 188.994 354.165 189.121C353.91 189.249 353.628 189.316 353.343 189.316ZM349.315 158.052H360.699C360.981 158.052 361.259 158.117 361.512 158.242C361.765 158.367 361.986 158.549 362.158 158.773C362.329 158.997 362.447 159.257 362.502 159.534C362.557 159.811 362.547 160.097 362.473 160.369L357.563 178.76L377.25 152.535H362.538C362.26 152.541 361.985 152.484 361.732 152.369C361.479 152.253 361.256 152.082 361.079 151.868C360.902 151.654 360.776 151.402 360.71 151.133C360.644 150.863 360.64 150.581 360.699 150.31L364.055 134.678L349.315 158.052Z" fill="#5084FC"/>
<path d="M462.553 120.352C465.093 120.352 467.151 118.294 467.151 115.754C467.151 113.215 465.093 111.157 462.553 111.157C460.014 111.157 457.956 113.215 457.956 115.754C457.956 118.294 460.014 120.352 462.553 120.352Z" fill="#5084FC"/>
<path d="M463.013 126.982C462.647 126.982 462.297 126.836 462.038 126.578C461.779 126.319 461.634 125.968 461.634 125.602V118.706C461.634 118.34 461.779 117.989 462.038 117.731C462.297 117.472 462.647 117.327 463.013 117.327C463.379 117.327 463.73 117.472 463.988 117.731C464.247 117.989 464.392 118.34 464.392 118.706V125.602C464.392 125.968 464.247 126.319 463.988 126.578C463.73 126.836 463.379 126.982 463.013 126.982Z" fill="#5084FC"/>
<path d="M519.904 89.1345C519.278 77.9624 518.524 66.0455 518.249 61.7514C499.959 60.8871 477.459 53.3011 462.544 45.8346C448.65 52.7953 426.444 60.8595 407.373 61.7514C407.199 64.3904 406.859 69.9167 406.454 76.4085L402.776 76.1878C403.318 67.0754 403.787 59.8572 403.787 59.8572C403.817 59.3983 404.018 58.9672 404.35 58.6489C404.682 58.3306 405.121 58.1482 405.58 58.1377C424.752 57.6596 447.777 49.2184 461.671 42.129C461.929 41.9981 462.214 41.9299 462.503 41.9299C462.792 41.9299 463.077 41.9981 463.335 42.129C478.314 49.7701 501.633 57.6872 519.977 58.1377C520.437 58.1482 520.876 58.3306 521.208 58.6489C521.54 58.9672 521.74 59.3983 521.77 59.8572C521.77 60.0135 522.745 75.0476 523.527 88.923L519.904 89.1345Z" fill="#5084FC"/>
<path d="M462.553 191.844C462.139 191.842 461.737 191.699 461.413 191.44L430.03 166.392L432.329 163.523L462.553 187.66L493.348 163.514C506.341 152.912 521.237 137.345 520.933 110.936L524.611 110.89C524.998 142.457 503.683 159.836 495.665 166.383L463.703 191.449C463.375 191.707 462.97 191.847 462.553 191.844Z" fill="#5084FC"/>
<path d="M476.696 138.742H448.412C446.067 138.737 443.82 137.804 442.162 136.146C440.504 134.488 439.571 132.241 439.566 129.897V108.968C439.571 106.624 440.504 104.377 442.162 102.719C443.82 101.061 446.067 100.128 448.412 100.123H476.696C479.04 100.128 481.287 101.061 482.945 102.719C484.603 104.377 485.537 106.624 485.541 108.968V129.897C485.537 132.241 484.603 134.488 482.945 136.146C481.287 137.804 479.04 138.737 476.696 138.742ZM448.412 103.801C447.041 103.801 445.726 104.345 444.757 105.314C443.788 106.283 443.244 107.598 443.244 108.968V129.897C443.244 131.267 443.788 132.582 444.757 133.551C445.726 134.52 447.041 135.064 448.412 135.064H476.696C478.066 135.064 479.381 134.52 480.35 133.551C481.319 132.582 481.863 131.267 481.863 129.897V108.968C481.863 107.598 481.319 106.283 480.35 105.314C479.381 104.345 478.066 103.801 476.696 103.801H448.412Z" fill="#5084FC"/>
<path d="M480.024 101.962H476.346V97.5297C476.344 94.0724 474.969 90.7574 472.524 88.3127C470.08 85.868 466.765 84.4935 463.308 84.491H462.719C459.262 84.4935 455.947 85.868 453.502 88.3127C451.057 90.7574 449.683 94.0724 449.68 97.5297V101.962H446.002V97.5297C446.009 93.0984 447.773 88.8507 450.906 85.7173C454.04 82.5838 458.288 80.8203 462.719 80.813H463.308C467.739 80.8203 471.987 82.5838 475.12 85.7173C478.253 88.8507 480.017 93.0984 480.024 97.5297V101.962Z" fill="#5084FC"/>
<path d="M462.82 157.877C456.127 157.885 449.515 156.411 443.458 153.562C437.401 150.713 432.049 146.56 427.787 141.4L430.619 139.055C435.113 144.481 440.906 148.683 447.459 151.272C454.011 153.862 461.111 154.754 468.101 153.866C475.09 152.978 481.742 150.339 487.44 146.194C493.137 142.049 497.695 136.532 500.69 130.155C503.686 123.778 505.022 116.747 504.575 109.716C504.128 102.684 501.911 95.8799 498.132 89.9336C494.353 83.9874 489.133 79.0922 482.957 75.7021C476.78 72.3121 469.847 70.5371 462.802 70.5419V66.8639C474.873 66.8639 486.45 71.6593 494.986 80.1952C503.522 88.7311 508.318 100.308 508.318 112.38C508.318 124.451 503.522 136.029 494.986 144.564C486.45 153.1 474.873 157.896 462.802 157.896L462.82 157.877Z" fill="#5084FC"/>
<path d="M425.773 92.8953L422.518 91.185C424.006 88.3555 425.79 85.6923 427.842 83.2404L430.665 85.5944C428.781 87.8488 427.142 90.296 425.773 92.8953ZM436.973 79.4704L434.701 76.574C437.211 74.5974 439.924 72.8929 442.793 71.489L444.412 74.7901C441.783 76.084 439.298 77.6528 437 79.4704H436.973ZM452.669 71.7741L451.749 68.2064C454.852 67.4409 458.026 67.0002 461.22 66.8915L461.34 70.5695C458.425 70.6698 455.528 71.0735 452.696 71.7741H452.669Z" fill="#5084FC"/>
</g>
<g clip-path="url(#clip1_29156_288477)">
<path d="M340.201 374.549L312.849 338.313L292.594 294.979C289.261 287.849 284.01 281.827 277.45 277.612C270.89 273.396 263.29 271.16 255.532 271.162H165.879C158.101 271.136 150.475 273.362 143.892 277.578C137.308 281.795 132.038 287.83 128.696 294.979L108.395 338.283L81.0434 374.518C78.3992 378.01 76.967 382.296 76.971 386.705V417.527C76.9629 422.828 79.0232 427.915 82.6988 431.671C86.3745 435.426 91.3648 437.543 96.5731 437.555H324.626C329.834 437.551 334.828 435.443 338.509 431.693C342.19 427.943 344.258 422.859 344.258 417.558V386.736C344.267 382.329 342.84 378.043 340.201 374.549ZM127.465 328.787L140.944 299.99C143.198 295.175 146.747 291.108 151.179 288.261C155.611 285.415 160.745 283.905 165.986 283.906H256.596C261.837 283.905 266.971 285.415 271.403 288.261C275.835 291.108 279.384 295.175 281.638 299.99L295.116 328.787C295.432 329.462 295.575 330.208 295.531 330.954C295.487 331.701 295.258 332.424 294.865 333.055C294.471 333.687 293.927 334.207 293.283 334.567C292.639 334.927 291.916 335.114 291.181 335.112H131.523C130.783 335.125 130.052 334.945 129.399 334.59C128.747 334.234 128.194 333.715 127.794 333.082C127.394 332.448 127.159 331.721 127.112 330.97C127.065 330.218 127.208 329.467 127.526 328.787H127.465ZM141.354 388.004C141.354 388.98 141.145 389.944 140.741 390.83C140.338 391.716 139.75 392.502 139.019 393.133C138.287 393.764 137.429 394.226 136.505 394.486C135.58 394.746 134.611 394.798 133.665 394.639L109.125 390.463C107.584 390.203 106.184 389.395 105.174 388.183C104.164 386.971 103.609 385.433 103.609 383.844V367.667C103.615 366.566 103.886 365.483 104.4 364.514C104.913 363.545 105.652 362.719 106.552 362.108C107.452 361.497 108.486 361.12 109.562 361.011C110.639 360.902 111.725 361.063 112.726 361.481L137.266 371.889C138.467 372.398 139.492 373.257 140.214 374.358C140.936 375.458 141.322 376.752 141.324 378.075L141.354 388.004ZM252.174 397.531H167.323L161.032 375.137H258.526L252.174 397.531ZM314.339 383.844C314.338 385.433 313.783 386.971 312.773 388.183C311.763 389.395 310.363 390.203 308.823 390.463L284.282 394.639C283.336 394.798 282.367 394.746 281.442 394.486C280.518 394.226 279.66 393.764 278.929 393.133C278.197 392.502 277.609 391.716 277.206 390.83C276.803 389.944 276.594 388.98 276.593 388.004V378.013C276.593 376.689 276.978 375.395 277.7 374.294C278.422 373.193 279.449 372.335 280.65 371.827L305.252 361.481C306.253 361.063 307.339 360.902 308.415 361.011C309.492 361.12 310.526 361.497 311.426 362.108C312.326 362.719 313.065 363.545 313.578 364.514C314.091 365.483 314.363 366.566 314.369 367.667L314.339 383.844Z" fill="#5084FC"/>
<path d="M109.93 373.544V389.782C109.933 391.371 110.489 392.907 111.499 394.118C112.508 395.33 113.906 396.139 115.446 396.402L139.986 400.562C140.932 400.724 141.9 400.674 142.825 400.416C143.749 400.158 144.607 399.698 145.339 399.067C146.071 398.437 146.659 397.652 147.063 396.767C147.466 395.882 147.675 394.918 147.675 393.943V383.952C147.672 382.627 147.284 381.332 146.559 380.231C145.834 379.13 144.806 378.273 143.603 377.766L119.077 367.357C118.075 366.929 116.984 366.76 115.902 366.864C114.82 366.969 113.78 367.344 112.875 367.956C111.969 368.568 111.227 369.399 110.713 370.373C110.199 371.348 109.93 372.437 109.93 373.544Z" fill="#FFB840"/>
<path d="M320.645 373.544V389.782C320.644 391.372 320.089 392.909 319.079 394.122C318.069 395.334 316.669 396.142 315.129 396.402L290.603 400.562C289.658 400.724 288.689 400.674 287.765 400.416C286.84 400.158 285.982 399.698 285.25 399.067C284.518 398.437 283.93 397.652 283.527 396.767C283.123 395.882 282.914 394.918 282.914 393.943V383.952C282.914 382.628 283.299 381.334 284.021 380.233C284.744 379.132 285.77 378.273 286.971 377.766L311.512 367.357C312.514 366.933 313.603 366.766 314.683 366.872C315.763 366.978 316.8 367.353 317.704 367.965C318.607 368.577 319.348 369.406 319.861 370.379C320.374 371.352 320.643 372.439 320.645 373.544Z" fill="#FFB840"/>
<path d="M352.145 449.634H65.939V454.273H352.145V449.634Z" fill="#5084FC"/>
<path d="M322.985 428.663H95.0534C92.1699 428.665 89.3143 428.089 86.6496 426.967C83.9848 425.846 81.5631 424.202 79.5227 422.128C77.4824 420.054 75.8633 417.592 74.758 414.881C73.6527 412.171 73.0828 409.265 73.0808 406.33V375.523C73.0925 370.605 74.6945 365.828 77.6394 361.929L104.87 325.91L125.064 282.731C128.608 275.223 134.158 268.884 141.078 264.439C147.998 259.994 156.009 257.624 164.193 257.599H253.846C262.028 257.625 270.038 259.997 276.959 264.441C283.879 268.886 289.429 275.224 292.974 282.731L313.199 325.91L340.429 361.945C343.375 365.843 344.977 370.621 344.988 375.539V406.33C344.988 409.268 344.418 412.177 343.312 414.891C342.205 417.604 340.583 420.069 338.539 422.144C336.496 424.218 334.069 425.862 331.4 426.98C328.731 428.099 325.871 428.671 322.985 428.663ZM164.193 262.223C156.88 262.254 149.724 264.38 143.544 268.357C137.363 272.333 132.407 278.001 129.243 284.71L108.729 328.338L81.1952 364.759C78.8592 367.868 77.5936 371.672 77.5939 375.585V406.33C77.5939 408.66 78.046 410.967 78.9243 413.119C79.8027 415.271 81.09 417.224 82.7122 418.868C84.3345 420.512 86.2598 421.814 88.3777 422.698C90.4955 423.583 92.7642 424.033 95.0534 424.023H322.985C325.272 424.031 327.538 423.579 329.653 422.694C331.769 421.808 333.691 420.506 335.311 418.862C336.93 417.218 338.215 415.265 339.09 413.114C339.966 410.964 340.416 408.658 340.414 406.33V375.523C340.422 371.609 339.156 367.802 336.812 364.697L309.187 328.044L288.886 284.648C285.722 277.939 280.766 272.272 274.586 268.295C268.405 264.318 261.249 262.193 253.937 262.162L164.193 262.223Z" fill="#5084FC"/>
<path d="M117.315 454.273H93.1844C90.3633 454.273 87.6578 453.133 85.663 451.102C83.6682 449.072 82.5476 446.319 82.5476 443.448V423.141H87.1062V443.448C87.1062 445.088 87.7466 446.662 88.8865 447.822C90.0264 448.982 91.5724 449.634 93.1844 449.634H117.315C118.927 449.634 120.473 448.982 121.613 447.822C122.753 446.662 123.393 445.088 123.393 443.448V426.343H127.952V443.448C127.952 446.319 126.831 449.072 124.836 451.102C122.841 453.133 120.136 454.273 117.315 454.273Z" fill="#5084FC"/>
<path d="M324.884 454.273H300.754C297.933 454.273 295.227 453.133 293.232 451.102C291.238 449.072 290.117 446.319 290.117 443.448V426.343H294.676V443.448C294.676 445.088 295.316 446.662 296.456 447.822C297.596 448.982 299.142 449.634 300.754 449.634H324.884C326.496 449.634 328.042 448.982 329.182 447.822C330.322 446.662 330.962 445.088 330.962 443.448V423.141H335.521V443.448C335.521 446.319 334.4 449.072 332.405 451.102C330.411 453.133 327.705 454.273 324.884 454.273Z" fill="#5084FC"/>
<path d="M289.677 326.235H129.881C128.77 326.228 127.678 325.936 126.707 325.387C125.735 324.837 124.915 324.048 124.322 323.091C123.728 322.135 123.381 321.042 123.312 319.913C123.242 318.784 123.453 317.655 123.925 316.631L137.403 287.834C139.856 282.634 143.698 278.242 148.49 275.163C153.282 272.083 158.829 270.439 164.497 270.42V275.06C159.69 275.075 154.986 276.469 150.922 279.082C146.858 281.694 143.6 285.419 141.521 289.829L128.043 318.626C127.895 318.947 127.829 319.302 127.851 319.656C127.873 320.01 127.982 320.353 128.168 320.653C128.354 320.954 128.611 321.201 128.916 321.374C129.221 321.547 129.563 321.639 129.912 321.642H289.677C290.025 321.639 290.368 321.547 290.672 321.374C290.977 321.201 291.234 320.954 291.42 320.653C291.606 320.353 291.715 320.01 291.737 319.656C291.759 319.302 291.693 318.947 291.546 318.626L278.067 289.829C275.988 285.419 272.73 281.694 268.666 279.082C264.603 276.469 259.898 275.075 255.092 275.06V270.42C260.759 270.439 266.307 272.083 271.098 275.163C275.89 278.242 279.733 282.634 282.185 287.834L295.633 316.631C296.116 317.659 296.335 318.796 296.269 319.934C296.204 321.072 295.855 322.174 295.257 323.138C294.659 324.102 293.831 324.896 292.85 325.446C291.868 325.995 290.766 326.283 289.646 326.281L289.677 326.235Z" fill="#5084FC"/>
<path d="M134.82 397.051C134.311 397.05 133.803 397.009 133.3 396.927L108.76 392.752C106.685 392.406 104.799 391.32 103.441 389.687C102.082 388.055 101.339 385.983 101.345 383.844V367.667C101.346 366.179 101.707 364.715 102.397 363.404C103.086 362.092 104.083 360.974 105.299 360.148C106.514 359.323 107.911 358.814 109.366 358.669C110.82 358.524 112.287 358.746 113.638 359.315L138.178 369.724C139.801 370.407 141.187 371.566 142.161 373.053C143.135 374.54 143.653 376.288 143.649 378.075V388.066C143.644 390.461 142.709 392.758 141.046 394.453C139.383 396.149 137.128 397.105 134.774 397.113L134.82 397.051ZM110.249 363.197C109.103 363.201 108.005 363.668 107.197 364.494C106.388 365.32 105.933 366.439 105.933 367.605V383.844C105.931 384.887 106.293 385.898 106.956 386.694C107.619 387.49 108.538 388.02 109.55 388.189L134.106 392.412C134.725 392.512 135.358 392.475 135.961 392.303C136.565 392.131 137.124 391.828 137.602 391.415C138.08 391.003 138.464 390.49 138.729 389.911C138.994 389.333 139.132 388.704 139.136 388.066V378.075C139.136 377.206 138.883 376.356 138.41 375.632C137.937 374.908 137.264 374.343 136.476 374.008L111.936 363.599C111.406 363.351 110.832 363.214 110.249 363.197Z" fill="#5084FC"/>
<path d="M283.249 397.051C282.082 397.051 280.927 396.817 279.849 396.362C278.771 395.907 277.793 395.241 276.968 394.4C276.144 393.56 275.491 392.563 275.046 391.465C274.601 390.368 274.373 389.191 274.375 388.004V378.013C274.371 376.226 274.888 374.478 275.862 372.991C276.836 371.504 278.222 370.346 279.845 369.662L304.37 359.254C305.72 358.684 307.188 358.462 308.642 358.607C310.097 358.753 311.494 359.261 312.709 360.087C313.925 360.912 314.921 362.03 315.611 363.342C316.301 364.653 316.662 366.118 316.663 367.605V383.844C316.669 385.983 315.926 388.055 314.567 389.688C313.208 391.32 311.323 392.406 309.248 392.752L284.707 396.928C284.225 397.007 283.737 397.048 283.249 397.051ZM307.789 363.197C307.215 363.197 306.647 363.312 306.118 363.538L281.577 373.946C280.787 374.278 280.112 374.842 279.638 375.567C279.164 376.291 278.914 377.143 278.918 378.013V388.004C278.916 388.643 279.051 389.276 279.314 389.857C279.577 390.437 279.962 390.953 280.441 391.366C280.92 391.78 281.482 392.083 282.087 392.253C282.693 392.422 283.328 392.456 283.948 392.35L308.488 388.19C309.497 388.017 310.413 387.486 311.073 386.69C311.733 385.894 312.093 384.885 312.09 383.844V367.667C312.092 367.09 311.982 366.519 311.767 365.985C311.552 365.451 311.236 364.966 310.836 364.557C310.437 364.147 309.962 363.822 309.44 363.6C308.917 363.377 308.356 363.261 307.789 363.259V363.197Z" fill="#5084FC"/>
<path d="M253.952 399.851H165.606L158.008 372.817H261.55L253.952 399.851ZM169.04 395.211H250.518L255.502 377.457H164.056L169.04 395.211Z" fill="#5084FC"/>
<path d="M350.671 323.034H330.582C329.29 323.046 328.028 322.639 326.979 321.871C325.93 321.103 325.148 320.015 324.747 318.765L320.964 307.352C320.641 306.412 320.546 305.408 320.686 304.423C320.826 303.439 321.197 302.503 321.768 301.695C322.34 300.888 323.094 300.232 323.967 299.785C324.84 299.337 325.806 299.11 326.784 299.124H346.948C348.239 299.125 349.497 299.539 350.545 300.308C351.592 301.077 352.375 302.161 352.783 303.408L356.491 314.744C356.813 315.683 356.909 316.688 356.769 317.673C356.628 318.657 356.257 319.593 355.686 320.4C355.115 321.208 354.361 321.863 353.488 322.311C352.615 322.759 351.648 322.985 350.671 322.972V323.034ZM326.784 303.825C326.533 303.821 326.286 303.879 326.063 303.995C325.841 304.111 325.65 304.281 325.507 304.49C325.359 304.697 325.262 304.937 325.222 305.19C325.182 305.442 325.202 305.701 325.279 305.944L329.002 317.296C329.1 317.625 329.302 317.911 329.577 318.11C329.852 318.309 330.185 318.409 330.522 318.394H350.686C350.936 318.399 351.183 318.34 351.406 318.224C351.629 318.108 351.82 317.938 351.962 317.729C352.11 317.522 352.208 317.282 352.248 317.03C352.287 316.777 352.267 316.519 352.19 316.275L348.467 304.924C348.37 304.595 348.168 304.308 347.892 304.11C347.617 303.911 347.285 303.811 346.948 303.825H326.784Z" fill="#5084FC"/>
<path d="M326.321 314.058L312.182 325.18L314.97 328.851L329.109 317.729L326.321 314.058Z" fill="#5084FC"/>
<path d="M324.187 307.298L305.315 310.491L306.063 315.068L324.935 311.875L324.187 307.298Z" fill="#5084FC"/>
<path d="M90.7077 323.034H70.5434C69.5659 323.047 68.5996 322.82 67.7265 322.373C66.8534 321.925 66.0993 321.27 65.5282 320.462C64.957 319.655 64.5856 318.719 64.4455 317.734C64.3055 316.75 64.4008 315.745 64.7235 314.806L68.4312 303.47C68.8283 302.219 69.6065 301.13 70.6529 300.359C71.6993 299.589 72.9596 299.178 74.2511 299.186H94.4154C95.3942 299.17 96.3622 299.395 97.2373 299.841C98.1123 300.288 98.8685 300.943 99.4415 301.751C100.014 302.559 100.387 303.495 100.528 304.481C100.669 305.467 100.574 306.473 100.25 307.413L96.5731 318.765C96.1711 320.021 95.3849 321.112 94.3295 321.88C93.2741 322.648 92.005 323.052 90.7077 323.034ZM74.2511 303.825C73.9139 303.811 73.5816 303.911 73.3064 304.11C73.0313 304.308 72.8291 304.595 72.7315 304.924L69.0086 316.275C68.9126 316.519 68.879 316.783 68.911 317.043C68.9429 317.304 69.0394 317.551 69.1914 317.763C69.3434 317.975 69.5458 318.144 69.7796 318.254C70.0135 318.365 70.2711 318.413 70.5282 318.394H90.6925C91.0296 318.409 91.362 318.309 91.6371 318.11C91.9122 317.911 92.1145 317.625 92.212 317.296L95.9197 305.944C96.0055 305.703 96.031 305.444 95.9938 305.19C95.9567 304.936 95.8581 304.696 95.707 304.49C95.5584 304.284 95.364 304.116 95.1396 304C94.9151 303.885 94.667 303.825 94.4154 303.825H74.2511Z" fill="#5084FC"/>
<path d="M94.8988 314.103L92.1111 317.774L106.25 328.896L109.038 325.225L94.8988 314.103Z" fill="#5084FC"/>
<path d="M97.0022 307.215L96.2529 311.791L115.124 314.991L115.873 310.415L97.0022 307.215Z" fill="#5084FC"/>
<path d="M283.248 217.746H144.028V226.592H283.248V217.746Z" fill="#FFB840"/>
<path d="M213.487 167.385L149 210.749L276.812 211.522L213.487 167.385Z" fill="#FFB840"/>
<path d="M281.44 229.562H139.515C138.128 229.562 136.799 229.001 135.818 228.003C134.838 227.006 134.287 225.653 134.287 224.242V214.235C134.291 212.826 134.843 211.475 135.823 210.478C136.802 209.481 138.129 208.919 139.515 208.915H164.876V213.555H139.515C139.337 213.555 139.167 213.627 139.042 213.754C138.916 213.882 138.846 214.055 138.846 214.235V224.242C138.846 224.422 138.916 224.595 139.042 224.723C139.167 224.85 139.337 224.922 139.515 224.922H281.44C281.617 224.922 281.787 224.85 281.913 224.723C282.038 224.595 282.108 224.422 282.108 224.242V214.235C282.108 214.055 282.038 213.882 281.913 213.754C281.787 213.627 281.617 213.555 281.44 213.555H237.206V208.915H281.44C282.825 208.919 284.152 209.481 285.132 210.478C286.111 211.475 286.663 212.826 286.667 214.235V224.242C286.663 225.651 286.111 227.002 285.132 227.999C284.152 228.996 282.825 229.558 281.44 229.562Z" fill="#5084FC"/>
<path d="M140.958 213.184L138.466 209.302L200.327 168.365V160.029H204.885V170.886L140.958 213.184Z" fill="#5084FC"/>
<path d="M279.996 213.184L216.054 170.886V160.029H220.612V168.365L282.488 209.302L279.996 213.184Z" fill="#5084FC"/>
<path d="M212.92 284.026H208.361V279.108H212.92V284.026ZM212.92 274.174H208.361V269.256H212.92V274.174ZM212.92 264.338H208.361V259.42H212.92V264.338ZM212.92 254.502H208.361V249.584H212.92V254.502ZM212.92 244.666H208.361V239.748H212.92V244.666ZM212.92 234.83H208.361V229.912H212.92V234.83Z" fill="#5084FC"/>
<path d="M184.611 284.026H180.052V279.108H184.611V284.026ZM184.611 274.174H180.052V269.256H184.611V274.174ZM184.611 264.338H180.052V259.42H184.611V264.338ZM184.611 254.502H180.052V249.584H184.611V254.502ZM184.611 244.666H180.052V239.748H184.611V244.666ZM184.611 234.83H180.052V229.912H184.611V234.83Z" fill="#5084FC"/>
<path d="M156.317 284.026H151.758V279.108H156.317V284.026ZM156.317 274.174H151.758V269.256H156.317V274.174ZM156.317 264.338H151.758V259.42H156.317V264.338ZM156.317 254.502H151.758V249.584H156.317V254.502ZM156.317 244.666H151.758V239.748H156.317V244.666ZM156.317 234.83H151.758V229.912H156.317V234.83Z" fill="#5084FC"/>
<path d="M241.229 284.026H236.67V279.108H241.229V284.026ZM241.229 274.174H236.67V269.256H241.229V274.174ZM241.229 264.338H236.67V259.42H241.229V264.338ZM241.229 254.502H236.67V249.584H241.229V254.502ZM241.229 244.666H236.67V239.748H241.229V244.666ZM241.229 234.83H236.67V229.912H241.229V234.83Z" fill="#5084FC"/>
<path d="M269.538 284.026H264.979V279.108H269.538V284.026ZM269.538 274.174H264.979V269.256H269.538V274.174ZM269.538 264.338H264.979V259.42H269.538V264.338ZM269.538 254.502H264.979V249.584H269.538V254.502ZM269.538 244.666H264.979V239.748H269.538V244.666ZM269.538 234.83H264.979V229.912H269.538V234.83Z" fill="#5084FC"/>
</g>
<defs>
<clipPath id="clip0_29156_288477">
<rect width="443.206" height="446.746" fill="white" transform="translate(82.7942 25.78)"/>
</clipPath>
<clipPath id="clip1_29156_288477">
<rect width="292.405" height="344.818" fill="white" transform="translate(64.4043 109.456)"/>
</clipPath>
</defs>
</svg>
