<svg width="81" height="80" viewBox="0 0 81 80" fill="none" xmlns="http://www.w3.org/2000/svg">
<rect x="1" y="0.5" width="79" height="79" rx="39.5" fill="#5084FC" fill-opacity="0.1"/>
<rect x="1" y="0.5" width="79" height="79" rx="39.5" stroke="#5084FC"/>
<g clip-path="url(#clip0_29152_288473)">
<path d="M49.9962 24.6997H31.4275V25.8798H49.9962V24.6997Z" fill="#FFB840"/>
<path d="M41.338 18.4092L33.3608 23.7383L49.1712 23.8332L41.338 18.4092Z" fill="#FFB840"/>
<path d="M57.7848 52.3645L54.1367 47.5305L51.4351 41.7495C50.9905 40.7984 50.2901 39.995 49.4152 39.4326C48.5403 38.8703 47.5266 38.572 46.4919 38.5723H34.5343C33.4968 38.5688 32.4797 38.8657 31.6017 39.4282C30.7236 39.9908 30.0207 40.7958 29.575 41.7495L26.8673 47.5264L23.2192 52.3603C22.8665 52.8262 22.6755 53.3979 22.676 53.9861V58.0979C22.675 58.8051 22.9497 59.4837 23.44 59.9847C23.9302 60.4857 24.5958 60.7681 25.2905 60.7697H55.7074C56.402 60.7692 57.0681 60.4879 57.5591 59.9877C58.0501 59.4874 58.3259 58.8092 58.3259 58.1021V53.9902C58.327 53.4023 58.1367 52.8306 57.7848 52.3645ZM29.4108 46.2596L31.2085 42.418C31.5092 41.7756 31.9825 41.2331 32.5736 40.8534C33.1648 40.4736 33.8495 40.2722 34.5485 40.2723H46.6338C47.3328 40.2722 48.0175 40.4736 48.6087 40.8534C49.1998 41.2331 49.6731 41.7756 49.9738 42.418L51.7715 46.2596C51.8136 46.3497 51.8327 46.4491 51.8268 46.5487C51.8209 46.6483 51.7903 46.7448 51.7379 46.829C51.6855 46.9133 51.6129 46.9827 51.527 47.0307C51.4411 47.0787 51.3446 47.1037 51.2466 47.1034H29.9519C29.8532 47.1051 29.7558 47.0811 29.6687 47.0337C29.5817 46.9863 29.508 46.9171 29.4546 46.8326C29.4012 46.7481 29.3699 46.6511 29.3637 46.5508C29.3574 46.4505 29.3764 46.3503 29.4189 46.2596H29.4108ZM31.2632 54.1594C31.2632 54.2896 31.2353 54.4183 31.1815 54.5364C31.1277 54.6546 31.0493 54.7594 30.9517 54.8436C30.8541 54.9278 30.7397 54.9894 30.6164 55.0241C30.4931 55.0588 30.3639 55.0657 30.2377 55.0445L26.9646 54.4874C26.7591 54.4527 26.5724 54.345 26.4376 54.1833C26.3029 54.0216 26.2289 53.8164 26.2289 53.6044V51.4464C26.2297 51.2995 26.2659 51.155 26.3344 51.0257C26.4028 50.8964 26.5014 50.7862 26.6214 50.7048C26.7415 50.6233 26.8793 50.573 27.0229 50.5585C27.1665 50.5439 27.3114 50.5654 27.4449 50.6211L30.718 52.0096C30.8781 52.0775 31.0149 52.1921 31.1111 52.3389C31.2074 52.4858 31.2589 52.6583 31.2592 52.8349L31.2632 54.1594ZM46.044 55.4303H34.7269L33.8878 52.4429H46.8912L46.044 55.4303ZM54.3353 53.6044C54.3352 53.8164 54.2612 54.0216 54.1265 54.1833C53.9918 54.345 53.8051 54.4527 53.5996 54.4874L50.3265 55.0445C50.2003 55.0657 50.071 55.0588 49.9477 55.0241C49.8244 54.9894 49.71 54.9278 49.6124 54.8436C49.5148 54.7594 49.4364 54.6546 49.3827 54.5364C49.3289 54.4183 49.301 54.2896 49.3009 54.1594V52.8266C49.3009 52.65 49.3523 52.4773 49.4486 52.3305C49.5449 52.1836 49.6818 52.069 49.8421 52.0013L53.1233 50.6211C53.2568 50.5654 53.4017 50.5439 53.5453 50.5585C53.6889 50.573 53.8267 50.6233 53.9468 50.7048C54.0668 50.7862 54.1654 50.8964 54.2338 51.0257C54.3023 51.155 54.3385 51.2995 54.3393 51.4464L54.3353 53.6044Z" fill="#5084FC"/>
<path d="M27.072 52.2304V54.3967C27.0725 54.6086 27.1466 54.8135 27.2813 54.9751C27.4159 55.1368 27.6024 55.2447 27.8077 55.2797L31.0809 55.8347C31.207 55.8563 31.3361 55.8497 31.4594 55.8152C31.5828 55.7808 31.6972 55.7194 31.7948 55.6354C31.8924 55.5513 31.9709 55.4466 32.0247 55.3285C32.0785 55.2104 32.1064 55.0818 32.1064 54.9517V53.6189C32.106 53.4421 32.0542 53.2694 31.9575 53.1226C31.8609 52.9757 31.7237 52.8612 31.5632 52.7936L28.2921 51.4051C28.1584 51.348 28.013 51.3254 27.8686 51.3393C27.7243 51.3532 27.5856 51.4033 27.4648 51.4849C27.3441 51.5666 27.245 51.6774 27.1765 51.8075C27.108 51.9375 27.0721 52.0828 27.072 52.2304Z" fill="#FFB840"/>
<path d="M55.1764 52.2304V54.3967C55.1763 54.6087 55.1023 54.8138 54.9676 54.9755C54.8329 55.1372 54.6462 55.245 54.4407 55.2797L51.1696 55.8347C51.0435 55.8563 50.9143 55.8496 50.791 55.8152C50.6677 55.7808 50.5532 55.7194 50.4556 55.6354C50.358 55.5513 50.2795 55.4466 50.2257 55.3285C50.1719 55.2104 50.144 55.0818 50.144 54.9517V53.6189C50.144 53.4423 50.1954 53.2696 50.2917 53.1227C50.388 52.9759 50.5249 52.8613 50.6852 52.7936L53.9583 51.4051C54.0919 51.3484 54.2371 51.3262 54.3812 51.3403C54.5252 51.3545 54.6636 51.4046 54.7841 51.4862C54.9046 51.5678 55.0034 51.6784 55.0719 51.8083C55.1403 51.9381 55.1762 52.0831 55.1764 52.2304Z" fill="#FFB840"/>
<path d="M59.3777 62.3811H21.2046V63H59.3777V62.3811Z" fill="#1D1D1B"/>
<path d="M55.4885 59.5835H25.0879C24.7033 59.5837 24.3224 59.5069 23.967 59.3573C23.6116 59.2077 23.2886 58.9884 23.0164 58.7117C22.7443 58.4351 22.5283 58.1066 22.3809 57.745C22.2335 57.3834 22.1575 56.9958 22.1572 56.6043V52.4945C22.1588 51.8384 22.3725 51.2011 22.7652 50.681L26.3971 45.8759L29.0906 40.1156C29.5632 39.114 30.3034 38.2683 31.2265 37.6754C32.1495 37.0824 33.2179 36.7662 34.3094 36.7629H46.267C47.3584 36.7664 48.4267 37.0828 49.3497 37.6757C50.2727 38.2686 51.013 39.1142 51.4858 40.1156L54.1833 45.8759L57.8152 50.683C58.2081 51.2031 58.4218 51.8404 58.4232 52.4965V56.6043C58.4232 56.9962 58.3472 57.3843 58.1997 57.7463C58.0521 58.1082 57.8358 58.437 57.5632 58.7138C57.2906 58.9905 56.967 59.2098 56.611 59.359C56.255 59.5083 55.8735 59.5845 55.4885 59.5835ZM34.3094 37.3798C33.3341 37.384 32.3797 37.6675 31.5553 38.198C30.731 38.7285 30.0699 39.4846 29.648 40.3796L26.9119 46.1998L23.2395 51.0585C22.9279 51.4731 22.7591 51.9807 22.7592 52.5027V56.6043C22.7592 56.9151 22.8195 57.2228 22.9366 57.5099C23.0538 57.7969 23.2255 58.0576 23.4418 58.2769C23.6582 58.4962 23.915 58.6698 24.1975 58.7878C24.4799 58.9058 24.7825 58.9659 25.0879 58.9645H55.4885C55.7936 58.9656 56.0959 58.9053 56.378 58.7872C56.6601 58.669 56.9165 58.4953 57.1325 58.276C57.3485 58.0567 57.5198 57.7961 57.6366 57.5092C57.7534 57.2224 57.8134 56.9148 57.8132 56.6043V52.4945C57.8143 51.9722 57.6453 51.4644 57.3328 51.0503L53.6483 46.1606L50.9406 40.3714C50.5186 39.4763 49.8576 38.7203 49.0332 38.1898C48.2088 37.6592 47.2544 37.3757 46.2791 37.3716L34.3094 37.3798Z" fill="#1D1D1B"/>
<path d="M28.057 63H24.8386C24.4624 63 24.1015 62.8479 23.8354 62.577C23.5694 62.3062 23.4199 61.9389 23.4199 61.5558V58.8469H24.0279V61.5558C24.0279 61.7747 24.1133 61.9846 24.2654 62.1394C24.4174 62.2942 24.6236 62.3811 24.8386 62.3811H28.057C28.272 62.3811 28.4782 62.2942 28.6303 62.1394C28.7823 61.9846 28.8677 61.7747 28.8677 61.5558V59.274H29.4757V61.5558C29.4757 61.9389 29.3263 62.3062 29.0602 62.577C28.7941 62.8479 28.4333 63 28.057 63Z" fill="#1D1D1B"/>
<path d="M55.7419 63H52.5234C52.1472 63 51.7863 62.8479 51.5203 62.577C51.2542 62.3062 51.1047 61.9389 51.1047 61.5558V59.274H51.7127V61.5558C51.7127 61.7747 51.7982 61.9846 51.9502 62.1394C52.1022 62.2942 52.3084 62.3811 52.5234 62.3811H55.7419C55.9569 62.3811 56.1631 62.2942 56.3151 62.1394C56.4671 61.9846 56.5525 61.7747 56.5525 61.5558V58.8469H57.1606V61.5558C57.1606 61.9389 57.0111 62.3062 56.745 62.577C56.479 62.8479 56.1181 63 55.7419 63Z" fill="#1D1D1B"/>
<path d="M51.0461 45.9192H29.7332C29.585 45.9182 29.4393 45.8793 29.3098 45.806C29.1802 45.7327 29.0708 45.6274 28.9916 45.4998C28.9125 45.3722 28.8662 45.2264 28.8569 45.0758C28.8477 44.9252 28.8758 44.7746 28.9387 44.638L30.7364 40.7964C31.0635 40.1027 31.576 39.5168 32.2151 39.1059C32.8542 38.6951 33.5942 38.4758 34.35 38.4733V39.0922C33.709 39.0943 33.0815 39.2803 32.5395 39.6287C31.9975 39.9772 31.563 40.4742 31.2857 41.0625L29.488 44.9041C29.4683 44.947 29.4595 44.9943 29.4624 45.0415C29.4653 45.0888 29.4799 45.1345 29.5047 45.1746C29.5295 45.2146 29.5638 45.2477 29.6044 45.2707C29.6451 45.2938 29.6907 45.306 29.7372 45.3064H51.0461C51.0926 45.306 51.1383 45.2938 51.1789 45.2707C51.2195 45.2477 51.2539 45.2146 51.2787 45.1746C51.3035 45.1345 51.318 45.0888 51.3209 45.0415C51.3239 44.9943 51.3151 44.947 51.2954 44.9041L49.4977 41.0625C49.2204 40.4742 48.7858 39.9772 48.2438 39.6287C47.7018 39.2803 47.0743 39.0943 46.4333 39.0922V38.4733C47.1892 38.4758 47.9291 38.6951 48.5682 39.1059C49.2073 39.5168 49.7198 40.1027 50.0469 40.7964L51.8406 44.638C51.905 44.7752 51.9342 44.9268 51.9254 45.0786C51.9166 45.2304 51.8702 45.3775 51.7904 45.5061C51.7107 45.6347 51.6002 45.7406 51.4693 45.8139C51.3384 45.8872 51.1914 45.9256 51.042 45.9254L51.0461 45.9192Z" fill="#1D1D1B"/>
<path d="M30.3918 55.3663C30.324 55.3662 30.2562 55.3607 30.1892 55.3498L26.916 54.7927C26.6393 54.7467 26.3878 54.6017 26.2066 54.3839C26.0253 54.1662 25.9262 53.8898 25.927 53.6044V51.4463C25.9271 51.2479 25.9753 51.0525 26.0673 50.8776C26.1593 50.7026 26.2923 50.5535 26.4544 50.4433C26.6165 50.3332 26.8028 50.2654 26.9968 50.246C27.1908 50.2266 27.3865 50.2562 27.5666 50.3322L30.8398 51.7207C31.0561 51.8119 31.241 51.9665 31.3709 52.1649C31.5008 52.3632 31.5699 52.5964 31.5694 52.8348V54.1676C31.5688 54.4872 31.444 54.7936 31.2222 55.0197C31.0004 55.2459 30.6997 55.3735 30.3858 55.3746L30.3918 55.3663ZM27.1147 50.8501C26.9618 50.8506 26.8154 50.9128 26.7075 51.023C26.5996 51.1332 26.5391 51.2825 26.5391 51.4381V53.6044C26.5387 53.7436 26.587 53.8784 26.6754 53.9846C26.7638 54.0908 26.8865 54.1616 27.0214 54.1841L30.2966 54.7474C30.3791 54.7607 30.4636 54.7558 30.544 54.7329C30.6245 54.7099 30.6992 54.6695 30.7629 54.6145C30.8267 54.5594 30.8779 54.491 30.9132 54.4138C30.9485 54.3367 30.967 54.2527 30.9674 54.1676V52.8348C30.9675 52.7189 30.9338 52.6055 30.8707 52.5089C30.8076 52.4124 30.7179 52.337 30.6128 52.2922L27.3396 50.9037C27.269 50.8705 27.1924 50.8523 27.1147 50.8501Z" fill="#1D1D1B"/>
<path d="M50.1887 55.3664C50.0331 55.3664 49.879 55.3351 49.7353 55.2745C49.5916 55.2138 49.461 55.1249 49.3511 55.0128C49.2411 54.9006 49.154 54.7676 49.0946 54.6212C49.0353 54.4747 49.0049 54.3178 49.0051 54.1594V52.8266C49.0046 52.5882 49.0737 52.355 49.2036 52.1567C49.3335 51.9583 49.5184 51.8037 49.7347 51.7125L53.0059 50.324C53.1859 50.2481 53.3816 50.2184 53.5756 50.2378C53.7696 50.2572 53.9559 50.325 54.1181 50.4351C54.2802 50.5453 54.4131 50.6945 54.5051 50.8694C54.5971 51.0444 54.6453 51.2397 54.6455 51.4381V53.6044C54.6463 53.8899 54.5471 54.1662 54.3659 54.384C54.1846 54.6018 53.9331 54.7467 53.6564 54.7928L50.3833 55.3499C50.319 55.3605 50.2539 55.366 50.1887 55.3664ZM53.4619 50.8501C53.3853 50.85 53.3095 50.8655 53.2389 50.8955L49.9658 52.284C49.8604 52.3283 49.7703 52.4036 49.7072 52.5003C49.644 52.5969 49.6105 52.7106 49.6111 52.8266V54.1594C49.6108 54.2447 49.6289 54.3291 49.6639 54.4066C49.699 54.484 49.7503 54.5528 49.8142 54.608C49.8781 54.6632 49.953 54.7036 50.0338 54.7262C50.1146 54.7489 50.1993 54.7533 50.282 54.7392L53.5551 54.1842C53.6897 54.1612 53.8118 54.0903 53.8998 53.9841C53.9878 53.8779 54.0359 53.7434 54.0354 53.6044V51.4464C54.0357 51.3694 54.0211 51.2932 53.9924 51.222C53.9637 51.1508 53.9215 51.0861 53.8683 51.0315C53.815 50.9769 53.7517 50.9335 53.682 50.9038C53.6122 50.8741 53.5375 50.8587 53.4619 50.8584V50.8501Z" fill="#1D1D1B"/>
<path d="M46.2813 55.7398H34.498L33.4846 52.1334H47.2946L46.2813 55.7398ZM34.956 55.1209H45.8232L46.488 52.7524H34.2912L34.956 55.1209Z" fill="#1D1D1B"/>
<path d="M59.1812 45.4921H56.5019C56.3296 45.4937 56.1612 45.4394 56.0213 45.337C55.8813 45.2346 55.7771 45.0894 55.7237 44.9226L55.219 43.4C55.176 43.2747 55.1633 43.1407 55.182 43.0094C55.2006 42.878 55.2502 42.7532 55.3263 42.6455C55.4025 42.5377 55.5031 42.4503 55.6196 42.3906C55.736 42.3309 55.8649 42.3006 55.9953 42.3024H58.6847C58.8569 42.3025 59.0247 42.3578 59.1644 42.4604C59.3041 42.5629 59.4085 42.7076 59.463 42.8739L59.9575 44.3862C60.0005 44.5115 60.0132 44.6455 59.9945 44.7769C59.9759 44.9083 59.9263 45.0331 59.8502 45.1408C59.774 45.2485 59.6734 45.336 59.5569 45.3957C59.4405 45.4554 59.3116 45.4856 59.1812 45.4838V45.4921ZM55.9953 42.9296C55.9619 42.929 55.9289 42.9368 55.8992 42.9523C55.8695 42.9677 55.844 42.9904 55.825 43.0184C55.8053 43.046 55.7923 43.0779 55.787 43.1116C55.7817 43.1453 55.7843 43.1798 55.7946 43.2123L56.2912 44.7266C56.3042 44.7705 56.3311 44.8087 56.3678 44.8352C56.4045 44.8618 56.4489 44.8751 56.4938 44.8731H59.1833C59.2166 44.8738 59.2496 44.866 59.2793 44.8505C59.309 44.835 59.3345 44.8123 59.3535 44.7844C59.3732 44.7568 59.3863 44.7249 59.3915 44.6912C59.3968 44.6575 59.3942 44.623 59.3839 44.5905L58.8874 43.0761C58.8744 43.0323 58.8474 42.9941 58.8107 42.9675C58.774 42.941 58.7297 42.9277 58.6847 42.9296H55.9953Z" fill="#1D1D1B"/>
<path d="M55.9337 44.2947L54.0479 45.7784L54.4197 46.2682L56.3055 44.7844L55.9337 44.2947Z" fill="#1D1D1B"/>
<path d="M55.6489 43.3929L53.1318 43.819L53.2316 44.4295L55.7486 44.0035L55.6489 43.3929Z" fill="#1D1D1B"/>
<path d="M24.5082 45.4922H21.8187C21.6884 45.494 21.5595 45.4637 21.443 45.404C21.3266 45.3443 21.226 45.2569 21.1498 45.1491C21.0737 45.0414 21.0241 44.9166 21.0054 44.7852C20.9868 44.6539 20.9995 44.5199 21.0425 44.3946L21.537 42.8823C21.59 42.7154 21.6938 42.5701 21.8334 42.4673C21.9729 42.3646 22.141 42.3097 22.3133 42.3108H25.0027C25.1333 42.3086 25.2624 42.3386 25.3791 42.3982C25.4958 42.4578 25.5967 42.5452 25.6731 42.6529C25.7495 42.7607 25.7992 42.8857 25.818 43.0172C25.8368 43.1487 25.8241 43.2829 25.781 43.4084L25.2905 44.9227C25.2369 45.0902 25.132 45.2358 24.9913 45.3383C24.8505 45.4407 24.6812 45.4947 24.5082 45.4922ZM22.3133 42.9297C22.2683 42.9278 22.224 42.9411 22.1873 42.9676C22.1506 42.9941 22.1236 43.0323 22.1106 43.0762L21.614 44.5906C21.6012 44.623 21.5968 44.6583 21.601 44.693C21.6053 44.7277 21.6182 44.7608 21.6384 44.7891C21.6587 44.8173 21.6857 44.8399 21.7169 44.8546C21.7481 44.8693 21.7824 44.8757 21.8167 44.8732H24.5062C24.5511 44.8752 24.5955 44.8618 24.6322 44.8353C24.6688 44.8088 24.6958 44.7706 24.7088 44.7267L25.2034 43.2124C25.2148 43.1802 25.2182 43.1456 25.2132 43.1118C25.2083 43.0779 25.1951 43.0458 25.175 43.0184C25.1552 42.9909 25.1292 42.9685 25.0993 42.953C25.0694 42.9376 25.0363 42.9296 25.0027 42.9297H22.3133Z" fill="#1D1D1B"/>
<path d="M25.0674 44.3007L24.6956 44.7904L26.5814 46.2741L26.9532 45.7844L25.0674 44.3007Z" fill="#1D1D1B"/>
<path d="M25.3477 43.3818L25.2478 43.9923L27.7647 44.4192L27.8647 43.8087L25.3477 43.3818Z" fill="#1D1D1B"/>
<path d="M40.8031 35.3208H40.1951V34.6647H40.8031V35.3208ZM40.8031 34.0065H40.1951V33.3505H40.8031V34.0065ZM40.8031 32.6944H40.1951V32.0383H40.8031V32.6944ZM40.8031 31.3822H40.1951V30.7261H40.8031V31.3822ZM40.8031 30.0701H40.1951V29.414H40.8031V30.0701ZM40.8031 28.7579H40.1951V28.1018H40.8031V28.7579Z" fill="#1D1D1B"/>
<path d="M37.0272 35.3208H36.4192V34.6647H37.0272V35.3208ZM37.0272 34.0065H36.4192V33.3505H37.0272V34.0065ZM37.0272 32.6944H36.4192V32.0383H37.0272V32.6944ZM37.0272 31.3822H36.4192V30.7261H37.0272V31.3822ZM37.0272 30.0701H36.4192V29.414H37.0272V30.0701ZM37.0272 28.7579H36.4192V28.1018H37.0272V28.7579Z" fill="#1D1D1B"/>
<path d="M33.2535 35.3208H32.6455V34.6647H33.2535V35.3208ZM33.2535 34.0065H32.6455V33.3505H33.2535V34.0065ZM33.2535 32.6944H32.6455V32.0383H33.2535V32.6944ZM33.2535 31.3822H32.6455V30.7261H33.2535V31.3822ZM33.2535 30.0701H32.6455V29.414H33.2535V30.0701ZM33.2535 28.7579H32.6455V28.1018H33.2535V28.7579Z" fill="#1D1D1B"/>
<path d="M44.5787 35.3208H43.9707V34.6647H44.5787V35.3208ZM44.5787 34.0065H43.9707V33.3505H44.5787V34.0065ZM44.5787 32.6944H43.9707V32.0383H44.5787V32.6944ZM44.5787 31.3822H43.9707V30.7261H44.5787V31.3822ZM44.5787 30.0701H43.9707V29.414H44.5787V30.0701ZM44.5787 28.7579H43.9707V28.1018H44.5787V28.7579Z" fill="#1D1D1B"/>
<path d="M48.3546 35.3208H47.7466V34.6647H48.3546V35.3208ZM48.3546 34.0065H47.7466V33.3505H48.3546V34.0065ZM48.3546 32.6944H47.7466V32.0383H48.3546V32.6944ZM48.3546 31.3822H47.7466V30.7261H48.3546V31.3822ZM48.3546 30.0701H47.7466V29.414H48.3546V30.0701ZM48.3546 28.7579H47.7466V28.1018H48.3546V28.7579Z" fill="#1D1D1B"/>
<path d="M49.7551 26.2759H30.8256C30.6407 26.2759 30.4634 26.2011 30.3326 26.068C30.2019 25.9349 30.1284 25.7544 30.1284 25.5662V24.2313C30.129 24.0433 30.2026 23.8631 30.3332 23.7301C30.4638 23.5971 30.6409 23.5222 30.8256 23.5216H34.2082V24.1406H30.8256C30.802 24.1406 30.7793 24.1501 30.7626 24.1671C30.7458 24.1842 30.7364 24.2073 30.7364 24.2313V25.5662C30.7364 25.5903 30.7458 25.6134 30.7626 25.6304C30.7793 25.6474 30.802 25.657 30.8256 25.657H49.7551C49.7787 25.657 49.8014 25.6474 49.8181 25.6304C49.8349 25.6134 49.8443 25.5903 49.8443 25.5662V24.2313C49.8443 24.2073 49.8349 24.1842 49.8181 24.1671C49.8014 24.1501 49.7787 24.1406 49.7551 24.1406H43.8553V23.5216H49.7551C49.9398 23.5222 50.1168 23.5971 50.2475 23.7301C50.3781 23.8631 50.4517 24.0433 50.4523 24.2313V25.5662C50.4517 25.7543 50.3781 25.9345 50.2475 26.0674C50.1168 26.2004 49.9398 26.2754 49.7551 26.2759Z" fill="#1D1D1B"/>
<path d="M31.0179 24.091L30.6855 23.5732L38.9363 18.112V17H39.5443V18.4483L31.0179 24.091Z" fill="#1D1D1B"/>
<path d="M49.5623 24.091L41.0339 18.4483V17H41.6419V18.112L49.8947 23.5732L49.5623 24.091Z" fill="#1D1D1B"/>
</g>
<defs>
<clipPath id="clip0_29152_288473">
<rect width="39" height="46" fill="white" transform="translate(21 17)"/>
</clipPath>
</defs>
</svg>
