<svg width="81" height="80" viewBox="0 0 81 80" fill="none" xmlns="http://www.w3.org/2000/svg">
<rect x="1" y="0.5" width="79" height="79" rx="39.5" fill="#5084FC" fill-opacity="0.1"/>
<rect x="1" y="0.5" width="79" height="79" rx="39.5" stroke="#5084FC"/>
<g clip-path="url(#clip0_29152_288476)">
<path d="M42.3746 56.125H41.7847V57.3007H42.3746V56.125Z" fill="#242424" fill-opacity="0.7"/>
<path d="M35.2031 56.125H34.0278V57.3007H35.2031V56.125Z" fill="#242424" fill-opacity="0.7"/>
<path d="M32.6166 56.125H31.4414V57.3007H32.6166V56.125Z" fill="#242424" fill-opacity="0.7"/>
<path d="M30.0302 56.125H28.855V57.3007H30.0302V56.125Z" fill="#242424" fill-opacity="0.7"/>
<path d="M40.3735 56.125H39.1982V57.3007H40.3735V56.125Z" fill="#242424" fill-opacity="0.7"/>
<path d="M37.787 56.125H36.6118V57.3007H37.787V56.125Z" fill="#242424" fill-opacity="0.7"/>
<path d="M19.6843 48.8308H18.5044V49.936H19.6843V48.8308Z" fill="#242424" fill-opacity="0.7"/>
<path d="M19.6843 46.3971H18.5044V47.5023H19.6843V46.3971Z" fill="#242424" fill-opacity="0.7"/>
<path d="M19.6843 44.483H18.5044V45.0709H19.6843V44.483Z" fill="#242424" fill-opacity="0.7"/>
<path d="M26.5256 56.125H19.6843V54.7988V53.6936V52.3674V51.2622H18.5044V51.4903V57.3007H19.6843H21.0955H22.2708H23.682H24.8572H26.2684H27.4436V56.125H26.5256Z" fill="#242424" fill-opacity="0.7"/>
<path d="M61.5179 28.8295L60.6943 23.0614C60.5485 22.0542 60.0434 21.133 59.2715 20.4667C58.4996 19.8004 57.5126 19.4334 56.4913 19.4331H44.2837C43.2498 19.4335 42.2515 19.8097 41.476 20.4911C40.7005 21.1724 40.2011 22.1122 40.0713 23.1343L39.4553 27.9947H15.7456V44.4007H64.2341V31.6136L61.5179 28.8295Z" fill="#5084FC"/>
<path d="M16.3356 39.5662H15.7456V40.7419H16.3356V39.5662Z" fill="white"/>
<path d="M62.2519 40.7419H61.0909V39.5662H62.2519V40.7419ZM59.7009 40.7419H58.5398V39.5662H59.7009V40.7419ZM57.1498 40.7419H55.9888V39.5662H57.1546L57.1498 40.7419ZM54.5988 40.7419H53.4378V39.5662H54.5988V40.7419ZM52.0478 40.7419H50.8891V39.5662H52.0478V40.7419ZM49.4968 40.7419H48.3381V39.5662H49.4968V40.7419ZM46.9457 40.7419H45.787V39.5662H46.9457V40.7419ZM44.3947 40.7419H43.2313V39.5662H44.39L44.3947 40.7419ZM41.8437 40.7419H40.685V39.5662H41.8437V40.7419ZM39.2926 40.7419H38.1339V39.5662H39.2926V40.7419ZM36.7416 40.7419H35.5829V39.5662H36.7416V40.7419ZM34.1906 40.7419H33.0319V39.5662H34.1906V40.7419ZM31.6419 40.7419H30.4879V39.5662H31.649L31.6419 40.7419ZM29.0909 40.7419H27.9298V39.5662H29.0909V40.7419ZM26.5398 40.7419H25.3788V39.5662H26.5398V40.7419ZM23.9888 40.7419H22.8277V39.5662H23.9888V40.7419ZM21.4378 40.7419H20.2791V39.5662H21.4378V40.7419ZM18.8867 40.7419H17.728V39.5662H18.8867V40.7419Z" fill="white"/>
<path d="M64.2318 39.5662H63.6418V40.7419H64.2318V39.5662Z" fill="white"/>
<path d="M61.5179 28.8295L60.6943 23.0614C60.5485 22.0542 60.0434 21.133 59.2715 20.4667C58.4996 19.8004 57.5126 19.4334 56.4913 19.4331H41.9238C40.8899 19.4335 39.8916 19.8097 39.1161 20.4911C38.3407 21.1724 37.8412 22.1122 37.7114 23.1343L37.0955 27.9947H15.7456V30.1486H37.0955L37.7137 25.2882C37.8436 24.2661 38.343 23.3263 39.1185 22.645C39.894 21.9636 40.8922 21.5875 41.9261 21.587H56.4842C57.5082 21.586 58.498 21.9535 59.2716 22.6219C60.0451 23.2903 60.5504 24.2146 60.6943 25.2247L61.5273 30.9928L64.2341 33.7769V31.6136L61.5179 28.8295Z" fill="white"/>
<path d="M30.7546 34.4118H20.3522L18.7239 27.9948H32.6543L30.7546 34.4118Z" fill="#FFB840"/>
<path d="M32.1728 29.6172L32.6543 27.9948H18.7239L19.1345 29.6172H32.1728Z" fill="white"/>
<path d="M31.1958 34.9997H19.892L17.9663 27.4069H33.4424L31.1958 34.9997ZM20.8123 33.8239H30.3132L31.8637 28.5826H19.4814L20.8123 33.8239Z" fill="#242424" fill-opacity="0.7"/>
<path d="M30.7593 34.4117H20.3286V40.154H30.7593V34.4117Z" fill="#FFB840"/>
<path d="M30.7593 34.4117H20.3286V36.0342H30.7593V34.4117Z" fill="white"/>
<path d="M31.3491 40.7419H19.7385V33.824H31.3491V40.7419ZM20.9185 39.5662H30.1692V34.9997H20.9185V39.5662Z" fill="#242424" fill-opacity="0.7"/>
<path d="M28.8998 30.2921H22.0703V31.4678H28.8998V30.2921Z" fill="#242424" fill-opacity="0.7"/>
<path d="M27.5876 36.3094H23.3823V41.311H27.5876V36.3094Z" fill="#5084FC"/>
<path d="M27.5876 36.3094H23.3823V38.2024H27.5876V36.3094Z" fill="white"/>
<path d="M28.1775 41.9058H22.7922V35.7239H28.1775V41.9058ZM23.9722 40.7301H26.9975V36.8996H23.9722V40.7301Z" fill="#242424" fill-opacity="0.7"/>
<path d="M27.3942 44.9886H23.5759V40.7301H27.3942V44.9886ZM24.7559 43.8128H26.2143V41.9058H24.7559V43.8128Z" fill="#242424" fill-opacity="0.7"/>
<path d="M64.8218 44.9886H15.1487V27.4068H38.9339L39.4861 23.0614C39.6352 21.8978 40.2044 20.8281 41.0874 20.0521C41.9703 19.2762 43.1065 18.8472 44.2838 18.8452H56.482C57.6441 18.8506 58.7659 19.2705 59.6443 20.0288C60.5226 20.787 61.0994 21.8336 61.2702 22.9791L62.0749 28.5567L64.8218 31.3784V44.9886ZM16.3286 43.8128H63.6419V31.851L60.9611 29.1022L60.1021 23.146C59.9729 22.28 59.5369 21.4888 58.8728 20.9155C58.2087 20.3423 57.3606 20.0249 56.482 20.0209H44.2838C43.3939 20.0223 42.535 20.3465 41.8675 20.9328C41.2 21.5192 40.7696 22.3276 40.6566 23.2071L39.9746 28.5825H16.3286V43.8128Z" fill="#242424" fill-opacity="0.7"/>
<path d="M49.3268 16.5879C46.4278 16.5874 43.5937 17.4436 41.1831 19.0481C38.7724 20.6526 36.8934 22.9334 35.7836 25.6021C34.6739 28.2707 34.3833 31.2073 34.9486 34.0405C35.5139 36.8737 36.9097 39.4763 38.9594 41.519C41.0092 43.5618 43.6208 44.953 46.4641 45.5167C49.3074 46.0804 52.2546 45.7913 54.933 44.686C57.6114 43.5807 59.9007 41.7087 61.5113 39.3069C63.122 36.9051 63.9817 34.0814 63.9817 31.1927C63.982 29.2749 63.6032 27.3758 62.8668 25.6039C62.1305 23.8319 61.0511 22.2219 59.6902 20.8657C58.3294 19.5095 56.7137 18.4337 54.9356 17.6997C53.1574 16.9657 51.2515 16.5879 49.3268 16.5879ZM49.3268 41.1111C47.3573 41.112 45.4318 40.5309 43.7939 39.4413C42.1559 38.3516 40.879 36.8024 40.1248 34.9896C39.3706 33.1767 39.1728 31.1817 39.5567 29.2569C39.9405 27.3321 40.8886 25.564 42.2811 24.1762C43.6735 22.7883 45.4478 21.8432 47.3794 21.4603C49.3111 21.0774 51.3133 21.2739 53.1328 22.025C54.9523 22.7761 56.5074 24.048 57.6013 25.6799C58.6953 27.3118 59.2789 29.2303 59.2785 31.1927C59.2785 33.8228 58.2301 36.3452 56.3638 38.2052C54.4976 40.0652 51.9664 41.1105 49.3268 41.1111Z" fill="#FFB840"/>
<path d="M49.3267 19.0216C53.0017 19.0225 56.5421 20.399 59.2464 22.8785C61.9507 25.3579 63.6214 28.7593 63.9273 32.4084C63.9604 32.0063 63.9816 31.6018 63.9816 31.1927C63.9816 27.3199 62.4376 23.6057 59.6893 20.8672C56.941 18.1287 53.2135 16.5902 49.3267 16.5902C45.44 16.5902 41.7125 18.1287 38.9642 20.8672C36.2159 23.6057 34.6719 27.3199 34.6719 31.1927C34.6719 31.6018 34.6931 32.0063 34.7262 32.4084C35.0316 28.7591 36.7021 25.3574 39.4065 22.8779C42.1109 20.3983 45.6517 19.0219 49.3267 19.0216Z" fill="white"/>
<path d="M49.3269 43.5518C50.7382 43.5548 52.1339 43.2582 53.4212 42.6817C54.7084 42.1052 55.8576 41.262 56.7923 40.2084C57.7269 39.1547 58.4255 37.9147 58.8416 36.571C59.2577 35.2273 59.3817 33.8106 59.2054 32.4154C58.9069 34.8164 57.7379 37.0259 55.9186 38.628C54.0992 40.2301 51.7549 41.1144 49.3269 41.1144C46.8989 41.1144 44.5546 40.2301 42.7353 38.628C40.9159 37.0259 39.747 34.8164 39.4485 32.4154C39.2721 33.8106 39.3961 35.2273 39.8122 36.571C40.2283 37.9147 40.927 39.1547 41.8616 40.2084C42.7962 41.262 43.9454 42.1052 45.2327 42.6817C46.5199 43.2582 47.9156 43.5548 49.3269 43.5518Z" fill="white"/>
<path d="M49.327 46.3736C46.3111 46.3741 43.3629 45.4834 40.8552 43.8142C38.3474 42.145 36.3928 39.7722 35.2385 36.996C34.0842 34.2198 33.782 31.1649 34.3703 28.2176C34.9585 25.2703 36.4107 22.563 38.5432 20.4381C40.6757 18.3132 43.3927 16.8662 46.3506 16.2801C49.3085 15.694 52.3744 15.995 55.1605 17.1452C57.9467 18.2954 60.328 20.243 62.0032 22.7418C63.6784 25.2406 64.5723 28.1783 64.5718 31.1833C64.5674 35.2107 62.9599 39.0719 60.1019 41.9197C57.2438 44.7675 53.3688 46.3693 49.327 46.3736ZM49.327 17.1664C46.5446 17.1659 43.8246 17.9876 41.511 19.5275C39.1973 21.0674 37.3939 23.2564 36.3288 25.8176C35.2637 28.3788 34.9848 31.1973 35.5274 33.9164C36.0699 36.6356 37.4095 39.1334 39.3767 41.094C41.344 43.0545 43.8505 44.3897 46.5793 44.9308C49.3082 45.4718 52.1368 45.1943 54.7074 44.1335C57.278 43.0727 59.4751 41.2761 61.0209 38.971C62.5668 36.6658 63.3919 33.9557 63.3919 31.1833C63.3856 27.469 61.9015 23.9086 59.265 21.2829C56.6285 18.6571 53.0546 17.1801 49.327 17.1758V17.1664ZM49.327 41.6896C47.241 41.6896 45.2019 41.0732 43.4675 39.9184C41.7331 38.7636 40.3814 37.1222 39.5832 35.2019C38.7851 33.2815 38.5763 31.1685 38.9835 29.13C39.3906 27.0914 40.3953 25.219 41.8704 23.7494C43.3456 22.2799 45.225 21.2792 47.2709 20.874C49.3169 20.4688 51.4374 20.6772 53.3645 21.473C55.2915 22.2687 56.9385 23.616 58.097 25.3444C59.2556 27.0728 59.8737 29.1048 59.8733 31.1833C59.8726 33.9708 58.7615 36.6441 56.7841 38.6158C54.8066 40.5875 52.1245 41.6965 49.327 41.699V41.6896ZM49.327 21.8504C47.4745 21.8504 45.6636 22.3978 44.1233 23.4233C42.583 24.4488 41.3825 25.9064 40.6736 27.6118C39.9646 29.3171 39.7792 31.1937 40.1406 33.0041C40.502 34.8145 41.394 36.4774 42.7039 37.7826C44.0138 39.0879 45.6828 39.9767 47.4997 40.3369C49.3166 40.697 51.1998 40.5121 52.9113 39.8058C54.6228 39.0994 56.0856 37.9032 57.1148 36.3684C58.144 34.8336 58.6933 33.0292 58.6933 31.1833C58.6883 28.7105 57.6996 26.3405 55.9439 24.5928C54.1882 22.8451 51.8087 21.8623 49.327 21.8598V21.8504Z" fill="#242424" fill-opacity="0.7"/>
<path d="M48.0738 39.9871C48.0738 38.9233 47.8635 37.8699 47.4549 36.8871C47.0464 35.9043 46.4476 35.0112 45.6926 34.259C44.9377 33.5068 44.0415 32.9101 43.0551 32.503C42.0688 32.0959 41.0116 31.8864 39.944 31.8864L39.8 30.1087C42.3039 28.592 45.6337 27.6655 49.2891 27.6655C52.98 27.6655 56.3405 28.6061 58.8514 30.1557L58.7074 31.8864C56.5513 31.8864 54.4834 32.7398 52.9588 34.259C51.4342 35.7782 50.5776 37.8386 50.5776 39.9871H48.0738Z" fill="#FFB840"/>
<path d="M51.1675 40.5749H47.479V39.9871C47.4759 37.9934 46.6789 36.0825 45.263 34.6739C43.8471 33.2653 41.9281 32.4742 39.9274 32.4742H39.3846L39.1675 29.7936L39.4766 29.6054C42.1669 27.9759 45.6454 27.0776 49.2725 27.0776C52.9374 27.0776 56.4442 27.9923 59.1462 29.6642L59.453 29.8523L59.2359 32.4836H58.6908C56.688 32.4836 54.7672 33.2764 53.351 34.6875C51.9348 36.0987 51.1392 38.0126 51.1392 40.0082L51.1675 40.5749ZM48.6448 39.3992H50.0088C50.1565 37.2974 51.0647 35.3205 52.5646 33.8354C54.0645 32.3504 56.0543 31.4581 58.1645 31.3243L58.233 30.4802C55.7598 29.0481 52.5999 28.2628 49.289 28.2628C46.0135 28.2628 42.8819 29.0317 40.4182 30.4378L40.4914 31.3243C42.6012 31.4587 44.5904 32.3512 46.0898 33.8362C47.5893 35.3212 48.4971 37.2978 48.6448 39.3992Z" fill="#242424" fill-opacity="0.7"/>
<path d="M49.3269 33.53C50.4047 33.53 51.2785 32.6594 51.2785 31.5854C51.2785 30.5114 50.4047 29.6407 49.3269 29.6407C48.249 29.6407 47.3752 30.5114 47.3752 31.5854C47.3752 32.6594 48.249 33.53 49.3269 33.53Z" fill="white"/>
<path d="M66.2261 53.997C65.6691 54.5566 65.1807 53.3832 64.3901 53.3832C63.5995 53.3832 63.5972 54.1028 62.8066 54.1028C62.016 54.1028 62.0161 53.3832 61.2231 53.3832C60.4302 53.3832 60.4326 54.1028 59.642 54.1028C58.8514 54.1028 58.8491 53.3832 58.0585 53.3832C57.268 53.3832 57.268 54.1028 56.4774 54.1028C55.6868 54.1028 55.6845 53.3832 54.8939 53.3832C54.1034 53.3832 54.1034 54.1028 53.3128 54.1028C52.5222 54.1028 52.5199 53.3832 51.7293 53.3832C50.9388 53.3832 50.9364 54.1028 50.1458 54.1028C49.3553 54.1028 49.3529 53.3832 48.5624 53.3832C47.7718 53.3832 47.2833 54.559 46.7217 53.997C46.16 53.435 47.3399 52.9553 47.3399 52.1675C47.3399 51.3798 46.6155 51.3775 46.6155 50.5897C46.6155 49.802 47.3399 49.802 47.3399 49.0119C47.3399 48.2218 46.6155 48.2242 46.6155 47.4364C46.6155 46.6487 47.3399 46.6464 47.3399 45.8586C47.3399 45.0709 46.6155 45.0709 46.6155 44.2832C46.6155 43.4954 47.3399 43.4954 47.3399 42.7053C47.3399 41.9153 46.6155 41.9176 46.6155 41.1299C46.6155 40.3421 47.3399 40.3398 47.3399 39.5521C47.3399 38.7643 46.6155 38.762 46.6155 37.9742C46.6155 37.1865 47.3399 37.1842 47.3399 36.3964C47.3399 35.6087 46.16 35.1219 46.7217 34.5623C47.2833 34.0027 47.7694 35.1784 48.56 35.1784C49.3506 35.1784 49.3506 34.4565 50.1435 34.4565C50.9364 34.4565 50.934 35.1784 51.7246 35.1784C52.5152 35.1784 52.5175 34.4565 53.3081 34.4565C54.0986 34.4565 54.0986 35.1784 54.8916 35.1784C55.6845 35.1784 55.6821 34.4565 56.4727 34.4565C57.2632 34.4565 57.2632 35.1784 58.0538 35.1784C58.8444 35.1784 58.8467 34.4565 59.6373 34.4565C60.4278 34.4565 60.4302 35.1784 61.2208 35.1784C62.0113 35.1784 62.0113 34.4565 62.8043 34.4565C63.5972 34.4565 63.5948 35.1784 64.3877 35.1784C65.1807 35.1784 65.6668 34.0027 66.2261 34.5623C66.7854 35.1219 65.6101 35.6063 65.6101 36.3941C65.6101 37.1818 66.3323 37.1842 66.3323 37.9719C66.3323 38.7596 65.6101 38.7596 65.6101 39.5474C65.6101 40.3351 66.3323 40.3374 66.3323 41.1252C66.3323 41.9129 65.6101 41.9129 65.6101 42.703C65.6101 43.4931 66.3323 43.4907 66.3323 44.2785C66.3323 45.0662 65.6101 45.0662 65.6101 45.8539C65.6101 46.6417 66.3323 46.644 66.3323 47.4317C66.3323 48.2195 65.6101 48.2218 65.6101 49.0096C65.6101 49.7973 66.3323 49.7973 66.3323 50.5874C66.3323 51.3775 65.4072 51.5044 65.6243 52.264C65.8863 53.2139 66.7877 53.4397 66.2261 53.997Z" fill="#FFB840"/>
<path d="M47.0778 45.1838C47.2504 45.0016 47.3444 44.7594 47.3398 44.5089C47.3398 44.0386 47.0849 43.8505 46.8678 43.606C46.6957 43.7893 46.6018 44.0321 46.6058 44.2832C46.6153 44.7511 46.8701 44.9416 47.0778 45.1838Z" fill="white"/>
<path d="M47.0778 48.3371C47.2504 48.155 47.3444 47.9127 47.3398 47.6622C47.3398 47.1919 47.0849 47.0038 46.8678 46.7593C46.6957 46.9427 46.6018 47.1855 46.6058 47.4365C46.6153 47.9044 46.8701 48.0949 47.0778 48.3371Z" fill="white"/>
<path d="M47.0779 51.4903C47.2504 51.3081 47.3445 51.0658 47.3398 50.8154C47.3398 50.3451 47.0849 50.157 46.8678 49.9148C46.6952 50.0969 46.6012 50.3392 46.6059 50.5897C46.6153 51.0576 46.8702 51.2481 47.0779 51.4903Z" fill="white"/>
<path d="M46.8891 53.0823C46.6319 53.4068 46.4171 53.6913 46.7216 53.997C46.7968 54.0826 46.9022 54.1361 47.0159 54.1466C47.1296 54.1571 47.243 54.1238 47.3328 54.0534C47.3328 54.0252 47.3328 53.997 47.3328 53.9688C47.3398 53.5102 47.0944 53.3174 46.8891 53.0823Z" fill="white"/>
<path d="M47.0779 38.8749C47.2508 38.692 47.3449 38.4489 47.3399 38.1977C47.3399 37.8426 47.1039 37.551 46.8915 37.283C46.8019 37.3743 46.7314 37.4824 46.684 37.6011C46.6366 37.7197 46.6133 37.8466 46.6154 37.9743C46.6154 38.4422 46.8702 38.6327 47.0779 38.8749Z" fill="white"/>
<path d="M47.0778 42.0305C47.2504 41.8473 47.3443 41.6044 47.3398 41.3532C47.3398 40.8829 47.0849 40.6948 46.8678 40.4526C46.6953 40.6358 46.6013 40.8787 46.6059 41.1299C46.6153 41.5978 46.8702 41.7883 47.0778 42.0305Z" fill="white"/>
<path d="M66.0701 49.9008C65.8648 50.1359 65.61 50.3334 65.61 50.8037C65.6034 51.0488 65.6932 51.2867 65.8601 51.4668C66.0725 51.2317 66.3321 50.9965 66.3321 50.578C66.3379 50.3266 66.2437 50.0832 66.0701 49.9008Z" fill="white"/>
<path d="M66.0583 37.2805C65.8483 37.5486 65.6099 37.8425 65.6099 38.1976C65.6067 38.3217 65.6282 38.4453 65.6732 38.5611C65.7181 38.6769 65.7857 38.7828 65.8719 38.8724C66.0772 38.6373 66.3321 38.4398 66.3321 37.9718C66.3345 37.8443 66.3115 37.7176 66.2645 37.5989C66.2176 37.4803 66.1475 37.372 66.0583 37.2805Z" fill="white"/>
<path d="M66.0609 53.0564C65.8084 53.355 65.4921 53.5831 65.6219 54.0558C65.7108 54.1254 65.8233 54.1581 65.9358 54.1472C66.0484 54.1362 66.1524 54.0824 66.2261 53.997C66.5942 53.6396 66.3582 53.4279 66.0609 53.0564Z" fill="white"/>
<path d="M66.0703 40.4503C65.8649 40.6855 65.6101 40.883 65.6101 41.3509C65.6048 41.601 65.6979 41.8433 65.8697 42.0258C66.0773 41.7906 66.3416 41.5931 66.3416 41.1252C66.3436 41.0004 66.3206 40.8764 66.274 40.7606C66.2274 40.6447 66.1582 40.5392 66.0703 40.4503Z" fill="white"/>
<path d="M48.5598 36.9819C49.3503 36.9819 49.3503 36.26 50.1433 36.26C50.9362 36.26 50.9338 36.9819 51.7244 36.9819C52.5149 36.9819 52.5173 36.26 53.3079 36.26C54.0984 36.26 54.0984 36.9819 54.8913 36.9819C55.6843 36.9819 55.6819 36.26 56.4725 36.26C57.263 36.26 57.263 36.9819 58.0536 36.9819C58.8441 36.9819 58.8465 36.26 59.6371 36.26C60.4276 36.26 60.43 36.9819 61.2205 36.9819C62.0111 36.9819 62.0111 36.26 62.804 36.26C63.5969 36.26 63.5946 36.9819 64.3875 36.9819C64.8878 36.9819 65.2654 36.5116 65.617 36.3094C65.6972 35.5711 66.7663 35.1008 66.2259 34.5623C65.6854 34.0238 65.1781 35.1784 64.3875 35.1784C63.5969 35.1784 63.5946 34.4565 62.804 34.4565C62.0135 34.4565 62.0111 35.1784 61.2205 35.1784C60.43 35.1784 60.43 34.4565 59.6371 34.4565C58.8441 34.4565 58.8465 35.1784 58.0536 35.1784C57.2607 35.1784 57.263 34.4565 56.4725 34.4565C55.6819 34.4565 55.6819 35.1784 54.8913 35.1784C54.1008 35.1784 54.0984 34.4565 53.3079 34.4565C52.5173 34.4565 52.5173 35.1784 51.7244 35.1784C50.9315 35.1784 50.9338 34.4565 50.1433 34.4565C49.3527 34.4565 49.3503 35.1784 48.5598 35.1784C47.7692 35.1784 47.2807 34.0027 46.7214 34.5623C46.1621 35.1219 47.2524 35.5711 47.3326 36.3118C47.6843 36.5163 48.0618 36.9819 48.5598 36.9819Z" fill="white"/>
<path d="M66.0725 46.7568C65.8648 46.992 65.6005 47.1895 65.6005 47.6574C65.5958 47.9079 65.6899 48.1502 65.8625 48.3323C66.0678 48.0972 66.3226 47.8996 66.3226 47.4317C66.3305 47.1829 66.2408 46.9408 66.0725 46.7568Z" fill="white"/>
<path d="M66.0725 43.6036C65.8649 43.8388 65.6006 44.0363 65.6006 44.5042C65.5952 44.7544 65.6884 44.9966 65.8601 45.1791C66.0678 44.944 66.3321 44.7464 66.3321 44.2785C66.3374 44.0284 66.2443 43.7861 66.0725 43.6036Z" fill="white"/>
<path d="M47.0072 54.7377C46.8732 54.7343 46.7414 54.7038 46.6196 54.6481C46.4979 54.5923 46.3889 54.5124 46.2992 54.4132C45.6148 53.7336 46.1883 53.0023 46.4337 52.7013C46.5811 52.5529 46.6876 52.369 46.7428 52.1676C46.7428 52.0077 46.7004 51.9536 46.5352 51.7749C46.372 51.6233 46.2418 51.4398 46.1528 51.2359C46.0638 51.032 46.0179 50.8121 46.0179 50.5897C46.0179 50.3674 46.0638 50.1475 46.1528 49.9436C46.2418 49.7397 46.372 49.5562 46.5352 49.4046C46.7004 49.2259 46.7428 49.1695 46.7428 49.0119C46.7428 48.8544 46.7004 48.8003 46.5352 48.6216C46.372 48.47 46.2418 48.2865 46.1528 48.0826C46.0638 47.8788 46.0179 47.6588 46.0179 47.4365C46.0179 47.2141 46.0638 46.9942 46.1528 46.7903C46.2418 46.5864 46.372 46.4029 46.5352 46.2513C46.7004 46.0726 46.7428 46.0162 46.7428 45.8586C46.7428 45.7011 46.7004 45.647 46.5352 45.4683C46.372 45.3167 46.2418 45.1333 46.1528 44.9294C46.0638 44.7255 46.0179 44.5055 46.0179 44.2832C46.0179 44.0608 46.0638 43.8409 46.1528 43.637C46.2418 43.4331 46.372 43.2497 46.5352 43.0981C46.7004 42.9193 46.7428 42.8629 46.7428 42.7054C46.7428 42.5478 46.7004 42.4937 46.5352 42.315C46.3722 42.163 46.2423 41.9793 46.1535 41.7753C46.0646 41.5712 46.0188 41.3511 46.0188 41.1287C46.0188 40.9063 46.0646 40.6862 46.1535 40.4822C46.2423 40.2781 46.3722 40.0944 46.5352 39.9424C46.7004 39.7637 46.7428 39.7073 46.7428 39.5521C46.7428 39.3969 46.7004 39.3381 46.5352 39.1594C46.372 39.0078 46.2418 38.8243 46.1528 38.6204C46.0638 38.4166 46.0179 38.1966 46.0179 37.9743C46.0179 37.7519 46.0638 37.532 46.1528 37.3281C46.2418 37.1242 46.372 36.9407 46.5352 36.7891C46.7004 36.6104 46.7428 36.554 46.7428 36.3964C46.6876 36.1938 46.5802 36.009 46.4313 35.8603C46.1954 35.5523 45.6148 34.8304 46.2968 34.1485C46.9788 33.4665 47.7128 34.0379 48.0172 34.2825C48.1662 34.4294 48.3507 34.5355 48.5529 34.5905C48.7133 34.5905 48.7676 34.5482 48.947 34.3836C49.0991 34.221 49.2832 34.0913 49.4878 34.0026C49.6925 33.9139 49.9132 33.8682 50.1364 33.8682C50.3595 33.8682 50.5802 33.9139 50.7849 34.0026C50.9895 34.0913 51.1736 34.221 51.3257 34.3836C51.5051 34.5482 51.5617 34.5905 51.7175 34.5905C51.8732 34.5905 51.9322 34.5482 52.1116 34.3836C52.2637 34.221 52.4478 34.0913 52.6525 34.0026C52.8571 33.9139 53.0778 33.8682 53.301 33.8682C53.5241 33.8682 53.7448 33.9139 53.9495 34.0026C54.1541 34.0913 54.3382 34.221 54.4903 34.3836C54.6697 34.5482 54.7263 34.5905 54.8844 34.5905C55.0426 34.5905 55.0968 34.5482 55.2762 34.3836C55.4283 34.221 55.6124 34.0913 55.8171 34.0026C56.0217 33.9139 56.2424 33.8682 56.4656 33.8682C56.6887 33.8682 56.9094 33.9139 57.1141 34.0026C57.3187 34.0913 57.5028 34.221 57.6549 34.3836C57.8343 34.5482 57.8909 34.5905 58.0467 34.5905C58.2024 34.5905 58.2614 34.5482 58.4408 34.3836C58.5929 34.221 58.777 34.0913 58.9817 34.0026C59.1863 33.9139 59.407 33.8682 59.6302 33.8682C59.8533 33.8682 60.074 33.9139 60.2787 34.0026C60.4833 34.0913 60.6674 34.221 60.8195 34.3836C60.9989 34.5482 61.0555 34.5905 61.2136 34.5905C61.3718 34.5905 61.4284 34.5482 61.6077 34.3836C61.7598 34.2189 61.9445 34.0875 62.1502 33.9974C62.3558 33.9074 62.5779 33.8609 62.8025 33.8606C63.0271 33.8604 63.2493 33.9066 63.4551 33.9962C63.6609 34.0858 63.8459 34.2169 63.9983 34.3813C64.1777 34.5459 64.2343 34.5882 64.3924 34.5882C64.5958 34.5332 64.7813 34.4262 64.9305 34.2778C65.2396 34.0426 65.9641 33.4642 66.6484 34.1438C67.3328 34.8233 66.7594 35.5546 66.5139 35.858C66.3665 36.0064 66.26 36.1903 66.2048 36.3917C66.2048 36.5516 66.2473 36.6057 66.4125 36.7844C66.5748 36.9366 66.7041 37.1202 66.7925 37.324C66.8809 37.5278 66.9265 37.7475 66.9265 37.9696C66.9265 38.1916 66.8809 38.4113 66.7925 38.6151C66.7041 38.8189 66.5748 39.0025 66.4125 39.1547C66.2473 39.3334 66.2048 39.3898 66.2048 39.545C66.2048 39.7002 66.2473 39.759 66.4125 39.9377C66.5748 40.0899 66.7041 40.2735 66.7925 40.4773C66.8809 40.6811 66.9265 40.9008 66.9265 41.1228C66.9265 41.3449 66.8809 41.5646 66.7925 41.7684C66.7041 41.9722 66.5748 42.1558 66.4125 42.308C66.2473 42.4867 66.2048 42.5431 66.2048 42.7007C66.2048 42.8582 66.2473 42.9123 66.4125 43.091C66.5748 43.2431 66.7041 43.4268 66.7925 43.6306C66.8809 43.8344 66.9265 44.0541 66.9265 44.2761C66.9265 44.4982 66.8809 44.7178 66.7925 44.9217C66.7041 45.1255 66.5748 45.3091 66.4125 45.4613C66.2473 45.64 66.2048 45.6964 66.2048 45.8516C66.2048 46.0068 66.2473 46.0656 66.4125 46.2443C66.5748 46.3964 66.7041 46.5801 66.7925 46.7839C66.8809 46.9877 66.9265 47.2074 66.9265 47.4294C66.9265 47.6514 66.8809 47.8711 66.7925 48.0749C66.7041 48.2788 66.5748 48.4624 66.4125 48.6145C66.2473 48.7932 66.2048 48.8497 66.2048 49.0072C66.2048 49.1648 66.2473 49.2212 66.4125 49.3999C66.5736 49.551 66.7022 49.7331 66.7907 49.9352C66.8791 50.1373 66.9254 50.3552 66.9269 50.5756C66.9193 50.8027 66.8666 51.0261 66.7718 51.2327C66.677 51.4394 66.542 51.6252 66.3747 51.7796C66.1694 52.0147 66.1741 52.0147 66.1954 52.09C66.279 52.3398 66.4149 52.569 66.5942 52.7625C66.8302 53.0658 67.3517 53.7031 66.6484 54.4085C65.9664 55.0904 65.2325 54.519 64.9305 54.2745C64.7815 54.1276 64.597 54.0214 64.3948 53.9664C64.2343 53.9664 64.18 54.0087 64.0007 54.1733C63.848 54.3351 63.6637 54.4639 63.4591 54.552C63.2546 54.6401 63.0341 54.6855 62.8113 54.6855C62.5884 54.6855 62.368 54.6401 62.1634 54.552C61.9589 54.4639 61.7746 54.3351 61.6219 54.1733C61.4425 54.0087 61.3859 53.9664 61.2278 53.9664C61.0697 53.9664 61.0154 54.0087 60.8361 54.1733C60.6834 54.3351 60.4991 54.4639 60.2945 54.552C60.09 54.6401 59.8695 54.6855 59.6467 54.6855C59.4238 54.6855 59.2034 54.6401 58.9988 54.552C58.7943 54.4639 58.61 54.3351 58.4573 54.1733C58.2779 54.0087 58.2213 53.9664 58.0632 53.9664C57.9051 53.9664 57.8508 54.0087 57.6715 54.1733C57.5188 54.3351 57.3345 54.4639 57.1299 54.552C56.9254 54.6401 56.7049 54.6855 56.4821 54.6855C56.2592 54.6855 56.0388 54.6401 55.8342 54.552C55.6297 54.4639 55.4454 54.3351 55.2927 54.1733C55.1133 54.0087 55.0567 53.9664 54.8986 53.9664C54.7405 53.9664 54.6862 54.0087 54.5069 54.1733C54.354 54.3351 54.1695 54.464 53.9647 54.5521C53.76 54.6403 53.5393 54.6857 53.3163 54.6857C53.0933 54.6857 52.8726 54.6403 52.6679 54.5521C52.4631 54.464 52.2786 54.3351 52.1257 54.1733C51.9464 54.0087 51.8897 53.9664 51.734 53.9664C51.5782 53.9664 51.5192 54.0087 51.3399 54.1733C51.1872 54.3351 51.0029 54.4639 50.7984 54.552C50.5938 54.6401 50.3733 54.6855 50.1505 54.6855C49.9277 54.6855 49.7072 54.6401 49.5027 54.552C49.2981 54.4639 49.1138 54.3351 48.9611 54.1733C48.7818 54.0087 48.7251 53.9664 48.567 53.9664C48.3641 54.0214 48.1788 54.1275 48.029 54.2745C47.7487 54.5366 47.3896 54.6994 47.0072 54.7377ZM65.8131 53.609L66.2166 53.997L65.8154 53.5972C65.8164 53.6018 65.8189 53.606 65.8225 53.609H65.8131ZM61.2136 52.7954C61.4351 52.7966 61.6541 52.8429 61.857 52.9315C62.0599 53.02 62.2425 53.149 62.3936 53.3104C62.5729 53.4726 62.6296 53.5149 62.7877 53.5149C62.9458 53.5149 63.0001 53.4726 63.1818 53.3104C63.3329 53.149 63.5155 53.02 63.7184 52.9315C63.9213 52.8429 64.1402 52.7966 64.3617 52.7954C64.7441 52.8022 65.1138 52.9335 65.4142 53.1693C65.2566 52.9415 65.137 52.6898 65.0602 52.4239C64.8549 51.7184 65.2585 51.267 65.5015 51.013C65.6833 50.8131 65.7375 50.7308 65.7375 50.5992C65.7375 50.4675 65.6951 50.3852 65.5322 50.2065C65.3696 50.0545 65.24 49.8709 65.1514 49.6671C65.0628 49.4632 65.0171 49.2435 65.0171 49.0213C65.0171 48.7992 65.0628 48.5794 65.1514 48.3756C65.24 48.1717 65.3696 47.9882 65.5322 47.8362C65.6974 47.6575 65.7399 47.6011 65.7399 47.4435C65.7399 47.286 65.6974 47.2319 65.5346 47.0532C65.3714 46.9016 65.2412 46.7181 65.1522 46.5142C65.0632 46.3103 65.0173 46.0904 65.0173 45.8681C65.0173 45.6457 65.0632 45.4258 65.1522 45.2219C65.2412 45.018 65.3714 44.8345 65.5346 44.6829C65.6974 44.5019 65.7399 44.4478 65.7399 44.2902C65.7399 44.1327 65.6974 44.0786 65.5346 43.8975C65.3714 43.7462 65.2413 43.5629 65.1523 43.3592C65.0634 43.1555 65.0174 42.9357 65.0174 42.7136C65.0174 42.4914 65.0634 42.2717 65.1523 42.068C65.2413 41.8643 65.3714 41.681 65.5346 41.5296C65.6974 41.3486 65.7399 41.2945 65.7399 41.1369C65.7399 40.9794 65.6974 40.9253 65.5346 40.7443C65.3714 40.5927 65.2412 40.4092 65.1522 40.2053C65.0632 40.0014 65.0173 39.7815 65.0173 39.5591C65.0173 39.3368 65.0632 39.1168 65.1522 38.9129C65.2412 38.7091 65.3714 38.5256 65.5346 38.374C65.6974 38.1953 65.7399 38.1389 65.7399 37.9837C65.7399 37.8285 65.6974 37.7697 65.5346 37.591C65.3726 37.4404 65.2432 37.2585 65.1543 37.0563C65.0655 36.8541 65.019 36.636 65.0178 36.4153C65.0284 36.0648 65.148 35.7263 65.36 35.4465C65.078 35.6573 64.7377 35.7764 64.3853 35.7874C64.1639 35.7856 63.9451 35.7391 63.7423 35.6506C63.5395 35.562 63.3568 35.4334 63.2054 35.2725C63.0237 35.1102 62.9694 35.0655 62.8113 35.0655C62.6532 35.0655 62.5965 35.1102 62.4172 35.2725C62.265 35.4351 62.0809 35.5648 61.8763 35.6535C61.6717 35.7421 61.4509 35.7879 61.2278 35.7879C61.0047 35.7879 60.7839 35.7421 60.5793 35.6535C60.3747 35.5648 60.1906 35.4351 60.0384 35.2725C59.8591 35.1102 59.8024 35.0655 59.6443 35.0655C59.4862 35.0655 59.4319 35.1102 59.2502 35.2725C59.0983 35.435 58.9144 35.5647 58.7099 35.6533C58.5055 35.742 58.285 35.7877 58.062 35.7877C57.8391 35.7877 57.6185 35.742 57.4141 35.6533C57.2097 35.5647 57.0258 35.435 56.8738 35.2725C56.6921 35.1102 56.6378 35.0655 56.4797 35.0655C56.3216 35.0655 56.2673 35.1102 56.0856 35.2725C55.9337 35.435 55.7498 35.5647 55.5453 35.6533C55.3409 35.742 55.1204 35.7877 54.8974 35.7877C54.6745 35.7877 54.4539 35.742 54.2495 35.6533C54.0451 35.5647 53.8611 35.435 53.7092 35.2725C53.5275 35.1102 53.4732 35.0655 53.3151 35.0655C53.157 35.0655 53.1027 35.1102 52.921 35.2725C52.7689 35.4351 52.5848 35.5648 52.3801 35.6535C52.1755 35.7421 51.9548 35.7879 51.7316 35.7879C51.5085 35.7879 51.2877 35.7421 51.0831 35.6535C50.8785 35.5648 50.6944 35.4351 50.5423 35.2725C50.3629 35.1102 50.3063 35.0655 50.1505 35.0655C49.9948 35.0655 49.9358 35.1102 49.7564 35.2725C49.605 35.4334 49.4223 35.562 49.2195 35.6506C49.0166 35.7391 48.7979 35.7856 48.5765 35.7874C48.2248 35.7768 47.885 35.6577 47.6042 35.4465C47.8158 35.7274 47.9353 36.0665 47.9464 36.4176C47.9446 36.6382 47.8979 36.8562 47.809 37.0583C47.7202 37.2604 47.5911 37.4424 47.4296 37.5933C47.2667 37.772 47.2219 37.8285 47.2219 37.986C47.2219 38.1436 47.2667 38.2 47.4296 38.3787C47.5928 38.5303 47.723 38.7138 47.812 38.9176C47.9009 39.1215 47.9469 39.3415 47.9469 39.5638C47.9469 39.7862 47.9009 40.0061 47.812 40.21C47.723 40.4139 47.5928 40.5974 47.4296 40.749C47.2667 40.9277 47.2219 40.9841 47.2219 41.1417C47.2219 41.2992 47.2667 41.3533 47.4296 41.532C47.5928 41.6836 47.723 41.867 47.812 42.0709C47.9009 42.2748 47.9469 42.4948 47.9469 42.7171C47.9469 42.9395 47.9009 43.1594 47.812 43.3633C47.723 43.5672 47.5928 43.7506 47.4296 43.9022C47.2667 44.081 47.2219 44.1374 47.2219 44.2949C47.2219 44.4525 47.2667 44.5066 47.4296 44.6853C47.5928 44.8369 47.723 45.0203 47.812 45.2242C47.9009 45.4281 47.9469 45.6481 47.9469 45.8704C47.9469 46.0927 47.9009 46.3127 47.812 46.5166C47.723 46.7205 47.5928 46.9039 47.4296 47.0555C47.2667 47.2342 47.2219 47.2907 47.2219 47.4482C47.2219 47.6058 47.2667 47.6599 47.4296 47.8386C47.5928 47.9902 47.723 48.1736 47.812 48.3775C47.9009 48.5814 47.9469 48.8014 47.9469 49.0237C47.9469 49.246 47.9009 49.466 47.812 49.6699C47.723 49.8738 47.5928 50.0572 47.4296 50.2088C47.2667 50.3875 47.2219 50.444 47.2219 50.6015C47.2219 50.7591 47.2667 50.8131 47.4296 50.9942C47.5911 51.1451 47.7202 51.3271 47.809 51.5292C47.8979 51.7313 47.9446 51.9493 47.9464 52.1699C47.935 52.5202 47.8155 52.8585 47.6042 53.1387C47.8861 52.9279 48.2265 52.8088 48.5788 52.7978C48.8003 52.799 49.0193 52.8453 49.2222 52.9338C49.4251 53.0224 49.6077 53.1513 49.7588 53.3127C49.9381 53.475 49.9948 53.5173 50.1529 53.5173C50.311 53.5173 50.3676 53.475 50.547 53.3127C50.6991 53.1501 50.8832 53.0204 51.0878 52.9317C51.2925 52.843 51.5132 52.7973 51.7364 52.7973C51.9595 52.7973 52.1802 52.843 52.3849 52.9317C52.5895 53.0204 52.7736 53.1501 52.9257 53.3127C53.1051 53.475 53.1617 53.5173 53.3198 53.5173C53.4779 53.5173 53.5322 53.475 53.7116 53.3127C53.8637 53.1501 54.0478 53.0204 54.2525 52.9317C54.4571 52.843 54.6778 52.7973 54.901 52.7973C55.1241 52.7973 55.3448 52.843 55.5495 52.9317C55.7541 53.0204 55.9382 53.1501 56.0903 53.3127C56.2697 53.475 56.3263 53.5173 56.4844 53.5173C56.6425 53.5173 56.6968 53.475 56.8762 53.3127C57.0283 53.1501 57.2124 53.0204 57.4171 52.9317C57.6217 52.843 57.8424 52.7973 58.0656 52.7973C58.2887 52.7973 58.5094 52.843 58.7141 52.9317C58.9187 53.0204 59.1028 53.1501 59.2549 53.3127C59.4343 53.475 59.4909 53.5173 59.649 53.5173C59.8072 53.5173 59.8614 53.475 60.0408 53.3127C60.1923 53.151 60.3753 53.0218 60.5785 52.9329C60.7818 52.8439 61.0011 52.7972 61.2231 52.7954H61.2136Z" fill="#242424" fill-opacity="0.7"/>
<path d="M45.4094 48.8308L45.6005 45.3225C45.6109 45.1251 45.6995 44.9399 45.8469 44.8076C45.9942 44.6753 46.1883 44.6068 46.3864 44.617H46.4076C46.6171 44.6279 46.8224 44.6798 47.0117 44.7699C47.201 44.86 47.3706 44.9864 47.5107 45.142C47.6508 45.2976 47.7587 45.4792 47.8282 45.6764C47.8977 45.8736 47.9274 46.0826 47.9156 46.2913L47.7716 48.9602L48.2224 49.0166L53.0908 44.1656C53.2004 44.0557 53.3308 43.9685 53.4744 43.9091C53.6179 43.8496 53.7719 43.819 53.9274 43.819C54.0829 43.819 54.2368 43.8496 54.3804 43.9091C54.524 43.9685 54.6543 44.0557 54.764 44.1656C54.8742 44.2748 54.9617 44.4047 55.0214 44.5478C55.0811 44.6908 55.1118 44.8442 55.1118 44.9991C55.1118 45.1541 55.0811 45.3075 55.0214 45.4505C54.9617 45.5936 54.8742 45.7235 54.764 45.8327L49.8955 50.6814L55.8188 44.7793C55.9285 44.6694 56.0588 44.5823 56.2024 44.5228C56.346 44.4633 56.4999 44.4327 56.6554 44.4327C56.8109 44.4327 56.9648 44.4633 57.1084 44.5228C57.252 44.5823 57.3823 44.6694 57.492 44.7793C57.6022 44.8885 57.6897 45.0184 57.7494 45.1615C57.8091 45.3045 57.8398 45.4579 57.8398 45.6129C57.8398 45.7678 57.8091 45.9212 57.7494 46.0643C57.6897 46.2073 57.6022 46.3372 57.492 46.4465L51.5687 52.3486L56.4465 47.4976C56.5562 47.3881 56.6864 47.3012 56.8297 47.2419C56.9731 47.1827 57.1267 47.1521 57.2819 47.1521C57.4371 47.1521 57.5908 47.1827 57.7342 47.2419C57.8775 47.3012 58.0077 47.3881 58.1173 47.4976C58.2276 47.6068 58.3151 47.7367 58.3748 47.8798C58.4345 48.0228 58.4652 48.1762 58.4652 48.3311C58.4652 48.4861 58.4345 48.6395 58.3748 48.7825C58.3151 48.9256 58.2276 49.0555 58.1173 49.1647L53.2395 54.0158L57.053 50.2182C57.1627 50.1083 57.293 50.0212 57.4366 49.9617C57.5802 49.9022 57.7341 49.8716 57.8896 49.8716C58.0451 49.8716 58.1991 49.9022 58.3426 49.9617C58.4862 50.0212 58.6165 50.1083 58.7262 50.2182C58.8364 50.3274 58.9239 50.4573 58.9836 50.6004C59.0433 50.7434 59.074 50.8968 59.074 51.0518C59.074 51.2067 59.0433 51.3601 58.9836 51.5031C58.9239 51.6462 58.8364 51.7761 58.7262 51.8853L54.9126 55.6829L50.089 60.4822L47.7598 60.929L45.5203 63.1629L40.7085 58.3659L42.948 56.1344L43.3988 53.8135L45.3551 48.9272L45.4094 48.8308Z" fill="#5084FC"/>
<path d="M45.5605 46.0561C45.8758 46.1765 46.1445 46.3935 46.3281 46.6757C46.5117 46.958 46.6008 47.291 46.5824 47.6269L46.4361 50.2887L46.8868 50.3451L48.2225 49.0166L47.7718 48.9601L47.9157 46.296C47.9275 46.0873 47.8978 45.8783 47.8283 45.6811C47.7588 45.4839 47.6509 45.3022 47.5108 45.1467C47.3707 44.9911 47.2011 44.8647 47.0118 44.7746C46.8225 44.6845 46.6172 44.6325 46.4077 44.6217H46.3865C46.1884 44.6115 45.9944 44.68 45.847 44.8123C45.6996 44.9446 45.611 45.1298 45.6007 45.3272L45.5605 46.0561Z" fill="white"/>
<path d="M58.7262 50.2182C58.6166 50.1084 58.4862 50.0212 58.3426 49.9617C58.1991 49.9022 58.0451 49.8716 57.8896 49.8716C57.7342 49.8716 57.5802 49.9022 57.4366 49.9617C57.2931 50.0212 57.1627 50.1084 57.0531 50.2182L58.1079 49.1648C58.3298 48.944 58.4546 48.6444 58.4548 48.332C58.455 48.0196 58.3307 47.7198 58.1091 47.4988C57.8875 47.2777 57.5869 47.1534 57.2734 47.1531C56.9598 47.1529 56.659 47.2768 56.4371 47.4976L57.492 46.4465C57.7139 46.2254 57.8385 45.9256 57.8385 45.6129C57.8385 45.3003 57.7139 45.0004 57.492 44.7793C57.2701 44.5582 56.9692 44.434 56.6554 44.434C56.3416 44.434 56.0407 44.5582 55.8188 44.7793L54.764 45.8328C54.8738 45.7233 54.961 45.5933 55.0204 45.4503C55.0799 45.3073 55.1105 45.154 55.1105 44.9992C55.1105 44.8444 55.0799 44.6911 55.0204 44.548C54.961 44.405 54.8738 44.2751 54.764 44.1656C54.6541 44.0561 54.5237 43.9693 54.3802 43.91C54.2366 43.8508 54.0828 43.8203 53.9274 43.8203C53.772 43.8203 53.6182 43.8508 53.4746 43.91C53.3311 43.9693 53.2007 44.0561 53.0908 44.1656L51.7551 45.4942C51.865 45.3847 51.9954 45.2979 52.139 45.2386C52.2825 45.1794 52.4363 45.1489 52.5917 45.1489C52.7471 45.1489 52.9009 45.1794 53.0445 45.2386C53.188 45.2979 53.3184 45.3847 53.4283 45.4942C53.5381 45.6036 53.6253 45.7336 53.6847 45.8766C53.7442 46.0196 53.7748 46.1729 53.7748 46.3277C53.7748 46.4826 53.7442 46.6359 53.6847 46.7789C53.6253 46.9219 53.5381 47.0519 53.4283 47.1613L54.4855 46.1102C54.5952 46.0008 54.7255 45.9139 54.8689 45.8546C55.0123 45.7953 55.166 45.7647 55.3213 45.7646C55.4765 45.7645 55.6303 45.7949 55.7738 45.854C55.9172 45.9131 56.0476 45.9997 56.1575 46.1091C56.2673 46.2184 56.3545 46.3482 56.414 46.4911C56.4736 46.6339 56.5042 46.7871 56.5044 46.9418C56.5045 47.0965 56.474 47.2497 56.4147 47.3927C56.3554 47.5357 56.2684 47.6656 56.1587 47.7751L55.1014 48.8285C55.3233 48.6074 55.6242 48.4832 55.938 48.4832C56.2518 48.4832 56.5527 48.6074 56.7746 48.8285C56.9965 49.0496 57.1211 49.3494 57.1211 49.6621C57.1211 49.9747 56.9965 50.2746 56.7746 50.4957L55.7174 51.5468C55.9392 51.3257 56.2402 51.2015 56.5539 51.2015C56.8677 51.2015 57.1687 51.3257 57.3905 51.5468C57.6124 51.7679 57.737 52.0677 57.737 52.3804C57.737 52.693 57.6124 52.9929 57.3905 53.2139L58.7239 51.8854C58.8343 51.7763 58.9219 51.6465 58.9818 51.5035C59.0417 51.3606 59.0727 51.2072 59.0729 51.0523C59.0731 50.8974 59.0426 50.7439 58.9831 50.6008C58.9236 50.4576 58.8363 50.3276 58.7262 50.2182Z" fill="white"/>
<path d="M45.5202 64.0094L39.873 58.366L42.4052 55.8452L42.8512 53.5949L44.8264 48.6569L45.0129 45.2872C45.0225 45.1119 45.0668 44.9401 45.1433 44.7818C45.2198 44.6235 45.3268 44.4819 45.4584 44.365C45.59 44.2481 45.7435 44.1582 45.91 44.1006C46.0765 44.043 46.2528 44.0187 46.4288 44.0292C46.7172 44.0434 47 44.1141 47.261 44.2372C47.522 44.3604 47.7561 44.5336 47.9499 44.747C48.1436 44.9603 48.2932 45.2097 48.3902 45.4807C48.4872 45.7518 48.5296 46.0392 48.5149 46.3266L48.4229 47.9914L52.6707 43.7588C53.0038 43.4281 53.4548 43.2424 53.925 43.2424C54.3952 43.2424 54.8462 43.4281 55.1792 43.7588C55.3239 43.9034 55.4421 44.0721 55.5285 44.2573C55.8682 43.9762 56.301 43.8316 56.7422 43.8518C57.1833 43.872 57.6009 44.0556 57.9133 44.3666C58.2257 44.6776 58.4104 45.0936 58.4311 45.5331C58.4518 45.9726 58.3071 46.404 58.0253 46.7428C58.2108 46.8292 58.3794 46.9478 58.5232 47.0932C58.8337 47.4032 59.0176 47.817 59.0394 48.2545C59.0612 48.6919 58.9193 49.1219 58.6412 49.4611C58.8261 49.5486 58.9945 49.6671 59.1391 49.8114C59.4714 50.1426 59.6581 50.5917 59.6581 51.06C59.6581 51.5283 59.4714 51.9775 59.1391 52.3087L50.3769 61.0419L48.0477 61.4887L45.5202 64.0094ZM41.5438 58.366L45.5202 62.3282L47.4719 60.3835L49.7987 59.9367L58.3084 51.4598C58.4186 51.3481 58.4803 51.1978 58.4803 51.0412C58.4803 50.8847 58.4186 50.7344 58.3084 50.6227C58.1956 50.5172 58.0467 50.4585 57.8919 50.4585C57.7372 50.4585 57.5883 50.5172 57.4754 50.6227L53.6571 54.4273L52.8241 53.5949L56.6353 49.7973V49.7856L57.6831 48.7439C57.7381 48.6891 57.7817 48.624 57.8115 48.5524C57.8413 48.4808 57.8566 48.404 57.8566 48.3265C57.8566 48.249 57.8413 48.1722 57.8115 48.1006C57.7817 48.029 57.7381 47.9639 57.6831 47.9091C57.5699 47.8016 57.4194 47.7416 57.263 47.7416C57.1066 47.7416 56.9562 47.8016 56.843 47.9091L51.9745 52.7601L51.1415 51.9277L57.0671 46.0256C57.1782 45.9146 57.2405 45.7642 57.2403 45.6074C57.2401 45.4506 57.1774 45.3004 57.066 45.1897C57.0108 45.1348 56.9453 45.0914 56.8733 45.0618C56.8013 45.0322 56.7242 45.017 56.6463 45.0171C56.4889 45.0173 56.3381 45.0798 56.227 45.1908L50.3108 51.0977L49.4754 50.2676L54.3438 45.4166C54.4549 45.3059 54.5173 45.1557 54.5173 44.9992C54.5173 44.8426 54.4549 44.6925 54.3438 44.5818C54.2327 44.4711 54.0821 44.4089 53.925 44.4089C53.7679 44.4089 53.6172 44.4711 53.5061 44.5818L48.4323 49.6351L47.1486 49.4752L47.3256 46.2654C47.3398 46.0007 47.2486 45.7411 47.0719 45.543C46.8951 45.3449 46.6471 45.2243 46.3816 45.2073C46.3595 45.204 46.3369 45.2053 46.3153 45.2111C46.2937 45.2169 46.2735 45.227 46.256 45.2409C46.2385 45.2548 46.2241 45.2722 46.2136 45.2919C46.2032 45.3116 46.1969 45.3332 46.1952 45.3554L45.9946 49.0025L45.8907 49.1859L43.9722 53.9876L43.5002 56.4307L41.5438 58.366Z" fill="#242424" fill-opacity="0.7"/>
<path d="M20.2013 59.1395C20.2019 58.7902 20.3408 58.4553 20.5878 58.2074C20.8348 57.9595 21.1699 57.8187 21.5205 57.8157C21.8048 57.8026 22.0732 57.6808 22.2698 57.4756C22.4664 57.2704 22.5761 56.9977 22.5761 56.714C22.5761 56.4303 22.4664 56.1576 22.2698 55.9524C22.0732 55.7472 21.8048 55.6254 21.5205 55.6123C21.1683 55.6117 20.8307 55.4721 20.5817 55.2239C20.3326 54.9758 20.1925 54.6394 20.1918 54.2885C20.1787 54.0051 20.0565 53.7377 19.8506 53.5418C19.6447 53.3459 19.3709 53.2366 19.0862 53.2366C18.8015 53.2366 18.5278 53.3459 18.3219 53.5418C18.116 53.7377 17.9938 54.0051 17.9806 54.2885C17.98 54.6394 17.8398 54.9758 17.5908 55.2239C17.3418 55.4721 17.0042 55.6117 16.652 55.6123C16.5025 55.6055 16.3532 55.6289 16.213 55.6811C16.0729 55.7334 15.9448 55.8134 15.8366 55.9164C15.7284 56.0194 15.6422 56.1431 15.5833 56.2802C15.5245 56.4173 15.4941 56.5649 15.4941 56.714C15.4941 56.8631 15.5245 57.0107 15.5833 57.1478C15.6422 57.2849 15.7284 57.4086 15.8366 57.5116C15.9448 57.6146 16.0729 57.6946 16.213 57.7469C16.3532 57.7991 16.5025 57.8225 16.652 57.8157C17.0042 57.8163 17.3418 57.956 17.5908 58.2041C17.8398 58.4522 17.98 58.7886 17.9806 59.1395C17.9737 59.2885 17.9972 59.4373 18.0496 59.5769C18.1021 59.7166 18.1824 59.8442 18.2858 59.952C18.3891 60.0599 18.5133 60.1457 18.6509 60.2044C18.7885 60.263 18.9366 60.2933 19.0862 60.2933C19.2359 60.2933 19.384 60.263 19.5216 60.2044C19.6591 60.1457 19.7834 60.0599 19.8867 59.952C19.9901 59.8442 20.0704 59.7166 20.1228 59.5769C20.1753 59.4373 20.1987 59.2885 20.1918 59.1395H20.2013Z" fill="#FFB840"/>
<path d="M19.0944 60.795C18.6572 60.7919 18.2389 60.6175 17.9297 60.3095C17.6206 60.0014 17.4456 59.5846 17.4425 59.149C17.4444 59.046 17.4255 58.9437 17.387 58.8482C17.3485 58.7526 17.2911 58.6658 17.2182 58.5927C17.1454 58.5197 17.0585 58.462 16.9629 58.423C16.8672 58.3841 16.7647 58.3647 16.6614 58.3659C16.2207 58.3659 15.7982 58.1915 15.4866 57.8811C15.175 57.5706 15 57.1496 15 56.7105C15 56.2715 15.175 55.8504 15.4866 55.54C15.7982 55.2295 16.2207 55.0551 16.6614 55.0551C16.7629 55.0551 16.8634 55.0351 16.9572 54.9964C17.051 54.9576 17.1362 54.9007 17.2079 54.8291C17.2795 54.7574 17.3363 54.6724 17.375 54.5788C17.4136 54.4852 17.4333 54.385 17.433 54.2838C17.433 53.8448 17.6081 53.4237 17.9196 53.1133C18.2312 52.8028 18.6538 52.6284 19.0944 52.6284C19.535 52.6284 19.9576 52.8028 20.2692 53.1133C20.5807 53.4237 20.7558 53.8448 20.7558 54.2838C20.7545 54.4876 20.8342 54.6835 20.9774 54.8289C21.1207 54.9743 21.3159 55.0573 21.5204 55.0598C21.9603 55.0598 22.3823 55.234 22.6934 55.544C23.0046 55.854 23.1793 56.2745 23.1793 56.7129C23.1793 57.1513 23.0046 57.5718 22.6934 57.8818C22.3823 58.1918 21.9603 58.3659 21.5204 58.3659C21.3155 58.3659 21.1189 58.4469 20.9739 58.591C20.8288 58.7351 20.7469 58.9307 20.7463 59.1349C20.7482 59.3522 20.7068 59.5678 20.6247 59.7691C20.5425 59.9704 20.4211 60.1535 20.2675 60.3079C20.1139 60.4622 19.9312 60.5847 19.7298 60.6683C19.5285 60.7519 19.3125 60.795 19.0944 60.795ZM19.0944 53.7406C18.9488 53.7413 18.8093 53.7992 18.7063 53.9018C18.6033 54.0044 18.5452 54.1434 18.5445 54.2885C18.5445 54.7874 18.3456 55.2659 17.9916 55.6187C17.6375 55.9715 17.1573 56.1697 16.6566 56.1697C16.5167 56.1788 16.3855 56.2406 16.2897 56.3426C16.1938 56.4446 16.1405 56.579 16.1405 56.7187C16.1405 56.8585 16.1938 56.9929 16.2897 57.0949C16.3855 57.1969 16.5167 57.2587 16.6566 57.2678C17.1573 57.2678 17.6375 57.466 17.9916 57.8188C18.3456 58.1716 18.5445 58.6501 18.5445 59.149C18.5537 59.2884 18.6157 59.4191 18.7181 59.5146C18.8204 59.6101 18.9554 59.6633 19.0956 59.6633C19.2358 59.6633 19.3707 59.6101 19.4731 59.5146C19.5754 59.4191 19.6374 59.2884 19.6466 59.149C19.6466 58.6501 19.8455 58.1716 20.1996 57.8188C20.5536 57.466 21.0338 57.2678 21.5345 57.2678C21.6744 57.2587 21.8056 57.1969 21.9015 57.0949C21.9973 56.9929 22.0506 56.8585 22.0506 56.7187C22.0506 56.579 21.9973 56.4446 21.9015 56.3426C21.8056 56.2406 21.6744 56.1788 21.5345 56.1697C21.0338 56.1697 20.5536 55.9715 20.1996 55.6187C19.8455 55.2659 19.6466 54.7874 19.6466 54.2885C19.646 54.143 19.5875 54.0037 19.484 53.901C19.3805 53.7983 19.2404 53.7406 19.0944 53.7406Z" fill="#242424" fill-opacity="0.7"/>
</g>
<defs>
<clipPath id="clip0_29152_288476">
<rect width="52" height="48" fill="white" transform="translate(15 16)"/>
</clipPath>
</defs>
</svg>
