<svg width="81" height="80" viewBox="0 0 81 80" fill="none" xmlns="http://www.w3.org/2000/svg">
<rect x="1" y="0.5" width="79" height="79" rx="39.5" fill="#5084FC" fill-opacity="0.1"/>
<rect x="1" y="0.5" width="79" height="79" rx="39.5" stroke="#5084FC"/>
<g clip-path="url(#clip0_29152_288474)">
<path d="M62.7436 50.8497H61.6582V51.9177H62.7436V50.8497Z" fill="#122436"/>
<path d="M62.7436 48.496H61.6582V49.5639H62.7436V48.496Z" fill="#122436"/>
<path d="M61.6582 53.7127V54.2694V55.5531H60.3318H59.2247H57.8962H57.3535V56.6318H57.8962H59.2247H60.3318H61.6582H62.7436V55.5531V54.2694V53.7127V53.2014H61.6582V53.7127Z" fill="#434343"/>
<path d="M61.6582 37.3763V37.8078V39.0893V40.1594V41.441V42.5111V43.7926V44.8627V46.1464V47.1389V47.2144H62.7436V47.1389V46.1464V44.8627V43.7926V42.5111V41.441V40.1594V39.0893V37.8078V37.3763V36.7377H61.6582V37.3763Z" fill="#122436"/>
<path d="M62.7436 34.3861H61.6582V35.4541H62.7436V34.3861Z" fill="#122436"/>
<path d="M62.7436 29.6827H61.6582V30.7528H62.7436V29.6827Z" fill="#122436"/>
<path d="M62.7436 32.0344H61.6582V33.1024H62.7436V32.0344Z" fill="#122436"/>
<path d="M62.7436 27.3225H61.6582V28.4012H62.7436V27.3225Z" fill="#122436"/>
<path d="M60.4015 27.3225H59.353V28.4012H60.4015V27.3225Z" fill="#122436"/>
<path d="M20.3415 32.0344H19.2561V33.1024H20.3415V32.0344Z" fill="#122436"/>
<path d="M20.3415 29.6827H19.2561V30.7528H20.3415V29.6827Z" fill="#122436"/>
<path d="M20.3415 34.3861H19.2561V35.4541H20.3415V34.3861Z" fill="#122436"/>
<path d="M20.3415 47.1389V46.1464V44.8627V43.7926V42.5111V41.441V40.1594V39.0893V37.8078V37.3763V36.7377H19.2561V37.3763V37.8078V39.0893V40.1594V41.441V42.5111V43.7926V44.8627V46.1464V47.1389V47.2144H20.3415V47.1389Z" fill="#122436"/>
<path d="M20.3415 50.8497H19.2561V51.9177H20.3415V50.8497Z" fill="#122436"/>
<path d="M20.3415 48.496H19.2561V49.5639H20.3415V48.496Z" fill="#122436"/>
<path d="M20.3415 27.3225H19.2561V28.4012H20.3415V27.3225Z" fill="#122436"/>
<path d="M22.6491 27.3225H21.6006V28.4012H22.6491V27.3225Z" fill="#122436"/>
<path d="M22.7771 55.5531H21.67H20.3415V54.2694V53.7127V53.2014H19.2561V53.7127V54.2694V55.5531V56.6318H20.3415H21.67H22.7771H24.1035H24.6462V55.5531H24.1035H22.7771Z" fill="#434343"/>
<path d="M63.2191 44.509C63.2197 44.1872 63.3487 43.8788 63.5778 43.6515C63.807 43.4242 64.1175 43.2965 64.4413 43.2965C64.7113 43.2965 64.9702 43.1899 65.1612 43.0001C65.3521 42.8104 65.4594 42.553 65.4594 42.2846C65.4594 42.0163 65.3521 41.7589 65.1612 41.5691C64.9702 41.3794 64.7113 41.2728 64.4413 41.2728C64.1175 41.2728 63.807 41.1451 63.5778 40.9178C63.3487 40.6905 63.2197 40.3821 63.2191 40.0603C63.2255 39.9236 63.2039 39.7871 63.1556 39.6589C63.1074 39.5308 63.0335 39.4137 62.9384 39.3148C62.8434 39.2158 62.7291 39.1371 62.6025 39.0833C62.476 39.0295 62.3398 39.0017 62.2021 39.0017C62.0644 39.0017 61.9282 39.0295 61.8017 39.0833C61.6751 39.1371 61.5608 39.2158 61.4658 39.3148C61.3707 39.4137 61.2968 39.5308 61.2486 39.6589C61.2003 39.7871 61.1787 39.9236 61.1851 40.0603C61.1845 40.3821 61.0555 40.6905 60.8264 40.9178C60.5972 41.1451 60.2867 41.2728 59.9629 41.2728C59.6929 41.2728 59.434 41.3794 59.243 41.5691C59.0521 41.7589 58.9448 42.0163 58.9448 42.2846C58.9448 42.553 59.0521 42.8104 59.243 43.0001C59.434 43.1899 59.6929 43.2965 59.9629 43.2965C60.2867 43.2965 60.5972 43.4242 60.8264 43.6515C61.0555 43.8788 61.1845 44.1872 61.1851 44.509C61.1787 44.6457 61.2003 44.7822 61.2486 44.9103C61.2968 45.0385 61.3707 45.1555 61.4658 45.2545C61.5608 45.3534 61.6751 45.4322 61.8017 45.486C61.9282 45.5398 62.0644 45.5676 62.2021 45.5676C62.3398 45.5676 62.476 45.5398 62.6025 45.486C62.7291 45.4322 62.8434 45.3534 62.9384 45.2545C63.0335 45.1555 63.1074 45.0385 63.1556 44.9103C63.2039 44.7822 63.2255 44.6457 63.2191 44.509Z" fill="#FFB840"/>
<path d="M62.2032 46.0602C61.7892 46.0602 61.3922 45.8968 61.0995 45.6058C60.8068 45.3149 60.6424 44.9204 60.6424 44.509C60.6418 44.3302 60.5699 44.159 60.4426 44.0328C60.3152 43.9067 60.1427 43.8358 59.9629 43.8358C59.549 43.8358 59.152 43.6724 58.8592 43.3815C58.5665 43.0906 58.4021 42.696 58.4021 42.2846C58.4021 41.8732 58.5665 41.4786 58.8592 41.1877C59.152 40.8968 59.549 40.7334 59.9629 40.7334C60.1427 40.7334 60.3152 40.6625 60.4426 40.5363C60.5699 40.4102 60.6418 40.239 60.6424 40.0602C60.6345 39.8518 60.6691 39.6439 60.7439 39.4491C60.8188 39.2542 60.9324 39.0764 61.078 38.9262C61.2236 38.7759 61.3982 38.6565 61.5914 38.5748C61.7845 38.4932 61.9922 38.4512 62.2021 38.4512C62.4119 38.4512 62.6197 38.4932 62.8128 38.5748C63.0059 38.6565 63.1805 38.7759 63.3261 38.9262C63.4717 39.0764 63.5853 39.2542 63.6602 39.4491C63.7351 39.6439 63.7696 39.8518 63.7618 40.0602C63.7615 40.1495 63.779 40.2379 63.8133 40.3203C63.8476 40.4028 63.898 40.4777 63.9616 40.5407C64.0251 40.6037 64.1006 40.6535 64.1837 40.6873C64.2668 40.7211 64.3558 40.7383 64.4456 40.7377C64.8595 40.7377 65.2565 40.9011 65.5492 41.192C65.8419 41.4829 66.0064 41.8775 66.0064 42.2889C66.0064 42.7003 65.8419 43.0949 65.5492 43.3858C65.2565 43.6767 64.8595 43.8401 64.4456 43.8401C64.2658 43.8401 64.0933 43.911 63.9659 44.0372C63.8385 44.1633 63.7667 44.3345 63.7661 44.5133C63.765 44.9243 63.5997 45.3181 63.3067 45.6081C63.0136 45.8982 62.6167 46.0608 62.2032 46.0602ZM62.2032 39.5878C62.0771 39.5878 61.9561 39.6375 61.867 39.7261C61.7778 39.8147 61.7278 39.9349 61.7278 40.0602C61.7272 40.5251 61.541 40.9707 61.2101 41.2991C60.8792 41.6276 60.4306 41.8121 59.9629 41.8121C59.8368 41.8121 59.7159 41.8619 59.6267 41.9505C59.5376 42.0391 59.4875 42.1593 59.4875 42.2846C59.4875 42.4099 59.5376 42.5301 59.6267 42.6187C59.7159 42.7073 59.8368 42.7571 59.9629 42.7571C60.4306 42.7571 60.8792 42.9416 61.2101 43.2701C61.541 43.5985 61.7272 44.0441 61.7278 44.509C61.7234 44.5735 61.7324 44.6383 61.7542 44.6993C61.776 44.7603 61.8103 44.8162 61.8547 44.8635C61.8992 44.9108 61.953 44.9485 62.0127 44.9743C62.0725 45.0001 62.1369 45.0134 62.2021 45.0134C62.2672 45.0134 62.3316 45.0001 62.3914 44.9743C62.4511 44.9485 62.5049 44.9108 62.5494 44.8635C62.5939 44.8162 62.6281 44.7603 62.6499 44.6993C62.6718 44.6383 62.6808 44.5735 62.6764 44.509C62.677 44.0441 62.8632 43.5985 63.1941 43.2701C63.525 42.9416 63.9736 42.7571 64.4412 42.7571C64.5037 42.7571 64.5655 42.7449 64.6232 42.7211C64.6809 42.6974 64.7333 42.6626 64.7774 42.6187C64.8216 42.5748 64.8566 42.5227 64.8805 42.4654C64.9044 42.4081 64.9166 42.3466 64.9166 42.2846C64.9166 42.2225 64.9044 42.1611 64.8805 42.1038C64.8566 42.0465 64.8216 41.9944 64.7774 41.9505C64.7333 41.9066 64.6809 41.8718 64.6232 41.8481C64.5655 41.8243 64.5037 41.8121 64.4412 41.8121C63.9736 41.8121 63.525 41.6276 63.1941 41.2991C62.8632 40.9707 62.677 40.5251 62.6764 40.0602C62.6764 39.9353 62.6266 39.8154 62.5379 39.7269C62.4492 39.6384 62.3289 39.5883 62.2032 39.5878Z" fill="#434343"/>
<path d="M20.8126 44.509C20.8132 44.1872 20.9422 43.8788 21.1713 43.6515C21.4005 43.4242 21.711 43.2965 22.0348 43.2965C22.3048 43.2965 22.5638 43.1899 22.7547 43.0001C22.9456 42.8104 23.0529 42.553 23.0529 42.2846C23.0529 42.0163 22.9456 41.7589 22.7547 41.5691C22.5638 41.3794 22.3048 41.2728 22.0348 41.2728C21.711 41.2728 21.4005 41.1451 21.1713 40.9178C20.9422 40.6905 20.8132 40.3821 20.8126 40.0603C20.819 39.9236 20.7974 39.7871 20.7491 39.6589C20.7009 39.5308 20.627 39.4137 20.5319 39.3148C20.4369 39.2158 20.3226 39.1371 20.196 39.0833C20.0695 39.0295 19.9333 39.0017 19.7956 39.0017C19.6579 39.0017 19.5217 39.0295 19.3952 39.0833C19.2686 39.1371 19.1543 39.2158 19.0593 39.3148C18.9642 39.4137 18.8903 39.5308 18.8421 39.6589C18.7938 39.7871 18.7722 39.9236 18.7786 40.0603C18.778 40.3821 18.649 40.6905 18.4199 40.9178C18.1907 41.1451 17.8802 41.2728 17.5564 41.2728C17.2864 41.2728 17.0275 41.3794 16.8365 41.5691C16.6456 41.7589 16.5383 42.0163 16.5383 42.2846C16.5383 42.553 16.6456 42.8104 16.8365 43.0001C17.0275 43.1899 17.2864 43.2965 17.5564 43.2965C17.8802 43.2965 18.1907 43.4242 18.4199 43.6515C18.649 43.8788 18.778 44.1872 18.7786 44.509C18.7722 44.6457 18.7938 44.7822 18.8421 44.9103C18.8903 45.0385 18.9642 45.1555 19.0593 45.2545C19.1543 45.3534 19.2686 45.4322 19.3952 45.486C19.5217 45.5398 19.6579 45.5676 19.7956 45.5676C19.9333 45.5676 20.0695 45.5398 20.196 45.486C20.3226 45.4322 20.4369 45.3534 20.5319 45.2545C20.627 45.1555 20.7009 45.0385 20.7491 44.9103C20.7974 44.7822 20.819 44.6457 20.8126 44.509Z" fill="#FFB840"/>
<path d="M19.7988 46.0601C19.3853 46.0596 18.9888 45.8959 18.6966 45.605C18.4044 45.3142 18.2402 44.92 18.2402 44.5089C18.2399 44.4201 18.222 44.3321 18.1875 44.2502C18.1529 44.1682 18.1024 44.0938 18.0389 44.0313C17.9754 43.9687 17.9001 43.9193 17.8173 43.8857C17.7345 43.8522 17.6458 43.8352 17.5564 43.8358C17.3448 43.8469 17.1332 43.815 16.9343 43.7422C16.7355 43.6694 16.5537 43.5571 16.4 43.4121C16.2462 43.2672 16.1238 43.0927 16.0401 42.8992C15.9565 42.7057 15.9133 42.4973 15.9133 42.2867C15.9133 42.0761 15.9565 41.8677 16.0401 41.6742C16.1238 41.4808 16.2462 41.3062 16.4 41.1613C16.5537 41.0163 16.7355 40.904 16.9343 40.8312C17.1332 40.7584 17.3448 40.7265 17.5564 40.7376C17.7362 40.7376 17.9087 40.6668 18.0361 40.5406C18.1635 40.4144 18.2353 40.2432 18.2359 40.0645C18.2281 39.8561 18.2626 39.6482 18.3375 39.4534C18.4123 39.2585 18.5259 39.0806 18.6716 38.9304C18.8172 38.7802 18.9917 38.6607 19.1849 38.5791C19.378 38.4975 19.5857 38.4554 19.7956 38.4554C20.0055 38.4554 20.2132 38.4975 20.4063 38.5791C20.5994 38.6607 20.774 38.7802 20.9196 38.9304C21.0652 39.0806 21.1789 39.2585 21.2537 39.4534C21.3286 39.6482 21.3631 39.8561 21.3553 40.0645C21.3556 40.1534 21.3735 40.2413 21.4081 40.3233C21.4426 40.4052 21.4931 40.4796 21.5566 40.5421C21.6201 40.6047 21.6955 40.6541 21.7783 40.6877C21.8611 40.7212 21.9497 40.7382 22.0391 40.7376C22.4531 40.7376 22.8501 40.9011 23.1428 41.192C23.4355 41.4829 23.5999 41.8775 23.5999 42.2889C23.5999 42.7003 23.4355 43.0948 23.1428 43.3858C22.8501 43.6767 22.4531 43.8401 22.0391 43.8401C21.8593 43.8401 21.6868 43.9109 21.5594 44.0371C21.4321 44.1633 21.3602 44.3345 21.3596 44.5132C21.3585 44.9239 21.1936 45.3173 20.901 45.6073C20.6084 45.8973 20.212 46.0601 19.7988 46.0601ZM19.7988 39.5877C19.6731 39.5883 19.5528 39.6383 19.4641 39.7269C19.3754 39.8154 19.3256 39.9353 19.3256 40.0602C19.3259 40.2911 19.2803 40.5198 19.1915 40.7331C19.1026 40.9464 18.9723 41.1402 18.8079 41.3034C18.6436 41.4666 18.4484 41.5959 18.2336 41.6839C18.0189 41.7719 17.7887 41.817 17.5564 41.8164C17.4303 41.8164 17.3094 41.8662 17.2203 41.9548C17.1311 42.0434 17.081 42.1636 17.081 42.2889C17.081 42.4142 17.1311 42.5344 17.2203 42.623C17.3094 42.7116 17.4303 42.7614 17.5564 42.7614C18.0241 42.7614 18.4727 42.9459 18.8036 43.2743C19.1345 43.6028 19.3207 44.0484 19.3213 44.5132C19.3169 44.5778 19.3259 44.6426 19.3477 44.7036C19.3696 44.7646 19.4038 44.8205 19.4483 44.8678C19.4927 44.9151 19.5465 44.9528 19.6063 44.9785C19.666 45.0043 19.7305 45.0176 19.7956 45.0176C19.8607 45.0176 19.9252 45.0043 19.9849 44.9785C20.0447 44.9528 20.0984 44.9151 20.1429 44.8678C20.1874 44.8205 20.2216 44.7646 20.2435 44.7036C20.2653 44.6426 20.2743 44.5778 20.2699 44.5132C20.2705 44.0484 20.4567 43.6028 20.7876 43.2743C21.1185 42.9459 21.5671 42.7614 22.0348 42.7614C22.1609 42.7614 22.2818 42.7116 22.3709 42.623C22.4601 42.5344 22.5102 42.4142 22.5102 42.2889C22.5102 42.1636 22.4601 42.0434 22.3709 41.9548C22.2818 41.8662 22.1609 41.8164 22.0348 41.8164C21.5671 41.8164 21.1185 41.6319 20.7876 41.3034C20.4567 40.9749 20.2705 40.5293 20.2699 40.0645C20.2705 40.0025 20.2588 39.9409 20.2354 39.8834C20.212 39.8258 20.1775 39.7734 20.1337 39.7291C20.09 39.6849 20.0379 39.6496 19.9805 39.6253C19.923 39.6011 19.8613 39.5883 19.7988 39.5877Z" fill="#434343"/>
<path d="M49.428 48.2888C49.428 47.45 49.7633 46.6455 50.3601 46.0524C50.9569 45.4592 51.7663 45.126 52.6104 45.126C53.4544 45.126 54.2638 45.4592 54.8606 46.0524C55.4575 46.6455 55.7927 47.45 55.7927 48.2888C55.7927 50.0364 52.6104 56.6857 52.6104 56.6857C52.6104 56.6857 49.428 50.0342 49.428 48.2888Z" fill="#5084FC"/>
<path d="M52.6104 46.8498C53.2976 46.8504 53.9663 47.072 54.5164 47.4815C55.0665 47.8909 55.4685 48.4663 55.6625 49.1216C55.7371 48.849 55.7808 48.5689 55.7927 48.2866C55.7927 47.4478 55.4575 46.6433 54.8606 46.0502C54.2638 45.457 53.4544 45.1238 52.6104 45.1238C51.7663 45.1238 50.9569 45.457 50.3601 46.0502C49.7633 46.6433 49.428 47.4478 49.428 48.2866C49.4399 48.5689 49.4836 48.849 49.5582 49.1216C49.7519 48.4661 50.1538 47.8906 50.704 47.481C51.2542 47.0715 51.923 46.8501 52.6104 46.8498Z" fill="white"/>
<path d="M52.6104 58.1528L52.0374 56.9554C51.7052 56.2715 48.7942 50.1227 48.7942 48.2888C48.7942 47.2829 49.1963 46.3182 49.9119 45.6069C50.6276 44.8956 51.5983 44.496 52.6104 44.496C53.6226 44.496 54.5933 44.8956 55.3089 45.6069C56.0246 46.3182 56.4267 47.2829 56.4267 48.2888C56.4267 50.1248 53.5157 56.2715 53.1835 56.9576L52.6104 58.1528ZM52.6104 45.7559C51.9347 45.7565 51.2868 46.0235 50.809 46.4984C50.3312 46.9733 50.0625 47.6172 50.0619 48.2888C50.0619 49.2856 51.4534 52.6534 52.6104 55.1927C53.7675 52.6577 55.159 49.2899 55.159 48.2888C55.1584 47.6172 54.8897 46.9733 54.4119 46.4984C53.9341 46.0235 53.2862 45.7565 52.6104 45.7559Z" fill="#5084FC"/>
<path d="M37.8186 48.2888C37.8186 47.45 38.1539 46.6455 38.7507 46.0524C39.3475 45.4592 40.157 45.126 41.001 45.126C41.845 45.126 42.6545 45.4592 43.2513 46.0524C43.8481 46.6455 44.1834 47.45 44.1834 48.2888C44.1834 50.0364 41.001 56.6857 41.001 56.6857C41.001 56.6857 37.8186 50.0342 37.8186 48.2888Z" fill="#5084FC"/>
<path d="M41.001 46.8498C41.6884 46.8501 42.3571 47.0715 42.9073 47.481C43.4575 47.8906 43.8595 48.4661 44.0531 49.1216C44.1278 48.849 44.1715 48.5689 44.1834 48.2866C44.1834 47.4478 43.8481 46.6433 43.2513 46.0502C42.6545 45.457 41.845 45.1238 41.001 45.1238C40.157 45.1238 39.3475 45.457 38.7507 46.0502C38.1539 46.6433 37.8186 47.4478 37.8186 48.2866C37.8305 48.5689 37.8742 48.849 37.9489 49.1216C38.1425 48.4661 38.5445 47.8906 39.0946 47.481C39.6448 47.0715 40.3136 46.8501 41.001 46.8498Z" fill="white"/>
<path d="M41.0011 58.1528L40.428 56.9554C40.0958 56.2715 37.1848 50.1227 37.1848 48.2888C37.1848 47.2829 37.5869 46.3182 38.3026 45.6069C39.0183 44.8956 39.9889 44.496 41.0011 44.496C42.0132 44.496 42.9839 44.8956 43.6996 45.6069C44.4153 46.3182 44.8173 47.2829 44.8173 48.2888C44.8173 50.1248 41.9063 56.2715 41.5742 56.9576L41.0011 58.1528ZM41.0011 45.7559C40.3253 45.7565 39.6774 46.0235 39.1996 46.4984C38.7218 46.9733 38.4531 47.6172 38.4526 48.2888C38.4526 49.2856 39.844 52.6534 41.0011 55.1927C42.1581 52.6577 43.5496 49.2899 43.5496 48.2888C43.549 47.6172 43.2803 46.9733 42.8025 46.4984C42.3247 46.0235 41.6768 45.7565 41.0011 45.7559Z" fill="#5084FC"/>
<path d="M26.2092 48.2888C26.2092 47.45 26.5445 46.6455 27.1413 46.0524C27.7381 45.4592 28.5476 45.126 29.3916 45.126C30.2356 45.126 31.0451 45.4592 31.6419 46.0524C32.2387 46.6455 32.574 47.45 32.574 48.2888C32.574 50.0364 29.3916 56.6857 29.3916 56.6857C29.3916 56.6857 26.2092 50.0342 26.2092 48.2888Z" fill="#5084FC"/>
<path d="M29.3916 46.8498C30.079 46.8501 30.7478 47.0715 31.2979 47.481C31.8481 47.8906 32.2501 48.4661 32.4437 49.1216C32.5184 48.849 32.5621 48.5689 32.574 48.2866C32.574 47.4478 32.2387 46.6433 31.6419 46.0502C31.0451 45.457 30.2356 45.1238 29.3916 45.1238C28.5476 45.1238 27.7381 45.457 27.1413 46.0502C26.5445 46.6433 26.2092 47.4478 26.2092 48.2866C26.2211 48.5689 26.2648 48.849 26.3395 49.1216C26.5334 48.4663 26.9355 47.8909 27.4856 47.4815C28.0357 47.072 28.7043 46.8504 29.3916 46.8498Z" fill="white"/>
<path d="M29.3917 58.1528L28.8186 56.9554C28.4865 56.2715 25.5754 50.1227 25.5754 48.2888C25.5754 47.2829 25.9775 46.3182 26.6932 45.6069C27.4089 44.8956 28.3796 44.496 29.3917 44.496C30.4038 44.496 31.3745 44.8956 32.0902 45.6069C32.8059 46.3182 33.2079 47.2829 33.2079 48.2888C33.2079 50.1248 30.2969 56.2715 29.9648 56.9576L29.3917 58.1528ZM29.3917 45.7559C28.716 45.7565 28.0681 46.0235 27.5903 46.4984C27.1124 46.9733 26.8438 47.6172 26.8432 48.2888C26.8432 49.2856 28.2347 52.6534 29.3917 55.1927C30.5487 52.6577 31.9402 49.2899 31.9402 48.2888C31.9396 47.6172 31.6709 46.9733 31.1931 46.4984C30.7153 46.0235 30.0674 45.7565 29.3917 45.7559Z" fill="#5084FC"/>
<path d="M59.2357 56.0924H22.7664V59.0438H59.2357V56.0924Z" fill="#FFB840"/>
<path d="M59.2357 56.0924H22.7664V57.3437H59.2357V56.0924Z" fill="white"/>
<path d="M59.7783 59.5833H22.2236V55.5531H59.7783V59.5833ZM23.309 58.5045H58.693V56.6318H23.309V58.5045Z" fill="#434343"/>
<path d="M54.2782 32.7824L51.5752 29.2933L49.5734 25.1207C49.244 24.4342 48.725 23.8543 48.0768 23.4484C47.4285 23.0425 46.6774 22.8272 45.9107 22.8274H37.0506C36.2819 22.8249 35.5283 23.0392 34.8777 23.4452C34.2271 23.8512 33.7062 24.4323 33.376 25.1207L31.3697 29.2903L28.6666 32.7794C28.4053 33.1157 28.2638 33.5283 28.2642 33.9528V36.9207C28.2634 37.4311 28.467 37.921 28.8302 38.2826C29.1935 38.6442 29.6867 38.848 30.2014 38.8492H52.739C53.2537 38.8488 53.7472 38.6457 54.111 38.2847C54.4748 37.9236 54.6792 37.4341 54.6792 36.9237V33.9558C54.68 33.5315 54.539 33.1188 54.2782 32.7824ZM33.2543 28.376L34.5864 25.6032C34.8091 25.1395 35.1599 24.748 35.5979 24.4739C36.0359 24.1998 36.5432 24.0543 37.0612 24.0545H46.0158C46.5338 24.0543 47.0411 24.1998 47.4791 24.4739C47.9172 24.748 48.2679 25.1395 48.4906 25.6032L49.8227 28.376C49.8539 28.441 49.868 28.5128 49.8636 28.5847C49.8593 28.6566 49.8366 28.7262 49.7978 28.787C49.7589 28.8478 49.7052 28.8979 49.6415 28.9326C49.5778 28.9672 49.5063 28.9853 49.4337 28.985H33.6553C33.5822 28.9863 33.5099 28.969 33.4455 28.9347C33.381 28.9005 33.3264 28.8506 33.2868 28.7896C33.2472 28.7286 33.2241 28.6586 33.2194 28.5862C33.2148 28.5138 33.2289 28.4415 33.2603 28.376H33.2543ZM34.6269 34.0779C34.6269 34.1719 34.6062 34.2648 34.5663 34.3501C34.5265 34.4353 34.4684 34.511 34.3961 34.5718C34.3238 34.6326 34.239 34.677 34.1477 34.7021C34.0563 34.7271 33.9605 34.7321 33.867 34.7168L31.4418 34.3147C31.2895 34.2897 31.1512 34.2119 31.0514 34.0952C30.9515 33.9784 30.8967 33.8304 30.8967 33.6774V32.1197C30.8973 32.0137 30.9241 31.9094 30.9748 31.8161C31.0255 31.7228 31.0986 31.6432 31.1875 31.5844C31.2765 31.5256 31.3786 31.4894 31.485 31.4788C31.5914 31.4683 31.6988 31.4838 31.7977 31.524L34.2229 32.5262C34.3415 32.5753 34.4429 32.658 34.5142 32.764C34.5856 32.8699 34.6237 32.9945 34.6239 33.1219L34.6269 34.0779ZM45.5788 34.9953H37.1933L36.5716 32.839H46.2066L45.5788 34.9953ZM51.7223 33.6774C51.7223 33.8304 51.6674 33.9784 51.5676 34.0952C51.4678 34.2119 51.3294 34.2897 51.1772 34.3147L48.7519 34.7168C48.6584 34.7321 48.5627 34.7271 48.4713 34.7021C48.38 34.677 48.2952 34.6326 48.2229 34.5718C48.1506 34.511 48.0925 34.4353 48.0526 34.3501C48.0128 34.2648 47.9921 34.1719 47.9921 34.0779V33.1159C47.9921 32.9885 48.0301 32.8639 48.1015 32.7578C48.1729 32.6518 48.2743 32.5692 48.393 32.5203L50.8243 31.524C50.9232 31.4838 51.0306 31.4683 51.137 31.4788C51.2433 31.4894 51.3455 31.5256 51.4344 31.5844C51.5234 31.6432 51.5964 31.7228 51.6472 31.8161C51.6979 31.9094 51.7247 32.0137 51.7253 32.1197L51.7223 33.6774Z" fill="#5084FC"/>
<path d="M32.0376 32.9998V34.8099C32.038 34.9869 32.0935 35.1582 32.1945 35.2932C32.2954 35.4282 32.4352 35.5184 32.5891 35.5477L35.0425 36.0114C35.137 36.0295 35.2338 36.0239 35.3263 35.9951C35.4187 35.9664 35.5045 35.9151 35.5776 35.8448C35.6508 35.7746 35.7096 35.6871 35.7499 35.5885C35.7903 35.4898 35.8112 35.3824 35.8112 35.2736V34.16C35.8109 34.0123 35.7721 33.868 35.6996 33.7453C35.6271 33.6226 35.5243 33.5269 35.404 33.4704L32.9521 32.3103C32.8519 32.2625 32.7429 32.2437 32.6347 32.2553C32.5265 32.2669 32.4225 32.3087 32.332 32.377C32.2415 32.4452 32.1673 32.5378 32.1159 32.6465C32.0645 32.7551 32.0376 32.8765 32.0376 32.9998Z" fill="#FFB840"/>
<path d="M51.849 32.9992V34.8097C51.849 34.9868 51.7935 35.1583 51.6925 35.2934C51.5914 35.4285 51.4514 35.5186 51.2973 35.5476L48.8444 36.0114C48.7499 36.0295 48.653 36.0239 48.5605 35.9951C48.4681 35.9664 48.3823 35.9151 48.3091 35.8448C48.2358 35.7746 48.177 35.6871 48.1367 35.5884C48.0963 35.4897 48.0754 35.3822 48.0754 35.2735V34.1596C48.0754 34.012 48.1139 33.8678 48.1862 33.745C48.2584 33.6223 48.3611 33.5265 48.4812 33.47L50.9356 32.3096C51.0358 32.2622 51.1447 32.2436 51.2527 32.2554C51.3608 32.2672 51.4645 32.3091 51.5549 32.3773C51.6452 32.4455 51.7193 32.538 51.7706 32.6465C51.8219 32.755 51.8489 32.8761 51.849 32.9992Z" fill="#FFB840"/>
<path d="M52.5417 38.8491H30.3987C30.1186 38.8493 29.8412 38.7922 29.5823 38.681C29.3235 38.5698 29.0882 38.4067 28.89 38.2011C28.6918 37.9954 28.5345 37.7512 28.4271 37.4824C28.3197 37.2136 28.2644 36.9255 28.2642 36.6345V33.5793C28.2653 33.0916 28.4209 32.6179 28.707 32.2312L31.3524 28.6592L33.3142 24.3771C33.6585 23.6326 34.1976 23.004 34.8699 22.5632C35.5422 22.1224 36.3204 21.8873 37.1154 21.8849H45.825C46.6199 21.8875 47.3981 22.1226 48.0703 22.5634C48.7426 23.0042 49.2818 23.6328 49.6262 24.3771L51.591 28.6592L54.2363 32.2327C54.5225 32.6194 54.6782 33.0931 54.6792 33.5809V36.6345C54.6792 36.9258 54.6239 37.2143 54.5164 37.4834C54.4089 37.7525 54.2513 37.9969 54.0528 38.2026C53.8542 38.4084 53.6185 38.5714 53.3592 38.6823C53.0999 38.7932 52.8221 38.8499 52.5417 38.8491ZM37.1154 22.3435C36.4051 22.3465 35.7099 22.5573 35.1094 22.9517C34.509 23.3461 34.0275 23.9081 33.7202 24.5735L31.7273 28.9L29.0525 32.5119C28.8255 32.8201 28.7026 33.1974 28.7026 33.5855V36.6345C28.7026 36.8655 28.7465 37.0943 28.8318 37.3077C28.9172 37.521 29.0422 37.7148 29.1998 37.8778C29.3574 38.0409 29.5445 38.1699 29.7502 38.2577C29.956 38.3454 30.1763 38.39 30.3987 38.389H52.5417C52.7639 38.3898 52.984 38.345 53.1895 38.2572C53.395 38.1694 53.5818 38.0402 53.7391 37.8772C53.8964 37.7142 54.0212 37.5205 54.1063 37.3072C54.1914 37.0939 54.235 36.8653 54.2348 36.6345V33.5793C54.2356 33.1911 54.1126 32.8136 53.885 32.5057L51.2013 28.8709L49.2291 24.5673C48.9217 23.902 48.4403 23.3399 47.8398 22.9456C47.2394 22.5512 46.5442 22.3404 45.8338 22.3373L37.1154 22.3435Z" fill="#1D1D1B"/>
<path d="M32.8194 40.7341H30.3126C30.0195 40.7341 29.7384 40.6305 29.5312 40.4461C29.3239 40.2618 29.2075 40.0117 29.2075 39.7509V37.9067H29.6811V39.7509C29.6811 39.8999 29.7476 40.0428 29.8661 40.1482C29.9845 40.2536 30.1451 40.3127 30.3126 40.3127H32.8194C32.9869 40.3127 33.1475 40.2536 33.2659 40.1482C33.3844 40.0428 33.4509 39.8999 33.4509 39.7509V38.1975H33.9245V39.7509C33.9245 40.0117 33.8081 40.2618 33.6008 40.4461C33.3936 40.6305 33.1125 40.7341 32.8194 40.7341Z" fill="#1D1D1B"/>
<path d="M52.6307 40.7341H50.1238C49.8308 40.7341 49.5497 40.6305 49.3425 40.4461C49.1352 40.2618 49.0188 40.0117 49.0188 39.7509V38.1975H49.4924V39.7509C49.4924 39.8999 49.5589 40.0428 49.6773 40.1482C49.7958 40.2536 49.9564 40.3127 50.1238 40.3127H52.6307C52.7982 40.3127 52.9588 40.2536 53.0772 40.1482C53.1956 40.0428 53.2622 39.8999 53.2622 39.7509V37.9067H53.7358V39.7509C53.7358 40.0117 53.6193 40.2618 53.4121 40.4461C53.2049 40.6305 52.9238 40.7341 52.6307 40.7341Z" fill="#1D1D1B"/>
<path d="M49.314 28.4774H33.6274C33.5183 28.4767 33.4111 28.4472 33.3157 28.3916C33.2204 28.336 33.1398 28.2561 33.0816 28.1592C33.0234 28.0624 32.9893 27.9517 32.9825 27.8375C32.9757 27.7232 32.9964 27.6089 33.0427 27.5052L34.3658 24.5902C34.6065 24.0638 34.9837 23.6192 35.4541 23.3075C35.9245 22.9957 36.4691 22.8293 37.0255 22.8274V23.2971C36.5536 23.2986 36.0918 23.4397 35.6929 23.7042C35.294 23.9686 34.9741 24.3457 34.77 24.7922L33.4469 27.7072C33.4324 27.7397 33.4259 27.7756 33.4281 27.8115C33.4302 27.8473 33.4409 27.882 33.4592 27.9124C33.4775 27.9428 33.5027 27.9679 33.5326 27.9854C33.5625 28.0029 33.5961 28.0122 33.6304 28.0125H49.314C49.3482 28.0122 49.3818 28.0029 49.4117 27.9854C49.4416 27.9679 49.4669 27.9428 49.4852 27.9124C49.5034 27.882 49.5141 27.8473 49.5163 27.8115C49.5184 27.7756 49.5119 27.7397 49.4975 27.7072L48.1743 24.7922C47.9702 24.3457 47.6504 23.9686 47.2515 23.7042C46.8526 23.4397 46.3907 23.2986 45.9189 23.2971V22.8274C46.4752 22.8293 47.0198 22.9957 47.4902 23.3075C47.9606 23.6192 48.3378 24.0638 48.5786 24.5902L49.8987 27.5052C49.9461 27.6094 49.9676 27.7244 49.9612 27.8396C49.9547 27.9548 49.9205 28.0664 49.8618 28.164C49.8031 28.2616 49.7218 28.3419 49.6255 28.3976C49.5292 28.4532 49.4209 28.4823 49.311 28.4821L49.314 28.4774Z" fill="#1D1D1B"/>
<path d="M34.0803 35.0732C34.0349 35.0731 33.9896 35.0691 33.9447 35.0611L31.7557 34.6521C31.5706 34.6182 31.4024 34.5118 31.2812 34.3519C31.16 34.192 31.0937 33.9891 31.0942 33.7795V32.195C31.0943 32.0493 31.1266 31.9059 31.1881 31.7774C31.2496 31.649 31.3385 31.5395 31.447 31.4586C31.5554 31.3777 31.68 31.3279 31.8097 31.3137C31.9395 31.2995 32.0704 31.3212 32.1908 31.377L34.3799 32.3965C34.5246 32.4634 34.6482 32.5769 34.7351 32.7226C34.822 32.8682 34.8682 33.0395 34.8678 33.2145V34.1931C34.8675 34.4277 34.784 34.6527 34.6357 34.8187C34.4873 34.9848 34.2862 35.0785 34.0762 35.0793L34.0803 35.0732ZM31.8885 31.7572C31.7863 31.7576 31.6884 31.8033 31.6163 31.8842C31.5441 31.9651 31.5036 32.0747 31.5036 32.1889V33.7795C31.5033 33.8818 31.5357 33.9807 31.5948 34.0587C31.6539 34.1367 31.7359 34.1887 31.8262 34.2052L34.0166 34.6188C34.0718 34.6286 34.1283 34.625 34.1821 34.6081C34.2359 34.5913 34.2859 34.5616 34.3285 34.5212C34.3711 34.4808 34.4054 34.4305 34.429 34.3739C34.4526 34.3172 34.465 34.2556 34.4652 34.1931V33.2145C34.4653 33.1294 34.4428 33.0461 34.4006 32.9752C34.3583 32.9043 34.2983 32.849 34.228 32.8161L32.039 31.7966C31.9917 31.7722 31.9406 31.7588 31.8885 31.7572Z" fill="#1D1D1B"/>
<path d="M48.8673 35.0793C48.7632 35.0793 48.6601 35.0563 48.564 35.0118C48.4678 34.9672 48.3804 34.9019 48.3069 34.8196C48.2333 34.7373 48.175 34.6396 48.1353 34.5321C48.0956 34.4246 48.0753 34.3094 48.0754 34.1931V33.2145C48.0751 33.0395 48.1213 32.8682 48.2082 32.7226C48.2951 32.5769 48.4188 32.4634 48.5636 32.3965L50.7521 31.377C50.8725 31.3212 51.0035 31.2995 51.1333 31.3137C51.263 31.3279 51.3877 31.3777 51.4962 31.4586C51.6046 31.5395 51.6936 31.649 51.7551 31.7774C51.8167 31.9059 51.8489 32.0493 51.849 32.195V33.7856C51.8495 33.9952 51.7832 34.1981 51.662 34.358C51.5407 34.5179 51.3724 34.6243 51.1873 34.6582L48.9975 35.0672C48.9544 35.075 48.9109 35.079 48.8673 35.0793ZM51.0571 31.7633C51.0059 31.7632 50.9552 31.7745 50.908 31.7966L48.7182 32.8161C48.6476 32.8486 48.5874 32.9039 48.5451 32.9749C48.5029 33.0458 48.4805 33.1293 48.4809 33.2145V34.1931C48.4807 34.2557 48.4927 34.3177 48.5162 34.3745C48.5397 34.4314 48.574 34.4819 48.6167 34.5224C48.6595 34.563 48.7096 34.5926 48.7637 34.6092C48.8177 34.6259 48.8744 34.6291 48.9297 34.6188L51.1195 34.2113C51.2096 34.1944 51.2913 34.1423 51.3502 34.0644C51.409 33.9864 51.4412 33.8876 51.4409 33.7856V32.2011C51.4411 32.1446 51.4313 32.0886 51.4121 32.0363C51.3929 31.984 51.3647 31.9365 51.329 31.8964C51.2934 31.8563 51.2511 31.8245 51.2044 31.8027C51.1578 31.7809 51.1077 31.7695 51.0571 31.7693V31.7633Z" fill="#1D1D1B"/>
<path d="M45.4963 36.0218H37.4469L36.7546 33.1945H46.1886L45.4963 36.0218ZM37.7598 35.5366H45.1834L45.6376 33.6797H37.3057L37.7598 35.5366Z" fill="#1D1D1B"/>
<path d="M54.9804 28.4821H52.8868C52.7522 28.4836 52.6206 28.4354 52.5113 28.3446C52.4019 28.2539 52.3204 28.1252 52.2787 27.9774L51.8844 26.6278C51.8508 26.5167 51.8408 26.3979 51.8554 26.2815C51.87 26.165 51.9087 26.0544 51.9682 25.9589C52.0278 25.8634 52.1064 25.7859 52.1974 25.733C52.2883 25.6801 52.389 25.6533 52.4909 25.6549H54.5924C54.727 25.6549 54.8581 25.7039 54.9673 25.7948C55.0764 25.8857 55.158 26.014 55.2005 26.1614L55.5869 27.5019C55.6206 27.613 55.6305 27.7317 55.6159 27.8482C55.6013 27.9646 55.5626 28.0753 55.5031 28.1708C55.4436 28.2662 55.365 28.3437 55.274 28.3967C55.183 28.4496 55.0823 28.4764 54.9804 28.4748V28.4821ZM52.4909 26.2108C52.4649 26.2102 52.4391 26.2171 52.4159 26.2309C52.3927 26.2446 52.3727 26.2647 52.3579 26.2894C52.3425 26.3139 52.3323 26.3422 52.3282 26.3721C52.3241 26.402 52.3261 26.4325 52.3341 26.4613L52.7221 27.8037C52.7323 27.8425 52.7534 27.8764 52.7821 27.8999C52.8107 27.9234 52.8454 27.9352 52.8805 27.9335H54.982C55.0081 27.934 55.0338 27.9272 55.057 27.9134C55.0803 27.8997 55.1002 27.8796 55.115 27.8549C55.1304 27.8304 55.1406 27.8021 55.1447 27.7722C55.1489 27.7423 55.1468 27.7117 55.1388 27.683L54.7508 26.3406C54.7406 26.3018 54.7195 26.2679 54.6909 26.2444C54.6622 26.2209 54.6276 26.2091 54.5924 26.2108H52.4909Z" fill="#1D1D1B"/>
<path d="M52.6701 27.3444L51.3018 28.4199L51.5715 28.7749L52.9398 27.6994L52.6701 27.3444Z" fill="#1D1D1B"/>
<path d="M52.4633 26.6907L50.637 26.9995L50.7093 27.4421L52.5357 27.1333L52.4633 26.6907Z" fill="#1D1D1B"/>
<path d="M30.0643 28.4821H27.9628C27.861 28.4837 27.7603 28.4568 27.6693 28.4037C27.5783 28.3507 27.4997 28.273 27.4402 28.1773C27.3806 28.0815 27.3419 27.9706 27.3273 27.8539C27.3127 27.7371 27.3227 27.618 27.3563 27.5067L27.7427 26.1627C27.7841 26.0145 27.8652 25.8853 27.9743 25.794C28.0833 25.7027 28.2147 25.654 28.3493 25.6549H30.4507C30.5527 25.653 30.6536 25.6796 30.7448 25.7326C30.836 25.7855 30.9148 25.8632 30.9746 25.9589C31.0343 26.0547 31.0731 26.1658 31.0878 26.2826C31.1025 26.3995 31.0925 26.5188 31.0589 26.6303L30.6756 27.976C30.6337 28.1249 30.5518 28.2543 30.4418 28.3453C30.3318 28.4364 30.1995 28.4843 30.0643 28.4821ZM28.3493 26.2049C28.3141 26.2032 28.2795 26.215 28.2508 26.2386C28.2221 26.2622 28.2011 26.2961 28.1909 26.3351L27.8029 27.6809C27.7929 27.7097 27.7894 27.7411 27.7927 27.7719C27.796 27.8028 27.8061 27.8321 27.8219 27.8573C27.8378 27.8824 27.8589 27.9024 27.8832 27.9155C27.9076 27.9286 27.9345 27.9343 27.9613 27.932H30.0628C30.0979 27.9338 30.1325 27.9219 30.1612 27.8984C30.1899 27.8748 30.2109 27.8408 30.2211 27.8019L30.6075 26.4561C30.6165 26.4275 30.6191 26.3968 30.6152 26.3667C30.6114 26.3366 30.6011 26.3081 30.5853 26.2838C30.5699 26.2593 30.5496 26.2394 30.5262 26.2256C30.5028 26.2119 30.477 26.2048 30.4507 26.2049H28.3493Z" fill="#1D1D1B"/>
<path d="M30.2739 27.3488L30.0042 27.7037L31.3725 28.7792L31.6422 28.4242L30.2739 27.3488Z" fill="#1D1D1B"/>
<path d="M30.4775 26.6826L30.405 27.1251L32.2313 27.4346L32.3038 26.992L30.4775 26.6826Z" fill="#1D1D1B"/>
</g>
<defs>
<clipPath id="clip0_29152_288474">
<rect width="49.9999" height="39.5832" fill="white" transform="translate(16 20)"/>
</clipPath>
</defs>
</svg>
