<svg width="81" height="80" viewBox="0 0 81 80" fill="none" xmlns="http://www.w3.org/2000/svg">
<rect x="1" y="0.5" width="79" height="79" rx="39.5" fill="#5084FC" fill-opacity="0.1"/>
<g clip-path="url(#clip0_513_47496)">
<path d="M46.5 38H52.5L49.5 34L46.5 38ZM46.5 42H52.5L49.5 46L46.5 42Z" fill="#140730"/>
<path d="M29.5 28H35.5V52H29.5C29.2348 52 28.9804 51.8946 28.7929 51.7071C28.6054 51.5196 28.5 51.2652 28.5 51V29C28.5 28.7348 28.6054 28.4804 28.7929 28.2929C28.9804 28.1054 29.2348 28 29.5 28Z" fill="#5084FC"/>
<path d="M37.5 28H43.5C43.7652 28 44.0196 28.1054 44.2071 28.2929C44.3946 28.4804 44.5 28.7348 44.5 29V51C44.5 51.2652 44.3946 51.5196 44.2071 51.7071C44.0196 51.8946 43.7652 52 43.5 52H37.5V28Z" fill="#FBAA1F"/>
</g>
<rect x="1" y="0.5" width="79" height="79" rx="39.5" stroke="#5084FC"/>
<defs>
<clipPath id="clip0_513_47496">
<rect width="24" height="24" fill="white" transform="translate(28.5 28)"/>
</clipPath>
</defs>
</svg>
