<svg width="81" height="80" viewBox="0 0 81 80" fill="none" xmlns="http://www.w3.org/2000/svg">
<rect x="1" y="0.5" width="79" height="79" rx="39.5" fill="#5084FC" fill-opacity="0.1"/>
<path d="M37.5 38H30.5C30.2348 38 29.9804 37.8946 29.7929 37.7071C29.6054 37.5196 29.5 37.2652 29.5 37V30C29.5 29.7348 29.6054 29.4804 29.7929 29.2929C29.9804 29.1054 30.2348 29 30.5 29H37.5C37.7652 29 38.0196 29.1054 38.2071 29.2929C38.3946 29.4804 38.5 29.7348 38.5 30V37C38.5 37.2652 38.3946 37.5196 38.2071 37.7071C38.0196 37.8946 37.7652 38 37.5 38Z" fill="#5084FC"/>
<path d="M37.5 51H30.5C30.2348 51 29.9804 50.8946 29.7929 50.7071C29.6054 50.5196 29.5 50.2652 29.5 50V43C29.5 42.7348 29.6054 42.4804 29.7929 42.2929C29.9804 42.1054 30.2348 42 30.5 42H37.5C37.7652 42 38.0196 42.1054 38.2071 42.2929C38.3946 42.4804 38.5 42.7348 38.5 43V50C38.5 50.2652 38.3946 50.5196 38.2071 50.7071C38.0196 50.8946 37.7652 51 37.5 51Z" fill="#5084FC"/>
<path d="M41.5 30H51.5V32H41.5V30Z" fill="#FBAA1F"/>
<path d="M51.5 43H41.5V45H51.5V43Z" fill="#FBAA1F"/>
<path d="M51.5 48H41.5V50H51.5V48Z" fill="#140730"/>
<path d="M51.5 35H41.5V37H51.5V35Z" fill="#140730"/>
<rect x="1" y="0.5" width="79" height="79" rx="39.5" stroke="#5084FC"/>
</svg>
