<svg width="81" height="80" viewBox="0 0 81 80" fill="none" xmlns="http://www.w3.org/2000/svg">
<rect x="1" y="0.5" width="79" height="79" rx="39.5" fill="#5084FC" fill-opacity="0.1"/>
<rect x="1" y="0.5" width="79" height="79" rx="39.5" stroke="#5084FC"/>
<g clip-path="url(#clip0_29152_288475)">
<path d="M58.3079 52.3351H57.2952V53.354H58.3079V52.3351Z" fill="#122436"/>
<path d="M47.4714 52.3351H46.489V53.354H47.4714V52.3351Z" fill="#122436"/>
<path d="M30.1818 52.3351H29.1995V53.354H30.1818V52.3351Z" fill="#122436"/>
<path d="M49.6325 52.3351H48.6501V53.354H49.6325V52.3351Z" fill="#122436"/>
<path d="M45.3102 52.3351H44.3279V53.354H45.3102V52.3351Z" fill="#122436"/>
<path d="M56.1161 52.3351H55.1338V53.354H56.1161V52.3351Z" fill="#122436"/>
<path d="M53.955 52.3351H52.9727V53.354H53.955V52.3351Z" fill="#122436"/>
<path d="M32.343 52.3351H31.3606V53.354H32.343V52.3351Z" fill="#122436"/>
<path d="M40.9877 52.3351H40.0054V53.354H40.9877V52.3351Z" fill="#122436"/>
<path d="M38.8266 52.3351H37.8442V53.354H38.8266V52.3351Z" fill="#122436"/>
<path d="M36.6655 52.3351H35.6831V53.354H36.6655V52.3351Z" fill="#122436"/>
<path d="M43.1491 52.3351H42.1667V53.354H43.1491V52.3351Z" fill="#122436"/>
<path d="M51.7939 52.3351H50.8115V53.354H51.7939V52.3351Z" fill="#122436"/>
<path d="M34.5043 52.3351H33.522V53.354H34.5043V52.3351Z" fill="#122436"/>
<path d="M21.5372 39.3744H20.5244V40.3566H21.5372V39.3744Z" fill="#122436"/>
<path d="M21.5372 26.4137H20.5244V27.3959H21.5372V26.4137Z" fill="#122436"/>
<path d="M21.5372 28.5739H20.5244V29.5561H21.5372V28.5739Z" fill="#122436"/>
<path d="M21.5372 24.2535H20.5244V25.2358H21.5372V24.2535Z" fill="#122436"/>
<path d="M21.5372 30.7339H20.5244V31.7161H21.5372V30.7339Z" fill="#122436"/>
<path d="M21.5372 37.2142H20.5244V38.1965H21.5372V37.2142Z" fill="#122436"/>
<path d="M21.5372 35.0542H20.5244V36.0364H21.5372V35.0542Z" fill="#122436"/>
<path d="M21.5372 32.894H20.5244V33.8763H21.5372V32.894Z" fill="#122436"/>
<path d="M21.5372 22.0568H20.5244V23.0757H21.5372V22.0568Z" fill="#122436"/>
<path d="M36.6655 22.0568H35.6831V23.0757H36.6655V22.0568Z" fill="#122436"/>
<path d="M47.4714 22.0568H46.489V23.0757H47.4714V22.0568Z" fill="#122436"/>
<path d="M25.8596 22.0568H24.8772V23.0757H25.8596V22.0568Z" fill="#122436"/>
<path d="M34.5043 22.0568H33.522V23.0757H34.5043V22.0568Z" fill="#122436"/>
<path d="M23.6982 22.0568H22.7158V23.0757H23.6982V22.0568Z" fill="#122436"/>
<path d="M45.3102 22.0568H44.3279V23.0757H45.3102V22.0568Z" fill="#122436"/>
<path d="M43.1491 22.0568H42.1667V23.0757H43.1491V22.0568Z" fill="#122436"/>
<path d="M38.8266 22.0568H37.8442V23.0757H38.8266V22.0568Z" fill="#122436"/>
<path d="M49.6325 22.0568H48.6501V23.0757H49.6325V22.0568Z" fill="#122436"/>
<path d="M40.9877 22.0568H40.0054V23.0757H40.9877V22.0568Z" fill="#122436"/>
<path d="M58.3079 23.0757V22.0568H58.3058H57.2951H56.1163H55.1339H53.9551H52.9727H51.7939H51.0202H50.8115V23.0757H51.0202H51.7939H52.9727H53.9551H55.1339H56.1163H57.2931V29.5948H58.3058V29.556H58.3079V28.5738H58.3058V27.3959H58.3079V26.4137H58.3058V25.2358H58.3079V24.2536H58.3058V23.0757H58.3079Z" fill="#122436"/>
<path d="M58.3079 37.2142H57.2952V38.1965H58.3079V37.2142Z" fill="#122436"/>
<path d="M58.3079 35.0542H57.2952V36.0364H58.3079V35.0542Z" fill="#122436"/>
<path d="M58.3079 30.7339H57.2952V31.7161H58.3079V30.7339Z" fill="#122436"/>
<path d="M58.3079 32.894H57.2952V33.8763H58.3079V32.894Z" fill="#122436"/>
<path d="M58.3079 39.3744H57.2952V40.3566H58.3079V39.3744Z" fill="#122436"/>
<path d="M58.3079 50.1749H57.2952V51.1572H58.3079V50.1749Z" fill="#122436"/>
<path d="M58.3079 45.8547H57.2952V46.837H58.3079V45.8547Z" fill="#122436"/>
<path d="M58.3079 48.0149H57.2952V48.9971H58.3079V48.0149Z" fill="#122436"/>
<path d="M58.3079 43.6946H57.2952V44.6768H58.3079V43.6946Z" fill="#122436"/>
<path d="M58.3079 41.5345H57.2952V42.5168H58.3079V41.5345Z" fill="#122436"/>
<path d="M31.3607 22.0568H30.1819H29.1995H28.0207H27.4394H27.0383V23.0757H27.4394H28.0207H29.1995H30.1819H31.3607H32.1972H32.3431V22.0568H32.1972H31.3607Z" fill="#122436"/>
<path d="M27.5792 52.3311H21.5372V42.3293V41.5345H20.5244V42.5168V43.6947V44.6769V45.8548V46.837V48.0149V48.9971V50.175V51.1573V52.3351V53.354H21.5372V53.35H22.716V53.354H23.6984V53.35H24.8772V53.354H25.8595V53.35H27.0384V53.354H28.0207V52.3351H27.5792V52.3311Z" fill="#122436"/>
<path d="M19.7829 27.3511H22.2783V25.4844H19.7829V27.3511Z" fill="#FFB840"/>
<path d="M22.2784 25.4844H19.783V26.4157H22.2784V25.4844Z" fill="white"/>
<path d="M19.866 21.3252H25.6285V23.8053H23.0116C22.8171 23.8053 22.6306 23.883 22.4931 24.0213C22.3556 24.1597 22.2783 24.3473 22.2783 24.543V25.4804H19.7829V24.1619C19.5605 24.0744 19.3616 23.9355 19.2025 23.7564C19.0433 23.5772 18.9283 23.3629 18.8668 23.1308C18.8053 22.8986 18.7989 22.6551 18.8483 22.42C18.8977 22.185 19.0014 21.9649 19.151 21.7776L19.2928 21.6003C19.3617 21.5142 19.449 21.4447 19.5482 21.3971C19.6474 21.3495 19.756 21.3249 19.866 21.3252Z" fill="#5084FC"/>
<path d="M19.293 22.8414L19.1512 23.0207C19.0696 23.1235 19.0015 23.2366 18.9486 23.3569C18.8351 23.1003 18.7939 22.8172 18.8296 22.5387C18.8654 22.2601 18.9766 21.9968 19.1512 21.7776L19.293 21.6003C19.3619 21.5142 19.4492 21.4447 19.5484 21.3971C19.6476 21.3495 19.7562 21.3249 19.8662 21.3252H25.6287V22.5662H19.8662C19.7562 22.5659 19.6476 22.5905 19.5484 22.6381C19.4492 22.6857 19.3619 22.7552 19.293 22.8414Z" fill="white"/>
<path d="M25.6287 23.8053H27.4395V21.3232H25.6287V23.8053Z" fill="#FFB840"/>
<path d="M27.4394 21.3252H25.6287V22.5662H27.4394V21.3252Z" fill="white"/>
<path d="M25.0169 23.8053L26.2139 26.6909C26.2488 26.7773 26.2621 26.871 26.2524 26.9638C26.2428 27.0565 26.2107 27.1455 26.1589 27.2228C26.1071 27.3001 26.0371 27.3634 25.9552 27.4071C25.8733 27.4508 25.782 27.4736 25.6893 27.4734C25.5802 27.4733 25.4735 27.4415 25.3818 27.3819C25.2902 27.3222 25.2177 27.2373 25.1728 27.1372L23.6902 23.8053H25.0169Z" fill="#FFB840"/>
<path d="M21.0307 27.3552C21.9654 27.3552 22.8618 27.7288 23.5228 28.3938C24.1837 29.0588 24.555 29.9607 24.555 30.9011V42.0155H17.5063V30.895C17.508 29.9556 17.88 29.0553 18.5408 28.3916C19.2015 27.728 20.097 27.3552 21.0307 27.3552Z" fill="#5084FC"/>
<path d="M21.0308 27.349C20.5678 27.3487 20.1093 27.4403 19.6814 27.6183C19.2536 27.7964 18.8648 28.0575 18.5374 28.3868C18.2099 28.7161 17.9501 29.1071 17.7729 29.5374C17.5956 29.9678 17.5044 30.429 17.5044 30.8949V32.3213C17.5044 31.3809 17.8757 30.479 18.5367 29.814C19.1976 29.1491 20.094 28.7755 21.0287 28.7755C21.9635 28.7755 22.8599 29.1491 23.5208 29.814C24.1818 30.479 24.5531 31.3809 24.5531 32.3213V30.8949C24.5531 29.9548 24.1821 29.0532 23.5215 28.3883C22.861 27.7234 21.9651 27.3495 21.0308 27.349Z" fill="white"/>
<path d="M27.9457 24.3167V20.8157H19.8661C19.6806 20.8148 19.4974 20.8561 19.3301 20.9366C19.1628 21.0171 19.0157 21.1346 18.8999 21.2803L18.7561 21.4596C18.5756 21.6853 18.4449 21.9471 18.3729 22.2276C18.3008 22.508 18.289 22.8007 18.3383 23.0861C18.3876 23.3715 18.4967 23.6431 18.6585 23.8827C18.8203 24.1223 19.0311 24.3245 19.2766 24.4757V27.2492C18.5953 27.5805 18.0203 28.0982 17.6177 28.7429C17.2151 29.3877 17.001 30.1334 17 30.8949V42.5106H25.0614V30.8949C25.0604 30.1334 24.8463 29.3877 24.4437 28.7429C24.0411 28.0982 23.4662 27.5805 22.7848 27.2492V24.5449C22.7848 24.4844 22.8087 24.4264 22.8512 24.3836C22.8938 24.3408 22.9515 24.3167 23.0116 24.3167H23.3621L24.711 27.349C24.8289 27.6031 25.0406 27.801 25.3011 27.9007C25.5617 28.0004 25.8506 27.994 26.1065 27.8829C26.3624 27.7718 26.5652 27.5647 26.6719 27.3056C26.7786 27.0465 26.7807 26.7558 26.6778 26.4952L25.7764 24.3167H27.9457ZM24.0487 30.8949V41.4917H18.0127V30.8949C18.0127 30.0896 18.3307 29.3173 18.8967 28.7478C19.4627 28.1784 20.2303 27.8585 21.0307 27.8585C21.8311 27.8585 22.5988 28.1784 23.1648 28.7478C23.7307 29.3173 24.0487 30.0896 24.0487 30.8949ZM21.772 26.8396H20.2894V25.9918H21.772V26.8396ZM21.772 24.5449V24.9729H20.2894V23.8052L19.9673 23.6789C19.8189 23.6208 19.6861 23.5283 19.5798 23.4089C19.4735 23.2895 19.3967 23.1466 19.3557 22.9917C19.3146 22.8368 19.3105 22.6744 19.3436 22.5176C19.3766 22.3608 19.446 22.2141 19.546 22.0893L19.6878 21.91C19.7096 21.8837 19.7369 21.8626 19.7677 21.8482C19.7985 21.8337 19.8321 21.8263 19.8661 21.8265H25.1323V23.2896H22.9083C22.5966 23.3163 22.3063 23.4605 22.0956 23.6932C21.885 23.926 21.7694 24.2302 21.772 24.5449ZM25.7359 26.9415C25.7312 26.9497 25.7244 26.9564 25.7162 26.9611C25.708 26.9658 25.6988 26.9681 25.6893 26.9679C25.6781 26.968 25.6672 26.9648 25.6578 26.9586C25.6484 26.9525 25.6411 26.9437 25.6367 26.9333L24.472 24.3167H24.6746L25.738 26.8864C25.7424 26.895 25.7446 26.9046 25.7443 26.9142C25.7439 26.9239 25.741 26.9333 25.7359 26.9415ZM26.141 21.8346H26.9391V23.2978H26.1349L26.141 21.8346Z" fill="#122436"/>
<path d="M42.3044 56.7816C50.8631 56.7816 57.8014 49.801 57.8014 41.1901C57.8014 32.5791 50.8631 25.5985 42.3044 25.5985C33.7456 25.5985 26.8074 32.5791 26.8074 41.1901C26.8074 49.801 33.7456 56.7816 42.3044 56.7816Z" fill="#5084FC"/>
<path d="M42.3044 56.7816C50.8631 56.7816 57.8014 49.801 57.8014 41.1901C57.8014 32.5791 50.8631 25.5985 42.3044 25.5985C33.7456 25.5985 26.8074 32.5791 26.8074 41.1901C26.8074 49.801 33.7456 56.7816 42.3044 56.7816Z" fill="#5084FC"/>
<path d="M42.3044 51.9479C48.2097 51.9479 52.9969 47.1315 52.9969 41.1902C52.9969 35.2488 48.2097 30.4324 42.3044 30.4324C36.399 30.4324 31.6118 35.2488 31.6118 41.1902C31.6118 47.1315 36.399 51.9479 42.3044 51.9479Z" fill="#FFB840"/>
<path d="M42.3045 27.8177C46.223 27.8181 49.996 29.3121 52.8635 31.999C55.7311 34.6859 57.4803 38.3662 57.7589 42.2987C57.7853 41.9318 57.8015 41.563 57.8015 41.1901C57.7357 37.0991 56.0743 33.1981 53.1756 30.3285C50.2769 27.4589 46.3732 25.8506 42.3065 25.8506C38.2398 25.8506 34.3361 27.4589 31.4374 30.3285C28.5387 33.1981 26.8773 37.0991 26.8115 41.1901C26.8115 41.563 26.8277 41.9318 26.8541 42.2987C27.1327 38.3669 28.8813 34.6872 31.748 32.0004C34.6147 29.3136 38.3866 27.8191 42.3045 27.8177Z" fill="white"/>
<path d="M42.3045 49.3252C46.7701 49.3252 50.3902 45.683 50.3902 41.1901C50.3902 36.6973 46.7701 33.0551 42.3045 33.0551C37.8389 33.0551 34.2188 36.6973 34.2188 41.1901C34.2188 45.683 37.8389 49.3252 42.3045 49.3252Z" fill="white"/>
<path d="M42.3045 43.984C43.8382 43.984 45.0815 42.7331 45.0815 41.1901C45.0815 39.6471 43.8382 38.3962 42.3045 38.3962C40.7709 38.3962 39.5276 39.6471 39.5276 41.1901C39.5276 42.7331 40.7709 43.984 42.3045 43.984Z" fill="#FFB840"/>
<path d="M39.5274 41.19C39.5272 40.6955 39.6587 40.21 39.9082 39.7839L34.5325 38.9443C34.1155 40.4093 34.1155 41.9626 34.5325 43.4276L39.9082 42.59C39.66 42.1656 39.5286 41.6824 39.5274 41.19Z" fill="#FFB840"/>
<path d="M42.3043 38.3963C42.7959 38.3958 43.2785 38.5281 43.7019 38.7794L44.5364 33.3832C43.0807 32.9608 41.536 32.9608 40.0803 33.3832L40.9148 38.7896C41.335 38.5364 41.8146 38.4007 42.3043 38.3963Z" fill="#FFB840"/>
<path d="M42.3044 43.9799C41.8128 43.98 41.3303 43.8478 40.9068 43.5968L40.0723 49.0052C41.5283 49.4248 43.0723 49.4248 44.5283 49.0052L43.6938 43.5968C43.2728 43.8466 42.7931 43.9789 42.3044 43.9799Z" fill="#FFB840"/>
<path d="M50.0763 38.9443L44.7007 39.7839C44.95 40.2104 45.0815 40.6963 45.0815 41.1911C45.0815 41.6859 44.95 42.1717 44.7007 42.5982L50.0763 43.4357C50.4934 41.9708 50.4934 40.4175 50.0763 38.9525V38.9443Z" fill="#FFB840"/>
<path d="M42.3043 25.0891C39.1396 25.0891 36.0459 26.0333 33.4145 27.8023C30.7831 29.5713 28.7321 32.0856 27.521 35.0273C26.3099 37.969 25.993 41.206 26.6104 44.3288C27.2279 47.4517 28.7518 50.3203 30.9897 52.5718C33.2275 54.8233 36.0787 56.3566 39.1826 56.9777C42.2866 57.5989 45.5039 57.2801 48.4278 56.0616C51.3517 54.8431 53.8507 52.7797 55.609 50.1322C57.3672 47.4847 58.3057 44.3722 58.3057 41.1881C58.3009 36.9199 56.6135 32.8278 53.6137 29.8098C50.6139 26.7917 46.5467 25.094 42.3043 25.0891ZM42.3043 56.2682C39.3399 56.2682 36.442 55.3837 33.9771 53.7267C31.5122 52.0697 29.5911 49.7145 28.4567 46.959C27.3222 44.2035 27.0254 41.1714 27.6037 38.2461C28.1821 35.3209 29.6096 32.6339 31.7058 30.5249C33.802 28.4159 36.4727 26.9797 39.3802 26.3978C42.2877 25.8159 45.3014 26.1146 48.0402 27.2559C50.779 28.3973 53.1199 30.3302 54.7669 32.8101C56.4139 35.29 57.2929 38.2055 57.2929 41.1881C57.2892 45.1868 55.709 49.0207 52.899 51.8486C50.089 54.6765 46.2788 56.2674 42.3043 56.2722V56.2682Z" fill="#122436"/>
<path d="M42.3044 29.9188C40.0895 29.9188 37.9243 30.5796 36.0826 31.8177C34.241 33.0558 32.8056 34.8155 31.9579 36.8743C31.1103 38.9331 30.8885 41.1986 31.3207 43.3842C31.7528 45.5698 32.8194 47.5775 34.3856 49.1532C35.9518 50.729 37.9472 51.8021 40.1196 52.2368C42.292 52.6716 44.5437 52.4484 46.59 51.5957C48.6364 50.7429 50.3854 49.2987 51.616 47.4458C52.8465 45.5929 53.5033 43.4145 53.5033 41.1861C53.4996 38.199 52.3185 35.3353 50.2191 33.2231C48.1197 31.1109 45.2734 29.9226 42.3044 29.9188ZM42.3044 51.4344C40.2898 51.4344 38.3204 50.8333 36.6453 49.7072C34.9701 48.5811 33.6646 46.9806 32.8936 45.1079C32.1226 43.2353 31.9209 41.1747 32.3139 39.1867C32.707 37.1987 33.6771 35.3727 35.1017 33.9394C36.5262 32.5062 38.3412 31.5301 40.3172 31.1347C42.2931 30.7392 44.3412 30.9422 46.2025 31.7179C48.0638 32.4935 49.6546 33.8071 50.7739 35.4924C51.8932 37.1777 52.4906 39.1591 52.4906 41.1861C52.4884 43.9038 51.4147 46.5097 49.505 48.4318C47.5953 50.3539 45.0057 51.4352 42.3044 51.4385V51.4344Z" fill="#122436"/>
<path d="M50.8073 42.4168C50.8073 42.3924 50.8073 42.3659 50.8175 42.3394C50.8377 42.1845 50.8559 42.0276 50.8681 41.8707C50.8681 41.8259 50.8681 41.7831 50.8782 41.7382C50.8782 41.5569 50.8965 41.3755 50.8965 41.1901C50.8965 41.0046 50.8965 40.8232 50.8782 40.6419C50.8782 40.597 50.8782 40.5542 50.8681 40.5094C50.8559 40.3525 50.8377 40.1956 50.8175 40.0407C50.8175 40.0142 50.8175 39.9898 50.8073 39.9633C50.7542 39.5861 50.6757 39.213 50.5724 38.8465C50.5724 38.8323 50.5724 38.818 50.5724 38.8037L50.4488 38.3717H50.4367C50.0091 37.1327 49.308 36.0074 48.3861 35.0802C47.4641 34.1529 46.3453 33.448 45.1137 33.0183V33.004L44.6843 32.8797H44.6478C44.2757 32.7727 43.8967 32.6917 43.5136 32.6372H43.4953C43.313 32.6128 43.1287 32.5924 42.9424 32.5802H42.8897C42.6993 32.5679 42.5069 32.5577 42.3124 32.5577C42.118 32.5577 41.9256 32.5577 41.7352 32.5802H41.6825C41.4962 32.5944 41.3118 32.6128 41.1296 32.6372H41.1113C40.728 32.69 40.349 32.7704 39.9771 32.8777H39.9406L39.5112 33.002V33.0163C38.2796 33.446 37.1608 34.1509 36.2388 35.0781C35.3169 36.0053 34.6158 37.1307 34.1882 38.3697H34.1761L34.0525 38.8017V38.8425C33.9494 39.2105 33.8703 39.5849 33.8155 39.9633C33.8155 39.9877 33.8155 40.0122 33.8155 40.0366C33.7953 40.1915 33.777 40.3505 33.7649 40.5094C33.7649 40.5522 33.7649 40.595 33.7649 40.6398C33.7527 40.8212 33.7446 41.0046 33.7446 41.188C33.7446 41.3714 33.7446 41.5548 33.7649 41.7382C33.7649 41.781 33.7649 41.8238 33.7649 41.8666C33.777 42.0256 33.7953 42.1845 33.8155 42.3414C33.8155 42.3659 33.8155 42.3903 33.8155 42.4148C33.8705 42.7931 33.9497 43.1675 34.0525 43.5356C34.0525 43.5478 34.0525 43.5621 34.0525 43.5743L34.1761 44.0064H34.1882C34.616 45.2454 35.3172 46.3709 36.2391 47.2984C37.161 48.2259 38.2796 48.9314 39.5112 49.3618V49.374L39.9406 49.4984H39.9811C40.346 49.6028 40.7175 49.6824 41.0931 49.7368H41.168C41.322 49.7592 41.48 49.7755 41.638 49.7877H41.7676C41.9479 49.7979 42.1281 49.8061 42.3124 49.8061C42.4968 49.8061 42.677 49.8061 42.8593 49.7877H42.9869C43.1449 49.7755 43.3029 49.7592 43.4568 49.7368H43.5318C43.9078 49.6815 44.2799 49.6018 44.6458 49.4984H44.6843L45.1137 49.374V49.3618C46.3452 48.9314 47.4639 48.2259 48.3858 47.2984C49.3077 46.3709 50.0088 45.2454 50.4367 44.0064H50.4488L50.5724 43.5743C50.5724 43.5601 50.5724 43.5458 50.5724 43.5315C50.6756 43.1657 50.7541 42.7933 50.8073 42.4168ZM49.8716 41.6017C49.8716 41.6262 49.8716 41.6506 49.8716 41.6751C49.8716 41.7892 49.8554 41.9033 49.8432 42.0154C49.8432 42.0398 49.8432 42.0623 49.8432 42.0847C49.831 42.2008 49.8148 42.3149 49.7966 42.4291L49.7845 42.4922C49.7642 42.6064 49.744 42.7225 49.7176 42.8346V42.8611L45.4519 42.1947C45.4661 42.1499 45.4783 42.101 45.4904 42.0521L45.5269 41.9135C45.537 41.8687 45.5451 41.8218 45.5532 41.777C45.5613 41.7321 45.5714 41.6608 45.5796 41.6017C45.5877 41.5426 45.5897 41.5263 45.5937 41.4896C45.5937 41.3898 45.6079 41.2858 45.6079 41.1901C45.6079 41.0943 45.6079 40.9863 45.5937 40.8925C45.5937 40.8538 45.5836 40.8171 45.5796 40.7784C45.5755 40.7397 45.5633 40.6623 45.5532 40.6052C45.5431 40.5481 45.537 40.5115 45.5249 40.4666C45.5127 40.4218 45.5026 40.377 45.4925 40.3321C45.4823 40.2873 45.4661 40.2323 45.4519 40.1854L49.7176 39.519V39.5455C49.744 39.6596 49.7642 39.7738 49.7845 39.8879L49.7966 39.951C49.8148 40.0652 49.831 40.1813 49.8432 40.2954C49.8432 40.3179 49.8432 40.3423 49.8432 40.3647C49.8554 40.4768 49.8635 40.5909 49.8716 40.705C49.8716 40.7295 49.8716 40.754 49.8716 40.7784C49.8716 40.9149 49.8837 41.0535 49.8837 41.186C49.8837 41.3184 49.8797 41.4652 49.8716 41.6017ZM49.4077 38.5327L44.9516 39.2296C44.7567 38.9663 44.5247 38.7329 44.263 38.5368L44.9557 34.0433C45.9733 34.4285 46.8971 35.0285 47.665 35.8029C48.4329 36.5772 49.0272 37.508 49.4077 38.5327ZM43.9389 48.6343C43.8214 48.6608 43.7019 48.6832 43.5824 48.7036H43.5358C43.4103 48.724 43.2826 48.7423 43.155 48.7566H43.1307C42.5794 48.8177 42.0232 48.8177 41.4719 48.7566H41.4374C41.3139 48.7423 41.1903 48.726 41.0668 48.7056H41.0121C40.8946 48.6853 40.7791 48.6628 40.6637 48.6363H40.6394L41.3017 44.3446C41.3524 44.3609 41.405 44.3732 41.4577 44.3874L41.5752 44.418C41.6278 44.4302 41.6825 44.4404 41.7352 44.4486L41.8608 44.4689C41.9154 44.4689 41.9701 44.4832 42.0248 44.4873H42.1626C42.2071 44.4873 42.2537 44.4873 42.3003 44.4873C42.3469 44.4873 42.3914 44.4873 42.438 44.4873H42.5758C42.6304 44.4873 42.6851 44.4751 42.7398 44.4689L42.8654 44.4486C42.9201 44.4486 42.9727 44.4302 43.0254 44.418L43.1449 44.3874C43.1976 44.3732 43.2482 44.3609 43.2989 44.3446L43.9612 48.6363L43.9389 48.6343ZM44.5466 41.4672C44.5466 41.4896 44.5466 41.508 44.5364 41.5304C44.5248 41.6072 44.5092 41.6834 44.4898 41.7586C44.4874 41.7731 44.484 41.7874 44.4797 41.8014C44.4276 41.9879 44.3527 42.1673 44.2569 42.3353C44.0571 42.6809 43.7707 42.9676 43.4263 43.1669C43.0819 43.3663 42.6915 43.4712 42.2942 43.4712C41.8969 43.4712 41.5065 43.3663 41.1621 43.1669C40.8177 42.9676 40.5313 42.6809 40.3315 42.3353C40.2349 42.1677 40.16 41.9882 40.1087 41.8014C40.1044 41.7874 40.101 41.7731 40.0986 41.7586C40.079 41.6827 40.0634 41.6059 40.052 41.5283C40.052 41.508 40.052 41.4876 40.0419 41.4672C40.0307 41.3752 40.0246 41.2827 40.0236 41.1901C40.0247 41.0974 40.0308 41.0049 40.0419 40.9129C40.0419 40.8925 40.0419 40.8721 40.052 40.8518C40.0634 40.7742 40.079 40.6974 40.0986 40.6215C40.101 40.607 40.1044 40.5927 40.1087 40.5787C40.1596 40.3924 40.2345 40.2136 40.3315 40.0468C40.5554 39.6582 40.8882 39.3446 41.2884 39.1454C41.6886 38.9462 42.1383 38.8702 42.5811 38.927C43.024 38.9838 43.4404 39.1708 43.7781 39.4646C44.1159 39.7584 44.3599 40.146 44.4797 40.5787C44.484 40.5927 44.4874 40.607 44.4898 40.6215C44.5094 40.6974 44.525 40.7742 44.5364 40.8518C44.5364 40.8721 44.5364 40.8925 44.5466 40.9129C44.5577 41.0049 44.5638 41.0974 44.5648 41.1901C44.5672 41.2825 44.5645 41.375 44.5567 41.4672H44.5466ZM40.6576 33.7458C40.7751 33.7193 40.8905 33.6969 41.0101 33.6765H41.0587C41.1842 33.6541 41.3118 33.6378 41.4395 33.6235H41.4638C42.0157 33.5624 42.5727 33.5624 43.1247 33.6235H43.149C43.2766 33.6378 43.4042 33.6541 43.5298 33.6765H43.5784C43.6958 33.6969 43.8154 33.7193 43.9328 33.7458H43.9551L43.2928 38.0395C43.2421 38.0232 43.1915 38.009 43.1388 37.9967L43.0193 37.9641C42.9667 37.9519 42.914 37.9438 42.8593 37.9336L42.7337 37.9132C42.6791 37.9132 42.6244 37.8989 42.5697 37.8949H42.4319C42.3854 37.8949 42.3408 37.8949 42.2942 37.8949C42.2476 37.8949 42.201 37.8949 42.1565 37.8949H42.0187C41.9641 37.8949 41.9094 37.9071 41.8547 37.9132L41.7291 37.9336C41.6764 37.9336 41.6217 37.9519 41.5691 37.9641L41.4496 37.9947C41.3989 38.009 41.3463 38.0212 41.2956 38.0395L40.6333 33.7458H40.6576ZM39.6449 34.0433L40.3376 38.5368C40.0758 38.7329 39.8438 38.9663 39.6489 39.2296L35.1929 38.5327C35.5754 37.5062 36.1724 36.5743 36.9436 35.7998C37.7148 35.0253 38.6421 34.4263 39.6631 34.0433H39.6449ZM39.1203 40.328L39.0838 40.4666C39.0838 40.5135 39.0656 40.5583 39.0575 40.6032C39.0494 40.648 39.0393 40.7214 39.0312 40.7804C39.023 40.8395 39.021 40.8538 39.017 40.8905C39.017 40.9903 39.0028 41.0943 39.0028 41.1901C39.0028 41.2858 39.0028 41.3938 39.017 41.4896C39.017 41.5263 39.017 41.563 39.0312 41.6017C39.0453 41.6404 39.0474 41.7179 39.0575 41.777C39.0676 41.8361 39.0737 41.8687 39.0838 41.9135L39.1203 42.05C39.1324 42.0989 39.1446 42.1478 39.1588 42.1947L34.8931 42.8611V42.8387C34.8667 42.7225 34.8445 42.6064 34.8242 42.4882C34.8252 42.4692 34.8252 42.4501 34.8242 42.4311C34.806 42.3149 34.7898 42.1988 34.7776 42.0826C34.7776 42.0602 34.7776 42.0378 34.7675 42.0174C34.7553 41.9033 34.7472 41.7892 34.7391 41.6751C34.7391 41.6506 34.7391 41.6262 34.7391 41.6017C34.7391 41.4652 34.727 41.3286 34.727 41.1941C34.727 41.0596 34.727 40.919 34.7391 40.7866C34.7391 40.7621 34.7391 40.7377 34.7391 40.7132C34.7391 40.5991 34.7553 40.485 34.7675 40.3729C34.7675 40.3505 34.7675 40.328 34.7776 40.3056C34.7898 40.1895 34.806 40.0733 34.8242 39.9592L34.8364 39.8981C34.8546 39.7819 34.8769 39.6657 34.9032 39.5516V39.5272L39.177 40.1854C39.1628 40.2323 39.1507 40.2812 39.1385 40.328H39.1203ZM35.201 43.8474L39.657 43.1505C39.8519 43.4138 40.0839 43.6472 40.3457 43.8433L39.653 48.3266C38.6364 47.9425 37.7132 47.3441 36.9454 46.5715C36.1775 45.799 35.5827 44.8702 35.201 43.8474ZM44.9456 48.3307L44.2529 43.8474C44.5146 43.6513 44.7466 43.4179 44.9415 43.1545L49.3976 43.8515C49.0165 44.8754 48.4221 45.8054 47.6542 46.579C46.8863 47.3527 45.9628 47.952 44.9456 48.3368V48.3307Z" fill="#122436"/>
<path d="M64.4956 44.9662C64.4956 44.1993 64.1928 43.4638 63.6538 42.9215C63.1148 42.3792 62.3837 42.0745 61.6214 42.0745H61.589C61.6091 41.9396 61.6199 41.8034 61.6214 41.667C61.6214 40.9 61.3186 40.1645 60.7796 39.6222C60.2406 39.0799 59.5096 38.7753 58.7473 38.7753C57.985 38.7753 57.2539 39.0799 56.7149 39.6222C56.1759 40.1645 55.8731 40.9 55.8731 41.667C55.1238 41.687 54.4118 42.0005 53.8889 42.5408C53.3659 43.0811 53.0732 43.8055 53.0732 44.5597C53.0732 45.3139 53.3659 46.0382 53.8889 46.5785C54.4118 47.1189 55.1238 47.4324 55.8731 47.4524C55.946 47.4524 56.0169 47.4524 56.0878 47.4402C56.2402 47.8108 56.4672 48.1457 56.7544 48.4238C57.0416 48.7019 57.3829 48.9172 57.7568 49.0562C57.7568 49.1153 57.7568 49.1744 57.7568 49.2355C57.7562 49.6923 57.8632 50.1427 58.069 50.5499C58.2748 50.9571 58.5735 51.3094 58.9408 51.578C59.308 51.8467 59.7332 52.0239 60.1816 52.0954C60.6301 52.1668 61.089 52.1303 61.5207 51.9889C61.9524 51.8475 62.3447 51.6052 62.6654 51.2819C62.9861 50.9585 63.2261 50.5634 63.3658 50.1287C63.5054 49.6941 63.5408 49.2324 63.4689 48.7813C63.397 48.3303 63.2199 47.9028 62.9522 47.5339C63.4185 47.2891 63.809 46.9202 64.0811 46.4674C64.3533 46.0147 64.4967 45.4954 64.4956 44.9662Z" fill="white"/>
<path d="M60.6208 52.6347C59.7509 52.6335 58.9149 52.2954 58.2862 51.6906C57.6575 51.0858 57.2844 50.2606 57.2443 49.3864C56.6197 49.0739 56.1057 48.576 55.7718 47.9599C54.9248 47.9355 54.1178 47.5919 53.5107 46.9973C52.9035 46.4027 52.5404 45.6004 52.4933 44.7493C52.4461 43.8981 52.7184 43.0602 53.2562 42.4014C53.794 41.7427 54.558 41.3111 55.3971 41.1922C55.5137 40.3437 55.9443 39.5708 56.6028 39.0279C57.2612 38.4849 58.099 38.2119 58.9488 38.2634C59.7986 38.3148 60.5979 38.687 61.1868 39.3055C61.7757 39.924 62.1111 40.7433 62.1257 41.5998C62.7857 41.7004 63.4012 41.9954 63.8948 42.4475C64.3884 42.8996 64.7379 43.4886 64.8993 44.1402C65.0606 44.7918 65.0267 45.4769 64.8016 46.1092C64.5766 46.7414 64.1706 47.2925 63.6347 47.6929C63.8765 48.1692 64.0022 48.6966 64.0013 49.2315C64.0008 50.1336 63.6445 50.9986 63.0107 51.6366C62.3769 52.2746 61.5174 52.6336 60.6208 52.6347ZM56.3936 46.9043L56.5455 47.2446C56.6711 47.5502 56.8584 47.8262 57.0954 48.0553C57.3325 48.2843 57.6143 48.4614 57.9228 48.5753L58.2773 48.7057L58.251 49.1296C58.2489 49.1642 58.2489 49.1989 58.251 49.2335C58.2505 49.6099 58.3386 49.9809 58.5082 50.3164C58.6777 50.6518 58.9238 50.9421 59.2264 51.1634C59.5289 51.3847 59.8792 51.5308 60.2487 51.5896C60.6181 51.6484 60.9962 51.6183 61.3518 51.5018C61.7075 51.3853 62.0307 51.1856 62.2949 50.9193C62.5591 50.6529 62.7568 50.3273 62.8718 49.9692C62.9868 49.6111 63.0159 49.2307 62.9566 48.8591C62.8974 48.4875 62.7514 48.1354 62.5308 47.8315L62.1824 47.3526L62.705 47.0795C63.1757 46.8352 63.5512 46.4391 63.7716 45.9546C63.992 45.4701 64.0444 44.9252 63.9204 44.4072C63.7965 43.8892 63.5034 43.428 63.088 43.0974C62.6727 42.7669 62.1591 42.5861 61.6295 42.584H61.589H61.0016L61.0846 41.9971C61.1289 41.6744 61.1069 41.346 61.0199 41.0321C60.933 40.7183 60.7829 40.4258 60.579 40.1727C60.3751 39.9196 60.1217 39.7113 59.8345 39.5608C59.5474 39.4102 59.2326 39.3205 58.9096 39.2973C58.5866 39.2741 58.2623 39.3179 57.9568 39.4259C57.6513 39.5339 57.3711 39.7038 57.1335 39.9252C56.8959 40.1466 56.7061 40.4147 56.5757 40.7129C56.4453 41.0111 56.3771 41.3331 56.3754 41.6589V42.1683H55.869C55.2527 42.1864 54.6678 42.4455 54.2382 42.8905C53.8087 43.3354 53.5684 43.9313 53.5684 44.5516C53.5684 45.1719 53.8087 45.7677 54.2382 46.2127C54.6678 46.6577 55.2527 46.9167 55.869 46.9348C55.9237 46.9348 55.9784 46.9348 56.0331 46.9246L56.3936 46.9043Z" fill="#122436"/>
<path d="M48.2918 59.1802C47.8185 58.7046 47.4582 58.1276 47.2377 57.4923C47.0172 56.857 46.9422 56.1797 47.0184 55.5112C47.0945 54.8426 47.3198 54.2 47.6775 53.6313C48.0351 53.0626 48.5158 52.5826 49.0837 52.2271L50.4469 51.3732C51.0211 51.0123 51.5059 50.5244 51.8647 49.9467L52.7114 48.5773C53.065 48.006 53.5423 47.5225 54.1076 47.1627C54.673 46.803 55.3117 46.5762 55.9763 46.4994C56.6408 46.4226 57.314 46.4978 57.9457 46.7192C58.5773 46.9407 59.1512 47.3028 59.6244 47.7784C60.0957 48.2549 60.4542 48.8322 60.6732 49.4674C60.8922 50.1025 60.966 50.7792 60.8891 51.447C60.8122 52.1148 60.5866 52.7566 60.2291 53.3245C59.8716 53.8925 59.3914 54.3721 58.8243 54.7275L57.4632 55.5814C56.8887 55.9419 56.4037 56.4298 56.0453 57.0079L55.1966 58.3793C54.8435 58.9499 54.3669 59.433 53.8024 59.7925C53.2378 60.152 52.5999 60.3787 51.9362 60.4557C51.2725 60.5327 50.6001 60.4579 49.9691 60.2371C49.338 60.0163 48.7647 59.655 48.2918 59.1802Z" fill="#FFB840"/>
<path d="M49.0736 54.1976L50.4367 53.3458C51.0106 52.9845 51.4954 52.4967 51.8545 51.9193L52.7012 50.5478C53.0551 49.9767 53.5325 49.4934 54.0979 49.1338C54.6633 48.7742 55.302 48.5477 55.9666 48.4711C56.6311 48.3945 57.3043 48.4698 57.9359 48.6914C58.5674 48.913 59.1411 49.2753 59.6142 49.751C60.2114 50.347 60.6274 51.102 60.8133 51.9275C60.9796 51.1914 60.9573 50.425 60.7486 49.7C60.54 48.975 60.1517 48.3152 59.6203 47.7825C59.1471 47.3068 58.5733 46.9447 57.9416 46.7233C57.3099 46.5018 56.6367 46.4267 55.9722 46.5034C55.3076 46.5802 54.6689 46.807 54.1036 47.1668C53.5382 47.5265 53.061 48.0101 52.7073 48.5813L51.8606 49.9507C51.5019 50.5284 51.017 51.0163 50.4428 51.3772L49.0796 52.2311C48.2957 52.7219 47.6834 53.4462 47.3276 54.3034C46.9718 55.1606 46.8904 56.108 47.0947 57.0139C47.2215 56.4355 47.4618 55.8885 47.8016 55.4049C48.1415 54.9212 48.5739 54.5108 49.0736 54.1976Z" fill="white"/>
<path d="M51.4131 61C50.7645 61.0004 50.1222 60.8717 49.5232 60.6212C48.9243 60.3708 48.3805 60.0037 47.9232 59.5409C47.3964 59.0111 46.9954 58.3684 46.7501 57.6608C46.5048 56.9532 46.4215 56.199 46.5064 55.4545C46.5913 54.71 46.8422 53.9944 47.2404 53.3611C47.6387 52.7278 48.1739 52.1932 48.8063 51.7971L50.1694 50.9433C50.6802 50.6223 51.1111 50.1881 51.4293 49.6737L52.2779 48.3043C52.6717 47.6678 53.2033 47.129 53.8329 46.7281C54.4626 46.3272 55.1741 46.0746 55.9144 45.989C56.6547 45.9035 57.4047 45.9873 58.1083 46.2342C58.8119 46.481 59.451 46.8846 59.9779 47.4147C60.5048 47.9448 60.9059 48.5878 61.1513 49.2957C61.3966 50.0036 61.4799 50.7581 61.3949 51.5029C61.3099 52.2477 61.0588 52.9636 60.6603 53.5971C60.2619 54.2307 59.7263 54.7654 59.0937 55.1616L57.7326 56.0155C57.2218 56.3361 56.7903 56.7696 56.4707 57.283L55.6241 58.6524C55.1786 59.3718 54.558 59.9649 53.8212 60.3757C53.0843 60.7865 52.2555 61.0014 51.4131 61ZM56.4869 46.9735C56.3347 46.9736 56.1826 46.9817 56.0312 46.998C55.4426 47.0637 54.8765 47.2629 54.3755 47.5806C53.8745 47.8983 53.4516 48.3262 53.1388 48.8321L52.2901 50.2015C51.8894 50.8482 51.3469 51.394 50.7041 51.7971L49.343 52.651C48.8398 52.9659 48.4137 53.3911 48.0967 53.8949C47.7797 54.3987 47.58 54.968 47.5124 55.5604C47.4448 56.1527 47.5111 56.7528 47.7064 57.3158C47.9017 57.8787 48.2209 58.39 48.6402 58.8114C49.0585 59.2352 49.5668 59.5584 50.1269 59.7566C50.687 59.9548 51.2844 60.0229 51.8744 59.9558C52.4643 59.8888 53.0316 59.6883 53.5336 59.3694C54.0357 59.0506 54.4595 58.6215 54.7734 58.1144L55.622 56.743C56.0216 56.0968 56.5627 55.551 57.2039 55.1473L58.5651 54.2955C59.291 53.8414 59.8502 53.1618 60.1581 52.3595C60.4661 51.5573 60.506 50.6759 60.2719 49.8488C60.0379 49.0217 59.5425 48.2937 58.8607 47.7749C58.1789 47.2562 57.3478 46.9749 56.493 46.9735H56.4869Z" fill="#122436"/>
<path d="M21.9808 54.9129C21.9802 54.7621 22.0093 54.6126 22.0662 54.4731C22.1232 54.3336 22.2069 54.2067 22.3126 54.0997C22.4183 53.9928 22.544 53.9079 22.6824 53.8498C22.8208 53.7918 22.9692 53.7618 23.1191 53.7615C23.2474 53.7675 23.3756 53.7472 23.4959 53.7019C23.6162 53.6567 23.7261 53.5873 23.819 53.4981C23.9119 53.4088 23.9858 53.3015 24.0363 53.1827C24.0869 53.0639 24.1129 52.936 24.1129 52.8068C24.1129 52.6776 24.0869 52.5497 24.0363 52.4309C23.9858 52.3121 23.9119 52.2048 23.819 52.1156C23.7261 52.0263 23.6162 51.957 23.4959 51.9117C23.3756 51.8664 23.2474 51.8461 23.1191 51.8521C22.817 51.8515 22.5275 51.7304 22.3141 51.5153C22.1006 51.3002 21.9808 51.0087 21.9808 50.7048C21.9808 50.4513 21.8807 50.2082 21.7025 50.029C21.5244 49.8497 21.2828 49.749 21.0308 49.749C20.7789 49.749 20.5372 49.8497 20.3591 50.029C20.1809 50.2082 20.0809 50.4513 20.0809 50.7048C20.0809 51.0087 19.961 51.3002 19.7476 51.5153C19.5342 51.7304 19.2446 51.8515 18.9425 51.8521C18.8142 51.8461 18.6861 51.8664 18.5658 51.9117C18.4455 51.957 18.3355 52.0263 18.2427 52.1156C18.1498 52.2048 18.0758 52.3121 18.0253 52.4309C17.9748 52.5497 17.9487 52.6776 17.9487 52.8068C17.9487 52.936 17.9748 53.0639 18.0253 53.1827C18.0758 53.3015 18.1498 53.4088 18.2427 53.4981C18.3355 53.5873 18.4455 53.6567 18.5658 53.7019C18.6861 53.7472 18.8142 53.7675 18.9425 53.7615C19.2446 53.7621 19.5342 53.8832 19.7476 54.0983C19.961 54.3134 20.0809 54.6049 20.0809 54.9089C20.0809 55.1623 20.1809 55.4054 20.3591 55.5847C20.5372 55.7639 20.7789 55.8646 21.0308 55.8646C21.2828 55.8646 21.5244 55.7639 21.7025 55.5847C21.8807 55.4054 21.9808 55.1623 21.9808 54.9089V54.9129Z" fill="#FFB840"/>
<path d="M21.0308 56.3476C20.6556 56.3449 20.2965 56.1938 20.0311 55.9268C19.7658 55.6599 19.6156 55.2986 19.6129 54.9211C19.6129 54.7442 19.5432 54.5745 19.4191 54.4492C19.2949 54.3239 19.1264 54.2532 18.9506 54.2527C18.5724 54.2527 18.2097 54.1015 17.9423 53.8325C17.6749 53.5634 17.5247 53.1985 17.5247 52.818C17.5247 52.4375 17.6749 52.0726 17.9423 51.8036C18.2097 51.5345 18.5724 51.3834 18.9506 51.3834C19.0379 51.3823 19.1242 51.3639 19.2044 51.3292C19.2846 51.2944 19.3572 51.2441 19.418 51.181C19.4788 51.1179 19.5267 51.0434 19.5587 50.9617C19.5908 50.8799 19.6064 50.7926 19.6048 50.7048C19.6048 50.3243 19.7551 49.9594 20.0225 49.6903C20.2899 49.4213 20.6526 49.2701 21.0308 49.2701C21.409 49.2701 21.7717 49.4213 22.0391 49.6903C22.3065 49.9594 22.4567 50.3243 22.4567 50.7048C22.4567 50.8815 22.5265 51.051 22.6507 51.176C22.7749 51.301 22.9434 51.3712 23.1191 51.3712C23.4972 51.3712 23.8599 51.5223 24.1273 51.7914C24.3948 52.0604 24.545 52.4253 24.545 52.8058C24.545 53.1863 24.3948 53.5512 24.1273 53.8202C23.8599 54.0893 23.4972 54.2404 23.1191 54.2404C22.9432 54.241 22.7747 54.3116 22.6506 54.4369C22.5264 54.5622 22.4567 54.7319 22.4567 54.9089C22.457 55.0975 22.4203 55.2844 22.3488 55.4588C22.2773 55.6332 22.1723 55.7917 22.0399 55.9253C21.9075 56.0589 21.7502 56.165 21.5771 56.2374C21.4039 56.3099 21.2183 56.3473 21.0308 56.3476ZM21.0308 50.234C20.906 50.2335 20.786 50.2827 20.6972 50.371C20.6084 50.4592 20.5579 50.5792 20.5568 50.7048C20.5568 51.1372 20.3861 51.5518 20.0822 51.8576C19.7783 52.1633 19.3662 52.3351 18.9364 52.3351C18.8717 52.3308 18.8068 52.3399 18.7458 52.3619C18.6847 52.3839 18.6288 52.4183 18.5814 52.4629C18.5341 52.5075 18.4964 52.5614 18.4706 52.6212C18.4448 52.6811 18.4315 52.7457 18.4315 52.8109C18.4315 52.8761 18.4448 52.9407 18.4706 53.0006C18.4964 53.0604 18.5341 53.1143 18.5814 53.1589C18.6288 53.2035 18.6847 53.2379 18.7458 53.2599C18.8068 53.2819 18.8717 53.291 18.9364 53.2867C19.3662 53.2867 19.7783 53.4585 20.0822 53.7642C20.3861 54.07 20.5568 54.4846 20.5568 54.917C20.5647 55.0378 20.6179 55.1511 20.7058 55.2339C20.7936 55.3167 20.9094 55.3627 21.0298 55.3627C21.1501 55.3627 21.2659 55.3167 21.3538 55.2339C21.4416 55.1511 21.4949 55.0378 21.5027 54.917C21.5027 54.4846 21.6734 54.07 21.9773 53.7642C22.2812 53.4585 22.6934 53.2867 23.1231 53.2867C23.1878 53.291 23.2527 53.2819 23.3138 53.2599C23.3748 53.2379 23.4308 53.2035 23.4781 53.1589C23.5254 53.1143 23.5631 53.0604 23.5889 53.0006C23.6147 52.9407 23.628 52.8761 23.628 52.8109C23.628 52.7457 23.6147 52.6811 23.5889 52.6212C23.5631 52.5614 23.5254 52.5075 23.4781 52.4629C23.4308 52.4183 23.3748 52.3839 23.3138 52.3619C23.2527 52.3399 23.1878 52.3308 23.1231 52.3351C22.6934 52.3351 22.2812 52.1633 21.9773 51.8576C21.6734 51.5518 21.5027 51.1372 21.5027 50.7048C21.5016 50.5796 21.4515 50.4598 21.3631 50.3717C21.2747 50.2835 21.1552 50.234 21.0308 50.234Z" fill="#122436"/>
<path d="M58.7494 24.6673C58.7494 24.3636 58.8693 24.0723 59.0828 23.8575C59.2963 23.6427 59.5858 23.522 59.8877 23.522C60.1397 23.522 60.3813 23.4213 60.5595 23.2421C60.7376 23.0629 60.8377 22.8198 60.8377 22.5663C60.8377 22.3128 60.7376 22.0697 60.5595 21.8905C60.3813 21.7112 60.1397 21.6105 59.8877 21.6105C59.5858 21.6105 59.2963 21.4899 59.0828 21.2751C58.8693 21.0603 58.7494 20.769 58.7494 20.4653C58.7494 20.2118 58.6493 19.9687 58.4712 19.7895C58.293 19.6102 58.0514 19.5095 57.7995 19.5095C57.5475 19.5095 57.3059 19.6102 57.1277 19.7895C56.9496 19.9687 56.8495 20.2118 56.8495 20.4653C56.8495 20.769 56.7296 21.0603 56.5161 21.2751C56.3026 21.4899 56.0131 21.6105 55.7112 21.6105C55.4592 21.6105 55.2176 21.7112 55.0395 21.8905C54.8613 22.0697 54.7612 22.3128 54.7612 22.5663C54.7612 22.8198 54.8613 23.0629 55.0395 23.2421C55.2176 23.4213 55.4592 23.522 55.7112 23.522C56.0131 23.522 56.3026 23.6427 56.5161 23.8575C56.7296 24.0723 56.8495 24.3636 56.8495 24.6673C56.8495 24.9208 56.9496 25.1639 57.1277 25.3431C57.3059 25.5224 57.5475 25.6231 57.7995 25.6231C58.0514 25.6231 58.293 25.5224 58.4712 25.3431C58.6493 25.1639 58.7494 24.9208 58.7494 24.6673Z" fill="#FFB840"/>
<path d="M57.7993 26.1324C57.4132 26.1319 57.0431 25.9773 56.7701 25.7027C56.4971 25.428 56.3435 25.0556 56.343 24.6672C56.3425 24.4984 56.2754 24.3367 56.1566 24.2175C56.0378 24.0983 55.8768 24.0314 55.709 24.0314C55.3228 24.0314 54.9523 23.877 54.6792 23.6022C54.4061 23.3275 54.2527 22.9548 54.2527 22.5662C54.2527 22.1776 54.4061 21.8049 54.6792 21.5301C54.9523 21.2553 55.3228 21.101 55.709 21.101C55.8768 21.101 56.0378 21.034 56.1566 20.9149C56.2754 20.7957 56.3425 20.634 56.343 20.4652C56.3357 20.2683 56.3679 20.0719 56.4378 19.8879C56.5076 19.7038 56.6136 19.5358 56.7495 19.394C56.8854 19.2521 57.0483 19.1392 57.2285 19.0621C57.4087 18.985 57.6025 18.9453 57.7983 18.9453C57.9941 18.9453 58.1879 18.985 58.3681 19.0621C58.5483 19.1392 58.7112 19.2521 58.8471 19.394C58.983 19.5358 59.089 19.7038 59.1588 19.8879C59.2287 20.0719 59.2609 20.2683 59.2536 20.4652C59.2542 20.634 59.3212 20.7957 59.44 20.9149C59.5589 21.034 59.7198 21.101 59.8876 21.101C60.2738 21.101 60.6443 21.2553 60.9174 21.5301C61.1905 21.8049 61.3439 22.1776 61.3439 22.5662C61.3439 22.9548 61.1905 23.3275 60.9174 23.6022C60.6443 23.877 60.2738 24.0314 59.8876 24.0314C59.7198 24.0314 59.5589 24.0983 59.44 24.2175C59.3212 24.3367 59.2542 24.4984 59.2536 24.6672C59.2531 25.0553 59.0998 25.4273 58.8272 25.7019C58.5546 25.9765 58.185 26.1313 57.7993 26.1324ZM57.7993 20.0189C57.6817 20.0189 57.5688 20.0659 57.4857 20.1496C57.4025 20.2333 57.3557 20.3468 57.3557 20.4652C57.3552 20.9042 57.1815 21.3251 56.8727 21.6354C56.5639 21.9456 56.1454 22.1199 55.709 22.1199C55.5914 22.1199 55.4785 22.1669 55.3954 22.2506C55.3122 22.3343 55.2654 22.4478 55.2654 22.5662C55.2654 22.6845 55.3122 22.7981 55.3954 22.8817C55.4785 22.9654 55.5914 23.0125 55.709 23.0125C56.1454 23.0125 56.5639 23.1867 56.8727 23.497C57.1815 23.8073 57.3552 24.2281 57.3557 24.6672C57.3516 24.7282 57.36 24.7894 57.3804 24.847C57.4008 24.9046 57.4327 24.9574 57.4742 25.0021C57.5157 25.0467 57.5659 25.0824 57.6216 25.1067C57.6774 25.1311 57.7375 25.1436 57.7983 25.1436C57.8591 25.1436 57.9192 25.1311 57.975 25.1067C58.0307 25.0824 58.0809 25.0467 58.1224 25.0021C58.1639 24.9574 58.1958 24.9046 58.2162 24.847C58.2366 24.7894 58.245 24.7282 58.2409 24.6672C58.2414 24.2281 58.4151 23.8073 58.7239 23.497C59.0327 23.1867 59.4512 23.0125 59.8876 23.0125C60.0052 23.0125 60.1181 22.9654 60.2013 22.8817C60.2844 22.7981 60.3312 22.6845 60.3312 22.5662C60.3312 22.4478 60.2844 22.3343 60.2013 22.2506C60.1181 22.1669 60.0052 22.1199 59.8876 22.1199C59.4512 22.1199 59.0327 21.9456 58.7239 21.6354C58.4151 21.3251 58.2414 20.9042 58.2409 20.4652C58.2409 20.3471 58.1944 20.2339 58.1117 20.1503C58.0289 20.0667 57.9166 20.0194 57.7993 20.0189Z" fill="#122436"/>
</g>
<defs>
<clipPath id="clip0_29152_288475">
<rect width="48" height="42" fill="white" transform="translate(17 19)"/>
</clipPath>
</defs>
</svg>
