<svg width="165" height="28" viewBox="0 0 165 28" fill="none" xmlns="http://www.w3.org/2000/svg">
<path d="M0.96 21V0.839999H9.024C10.4613 0.839999 11.6233 1.12933 12.51 1.708C13.3967 2.27733 14.0453 2.996 14.456 3.864C14.8667 4.732 15.072 5.60933 15.072 6.496C15.072 7.62533 14.8153 8.56333 14.302 9.31C13.798 10.0567 13.1027 10.556 12.216 10.808V10.108C13.476 10.3693 14.4187 10.9527 15.044 11.858C15.6787 12.7633 15.996 13.776 15.996 14.896C15.996 16.1 15.772 17.1593 15.324 18.074C14.8853 18.9887 14.2133 19.7073 13.308 20.23C12.4027 20.7433 11.264 21 9.892 21H0.96ZM4.824 17.416H9.5C10.0133 17.416 10.4707 17.3087 10.872 17.094C11.2733 16.87 11.586 16.562 11.81 16.17C12.0433 15.7687 12.16 15.2973 12.16 14.756C12.16 14.28 12.062 13.8553 11.866 13.482C11.67 13.1087 11.3713 12.8147 10.97 12.6C10.578 12.376 10.088 12.264 9.5 12.264H4.824V17.416ZM4.824 8.708H8.968C9.39733 8.708 9.78 8.63333 10.116 8.484C10.452 8.33467 10.718 8.106 10.914 7.798C11.11 7.48067 11.208 7.07467 11.208 6.58C11.208 5.964 11.0167 5.446 10.634 5.026C10.2513 4.606 9.696 4.396 8.968 4.396H4.824V8.708ZM25.5921 21.42C24.0708 21.42 22.7361 21.0793 21.5881 20.398C20.4401 19.7167 19.5441 18.7787 18.9001 17.584C18.2655 16.38 17.9481 14.9987 17.9481 13.44C17.9481 11.8627 18.2748 10.4767 18.9281 9.282C19.5815 8.078 20.4821 7.14 21.6301 6.468C22.7781 5.796 24.0988 5.46 25.5921 5.46C27.1135 5.46 28.4481 5.80067 29.5961 6.482C30.7535 7.16333 31.6541 8.106 32.2981 9.31C32.9421 10.5047 33.2641 11.8813 33.2641 13.44C33.2641 15.008 32.9375 16.394 32.2841 17.598C31.6401 18.7927 30.7395 19.7307 29.5821 20.412C28.4341 21.084 27.1041 21.42 25.5921 21.42ZM25.5921 17.864C26.8148 17.864 27.7248 17.4533 28.3221 16.632C28.9288 15.8013 29.2321 14.7373 29.2321 13.44C29.2321 12.096 28.9241 11.0227 28.3081 10.22C27.7015 9.41733 26.7961 9.016 25.5921 9.016C24.7615 9.016 24.0801 9.20267 23.5481 9.576C23.0161 9.94933 22.6195 10.4673 22.3581 11.13C22.1061 11.7927 21.9801 12.5627 21.9801 13.44C21.9801 14.7933 22.2835 15.8713 22.8901 16.674C23.5061 17.4673 24.4068 17.864 25.5921 17.864ZM43.1468 21.42C41.6255 21.42 40.2908 21.0793 39.1428 20.398C37.9948 19.7167 37.0988 18.7787 36.4548 17.584C35.8201 16.38 35.5028 14.9987 35.5028 13.44C35.5028 11.8627 35.8295 10.4767 36.4828 9.282C37.1361 8.078 38.0368 7.14 39.1848 6.468C40.3328 5.796 41.6535 5.46 43.1468 5.46C44.6681 5.46 46.0028 5.80067 47.1508 6.482C48.3081 7.16333 49.2088 8.106 49.8528 9.31C50.4968 10.5047 50.8188 11.8813 50.8188 13.44C50.8188 15.008 50.4921 16.394 49.8388 17.598C49.1948 18.7927 48.2941 19.7307 47.1368 20.412C45.9888 21.084 44.6588 21.42 43.1468 21.42ZM43.1468 17.864C44.3695 17.864 45.2795 17.4533 45.8768 16.632C46.4835 15.8013 46.7868 14.7373 46.7868 13.44C46.7868 12.096 46.4788 11.0227 45.8628 10.22C45.2561 9.41733 44.3508 9.016 43.1468 9.016C42.3161 9.016 41.6348 9.20267 41.1028 9.576C40.5708 9.94933 40.1741 10.4673 39.9128 11.13C39.6608 11.7927 39.5348 12.5627 39.5348 13.44C39.5348 14.7933 39.8381 15.8713 40.4448 16.674C41.0608 17.4673 41.9615 17.864 43.1468 17.864ZM53.8695 21L53.8975 0.839999H57.7615V13.16L62.8855 5.88H67.5895L62.1295 13.44L67.9535 21H62.9975L57.7615 13.72V21H53.8695ZM74.9522 21V0.839999H78.3682L85.0322 14.224L91.6962 0.839999H95.1122V21H91.5562V8.96L85.7042 21H84.3602L78.5082 8.96V21H74.9522ZM100.974 27.72L103.886 19.712L103.942 22.064L97.362 5.88H101.31L105.734 17.332H104.838L109.234 5.88H113.042L104.502 27.72H100.974ZM120.616 21V0.839999H129.128C129.324 0.839999 129.586 0.849332 129.912 0.867999C130.248 0.877333 130.547 0.905333 130.808 0.951999C132.012 1.13867 132.997 1.53533 133.762 2.142C134.537 2.74867 135.106 3.514 135.47 4.438C135.834 5.35267 136.016 6.37467 136.016 7.504C136.016 8.63333 135.83 9.66 135.456 10.584C135.092 11.4987 134.523 12.2593 133.748 12.866C132.983 13.4727 132.003 13.8693 130.808 14.056C130.547 14.0933 130.248 14.1213 129.912 14.14C129.576 14.1587 129.315 14.168 129.128 14.168H124.424V21H120.616ZM124.424 10.612H128.96C129.156 10.612 129.371 10.6027 129.604 10.584C129.838 10.5653 130.052 10.528 130.248 10.472C130.762 10.332 131.158 10.0987 131.438 9.772C131.718 9.436 131.91 9.06733 132.012 8.666C132.124 8.25533 132.18 7.868 132.18 7.504C132.18 7.14 132.124 6.75733 132.012 6.356C131.91 5.94533 131.718 5.57667 131.438 5.25C131.158 4.914 130.762 4.676 130.248 4.536C130.052 4.48 129.838 4.44267 129.604 4.424C129.371 4.40533 129.156 4.396 128.96 4.396H124.424V10.612ZM138.827 21V5.88H142.187V9.576L141.823 9.1C142.019 8.57733 142.281 8.10133 142.607 7.672C142.934 7.24267 143.335 6.888 143.811 6.608C144.175 6.384 144.572 6.21133 145.001 6.09C145.431 5.95933 145.874 5.88 146.331 5.852C146.789 5.81467 147.246 5.824 147.703 5.88V9.436C147.283 9.30533 146.793 9.26333 146.233 9.31C145.683 9.34733 145.183 9.47333 144.735 9.688C144.287 9.89333 143.909 10.1687 143.601 10.514C143.293 10.85 143.06 11.2513 142.901 11.718C142.743 12.1753 142.663 12.6933 142.663 13.272V21H138.827ZM156.897 21.42C155.375 21.42 154.041 21.0793 152.893 20.398C151.745 19.7167 150.849 18.7787 150.205 17.584C149.57 16.38 149.253 14.9987 149.253 13.44C149.253 11.8627 149.579 10.4767 150.233 9.282C150.886 8.078 151.787 7.14 152.935 6.468C154.083 5.796 155.403 5.46 156.897 5.46C158.418 5.46 159.753 5.80067 160.901 6.482C162.058 7.16333 162.959 8.106 163.603 9.31C164.247 10.5047 164.569 11.8813 164.569 13.44C164.569 15.008 164.242 16.394 163.589 17.598C162.945 18.7927 162.044 19.7307 160.887 20.412C159.739 21.084 158.409 21.42 156.897 21.42ZM156.897 17.864C158.119 17.864 159.029 17.4533 159.627 16.632C160.233 15.8013 160.537 14.7373 160.537 13.44C160.537 12.096 160.229 11.0227 159.613 10.22C159.006 9.41733 158.101 9.016 156.897 9.016C156.066 9.016 155.385 9.20267 154.853 9.576C154.321 9.94933 153.924 10.4673 153.663 11.13C153.411 11.7927 153.285 12.5627 153.285 13.44C153.285 14.7933 153.588 15.8713 154.195 16.674C154.811 17.4673 155.711 17.864 156.897 17.864Z" fill="#5084FC"/>
</svg>
