<svg width="86" height="86" viewBox="0 0 86 86" fill="none" xmlns="http://www.w3.org/2000/svg">
<g clip-path="url(#clip0_1259_314010)">
<path d="M43 86.0001C66.7482 86.0001 86 66.7482 86 43C86 19.2518 66.7482 0 43 0C19.2518 0 0 19.2518 0 43C0 66.7482 19.2518 86.0001 43 86.0001Z" fill="#ECF2FF"/>
<path d="M30.9425 56.0566C29.398 54.5118 28.1884 52.7266 27.3139 50.7012C26.438 48.6758 26 46.5817 26 44.419C26 42.2562 26.4119 40.1189 27.2356 38.0069C28.0594 35.8964 29.398 33.9142 31.2514 32.0604C32.4527 30.8589 33.9375 29.829 35.7058 28.9708C37.4728 28.1126 39.5658 27.4342 41.9849 26.9358C44.4053 26.4387 47.169 26.1386 50.2759 26.0356C53.3814 25.9327 56.8563 26.0528 60.7005 26.3961C60.975 30.035 61.0608 33.3821 60.9579 36.4374C60.8549 39.4927 60.5714 42.2473 60.1074 44.7012C59.6447 47.1564 58.9932 49.302 58.153 51.1379C57.3114 52.9752 56.2728 54.5118 55.0372 55.7476C53.2181 57.5671 51.2877 58.897 49.2462 59.7374C47.2033 60.5791 45.1179 61 42.9898 61C40.7588 61 38.5793 60.5626 36.4513 59.6879C34.3233 58.8119 32.487 57.6014 30.9425 56.0566ZM36.7087 55.2327C37.7041 55.8163 38.7256 56.2365 39.7731 56.4933C40.8193 56.7514 41.8915 56.8805 42.9898 56.8805C44.5687 56.8805 46.1304 56.5633 47.6749 55.9289C49.2194 55.2931 50.6953 54.2715 52.1026 52.864C52.7204 52.246 53.3464 51.3796 53.9807 50.2646C54.6164 49.1482 55.1662 47.6885 55.6303 45.8855C56.0929 44.0839 56.4444 41.9047 56.6847 39.3478C56.9249 36.7896 56.9593 33.7426 56.7876 30.2067C55.1058 30.138 53.2098 30.1119 51.0996 30.1284C48.9881 30.1462 46.8855 30.3096 44.7918 30.6186C42.6981 30.9276 40.7074 31.4253 38.8196 32.1119C36.9318 32.7985 35.3873 33.7426 34.186 34.9441C32.6415 36.4889 31.5775 38.0166 30.994 39.527C30.4105 41.0375 30.1187 42.4965 30.1187 43.904C30.1187 45.9295 30.5045 47.7057 31.2761 49.2326C32.0491 50.761 32.7273 51.8341 33.3108 52.452C34.7523 49.7057 36.6573 47.0706 39.0255 44.5467C41.3938 42.0242 44.1568 39.9562 47.3145 38.3427C44.8433 40.5054 42.6899 42.951 40.8543 45.6795C39.0173 48.4094 37.6355 51.5938 36.7087 55.2327Z" fill="#5084FC"/>
</g>
<defs>
<clipPath id="clip0_1259_314010">
<rect width="86" height="86" fill="white"/>
</clipPath>
</defs>
</svg>
