<svg width="86" height="86" viewBox="0 0 86 86" fill="none" xmlns="http://www.w3.org/2000/svg">
<g clip-path="url(#clip0_1259_314016)">
<path d="M43 86.0001C66.7482 86.0001 86 66.7482 86 43C86 19.2518 66.7482 0 43 0C19.2518 0 0 19.2518 0 43C0 66.7482 19.2518 86.0001 43 86.0001Z" fill="#ECF2FF"/>
<path d="M28.2469 51.1304H27.3726V52.0047H28.2469V51.1304Z" fill="#5084FC"/>
<path d="M53.7754 48.8955H52.9011V49.7699H53.7754V48.8955Z" fill="#5084FC"/>
<path d="M58.8744 51.0151H58.0001V51.8894H58.8744V51.0151Z" fill="#5084FC"/>
<path d="M41.1357 44.0654H40.2759C40.2759 44.2096 40.1586 44.3268 40.0145 44.3268C39.8703 44.3268 39.753 44.2096 39.753 44.0654H38.8931C38.8931 44.6837 39.3961 45.1867 40.0145 45.1867C40.6327 45.1867 41.1357 44.6837 41.1357 44.0654ZM42.3677 48.3813C41.6279 48.3813 40.9441 47.95 40.6256 47.2827L39.8496 47.653C40.31 48.6178 41.2984 49.2412 42.3677 49.2412C43.436 49.2412 44.4243 48.6179 44.8857 47.6532L44.11 47.2824C43.7907 47.9498 43.1068 48.3813 42.3677 48.3813ZM44.7208 45.1867C45.3391 45.1867 45.8421 44.6837 45.8421 44.0654H44.9823C44.9823 44.2096 44.8651 44.3268 44.7208 44.3268C44.5767 44.3268 44.4595 44.2096 44.4595 44.0654H43.5996C43.5996 44.6837 44.1025 45.1867 44.7208 45.1867ZM44.0678 60.8395H50.0163V58.2727H44.0678V60.8395ZM44.9277 59.1326H49.1564V59.9797H44.9277V59.1326Z" fill="#5084FC"/>
<path d="M27.1082 56.356H25.2738V57.2158H27.1082V56.356Z" fill="#5084FC"/>
<path d="M59.4886 56.356H57.6542V57.2158H59.4886V56.356Z" fill="#5084FC"/>
<path d="M59.9665 53.3762H56.1254V54.5952H52.9519V55.4551H60.5985V58.1172H51.8402V58.977H56.1255V60.0295H51.9157V60.8893H56.1255V60.8896H59.9666V60.8893H60.5986V62.1404H51.3377V57.6281C51.3377 57.0604 51.2471 56.5126 51.0801 55.9984C51.8978 55.1255 52.3624 53.9614 52.3624 52.7601C52.3624 51.3099 51.711 49.959 50.5749 49.0538C50.2205 48.7719 50.0174 48.3535 50.0174 47.9059V47.149C53.7398 47.5099 57.4641 48.1349 61.0954 49.0097L61.2967 48.1738C57.5999 47.2831 53.8071 46.6487 50.0174 46.2853V40.0746C50.0174 37.996 49.1982 36.0384 47.7106 34.5626C46.2646 33.128 44.3693 32.3402 42.3673 32.3402C42.3472 32.3402 42.3269 32.3403 42.3069 32.3405C40.2865 32.3564 38.3871 33.152 36.9585 34.5805C35.5136 36.0247 34.7178 37.9457 34.7178 39.9893V46.4796C31.0338 46.8474 27.3479 47.4706 23.7498 48.3342L23.9505 49.1703C27.483 48.3224 31.101 47.7092 34.7178 47.3441V47.8696C34.7178 48.323 34.5105 48.7451 34.1492 49.0273C32.9905 49.931 32.326 51.2916 32.326 52.7601C32.326 53.9808 32.8034 55.1581 33.6435 56.0347C33.4839 56.5383 33.3978 57.0739 33.3978 57.6281V62.1404H24.1391V60.8893H24.6928V60.8896H28.5337V60.8893H32.8226V60.0295H28.5337V58.977H32.8983V58.1172H24.1391V55.4551H31.7333V54.5952H28.5338V53.3762H24.6928V54.5952H23.2792V58.977H24.6928V60.0295H23.2792V63.0003H33.3976H51.3377H61.4584V60.0295H59.9665V58.977H61.4584V54.5952H59.9665V53.3762ZM59.1067 60.0295H56.9853V58.977H59.1067V60.0295ZM25.5527 54.2361H27.6739V54.5952H25.5527V54.2361ZM25.5527 58.977H27.6739V60.0295H25.5527V58.977ZM50.4778 62.1404H34.2575V57.6281C34.2575 55.58 35.6526 53.8333 37.6501 53.3807L38.8186 53.1159C39.7138 54.1459 40.9922 54.7313 42.3678 54.7313C43.7433 54.7313 45.0218 54.1459 45.9174 53.1159L47.0854 53.3807C49.0829 53.8334 50.4778 55.5799 50.4778 57.6281V62.1404ZM38.4239 52.3236L37.5656 52.5182C37.3557 51.8245 37.2483 51.1076 37.2483 50.3812V48.4478C37.5101 48.8795 37.8259 49.2745 38.185 49.6255V50.3602C38.185 51.0237 38.2661 51.682 38.4239 52.3236ZM44.2823 52.7453L44.9319 52.8925C44.2323 53.5207 43.3293 53.8714 42.3678 53.8714C41.4063 53.8714 40.5033 53.5207 39.804 52.8925L40.4527 52.7454C41.5897 53.5944 43.1423 53.5962 44.2823 52.7453ZM40.9893 52.0716V51.1668C41.425 51.2686 41.8781 51.3242 42.3442 51.3242C42.8271 51.3242 43.2962 51.2649 43.7461 51.1559V52.0702C42.9215 52.6709 41.8121 52.6707 40.9893 52.0716ZM44.606 51.937V50.8768C44.9853 50.7205 45.3458 50.5267 45.6811 50.2989V50.3602C45.6811 50.9589 45.6074 51.5529 45.464 52.1315L44.606 51.937ZM40.1295 51.937L39.2625 52.1336C39.1188 51.5543 39.0449 50.9597 39.0449 50.3602V50.3237C39.3836 50.55 39.747 50.7415 40.1295 50.8953V51.937ZM46.3026 52.3216C46.46 51.6806 46.5409 51.023 46.5409 50.3602V49.5896C46.8845 49.2481 47.1868 48.8652 47.4394 48.4488V50.624C47.4394 51.1467 47.3958 51.6726 47.3099 52.1869C47.2905 52.3029 47.2682 52.4191 47.2443 52.535L46.3026 52.3216ZM48.0697 52.7895C48.1025 52.6363 48.1324 52.4825 48.158 52.3287C48.2517 51.7676 48.2993 51.1941 48.2993 50.6241V45.382C48.2993 45.3775 48.2996 45.3731 48.2996 45.3688H48.2993V44.2355C48.2993 41.8583 46.7773 39.7816 44.5121 39.0676L44.2536 39.8876C46.159 40.4882 47.4394 42.2355 47.4394 44.2354V45.3819C47.4322 48.1855 45.1494 50.4642 42.3442 50.4642C39.5345 50.4642 37.2486 48.1783 37.2486 45.3686H37.2483V44.387C37.2483 42.722 38.2167 41.1943 39.7193 40.482L39.7616 40.4624C41.5914 39.6196 42.7738 37.7727 42.7738 35.7569V35.0986H41.9139V35.7569C41.9139 37.4217 40.9469 38.9485 39.4463 39.6605L39.4011 39.6814C37.571 40.525 36.3885 42.372 36.3885 44.3869V50.381C36.3885 51.1897 36.5077 51.9879 36.7407 52.7601C35.5516 53.2134 34.5956 54.0709 34.0153 55.154C33.483 54.4762 33.1858 53.6315 33.1858 52.76C33.1858 51.5582 33.7296 50.4448 34.6782 49.7049C35.2498 49.2584 35.5775 48.5894 35.5775 47.8695V39.9891C35.5775 38.1752 36.2838 36.4702 37.5665 35.1884C38.8344 33.9203 40.5204 33.2142 42.3136 33.2001C42.3314 33.2 42.3492 33.1999 42.367 33.1999C44.1405 33.1999 45.8211 33.8993 47.1049 35.1727C48.4284 36.4859 49.1574 38.2267 49.1574 40.0745V47.9058C49.1574 48.6168 49.4788 49.2804 50.0391 49.7262C50.9691 50.4673 51.5026 51.5731 51.5026 52.76C51.5026 53.6288 51.2216 54.4473 50.702 55.1197C50.1325 54.0757 49.2117 53.2449 48.0697 52.7895ZM59.1067 54.5952H56.9853V54.2361H59.1067V54.5952ZM49.8944 29.9061C49.8944 32.6306 52.1108 34.847 54.8352 34.847C55.8991 34.847 56.9124 34.5142 57.7661 33.8843L57.2555 33.1924C56.5509 33.7123 55.714 33.9872 54.8352 33.9872C52.585 33.9872 50.7543 32.1564 50.7543 29.9061C50.7543 29.3074 50.8807 28.7308 51.1304 28.1922L50.3504 27.8306C50.0477 28.4832 49.8944 29.1817 49.8944 29.9061ZM58.5364 33.1795C59.3358 32.2761 59.7762 31.1137 59.7762 29.9062C59.7762 27.1818 57.5597 24.9653 54.8352 24.9653C53.403 24.9653 52.0427 25.5861 51.1029 26.6686L51.7522 27.2323C52.5286 26.3381 53.6523 25.8253 54.8352 25.8253C57.0856 25.8253 58.9163 27.656 58.9163 29.9063C58.9163 30.9037 58.5527 31.8638 57.8926 32.6098L58.5364 33.1795Z" fill="#5084FC"/>
<path d="M60.5769 29.906C60.5769 33.0719 58.0012 35.6476 54.8352 35.6476C53.9687 35.6476 53.1358 35.4595 52.3605 35.0884L51.9894 35.8641C52.8816 36.291 53.8392 36.5075 54.8353 36.5075C58.4754 36.5075 61.4368 33.5461 61.4368 29.906C61.4368 27.7124 60.3509 25.6676 58.5323 24.4361L58.0502 25.148C59.6322 26.2193 60.5769 27.9981 60.5769 29.906ZM57.434 23.836C56.9974 23.6488 56.5393 23.509 56.0725 23.4204L55.9123 24.2652C56.3178 24.3422 56.7158 24.4637 57.0953 24.6263L57.434 23.836ZM50.7187 35.067L51.2552 34.3952C49.8814 33.2981 49.0936 31.6619 49.0936 29.9061C49.0936 26.7402 51.6693 24.1645 54.8351 24.1645V23.3047C51.195 23.3047 48.2338 26.2661 48.2338 29.9061C48.2338 31.9248 49.1395 33.8059 50.7187 35.067ZM32.3037 29.9235C32.3037 28.9132 31.4816 28.0911 30.4713 28.0911C29.461 28.0911 28.6391 28.9132 28.6391 29.9235H29.4989C29.4989 29.3873 29.9352 28.951 30.4713 28.951C31.0075 28.951 31.4438 29.3872 31.4438 29.9235C31.4438 30.4596 31.0076 30.8959 30.4713 30.8959H23.5787V31.7557H30.4713C31.4817 31.7557 32.3037 30.9337 32.3037 29.9235Z" fill="#5084FC"/>
<path d="M34.3329 31.2378C34.869 31.2378 35.3053 31.674 35.3053 32.2103C35.3053 32.7464 34.8691 33.1827 34.3329 33.1827H27.4402V34.0425H34.3329C35.3432 34.0425 36.1652 33.2205 36.1652 32.2103C36.1652 31.1999 35.3432 30.3779 34.3329 30.3779C33.3226 30.3779 32.5006 31.1999 32.5006 32.2103H33.3604C33.3604 31.674 33.7966 31.2378 34.3329 31.2378Z" fill="#5084FC"/>
<path d="M26.4235 33.1821H25.3523V34.042H26.4235V33.1821Z" fill="#5084FC"/>
<path d="M60.8387 40.5061C59.8284 40.5061 59.0064 41.3281 59.0064 42.3384H59.8663C59.8663 41.8023 60.3024 41.366 60.8387 41.366C61.375 41.366 61.8111 41.8022 61.8111 42.3384C61.8111 42.8746 61.375 43.3108 60.8387 43.3108H54.616V44.1707H60.8387C61.849 44.1707 62.671 43.3487 62.671 42.3384C62.671 41.3281 61.849 40.5061 60.8387 40.5061ZM58.157 40.2986C58.157 39.2883 57.3351 38.4663 56.3247 38.4663C55.3144 38.4663 54.4925 39.2883 54.4925 40.2986H55.3523C55.3523 39.7624 55.7884 39.3262 56.3247 39.3262C56.861 39.3262 57.2971 39.7624 57.2971 40.2986C57.2971 40.8348 56.861 41.2711 56.3247 41.2711H51.1478V42.1309H56.3247C57.3351 42.1308 58.157 41.3089 58.157 40.2986Z" fill="#5084FC"/>
<path d="M53.5991 43.3105H52.528V44.1704H53.5991V43.3105Z" fill="#5084FC"/>
</g>
<defs>
<clipPath id="clip0_1259_314016">
<rect width="86" height="86" fill="white"/>
</clipPath>
</defs>
</svg>
