<svg width="86" height="86" viewBox="0 0 86 86" fill="none" xmlns="http://www.w3.org/2000/svg">
<g clip-path="url(#clip0_1259_313997)">
<path d="M43 86.0001C66.7482 86.0001 86 66.7482 86 43C86 19.2518 66.7482 0 43 0C19.2518 0 0 19.2518 0 43C0 66.7482 19.2518 86.0001 43 86.0001Z" fill="#ECF2FF"/>
<path d="M35.3843 18.8121C35.2658 18.8139 35.1529 18.8626 35.0703 18.9476C34.9876 19.0325 34.942 19.1467 34.9434 19.2652V19.7131H34.4955C34.4361 19.7123 34.3772 19.7233 34.3221 19.7454C34.267 19.7675 34.2169 19.8004 34.1746 19.8421C34.1324 19.8838 34.0988 19.9334 34.0759 19.9882C34.053 20.0429 34.0412 20.1017 34.0412 20.1611C34.0412 20.2204 34.053 20.2792 34.0759 20.334C34.0988 20.3887 34.1324 20.4384 34.1746 20.4801C34.2169 20.5217 34.267 20.5546 34.3221 20.5767C34.3772 20.5989 34.4361 20.6098 34.4955 20.609H34.9434V21.0569C34.9426 21.1163 34.9535 21.1752 34.9757 21.2303C34.9978 21.2854 35.0307 21.3355 35.0723 21.3777C35.114 21.42 35.1637 21.4536 35.2184 21.4765C35.2732 21.4994 35.332 21.5112 35.3913 21.5112C35.4507 21.5112 35.5094 21.4994 35.5642 21.4765C35.619 21.4536 35.6686 21.42 35.7103 21.3777C35.752 21.3355 35.7848 21.2854 35.807 21.2303C35.8291 21.1752 35.8401 21.1163 35.8392 21.0569V20.609H36.2872C36.3465 20.6098 36.4054 20.5989 36.4605 20.5767C36.5156 20.5546 36.5657 20.5217 36.608 20.4801C36.6503 20.4384 36.6838 20.3887 36.7067 20.334C36.7297 20.2792 36.7414 20.2204 36.7414 20.1611C36.7414 20.1017 36.7297 20.0429 36.7067 19.9882C36.6838 19.9334 36.6503 19.8838 36.608 19.8421C36.5657 19.8004 36.5156 19.7675 36.4605 19.7454C36.4054 19.7233 36.3465 19.7123 36.2872 19.7131H35.8392V19.2652C35.8399 19.2054 35.8286 19.146 35.806 19.0906C35.7834 19.0352 35.7499 18.9848 35.7074 18.9426C35.665 18.9003 35.6146 18.867 35.5591 18.8446C35.5036 18.8222 35.4442 18.8111 35.3843 18.8121ZM47.9382 19.7201C47.2014 19.7201 46.5945 20.3271 46.5945 21.0639C46.5945 21.8007 47.2014 22.4076 47.9382 22.4076C48.6751 22.4076 49.282 21.8007 49.282 21.0639C49.282 20.3271 48.6751 19.7201 47.9382 19.7201ZM47.9382 20.616C48.1909 20.616 48.3862 20.8112 48.3862 21.0639C48.3862 21.3166 48.1909 21.5118 47.9382 21.5118C47.6856 21.5118 47.4903 21.3166 47.4903 21.0639C47.4903 20.8112 47.6856 20.616 47.9382 20.616ZM30.6812 23.307C30.3594 23.3211 30.1038 23.4058 29.9271 23.5449C29.4557 23.9159 29.4426 24.6332 29.7539 25.662C30.0652 26.6909 30.728 28.0451 31.759 29.716C32.0438 30.1776 32.3536 30.6528 32.6776 31.1368C31.2773 33.2581 30.4572 35.796 30.4572 38.5256C30.4579 39.5166 30.5745 40.4878 30.7862 41.4301C29.156 40.7129 28.1683 39.9411 27.8765 39.3095C27.6653 38.8525 27.7056 38.479 28.0759 38.0024C28.4462 37.5259 29.1966 37.0012 30.347 36.5293L29.9848 35.6999C28.7528 36.2054 27.8803 36.7721 27.3621 37.4391C26.8438 38.1062 26.7295 38.9302 27.0681 39.6629C27.5921 40.797 28.9632 41.7336 31.0871 42.5341C32.0418 45.5446 34.0444 48.1538 36.7788 49.867C36.5704 50.0307 36.3579 50.2027 36.1542 50.3569C34.5999 51.5331 33.3384 52.3026 32.5009 52.67C32.082 52.8538 31.7827 52.9363 31.5683 52.9587C31.3539 52.9811 31.1935 52.9587 31.0521 52.8502C30.7694 52.6394 30.6745 52.0638 30.9541 51.1198C31.2338 50.1758 31.8588 48.877 32.8578 47.2512L31.7223 47.3947C30.6991 49.0597 30.0441 50.4067 29.7416 51.4277C29.4391 52.4489 29.4602 53.1592 29.9446 53.5204C30.1868 53.701 30.5731 53.7805 31.0626 53.7286C31.5522 53.6766 32.1149 53.5011 32.7091 53.2404C33.8974 52.7191 35.2668 51.8533 36.9065 50.6124C37.0631 50.4939 37.2256 50.3612 37.3842 50.2379V54.6471H36.2802C36.1614 54.6472 36.0474 54.6943 35.9634 54.7783C35.8794 54.8623 35.8322 54.9763 35.8322 55.0951V56.5298C35.3156 56.7229 34.9364 57.206 34.9364 57.7826C34.9364 58.359 35.3156 58.8404 35.8322 59.0336V60.1131C35.3156 60.3063 34.9364 60.7893 34.9364 61.3658C34.9364 61.9423 35.3156 62.4237 35.8322 62.6169V64.0533C35.8322 64.1721 35.8794 64.2861 35.9634 64.3701C36.0474 64.4541 36.1614 64.5012 36.2802 64.5013H38.5197V65.845C38.5197 65.9638 38.5669 66.0778 38.6509 66.1618C38.7349 66.2458 38.8489 66.2929 38.9677 66.2929H41.2072V67.1888H42.1031V66.2929H45.6864V67.1888H46.5822V66.2929H48.8218C48.9406 66.2929 49.0545 66.2458 49.1385 66.1618C49.2225 66.0778 49.2697 65.9638 49.2697 65.845V64.5013H51.5093C51.6281 64.5012 51.742 64.4541 51.826 64.3701C51.91 64.2861 51.9572 64.1721 51.9572 64.0533V62.6169C52.4739 62.4237 52.8531 61.9423 52.8531 61.3658C52.8531 60.7893 52.4739 60.3063 51.9572 60.1131V59.0336C52.4739 58.8404 52.8531 58.359 52.8531 57.7826C52.8531 57.206 52.4739 56.7229 51.9572 56.5298V55.0951C51.9572 54.9763 51.91 54.8623 51.826 54.7783C51.742 54.6943 51.6281 54.6472 51.5093 54.6471H50.4053V50.2379C50.5639 50.3612 50.7264 50.4939 50.8829 50.6124C52.5226 51.8533 53.8921 52.719 55.0804 53.2404C55.6746 53.5011 56.2373 53.6764 56.7269 53.7286C57.2164 53.7805 57.6027 53.7008 57.8449 53.5204C58.3293 53.1592 58.3504 52.4489 58.0479 51.4277C57.7454 50.4067 57.0903 49.0597 56.0672 47.3947L54.9317 47.2512C55.9306 48.877 56.5557 50.1758 56.8353 51.1198C57.115 52.0638 57.0201 52.6394 56.7374 52.8502C56.596 52.9556 56.4356 52.9815 56.2212 52.9587C56.0068 52.9363 55.7074 52.8538 55.2886 52.67C54.4511 52.3026 53.1896 51.5331 51.6353 50.3569C51.4316 50.2027 51.219 50.0307 51.0107 49.867C53.3983 48.371 55.2326 46.1942 56.2947 43.6609C57.6836 43.2984 58.8212 42.8741 59.6785 42.3872C60.6292 41.8473 61.273 41.2327 61.5262 40.4975C61.6528 40.13 61.6609 39.7425 61.563 39.362C61.465 38.9816 61.2616 38.6084 60.9663 38.2684C60.3757 37.5884 59.4405 36.9795 58.1458 36.412L57.8064 37.2309C59.025 37.7651 59.8529 38.3334 60.2979 38.8458C60.743 39.3582 60.8276 39.7503 60.6794 40.1808C60.5311 40.6115 60.0658 41.1221 59.2184 41.6033C58.5761 41.968 57.723 42.3139 56.6744 42.6233C57.0981 41.3189 57.3312 39.9417 57.3322 38.5256C57.3322 35.796 56.5122 33.2581 55.1119 31.1368C55.4359 30.6528 55.7456 30.1776 56.0305 29.716C57.0615 28.0451 57.7243 26.6909 58.0356 25.662C58.3469 24.6332 58.3337 23.9159 57.8624 23.5449C57.6267 23.3594 57.2521 23.2718 56.7671 23.3175C56.282 23.3632 55.7165 23.5336 55.1242 23.7899C53.9395 24.3024 52.5777 25.1604 50.9424 26.3934L51.6913 26.6524C53.2399 25.4847 54.4952 24.7232 55.3219 24.3655C55.7352 24.1867 56.0278 24.109 56.2387 24.0891C56.4496 24.0692 56.6102 24.0983 56.7496 24.2081C57.0285 24.4276 57.1131 25.0138 56.8248 25.9665C56.5366 26.9192 55.9036 28.2242 54.8967 29.856C54.792 30.0257 54.6714 30.2042 54.5608 30.3774C52.1042 27.1659 48.2454 25.0846 43.8947 25.0846C39.544 25.0846 35.6852 27.1659 33.2287 30.3774C33.1181 30.2042 32.9975 30.0257 32.8928 29.856C31.8859 28.2242 31.2529 26.9192 30.9646 25.9665C30.6764 25.0138 30.7628 24.4276 31.0416 24.2081C31.1811 24.0983 31.3416 24.0692 31.5525 24.0891C31.7635 24.109 32.056 24.1867 32.4694 24.3655C33.2961 24.7232 34.5496 25.4847 36.0982 26.6524L36.8488 26.3934C35.2136 25.1604 33.8499 24.3024 32.6653 23.7899C32.073 23.5336 31.5092 23.3632 31.0241 23.3175C30.9029 23.3061 30.7885 23.3022 30.6812 23.307ZM26.0463 25.0881C25.9569 25.0878 25.8695 25.1142 25.7953 25.1639C25.721 25.2137 25.6634 25.2845 25.6297 25.3673C25.596 25.4501 25.5879 25.541 25.6063 25.6285C25.6247 25.7159 25.6689 25.7959 25.7331 25.858L26.0498 26.1747L25.7331 26.4914C25.6901 26.5326 25.6557 26.5821 25.632 26.6368C25.6083 26.6915 25.5957 26.7504 25.5951 26.81C25.5945 26.8697 25.6057 26.9288 25.6283 26.984C25.6508 27.0392 25.6841 27.0894 25.7263 27.1316C25.7685 27.1738 25.8186 27.2071 25.8738 27.2296C25.929 27.2521 25.9882 27.2634 26.0478 27.2628C26.1075 27.2621 26.1664 27.2496 26.2211 27.2259C26.2758 27.2022 26.3252 27.1678 26.3665 27.1247L26.6832 26.808L26.9999 27.1247C27.0411 27.1678 27.0906 27.2022 27.1453 27.2259C27.2 27.2496 27.2589 27.2621 27.3185 27.2628C27.3782 27.2634 27.4373 27.2521 27.4926 27.2296C27.5478 27.2071 27.5979 27.1738 27.6401 27.1316C27.6823 27.0894 27.7156 27.0392 27.7381 26.984C27.7606 26.9288 27.7719 26.8697 27.7713 26.81C27.7706 26.7504 27.7581 26.6915 27.7344 26.6368C27.7107 26.5821 27.6763 26.5326 27.6333 26.4914L27.3166 26.1747L27.6333 25.858C27.6983 25.7951 27.7428 25.7141 27.7609 25.6255C27.779 25.5368 27.7698 25.4448 27.7346 25.3615C27.6994 25.2782 27.6397 25.2074 27.5636 25.1586C27.4874 25.1098 27.3982 25.0853 27.3078 25.0881C27.1913 25.0918 27.0809 25.1408 26.9999 25.2246L26.6832 25.5413L26.3665 25.2246C26.3249 25.1817 26.2752 25.1475 26.2202 25.124C26.1652 25.1006 26.1061 25.0884 26.0463 25.0881ZM43.8947 25.9805C48.077 25.9805 51.7683 28.0301 54.0463 31.1735C51.7781 34.5652 48.5193 38.4945 45.0968 42.109H42.6927C39.783 39.0361 37.0041 35.7472 34.8402 32.7394C36.7493 29.7558 40.0854 27.7756 43.8947 27.7756V26.8798C39.9038 26.8798 36.381 28.8925 34.282 31.9574C34.0996 31.6949 33.9147 31.43 33.7431 31.1735C36.0212 28.0301 39.7125 25.9805 43.8947 25.9805ZM62.2593 30.4578C62.1408 30.4597 62.0279 30.5084 61.9453 30.5934C61.8626 30.6783 61.817 30.7926 61.8184 30.9111V31.359H61.3705C61.3111 31.3581 61.2522 31.3691 61.1971 31.3912C61.142 31.4134 61.0919 31.4462 61.0496 31.4879C61.0074 31.5296 60.9738 31.5792 60.9509 31.634C60.928 31.6888 60.9162 31.7475 60.9162 31.8069C60.9162 31.8663 60.928 31.925 60.9509 31.9798C60.9738 32.0345 61.0074 32.0842 61.0496 32.1259C61.0919 32.1676 61.142 32.2004 61.1971 32.2226C61.2522 32.2447 61.3111 32.2557 61.3705 32.2548H61.8184V32.7027C61.8176 32.7621 61.8285 32.821 61.8507 32.8761C61.8728 32.9311 61.9057 32.9813 61.9473 33.0236C61.989 33.0658 62.0387 33.0994 62.0934 33.1223C62.1482 33.1452 62.207 33.157 62.2663 33.157C62.3257 33.157 62.3844 33.1452 62.4392 33.1223C62.494 33.0994 62.5436 33.0658 62.5853 33.0236C62.627 32.9813 62.6598 32.9311 62.682 32.8761C62.7041 32.821 62.7151 32.7621 62.7142 32.7027V32.2548H63.1622C63.2215 32.2557 63.2804 32.2447 63.3355 32.2226C63.3906 32.2004 63.4407 32.1676 63.483 32.1259C63.5253 32.0842 63.5588 32.0345 63.5817 31.9798C63.6047 31.925 63.6165 31.8663 63.6165 31.8069C63.6165 31.7475 63.6047 31.6888 63.5817 31.634C63.5588 31.5792 63.5253 31.5296 63.483 31.4879C63.4407 31.4462 63.3906 31.4134 63.3355 31.3912C63.2804 31.3691 63.2215 31.3581 63.1622 31.359H62.7142V30.9111C62.7149 30.8512 62.7037 30.7918 62.681 30.7364C62.6584 30.681 62.6249 30.6307 62.5825 30.5884C62.5401 30.5462 62.4896 30.5129 62.4341 30.4904C62.3786 30.468 62.3192 30.4569 62.2593 30.4578ZM33.2305 31.9416C33.4123 32.203 33.6096 32.47 33.8009 32.736C32.819 34.4428 32.2489 36.4172 32.2489 38.5256H33.1447C33.1447 36.7158 33.5953 35.0137 34.3835 33.5181C36.4615 36.3231 38.9765 39.2923 41.6412 42.109H39.4156V43.0048H41.2072V43.6732C38.3803 43.4343 35.6565 42.9931 33.3529 42.3417C32.7889 42.1821 32.2822 42.0111 31.8027 41.836C31.5105 40.7714 31.3539 39.6611 31.3531 38.5256C31.3531 36.1071 32.0473 33.8564 33.2305 31.9416ZM54.559 31.9416C55.7422 33.8564 56.4364 36.1071 56.4364 38.5256C56.4353 40.0464 56.155 41.523 55.6403 42.9016C55.6305 42.9016 55.6222 42.9106 55.6123 42.9106C53.0392 43.5298 49.8654 43.8329 46.5822 43.8659V43.0068H48.3739V42.111H46.1483C49.3164 38.7622 52.3111 35.1755 54.559 31.9436V31.9416ZM64.5671 41.2131C64.4778 41.2128 64.3903 41.2392 64.3161 41.2889C64.2419 41.3387 64.1842 41.4095 64.1505 41.4923C64.1168 41.5751 64.1087 41.666 64.1271 41.7535C64.1456 41.8409 64.1897 41.9209 64.2539 41.983L64.5706 42.2997L64.2539 42.6163C64.2109 42.6576 64.1765 42.7071 64.1528 42.7618C64.1291 42.8165 64.1166 42.8754 64.1159 42.935C64.1153 42.9947 64.1266 43.0538 64.1491 43.109C64.1716 43.1642 64.205 43.2144 64.2471 43.2565C64.2893 43.2987 64.3395 43.3321 64.3947 43.3546C64.4499 43.3771 64.509 43.3884 64.5687 43.3877C64.6283 43.3871 64.6872 43.3746 64.7419 43.3509C64.7966 43.3272 64.8461 43.2928 64.8873 43.2497L65.204 42.933L65.5207 43.2497C65.562 43.2928 65.6114 43.3272 65.6661 43.3509C65.7208 43.3746 65.7797 43.3871 65.8394 43.3878C65.899 43.3884 65.9582 43.3771 66.0134 43.3546C66.0686 43.3321 66.1188 43.2988 66.1609 43.2566C66.2031 43.2144 66.2364 43.1642 66.259 43.109C66.2815 43.0538 66.2928 42.9947 66.2921 42.935C66.2915 42.8754 66.2789 42.8165 66.2552 42.7618C66.2315 42.7071 66.1972 42.6576 66.1541 42.6163L65.8374 42.2997L66.1541 41.983C66.2191 41.9201 66.2636 41.839 66.2817 41.7504C66.2998 41.6618 66.2907 41.5697 66.2554 41.4864C66.2202 41.4031 66.1606 41.3324 66.0844 41.2836C66.0082 41.2348 65.9191 41.2103 65.8287 41.2131C65.7122 41.2169 65.6017 41.2658 65.5207 41.3496L65.204 41.6663L64.8873 41.3496C64.8458 41.3067 64.796 41.2725 64.741 41.249C64.6861 41.2256 64.6269 41.2134 64.5671 41.2131ZM32.1509 42.9051C32.4678 43.0068 32.7906 43.1071 33.1342 43.2043C35.5253 43.8805 38.3183 44.3385 41.2072 44.583V46.0194C39.9362 47.2188 38.6874 48.3261 37.4962 49.2984C35.0052 47.8199 33.1392 45.5495 32.1509 42.9051ZM42.1031 43.0048H42.4897C42.747 43.2704 42.9993 43.538 43.2579 43.7991C42.8723 43.7803 42.4867 43.766 42.1031 43.74V43.0051V43.0048ZM43.5413 43.0048H44.2482C44.1295 43.1272 44.0136 43.2561 43.8947 43.3774C43.7759 43.2561 43.66 43.1272 43.5413 43.0048ZM45.2997 43.0048H45.6864V43.8656C45.2788 43.8656 44.8758 43.8745 44.4669 43.8566C44.7467 43.5744 45.0214 43.2884 45.2997 43.001V43.0048ZM55.2046 43.9199C54.1497 46.1283 52.459 48.013 50.2933 49.2984C49.102 48.3261 47.8533 47.2188 46.5822 46.0194V44.772C49.6695 44.7406 52.6605 44.469 55.2046 43.9199ZM42.1031 44.6478C42.2624 44.6585 42.4228 44.663 42.5825 44.6719C42.4225 44.8293 42.2628 44.9859 42.1031 45.1409V44.6475V44.6478ZM43.585 44.723C43.8036 44.732 44.0207 44.749 44.2394 44.7561C44.7225 45.2305 45.2044 45.7187 45.6864 46.1717V54.647H42.1031V46.1717C42.5965 45.708 43.0905 45.209 43.585 44.7229V44.723ZM45.3102 44.7741C45.4362 44.7741 45.5606 44.7733 45.6864 44.7741V45.1432C45.5609 45.0215 45.4359 44.8973 45.3102 44.7741ZM60.4677 46.5881C59.7308 46.5881 59.1239 47.1951 59.1239 47.9319C59.1239 48.6687 59.7308 49.2756 60.4677 49.2756C61.2045 49.2756 61.8114 48.6687 61.8114 47.9319C61.8114 47.1951 61.2045 46.5881 60.4677 46.5881ZM41.2072 46.9783V54.6471H38.28V49.7375L38.1278 49.6569C39.1263 48.8509 40.1631 47.9306 41.2072 46.9782V46.9783ZM46.5822 46.9783C47.6264 47.9308 48.6632 48.8511 49.6617 49.6571L49.5094 49.7377V54.6473H46.5822V46.9785V46.9783ZM21.051 47.4787C20.9325 47.4805 20.8196 47.5293 20.7369 47.6142C20.6543 47.6992 20.6087 47.8134 20.6101 47.9319V48.3798H20.1622C20.1028 48.379 20.0439 48.3899 19.9888 48.4121C19.9337 48.4342 19.8836 48.4671 19.8413 48.5087C19.799 48.5504 19.7655 48.6001 19.7426 48.6548C19.7197 48.7096 19.7079 48.7684 19.7079 48.8277C19.7079 48.8871 19.7197 48.9459 19.7426 49.0006C19.7655 49.0554 19.799 49.105 19.8413 49.1467C19.8836 49.1884 19.9337 49.2213 19.9888 49.2434C20.0439 49.2655 20.1028 49.2765 20.1622 49.2756H20.6101V49.7236C20.6092 49.7829 20.6202 49.8418 20.6423 49.8969C20.6645 49.952 20.6973 50.0021 20.739 50.0444C20.7807 50.0867 20.8303 50.1202 20.8851 50.1431C20.9399 50.166 20.9986 50.1778 21.058 50.1778C21.1173 50.1778 21.1761 50.166 21.2309 50.1431C21.2856 50.1202 21.3353 50.0867 21.377 50.0444C21.4186 50.0021 21.4515 49.952 21.4736 49.8969C21.4958 49.8418 21.5067 49.7829 21.5059 49.7236V49.2756H21.9538C22.0132 49.2765 22.0721 49.2655 22.1272 49.2434C22.1823 49.2213 22.2324 49.1884 22.2747 49.1467C22.3169 49.105 22.3505 49.0554 22.3734 49.0006C22.3963 48.9459 22.4081 48.8871 22.4081 48.8277C22.4081 48.7684 22.3963 48.7096 22.3734 48.6548C22.3505 48.6001 22.3169 48.5504 22.2747 48.5087C22.2324 48.4671 22.1823 48.4342 22.1272 48.4121C22.0721 48.3899 22.0132 48.379 21.9538 48.3798H21.5059V47.9319C21.5066 47.872 21.4953 47.8126 21.4727 47.7572C21.45 47.7018 21.4165 47.6515 21.3741 47.6092C21.3317 47.567 21.2813 47.5336 21.2258 47.5112C21.1703 47.4888 21.1108 47.4777 21.051 47.4787ZM60.4677 47.4876C60.7203 47.4876 60.9156 47.6828 60.9156 47.9356C60.9156 48.1883 60.7203 48.3835 60.4677 48.3835C60.215 48.3835 60.0197 48.1883 60.0197 47.9356C60.0197 47.6828 60.215 47.4876 60.4677 47.4876ZM36.7281 55.5466H41.2072H42.1031H45.6864H46.5822H51.0614V56.4425H36.7281V55.5466ZM58.676 56.4407C58.5575 56.4425 58.4446 56.4913 58.3619 56.5762C58.2793 56.6612 58.2337 56.7754 58.2351 56.8939V57.3418H57.7872C57.7278 57.341 57.6689 57.3519 57.6138 57.3741C57.5587 57.3962 57.5086 57.4291 57.4663 57.4707C57.424 57.5124 57.3905 57.5621 57.3676 57.6168C57.3447 57.6716 57.3329 57.7304 57.3329 57.7897C57.3329 57.8491 57.3447 57.9079 57.3676 57.9626C57.3905 58.0174 57.424 58.067 57.4663 58.1087C57.5086 58.1504 57.5587 58.1833 57.6138 58.2054C57.6689 58.2275 57.7278 58.2385 57.7872 58.2376H58.2351V58.6856C58.2342 58.7449 58.2452 58.8038 58.2673 58.8589C58.2895 58.914 58.3223 58.9641 58.364 59.0064C58.4057 59.0487 58.4553 59.0822 58.5101 59.1052C58.5649 59.1281 58.6236 59.1398 58.683 59.1398C58.7423 59.1398 58.8011 59.1281 58.8559 59.1052C58.9106 59.0822 58.9603 59.0487 59.002 59.0064C59.0436 58.9641 59.0765 58.914 59.0986 58.8589C59.1208 58.8038 59.1317 58.7449 59.1309 58.6856V58.2376H59.5788C59.6382 58.2385 59.6971 58.2275 59.7522 58.2054C59.8073 58.1833 59.8574 58.1504 59.8997 58.1087C59.9419 58.067 59.9755 58.0174 59.9984 57.9626C60.0213 57.9079 60.0331 57.8491 60.0331 57.7897C60.0331 57.7304 60.0213 57.6716 59.9984 57.6168C59.9755 57.5621 59.9419 57.5124 59.8997 57.4707C59.8574 57.4291 59.8073 57.3962 59.7522 57.3741C59.6971 57.3519 59.6382 57.341 59.5788 57.3418H59.1309V56.8939C59.1321 56.8337 59.1212 56.774 59.0988 56.7181C59.0764 56.6623 59.0429 56.6115 59.0005 56.5688C58.958 56.5262 58.9074 56.4925 58.8516 56.4699C58.7959 56.4472 58.7362 56.4361 58.676 56.437V56.4407ZM36.3291 57.3383H51.4603C51.7565 57.3383 51.9572 57.5436 51.9572 57.7862C51.9572 58.0287 51.7565 58.2341 51.4603 58.2341H36.3291C36.033 58.2341 35.8322 58.0287 35.8322 57.7862C35.8322 57.5436 36.033 57.3383 36.3291 57.3383ZM26.4382 57.349C25.7014 57.349 25.0945 57.956 25.0945 58.6928C25.0945 59.4296 25.7014 60.0365 26.4382 60.0365C27.1751 60.0365 27.782 59.4296 27.782 58.6928C27.782 57.956 27.1751 57.349 26.4382 57.349ZM26.4382 58.2449C26.6909 58.2449 26.8862 58.4401 26.8862 58.6928C26.8862 58.9455 26.6909 59.1407 26.4382 59.1407C26.1856 59.1407 25.9903 58.9455 25.9903 58.6928C25.9903 58.4401 26.1856 58.2449 26.4382 58.2449ZM36.7281 59.1263H51.0614V60.0221H36.7281V59.1263ZM36.3291 60.9179H51.4603C51.7565 60.9179 51.9572 61.1233 51.9572 61.3658C51.9572 61.6083 51.7565 61.8138 51.4603 61.8138H36.3291C36.033 61.8138 35.8322 61.6083 35.8322 61.3658C35.8322 61.1233 36.033 60.9179 36.3291 60.9179ZM36.7281 62.7096H51.0614V63.6054H48.8673C48.8522 63.6047 48.837 63.6047 48.8218 63.6054H38.9677C38.9525 63.6047 38.9373 63.6047 38.9222 63.6054H36.7281V62.7096ZM39.4156 64.5013H48.3739V65.3971H39.4156V64.5013Z" fill="#5084FC"/>
</g>
<defs>
<clipPath id="clip0_1259_313997">
<rect width="86" height="86" fill="white"/>
</clipPath>
</defs>
</svg>
