<svg width="86" height="86" viewBox="0 0 86 86" fill="none" xmlns="http://www.w3.org/2000/svg">
<g clip-path="url(#clip0_1259_314002)">
<path d="M43 86.0001C66.7482 86.0001 86 66.7482 86 43C86 19.2518 66.7482 0 43 0C19.2518 0 0 19.2518 0 43C0 66.7482 19.2518 86.0001 43 86.0001Z" fill="#ECF2FF"/>
<path d="M60.1049 37.4287C61.3566 41.2753 61.2765 45.4316 59.8774 49.2271C58.4784 53.0226 55.842 56.2361 52.3936 58.3491C48.9451 60.4622 44.8856 61.3517 40.8699 60.8741C36.8541 60.3965 33.1163 58.5797 30.2592 55.7167C27.4022 52.8537 25.5926 49.1115 25.1222 45.0937C24.6518 41.0758 25.5481 37.0166 27.6665 33.5708C29.785 30.1249 33.002 27.4934 36.7988 26.1005C40.5956 24.7077 44.7507 24.6349 48.5939 25.8937L46.2364 28.2498C46.1059 28.378 45.9889 28.5198 45.8809 28.6661C42.8037 28.0448 39.6083 28.4306 36.7673 29.7666C33.9263 31.1025 31.5905 33.3176 30.1054 36.0843C28.6204 38.8509 28.0648 42.0222 28.521 45.1291C28.9771 48.2361 30.4207 51.1136 32.6384 53.3363C34.856 55.559 37.7298 57.0087 40.8348 57.4711C43.9399 57.9335 47.1112 57.384 49.8799 55.9039C52.6486 54.4238 54.8676 52.0916 56.2087 49.2523C57.5498 46.413 57.9418 43.2174 57.3267 40.138C57.4806 40.0288 57.6251 39.9068 57.7586 39.7735L60.1027 37.4287H60.1049ZM54.0198 40.7613C54.5028 43.1312 54.2095 45.5937 53.1834 47.7837C52.1572 49.9738 50.4529 51.7747 48.3231 52.9197C46.1933 54.0646 43.7514 54.4925 41.3594 54.14C38.9673 53.7875 36.7525 52.6733 35.0432 50.9626C33.334 49.252 32.2213 47.0359 31.8701 44.6429C31.519 42.2499 31.948 39.8074 33.0937 37.6775C34.2393 35.5476 36.0406 33.8437 38.2304 32.8184C40.4203 31.7931 42.8822 31.5009 45.251 31.9852V35.4642C43.5721 34.9628 41.7739 35.036 40.1413 35.6721C38.5086 36.3082 37.1347 37.471 36.237 38.9762C35.3394 40.4815 34.9694 42.2432 35.1855 43.9825C35.4016 45.7219 36.1916 47.3394 37.4303 48.579C38.669 49.8186 40.2856 50.6095 42.0243 50.8265C43.763 51.0434 45.5244 50.674 47.0295 49.7767C48.5347 48.8794 49.6976 47.5056 50.3342 45.8727C50.9708 44.2397 51.0448 42.441 50.5443 40.7613H54.0198ZM42.997 46.387C43.5145 46.3873 44.0251 46.2685 44.4893 46.0398C44.9536 45.8112 45.3591 45.4787 45.6744 45.0683C45.9897 44.6578 46.2064 44.1803 46.3077 43.6727C46.4091 43.165 46.3924 42.6409 46.2588 42.1407L49.8177 38.5786L49.8851 38.511H55.3741C55.5219 38.5113 55.6683 38.4824 55.8049 38.4261C55.9416 38.3697 56.0658 38.2869 56.1704 38.1825L60.6696 33.6819C60.8273 33.5246 60.9347 33.3239 60.9783 33.1054C61.0218 32.8869 60.9996 32.6603 60.9143 32.4545C60.829 32.2487 60.6845 32.0728 60.4992 31.9492C60.3138 31.8256 60.096 31.7598 59.8732 31.7602H54.2493V26.1345C54.2493 25.9122 54.1833 25.6948 54.0599 25.5099C53.9364 25.325 53.761 25.1808 53.5557 25.0955C53.3503 25.0103 53.1244 24.9878 52.9063 25.031C52.6882 25.0741 52.4879 25.1809 52.3304 25.3379L47.8313 29.8385C47.7265 29.943 47.6434 30.0671 47.5866 30.2038C47.5299 30.3405 47.5006 30.4871 47.5006 30.6351V36.1258C47.4775 36.1476 47.455 36.1701 47.4331 36.1933L43.8743 39.7487C43.3739 39.6144 42.8494 39.5971 42.3412 39.6981C41.8331 39.7991 41.355 40.0157 40.9439 40.3311C40.5329 40.6466 40.1999 41.0524 39.9708 41.5172C39.7417 41.982 39.6225 42.4934 39.6226 43.0116C39.6226 43.9068 39.9781 44.7654 40.611 45.3984C41.2438 46.0314 42.102 46.387 42.997 46.387Z" fill="#5084FC"/>
</g>
<defs>
<clipPath id="clip0_1259_314002">
<rect width="86" height="86" fill="white"/>
</clipPath>
</defs>
</svg>
