<svg width="86" height="86" viewBox="0 0 86 86" fill="none" xmlns="http://www.w3.org/2000/svg">
<g clip-path="url(#clip0_1259_313992)">
<path d="M42.9989 86.0005C66.7472 86.0005 85.9989 66.7487 85.9989 43.0005C85.9989 19.2522 66.7472 0.000488281 42.9989 0.000488281C19.2507 0.000488281 -0.00106812 19.2522 -0.00106812 43.0005C-0.00106812 66.7487 19.2507 86.0005 42.9989 86.0005Z" fill="#ECF2FF"/>
<path d="M39.6826 17.9344C39.5712 17.9127 39.4333 17.9074 39.2417 17.9414V17.9484C38.8588 18.0165 38.7356 18.1568 38.5873 18.2774C38.439 18.3974 38.3029 18.5303 38.1639 18.6763C37.8858 18.9685 37.5954 19.3175 37.3066 19.6631C37.0178 20.0087 36.7324 20.3495 36.5087 20.5974C36.4147 20.7013 36.3423 20.7731 36.2812 20.8319C36.1976 20.8319 36.0987 20.8112 35.9628 20.7969C35.6343 20.7521 35.2001 20.6752 34.759 20.5974C34.3179 20.5204 33.8708 20.4415 33.4713 20.398C33.2715 20.3765 33.085 20.3629 32.8939 20.3665C32.7028 20.3665 32.515 20.3461 32.18 20.5414C31.8449 20.7369 31.7778 20.9094 31.6796 21.0733C31.5814 21.2382 31.5017 21.406 31.4207 21.5912C31.2586 21.9616 31.099 22.3914 30.9447 22.816C30.7905 23.2406 30.6406 23.6603 30.5143 23.9708C30.461 24.1016 30.4155 24.1984 30.3778 24.2752C30.2972 24.2985 30.1978 24.3253 30.0629 24.3557C29.7389 24.4274 29.3071 24.5045 28.8661 24.5832C28.4251 24.662 27.9757 24.7443 27.5854 24.8421C27.3902 24.8905 27.2106 24.9402 27.0325 25.0101C26.8543 25.08 26.6703 25.1193 26.4236 25.416C26.1766 25.7131 26.1733 25.9001 26.1366 26.0879C26.1 26.2755 26.0801 26.4599 26.0666 26.6618C26.0397 27.0656 26.0398 27.525 26.0387 27.9775C26.0375 28.4299 26.0381 28.8772 26.0247 29.2128C26.0189 29.3561 26.0061 29.4598 25.9967 29.5452C25.9286 29.5954 25.8465 29.6582 25.7272 29.7342C25.4466 29.9137 25.0615 30.1367 24.6739 30.3641C24.2863 30.5915 23.8948 30.8239 23.5611 31.05C23.3943 31.1628 23.2426 31.2734 23.0992 31.3999C22.9558 31.5271 22.7991 31.6261 22.6688 31.9878C22.5385 32.3494 22.5942 32.5266 22.6233 32.7157C22.6524 32.9045 22.7005 33.0848 22.7563 33.2791C22.8678 33.6678 23.0206 34.0997 23.1727 34.5248C23.3248 34.9498 23.4742 35.3705 23.5751 35.6901C23.6182 35.8263 23.6461 35.9287 23.6661 36.012C23.6192 36.0837 23.5574 36.1751 23.4701 36.2885C23.2672 36.5542 22.9836 36.8929 22.6968 37.2403C22.4099 37.5877 22.1214 37.9418 21.8849 38.2691C21.7667 38.4322 21.6614 38.5877 21.57 38.7555C21.4785 38.924 21.3635 39.0718 21.3635 39.4554C21.3635 39.839 21.4785 39.9874 21.57 40.1553C21.6614 40.3237 21.7667 40.4781 21.8849 40.6417C22.1214 40.969 22.4099 41.3231 22.6968 41.6705C22.9836 42.0181 23.2672 42.3566 23.4701 42.6223C23.5574 42.737 23.6192 42.8271 23.6661 42.8988C23.6461 42.983 23.6182 43.0844 23.5751 43.2207C23.4742 43.5403 23.3248 43.9608 23.1727 44.386C23.0206 44.811 22.8678 45.2396 22.7563 45.6283C22.7005 45.8227 22.6524 46.0063 22.6233 46.1952C22.5942 46.3842 22.5385 46.5615 22.6688 46.923C22.7991 47.2848 22.9558 47.3844 23.0992 47.5109C23.2426 47.6381 23.3943 47.7478 23.5611 47.8608C23.8948 48.087 24.2863 48.3194 24.6739 48.5467C25.0615 48.7743 25.4465 48.9938 25.7272 49.1731C25.8459 49.2484 25.9286 49.311 25.9967 49.3621C26.0062 49.4481 26.0189 49.5541 26.0247 49.698C26.0382 50.0338 26.0375 50.4807 26.0387 50.9333C26.0398 51.3857 26.0397 51.8415 26.0666 52.2455C26.0801 52.4474 26.1 52.6352 26.1366 52.8229C26.1733 53.0105 26.1768 53.1976 26.4236 53.4948C26.6704 53.7919 26.8543 53.8312 27.0325 53.9007C27.2106 53.9706 27.3902 54.0238 27.5854 54.0722C27.9757 54.1689 28.4252 54.2516 28.8661 54.3311C29.3071 54.41 29.7389 54.4871 30.0629 54.5586C30.1978 54.5891 30.2973 54.6158 30.3778 54.6391C30.4155 54.7161 30.461 54.8129 30.5143 54.9435C30.5954 55.143 30.6953 55.4235 30.7908 55.6854L26.0596 63.7444C25.9627 63.9092 25.9171 64.0993 25.9286 64.2902C25.9401 64.4811 26.0082 64.6642 26.1242 64.8163C26.2402 64.9683 26.3988 65.0824 26.5799 65.1439C26.761 65.2054 26.9563 65.2116 27.1409 65.1616L31.4696 63.9998L32.6314 68.332C32.6815 68.5149 32.7844 68.679 32.9273 68.8036C33.0702 68.9282 33.2468 69.0078 33.4348 69.0325C33.6228 69.0571 33.8139 69.0257 33.9841 68.9422C34.1543 68.8587 34.2961 68.7268 34.3916 68.563L38.8568 60.8329C38.9509 60.8862 39.0645 60.9343 39.2417 60.9659C39.625 61.034 39.7888 60.9446 39.9696 60.8819C40.1504 60.8192 40.3212 60.744 40.5015 60.6545C40.8621 60.4753 41.2574 60.2496 41.6458 60.0246C42.0341 59.7994 42.4158 59.5747 42.7096 59.4192C42.8326 59.3547 42.923 59.3098 43 59.2757C43.077 59.3098 43.1682 59.3547 43.2904 59.4192C43.5845 59.5751 43.9655 59.7994 44.3542 60.0246C44.743 60.2496 45.1377 60.4758 45.4985 60.6545C45.679 60.744 45.8496 60.8192 46.0304 60.8819C46.2112 60.9446 46.375 61.034 46.7583 60.9659C46.9339 60.9347 47.0459 60.8857 47.1397 60.8329L51.6014 68.563C51.6967 68.7271 51.8384 68.8593 52.0087 68.943C52.179 69.0268 52.3702 69.0583 52.5584 69.0336C52.7465 69.0089 52.9232 68.9291 53.0661 68.8043C53.209 68.6795 53.3118 68.5152 53.3616 68.332L54.5234 64.0033L58.8485 65.1651C59.033 65.2145 59.2279 65.2078 59.4086 65.1461C59.5892 65.0843 59.7474 64.9701 59.863 64.8182C59.9786 64.6662 60.0463 64.4833 60.0576 64.2927C60.0689 64.1021 60.0232 63.9124 59.9263 63.7479L55.2057 55.6994C55.3031 55.4321 55.4031 55.1466 55.4857 54.9435C55.539 54.8127 55.5845 54.7158 55.6221 54.6391C55.7027 54.6158 55.8022 54.5891 55.9371 54.5586C56.2611 54.4869 56.6929 54.4116 57.1339 54.3311C57.5748 54.2523 58.0243 54.1698 58.4146 54.0722C58.6098 54.0238 58.7894 53.9706 58.9675 53.9007C59.1457 53.8309 59.3296 53.7913 59.5764 53.4948C59.8232 53.1976 59.8267 53.0105 59.8634 52.8229C59.9 52.6352 59.9199 52.4475 59.9333 52.2455C59.9602 51.8415 59.9602 51.3857 59.9613 50.9333C59.9625 50.4807 59.9619 50.0338 59.9753 49.698C59.9811 49.5547 59.9937 49.4477 60.0033 49.3621C60.0713 49.3119 60.1543 49.2493 60.2728 49.1731C60.5532 48.9938 60.9354 48.7743 61.3226 48.5467C61.7098 48.3194 62.102 48.0871 62.4354 47.8609C62.6021 47.748 62.754 47.6376 62.8973 47.5109C63.0405 47.3837 63.1975 47.2844 63.3277 46.923C63.458 46.5615 63.4023 46.3842 63.3732 46.1952C63.3441 46.0063 63.296 45.8227 63.2402 45.6283C63.1287 45.2397 62.9759 44.811 62.8238 44.386C62.6717 43.9608 62.5223 43.5403 62.4214 43.2207C62.3783 43.0845 62.3504 42.9823 62.3304 42.8988C62.3773 42.8271 62.439 42.7357 62.5264 42.6223C62.7296 42.3566 63.0125 42.0181 63.2997 41.6705C63.587 41.3231 63.8782 40.969 64.1151 40.6417C64.2335 40.4787 64.3384 40.3232 64.43 40.1553C64.5216 39.9869 64.6365 39.8394 64.6365 39.4554C64.6365 39.0715 64.5216 38.9234 64.43 38.7555C64.3384 38.5871 64.2335 38.4327 64.1151 38.2691C63.8782 37.9418 63.587 37.5877 63.2997 37.2403C63.0125 36.8929 62.7296 36.5507 62.5264 36.285C62.4391 36.1703 62.3774 36.0837 62.3304 36.0121C62.3504 35.9278 62.3783 35.8265 62.4214 35.6901C62.5223 35.3705 62.6717 34.9498 62.8238 34.5248C62.9759 34.0997 63.1287 33.6679 63.2402 33.2791C63.296 33.0848 63.3441 32.9045 63.3732 32.7157C63.4023 32.5266 63.458 32.3494 63.3277 31.9878C63.1975 31.6264 63.0405 31.5266 62.8973 31.3999C62.754 31.2727 62.6021 31.163 62.4354 31.05C62.102 30.8239 61.7098 30.5915 61.3226 30.3641C60.9354 30.1366 60.5531 29.9137 60.2728 29.7342C60.1537 29.6572 60.0713 29.5961 60.0033 29.5453C59.9938 29.4593 59.9811 29.3553 59.9753 29.2128C59.9619 28.8772 59.9624 28.4299 59.9613 27.9775C59.9602 27.525 59.9603 27.0656 59.9333 26.6618C59.9199 26.4599 59.9 26.2755 59.8634 26.0879C59.8268 25.9001 59.8233 25.7131 59.5764 25.416C59.3297 25.1188 59.1457 25.0798 58.9675 25.0101C58.7893 24.9402 58.6098 24.8905 58.4146 24.8421C58.0242 24.7454 57.5748 24.6627 57.1339 24.5832C56.6929 24.5043 56.2611 24.4272 55.9371 24.3557C55.8022 24.3253 55.7027 24.2985 55.6221 24.2752C55.5845 24.1982 55.539 24.1016 55.4857 23.9708C55.3594 23.6603 55.2095 23.2406 55.0553 22.816C54.901 22.3914 54.7414 21.9616 54.5793 21.5912C54.4983 21.406 54.4186 21.2374 54.3204 21.0733C54.2225 20.9103 54.1523 20.736 53.82 20.5414C53.485 20.3458 53.2973 20.37 53.1061 20.3665C52.915 20.3665 52.7285 20.3836 52.5287 20.398C52.1291 20.441 51.6821 20.5198 51.241 20.5974C50.7998 20.6745 50.3657 20.7532 50.0372 20.7969C49.9013 20.8148 49.8023 20.8247 49.7187 20.8319C49.6576 20.7727 49.5853 20.701 49.4913 20.5974C49.2676 20.3494 48.9823 20.0087 48.6934 19.6631C48.4046 19.3175 48.1107 18.965 47.8326 18.6728C47.6935 18.5259 47.561 18.3979 47.4127 18.2773C47.2643 18.1573 47.1416 18.013 46.7583 17.9449C46.3749 17.8768 46.2113 17.9627 46.0304 18.0254C45.8496 18.0881 45.679 18.1669 45.4985 18.2563C45.1377 18.4355 44.743 18.6612 44.3542 18.8862C43.9655 19.1114 43.5845 19.3361 43.2904 19.4916C43.1683 19.5561 43.077 19.5941 43 19.6281C42.923 19.5941 42.8325 19.5561 42.7096 19.4916C42.4158 19.3357 42.0341 19.1114 41.6458 18.8862C41.2574 18.6612 40.862 18.4352 40.5015 18.2563C40.3212 18.1668 40.1503 18.0879 39.9696 18.0254C39.8792 17.994 39.7941 17.9561 39.6826 17.9344V17.9344ZM39.5706 19.8101C39.6194 19.8316 39.6477 19.8374 39.7071 19.866C39.9884 20.0058 40.3635 20.218 40.7464 20.4399C41.1293 20.6619 41.5196 20.8914 41.8697 21.0768C42.0448 21.17 42.2083 21.2541 42.3736 21.3218C42.539 21.3899 42.6714 21.4688 43 21.4688C43.3286 21.4688 43.4575 21.3899 43.6229 21.3218C43.7883 21.2537 43.9516 21.1696 44.1268 21.0768C44.4771 20.8916 44.8703 20.6619 45.2536 20.4399C45.6369 20.218 46.0113 20.0054 46.2929 19.866C46.3529 19.8356 46.3802 19.8316 46.4294 19.8101C46.4679 19.8477 46.4919 19.8632 46.5378 19.9115C46.7553 20.14 47.0369 20.4736 47.3217 20.8144C47.6065 21.1553 47.8955 21.5063 48.1615 21.8012C48.2946 21.9481 48.418 22.0792 48.55 22.2001C48.6819 22.3219 48.7777 22.4403 49.0854 22.5536C49.3931 22.6664 49.5436 22.6377 49.7222 22.6305C49.9009 22.6305 50.0827 22.6049 50.2786 22.578C50.6706 22.5243 51.1175 22.4437 51.5524 22.3681C51.9873 22.291 52.4135 22.2194 52.7247 22.1861C52.7907 22.1861 52.8183 22.1865 52.8717 22.1686C52.8961 22.2188 52.9101 22.2441 52.9381 22.3086C53.0652 22.599 53.22 23.0095 53.3721 23.4284C53.5242 23.8473 53.677 24.2772 53.827 24.6462C53.902 24.8305 53.9752 24.9981 54.0579 25.1571C54.1407 25.3165 54.1901 25.46 54.4394 25.6715C54.6889 25.8829 54.8394 25.9069 55.0098 25.9619C55.1801 26.0175 55.3554 26.0624 55.5487 26.1054C55.9352 26.1914 56.3806 26.2684 56.8154 26.3468C57.2502 26.4257 57.6766 26.5027 57.9807 26.5778C58.048 26.5957 58.0748 26.609 58.1277 26.6233C58.1338 26.6788 58.1404 26.7091 58.1452 26.7808C58.1663 27.0979 58.1686 27.5347 58.1697 27.981C58.1709 28.4273 58.1711 28.8843 58.1873 29.2828C58.1954 29.482 58.2053 29.665 58.2293 29.8427C58.2532 30.0201 58.2531 30.1725 58.4148 30.4551C58.576 30.7373 58.7077 30.8136 58.8487 30.924C58.9896 31.0351 59.1401 31.139 59.3071 31.2459C59.641 31.4597 60.0346 31.6865 60.4164 31.9108C60.7982 32.1351 61.1708 32.357 61.4312 32.5337C61.4898 32.5731 61.5122 32.5941 61.5572 32.6282C61.5437 32.6837 61.5387 32.7158 61.5187 32.7856C61.4312 33.0904 61.2873 33.5037 61.1372 33.9229C60.9872 34.3423 60.8337 34.768 60.7138 35.1477C60.6539 35.3376 60.601 35.515 60.5634 35.6901C60.5257 35.8657 60.4727 36.0077 60.5284 36.327C60.5842 36.6466 60.6818 36.7629 60.7768 36.9149C60.8718 37.0672 60.9815 37.2188 61.1023 37.3768C61.3439 37.6926 61.6343 38.0385 61.9176 38.3811C62.2009 38.7238 62.4775 39.0627 62.663 39.3189C62.7063 39.378 62.7222 39.407 62.754 39.4554C62.7222 39.5038 62.7063 39.5327 62.663 39.5919C62.4775 39.8482 62.2009 40.1834 61.9176 40.5262C61.6343 40.8688 61.3439 41.2179 61.1023 41.534C60.9815 41.6917 60.8718 41.837 60.7768 41.9889C60.6818 42.1412 60.5841 42.2642 60.5284 42.5838C60.4726 42.9031 60.5257 43.0455 60.5634 43.2207C60.601 43.3963 60.6539 43.5697 60.7138 43.7596C60.8337 44.1392 60.9872 44.5686 61.1372 44.9879C61.2873 45.4071 61.4312 45.8204 61.5187 46.1251C61.5387 46.195 61.5438 46.2271 61.5572 46.2826C61.5122 46.3167 61.4898 46.3359 61.4312 46.3771C61.1708 46.5545 60.7982 46.7757 60.4164 47C60.0346 47.2241 59.641 47.4513 59.3071 47.6649C59.1401 47.7724 58.9896 47.8729 58.8487 47.9833C58.7078 48.0944 58.5761 48.17 58.4148 48.4522C58.2533 48.7347 58.2532 48.8834 58.2293 49.0611C58.2054 49.2385 58.1953 49.4254 58.1873 49.6245C58.1713 50.023 58.171 50.4763 58.1697 50.9227C58.1686 51.369 58.1663 51.8059 58.1452 52.123C58.1404 52.1947 58.1339 52.2267 58.1277 52.284C58.075 52.3019 58.0478 52.3081 57.9807 52.326C57.6765 52.4012 57.2502 52.482 56.8154 52.5604C56.3806 52.6393 55.9352 52.7163 55.5487 52.8019C55.3554 52.8449 55.1801 52.8863 55.0098 52.9419C54.8394 52.9974 54.6888 53.0242 54.4394 53.2358C54.19 53.4471 54.1407 53.5913 54.0579 53.7502C53.9752 53.9097 53.902 54.0768 53.827 54.2611C53.677 54.63 53.5242 55.06 53.3721 55.4789C53.22 55.8978 53.0652 56.3048 52.9381 56.5952C52.9095 56.6597 52.893 56.6885 52.8682 56.7387C52.8157 56.7387 52.7892 56.7391 52.7247 56.7211C52.4134 56.6871 51.9873 56.6155 51.5524 56.5391C51.1175 56.4621 50.6706 56.3815 50.2786 56.3292C50.0827 56.3023 49.9009 56.2804 49.7222 56.2732C49.5435 56.2732 49.3931 56.2408 49.0854 56.3537C48.7776 56.4666 48.6819 56.5827 48.55 56.7036C48.418 56.8254 48.2946 56.9586 48.1615 57.106C47.8955 57.4009 47.6065 57.7521 47.3217 58.0929C47.0369 58.4338 46.7554 58.7636 46.5378 58.9922C46.4915 59.0406 46.4682 59.0595 46.4294 59.0972C46.3804 59.0757 46.3526 59.0663 46.2929 59.0377C46.0113 58.8979 45.6369 58.6823 45.2536 58.4603C44.8703 58.2383 44.4771 58.0088 44.1268 57.8234C43.9516 57.7302 43.7883 57.6495 43.6229 57.582C43.4575 57.5139 43.3286 57.435 43 57.435C42.6714 57.435 42.539 57.5139 42.3736 57.582C42.2082 57.65 42.0447 57.7343 41.8697 57.8269C41.5196 58.0123 41.1293 58.242 40.7464 58.4638C40.3635 58.6858 39.9883 58.8981 39.7071 59.0377C39.6475 59.0663 39.6195 59.0757 39.5706 59.0972C39.5318 59.0595 39.5085 59.0424 39.4622 58.9922C39.2446 58.7636 38.9631 58.4338 38.6783 58.0929C38.3935 57.7521 38.1045 57.4009 37.8385 57.106C37.7054 56.9591 37.582 56.8247 37.45 56.7036C37.3181 56.5836 37.2225 56.4669 36.9146 56.3537C36.6069 56.2408 36.4564 56.266 36.2777 56.2732C36.099 56.2732 35.9173 56.3023 35.7213 56.3292C35.3294 56.3829 34.8825 56.4635 34.4476 56.5391C34.0127 56.6162 33.5866 56.6878 33.2753 56.7211C33.2108 56.7211 33.1842 56.7207 33.1318 56.7387C33.107 56.6885 33.0905 56.6615 33.0618 56.5952C32.9348 56.3048 32.78 55.8978 32.6279 55.4789C32.4758 55.06 32.323 54.63 32.173 54.2611C32.098 54.0768 32.0248 53.9091 31.9421 53.7502C31.8593 53.5908 31.81 53.4471 31.5606 53.2358C31.3112 53.0242 31.1606 52.9969 30.9902 52.9419C30.8199 52.8863 30.6446 52.8449 30.4513 52.8019C30.0648 52.7159 29.6193 52.6389 29.1846 52.5604C28.7498 52.4816 28.3235 52.4009 28.0193 52.326C27.9522 52.3081 27.925 52.3001 27.8723 52.284C27.8661 52.2267 27.8596 52.1947 27.8548 52.123C27.8337 51.8059 27.8314 51.369 27.8303 50.9227C27.8292 50.4763 27.8288 50.023 27.8128 49.6245C27.8048 49.4255 27.7948 49.2389 27.7708 49.0611C27.7469 48.8837 27.7468 48.7348 27.5854 48.4522C27.4239 48.1697 27.2925 48.0935 27.1514 47.9833C27.0104 47.8722 26.8567 47.7718 26.6895 47.6649C26.3553 47.4513 25.9624 47.2241 25.5802 47C25.198 46.7757 24.8261 46.5538 24.5654 46.3771C24.5068 46.3377 24.4845 46.3167 24.4395 46.2826C24.4529 46.2271 24.4579 46.195 24.4779 46.1252C24.5654 45.8204 24.7094 45.4071 24.8594 44.9879C25.0094 44.5686 25.1629 44.1393 25.2828 43.7596C25.3427 43.5697 25.3956 43.3959 25.4333 43.2207C25.4709 43.0451 25.524 42.9031 25.4683 42.5838C25.4126 42.2647 25.3146 42.1409 25.2198 41.9889C25.125 41.8367 25.015 41.6919 24.8944 41.534C24.6531 41.218 24.3619 40.869 24.079 40.5262C23.7961 40.1836 23.5223 39.8483 23.3372 39.5919C23.2939 39.5328 23.2779 39.5038 23.2462 39.4554C23.2779 39.407 23.2939 39.3781 23.3372 39.3189C23.5223 39.0627 23.7961 38.7239 24.079 38.3811C24.3619 38.0384 24.6531 37.6892 24.8944 37.3733C25.015 37.2156 25.125 37.0668 25.2198 36.9149C25.3146 36.7626 25.4125 36.6463 25.4683 36.327C25.524 36.0077 25.4709 35.8653 25.4333 35.6901C25.3956 35.5145 25.3427 35.3376 25.2828 35.1477C25.1629 34.7681 25.0094 34.3424 24.8594 33.923C24.7094 33.5037 24.5654 33.0904 24.4779 32.7857C24.4579 32.7158 24.4529 32.6837 24.4395 32.6282C24.4845 32.5942 24.5068 32.5731 24.5654 32.5337C24.8261 32.3563 25.198 32.135 25.5802 31.9108C25.9625 31.6865 26.3552 31.4597 26.6895 31.246C26.8567 31.1385 27.0104 31.0344 27.1514 30.924C27.2925 30.8129 27.4239 30.7377 27.5854 30.4551C27.747 30.1724 27.7469 30.0203 27.7708 29.8427C27.7948 29.6653 27.8048 29.4821 27.8128 29.2828C27.8288 28.8844 27.8292 28.4274 27.8303 27.9811C27.8314 27.5348 27.8337 27.0979 27.8548 26.7808C27.8596 26.7091 27.8662 26.6807 27.8723 26.6233C27.9252 26.6054 27.952 26.594 28.0193 26.5778C28.3235 26.5026 28.7498 26.4255 29.1846 26.3469C29.6193 26.268 30.0648 26.1911 30.4513 26.1054C30.6446 26.0624 30.8199 26.0175 30.9902 25.9619C31.1605 25.9064 31.3112 25.8831 31.5606 25.6715C31.8098 25.4601 31.8593 25.316 31.9421 25.1571C32.0248 24.9976 32.098 24.8305 32.173 24.6462C32.323 24.2773 32.4758 23.8473 32.6279 23.4284C32.78 23.0095 32.9348 22.599 33.0619 22.3086C33.09 22.2441 33.1039 22.2188 33.1283 22.1686C33.1817 22.1686 33.2093 22.1682 33.2753 22.1862C33.5866 22.2202 34.0127 22.2918 34.4476 22.3681C34.8825 22.4452 35.3295 22.5258 35.7214 22.5781C35.9173 22.605 36.0991 22.6269 36.2778 22.6341C36.4565 22.6341 36.6069 22.6665 36.9146 22.5536C37.2224 22.4407 37.3181 22.3246 37.45 22.2036C37.582 22.0818 37.7054 21.9487 37.8385 21.8012C38.1046 21.5063 38.3935 21.1554 38.6783 20.8144C38.9631 20.4736 39.2446 20.1402 39.4622 19.9116C39.5081 19.8632 39.5321 19.8477 39.5707 19.8101L39.5706 19.8101ZM43 24.2332C34.5992 24.2332 27.7708 31.0616 27.7708 39.4624C27.7708 47.8633 34.5992 54.6916 43 54.6916C51.4008 54.6916 58.2292 47.8633 58.2292 39.4624C58.2292 31.0616 51.4008 24.2332 43 24.2332ZM43 25.9234C50.4863 25.9234 56.5355 31.9761 56.5355 39.4624C56.5355 46.9487 50.4863 52.9979 43 52.9979C35.5137 52.9979 29.4645 46.9487 29.4645 39.4624C29.4645 31.9761 35.5137 25.9234 43 25.9234ZM42.958 30.8855C42.4192 30.8855 42.1854 31.1637 42.0062 31.3579C41.8269 31.5521 41.6909 31.7633 41.5513 31.9948C41.272 32.4579 41.0013 33.0144 40.7359 33.58C40.4705 34.1454 40.2126 34.7156 39.9976 35.1477C39.8901 35.3638 39.7929 35.5483 39.7211 35.6656C39.7066 35.6894 39.7003 35.6966 39.6861 35.7146C39.6665 35.7221 39.6589 35.7252 39.6336 35.7322C39.5 35.7662 39.2984 35.803 39.0597 35.8406C38.5824 35.9177 37.9614 35.9938 37.3415 36.0786C36.7217 36.1628 36.1039 36.2577 35.5779 36.3865C35.3149 36.451 35.0786 36.519 34.8395 36.6315C34.6004 36.7444 34.268 36.8819 34.1046 37.3944C33.9413 37.9069 34.1289 38.2139 34.2586 38.4442C34.3883 38.6742 34.5466 38.8663 34.724 39.0705C35.079 39.4787 35.527 39.9107 35.9838 40.3373C36.4406 40.7641 36.9052 41.1859 37.2506 41.5236C37.4232 41.692 37.5668 41.8391 37.6565 41.9435C37.6717 41.9612 37.673 41.969 37.6845 41.9855C37.6856 42.0084 37.6899 42.0171 37.6881 42.045C37.6788 42.1829 37.6554 42.3909 37.6181 42.6294C37.5434 43.1061 37.4244 43.7155 37.3136 44.3301C37.203 44.9448 37.0983 45.5581 37.0582 46.0972C37.0381 46.3667 37.0314 46.6156 37.0652 46.8776C37.099 47.1397 37.1278 47.4985 37.5656 47.8119C38.0035 48.1253 38.3525 48.0385 38.6119 47.9869C38.8713 47.9349 39.1044 47.8473 39.3538 47.7419C39.8524 47.5311 40.4017 47.239 40.9495 46.9371C41.4972 46.6352 42.0397 46.3242 42.4682 46.1007C42.6824 45.9897 42.8693 45.9016 42.9966 45.8488C43.023 45.8377 43.0337 45.8377 43.0561 45.8312C43.0751 45.8371 43.0837 45.8353 43.105 45.8452C43.233 45.8972 43.4213 45.9854 43.637 46.0937C44.0681 46.3119 44.6112 46.6139 45.1627 46.909C45.7141 47.2041 46.2677 47.4952 46.7689 47.6999C47.0195 47.802 47.2542 47.8856 47.5142 47.9343C47.7743 47.9827 48.1231 48.0648 48.557 47.7453C48.9909 47.4264 49.0198 47.0663 49.0504 46.804C49.0811 46.5415 49.0703 46.2963 49.0469 46.0272C49.0001 45.4886 48.8852 44.8733 48.7669 44.26C48.6486 43.6467 48.5255 43.0387 48.445 42.5628C48.4047 42.3251 48.3755 42.1192 48.3645 41.9819C48.3623 41.9563 48.3638 41.9475 48.3645 41.9259C48.3763 41.9078 48.3794 41.9004 48.396 41.8804C48.4844 41.7747 48.6243 41.6209 48.7949 41.45C49.136 41.1082 49.5962 40.6822 50.0477 40.2497C50.4992 39.8176 50.9436 39.3849 51.2934 38.9725C51.4684 38.7661 51.6215 38.5674 51.7484 38.3356C51.8752 38.1038 52.0615 37.7999 51.8918 37.2893C51.7222 36.7788 51.387 36.6401 51.1465 36.5299C50.906 36.4189 50.6649 36.3536 50.4011 36.292C49.8736 36.1701 49.2583 36.0893 48.6374 36.012C48.0166 35.935 47.394 35.8658 46.9158 35.7951C46.6766 35.7592 46.4724 35.7258 46.3384 35.6936C46.315 35.688 46.3087 35.683 46.2894 35.676C46.2745 35.658 46.2662 35.6513 46.2509 35.627C46.1776 35.5106 46.0811 35.3308 45.971 35.1161C45.7506 34.6865 45.484 34.1212 45.2116 33.5589C44.9392 32.9967 44.6637 32.4403 44.3787 31.9807C44.2363 31.7509 44.095 31.5429 43.9133 31.3508C43.7317 31.1588 43.4967 30.8857 42.958 30.8889V30.8854L42.958 30.8855ZM42.972 33.1426C43.165 33.4774 43.3758 33.8732 43.5984 34.3324C43.8629 34.8783 44.1261 35.4495 44.3717 35.9281C44.4945 36.1676 44.6106 36.3823 44.7321 36.5754C44.8537 36.7686 44.9329 36.9329 45.2256 37.1423C45.5182 37.352 45.6996 37.3727 45.9219 37.4258C46.1442 37.4795 46.3868 37.5193 46.6533 37.5588C47.1863 37.6376 47.8141 37.7073 48.417 37.7827C48.9231 37.8454 49.3637 37.9178 49.7432 37.9927C49.4838 38.279 49.1734 38.6028 48.8054 38.955C48.367 39.375 47.9048 39.8022 47.5246 40.1833C47.3345 40.3737 47.1673 40.5504 47.0207 40.7257C46.8742 40.9013 46.738 41.027 46.6288 41.3696C46.5196 41.7121 46.558 41.8911 46.5763 42.1184C46.5946 42.3458 46.6294 42.5881 46.6743 42.8533C46.764 43.3836 46.8953 44.0004 47.0102 44.596C47.1068 45.0965 47.1743 45.5386 47.2202 45.9222C46.8668 45.7645 46.4631 45.5681 46.0129 45.3273C45.4774 45.0408 44.9257 44.7343 44.4452 44.491C44.2049 44.3691 43.9854 44.2646 43.7733 44.1795C43.5613 44.0935 43.3986 44.0045 43.0385 44.0081C42.6782 44.0081 42.5181 44.1031 42.3071 44.19C42.0961 44.2778 41.8775 44.3875 41.6387 44.512C41.1612 44.761 40.6134 45.0729 40.0815 45.3658C39.6343 45.6123 39.2326 45.8126 38.8812 45.9747C38.9224 45.5904 38.9868 45.1472 39.0772 44.6449C39.1847 44.0481 39.3054 43.4302 39.3886 42.8988C39.4302 42.6331 39.4607 42.3915 39.4761 42.1639C39.4915 41.9362 39.5266 41.7564 39.4131 41.4151C39.2997 41.0739 39.1664 40.9514 39.0177 40.7782C38.869 40.6044 38.6957 40.4276 38.5033 40.2393C38.1184 39.863 37.6521 39.4429 37.2085 39.0285C36.8359 38.6804 36.5232 38.3599 36.2602 38.0767C36.6389 37.9978 37.0809 37.9182 37.5865 37.8492C38.1884 37.7668 38.8112 37.6932 39.3431 37.6078C39.6091 37.5648 39.8494 37.5198 40.071 37.4643C40.2926 37.4087 40.4773 37.3874 40.7674 37.1738C41.0574 36.9608 41.1312 36.7947 41.2503 36.5999C41.3694 36.4054 41.4839 36.1865 41.6037 35.9456C41.8434 35.464 42.1019 34.892 42.3596 34.3429C42.5761 33.8815 42.7833 33.4798 42.972 33.1426L42.972 33.1426ZM31.7181 57.904C31.8014 58.0501 31.886 58.2014 32.18 58.3729C32.515 58.5682 32.7027 58.5425 32.8939 58.5479C33.085 58.5479 33.2715 58.5307 33.4712 58.5164C33.8708 58.4734 34.3179 58.3945 34.759 58.3169C35.2001 58.2399 35.6343 58.1628 35.9628 58.1174C36.0986 58.0995 36.1976 58.0896 36.2812 58.0825C36.3423 58.1416 36.4147 58.2132 36.5087 58.3169C36.7323 58.5647 37.0177 58.9056 37.3065 59.2512C37.3547 59.309 37.4018 59.3581 37.45 59.4157L33.8877 65.5886L33.0793 62.5721C33.0128 62.3258 32.8513 62.1159 32.6302 61.9886C32.4091 61.8613 32.1465 61.827 31.9001 61.8932L28.9081 62.6946L31.7181 57.904H31.7181ZM54.2749 57.9145L57.0814 62.6982L54.0894 61.8968C53.843 61.8316 53.5808 61.8668 53.3603 61.9947C53.1399 62.1227 52.9792 62.3329 52.9136 62.5792L52.1053 65.5886L48.5429 59.4228C48.5934 59.3625 48.643 59.3116 48.6934 59.2513C48.9822 58.9057 49.2676 58.5648 49.4913 58.317C49.5853 58.2131 49.6576 58.1415 49.7187 58.0825C49.8023 58.0825 49.9013 58.1032 50.0372 58.1175C50.3656 58.1623 50.7998 58.2394 51.2409 58.317C51.6821 58.394 52.1291 58.4729 52.5287 58.5164C52.7285 58.5379 52.915 58.5515 53.1061 58.5479C53.2972 58.5479 53.485 58.5683 53.82 58.373C54.1068 58.2056 54.1932 58.0572 54.2749 57.9145H54.2749Z" fill="#5084FC"/>
</g>
<defs>
<clipPath id="clip0_1259_313992">
<rect width="86" height="86" fill="white"/>
</clipPath>
</defs>
</svg>
