<svg width="86" height="86" viewBox="0 0 86 86" fill="none" xmlns="http://www.w3.org/2000/svg">
<g clip-path="url(#clip0_1259_314021)">
<path d="M43 86.0001C66.7482 86.0001 86 66.7482 86 43C86 19.2518 66.7482 0 43 0C19.2518 0 0 19.2518 0 43C0 66.7482 19.2518 86.0001 43 86.0001Z" fill="#ECF2FF"/>
<g opacity="0.8">
<path d="M44.5865 34.4646L45.0021 34.0567C45.495 33.5802 45.8869 33.0093 46.1546 32.3782C46.4222 31.747 46.5602 31.0685 46.5602 30.3829C46.5602 29.6973 46.4222 29.0188 46.1546 28.3876C45.8869 27.7565 45.495 27.1856 45.0021 26.7091C43.993 25.7331 42.644 25.1875 41.2401 25.1875C39.8362 25.1875 38.4873 25.7331 37.4781 26.7091L37.0625 27.117L36.6469 26.7091C35.6377 25.7331 34.2888 25.1875 32.8849 25.1875C31.481 25.1875 30.132 25.7331 29.1229 26.7091C28.63 27.1856 28.2381 27.7565 27.9704 28.3876C27.7028 29.0188 27.5648 29.6973 27.5648 30.3829C27.5648 31.0685 27.7028 31.747 27.9704 32.3782C28.2381 33.0093 28.63 33.5802 29.1229 34.0567L29.5385 34.4646L37.0625 41.8123L44.5865 34.4646ZM32.9062 30.531V29.3435C34.6378 29.3456 36.2979 30.0344 37.5223 31.2588C38.7467 32.4832 39.4355 34.1432 39.4375 35.8748H38.25C38.2484 34.458 37.6849 33.0997 36.6831 32.0979C35.6813 31.0961 34.323 30.5326 32.9062 30.531Z" fill="#5084FC"/>
<path d="M49.3531 30.2716L48.9375 30.6795L48.5219 30.2716C48.0911 29.8541 47.5926 29.5128 47.0476 29.2622C47.1205 29.6314 47.1569 30.0069 47.1563 30.3832C47.1578 31.344 46.9149 32.2894 46.4503 33.1305C47.8423 33.4993 49.0735 34.3175 49.9527 35.458C50.8319 36.5984 51.3099 37.9973 51.3125 39.4373H50.125C50.1228 38.1806 49.6782 36.9648 48.8691 36.0032C48.0601 35.0415 46.9382 34.3955 45.7004 34.1785C45.6089 34.2812 45.5187 34.3845 45.4189 34.4813L41.6011 38.21L48.9375 45.3748L56.4615 38.0271L56.8771 37.6192C57.37 37.1427 57.7619 36.5718 58.0296 35.9407C58.2972 35.3095 58.4352 34.631 58.4352 33.9454C58.4352 33.2598 58.2972 32.5813 58.0296 31.9501C57.7619 31.319 57.37 30.7481 56.8771 30.2716C55.868 29.2956 54.519 28.75 53.1151 28.75C51.7112 28.75 50.3623 29.2956 49.3531 30.2716Z" fill="#5084FC"/>
<path d="M56.6562 56.0625H49.5312V60.8125H56.6562V56.0625Z" fill="#5084FC"/>
<path d="M60.477 46.4746L60.8036 43.7547C60.8269 43.5893 60.8148 43.4208 60.7684 43.2604C60.7219 43.1 60.642 42.9512 60.5339 42.8238C60.4259 42.6965 60.2921 42.5934 60.1414 42.5215C59.9907 42.4495 59.8264 42.4102 59.6595 42.4062C59.3817 42.4107 59.1146 42.514 58.9061 42.6977C58.6977 42.8814 58.5617 43.1335 58.5224 43.4085L58.2986 44.8092C58.0741 46.2675 57.5323 47.6589 56.7116 48.8851C55.8909 50.1114 54.8112 51.1427 53.5486 51.9062L54.6892 49.5312L55.0371 47.7215C55.0665 47.5837 55.0653 47.4412 55.0334 47.304C55.0015 47.1668 54.9398 47.0383 54.8526 46.9276C54.7654 46.817 54.6549 46.7269 54.529 46.6638C54.403 46.6007 54.2647 46.5661 54.1239 46.5625C53.9491 46.5643 53.7784 46.6154 53.6313 46.7099C53.4843 46.8045 53.3669 46.9386 53.2927 47.0969L52.4074 48.9375C51.6918 49.5044 51.1144 50.2267 50.719 51.0496C50.3236 51.8725 50.1205 52.7745 50.125 53.6875V55.4688H55.8304C58.4212 53.1353 60.0731 49.9379 60.477 46.4746Z" fill="#5084FC"/>
<path d="M36.4688 56.0625H29.3438V60.8125H36.4688V56.0625Z" fill="#5084FC"/>
<path d="M27.7014 44.8092L27.4776 43.4085C27.4383 43.1335 27.3023 42.8814 27.0939 42.6977C26.8855 42.514 26.6183 42.4107 26.3406 42.4062C26.1736 42.4102 26.0093 42.4495 25.8586 42.5215C25.7079 42.5934 25.5741 42.6965 25.4661 42.8238C25.358 42.9512 25.2781 43.1 25.2316 43.2604C25.1852 43.4208 25.1732 43.5893 25.1964 43.7547L25.523 46.4746C25.9269 49.9379 27.5788 53.1353 30.1697 55.4688H35.875V53.6875C35.8795 52.7745 35.6764 51.8725 35.281 51.0496C34.8856 50.2267 34.3082 49.5044 33.5926 48.9375L32.7091 47.0969C32.6349 46.9386 32.5175 46.8045 32.3705 46.7099C32.2234 46.6154 32.0527 46.5643 31.8779 46.5625C31.7371 46.5661 31.5988 46.6007 31.4728 46.6638C31.3469 46.7269 31.2364 46.817 31.1492 46.9276C31.062 47.0383 31.0003 47.1668 30.9684 47.304C30.9365 47.4412 30.9352 47.5837 30.9647 47.7215L31.3108 49.5312L32.4514 51.9062C31.1888 51.1427 30.1091 50.1114 29.2884 48.8851C28.4677 47.6589 27.9259 46.2675 27.7014 44.8092Z" fill="#5084FC"/>
</g>
</g>
<defs>
<clipPath id="clip0_1259_314021">
<rect width="86" height="86" fill="white"/>
</clipPath>
</defs>
</svg>
