<svg width="74" height="74" viewBox="0 0 74 74" fill="none" xmlns="http://www.w3.org/2000/svg">
<path fill-rule="evenodd" clip-rule="evenodd" d="M71.111 59.6514V63.6457C71.111 65.8586 69.3421 67.6401 67.1447 67.6401H6.8567C4.65939 67.6401 2.85746 65.8582 2.89043 63.6457L2.94998 59.6514" fill="#6290FB"/>
<path d="M71.111 59.6514V63.6457C71.111 65.8586 69.3421 67.6401 67.1447 67.6401H6.8567C4.65939 67.6401 2.85746 65.8582 2.89043 63.6457L2.94998 59.6514" stroke="#E5EDFF" stroke-linejoin="round"/>
<path d="M68.7619 38.8802C68.7619 37.1099 67.3467 35.6846 65.5888 35.6846H8.47387C6.71601 35.6846 5.30084 37.1099 5.30084 38.8802L2.95246 59.6512C2.95246 62.0479 4.26602 64.4445 7.33436 64.4445H36.4295H40.3247H66.2532C69.3237 64.4445 71.111 62.0479 71.111 59.6512L68.7619 38.8802Z" fill="#F4F7F8"/>
<path fill-rule="evenodd" clip-rule="evenodd" d="M60.5348 35.9058L62.1214 61.2491H11.4582L13.0447 35.9058" fill="#6290FB"/>
<path fill-rule="evenodd" clip-rule="evenodd" d="M12.4654 36.0225L10.8801 61.8276H62.1207L61.9423 59.5469H14.5684C13.2965 59.5469 13.3662 58.3984 13.3662 58.3984L14.7052 36.0225H12.4654Z" fill="#5084FC"/>
<path d="M8.70435 46.0703L8.22839 50.8637" stroke="#E5EDFF"/>
<path d="M7.91453 54.0593C8.3526 54.0593 8.70772 53.7017 8.70772 53.2604C8.70772 52.8192 8.3526 52.4614 7.91453 52.4614C7.47647 52.4614 7.12135 52.8192 7.12135 53.2604C7.12135 53.7017 7.47647 54.0593 7.91453 54.0593Z" fill="#E5EDFF"/>
<path d="M65.728 35.7212C67.3203 35.8952 68.5576 37.2291 68.5576 38.8806L70.9062 59.6525C70.9062 62.0492 69.5912 64.4445 66.5229 64.4445H37.4292H33.5336H7.60382C5.71632 64.4445 4.325 63.5348 3.52984 62.2788C3.9201 62.3725 4.3305 62.4369 4.77643 62.4369H30.704H34.5996H63.6955C66.7638 62.4369 68.0766 60.0392 68.0766 57.6425L68.0269 57.1976C68.0531 56.9625 68.0766 56.7261 68.0766 56.4885L65.728 35.7212Z" fill="#DAE7FC"/>
<path fill-rule="evenodd" clip-rule="evenodd" d="M60.5348 35.9058L62.1214 61.2491H11.4582" fill="#5084FC"/>
<path d="M8.12969 35.7212C6.53734 35.8952 5.30003 37.2292 5.30003 38.8807L2.9514 59.6525C2.9514 62.0492 4.26643 64.4445 7.33477 64.4445H36.4285H40.324H66.2538C68.1413 64.4445 69.5326 63.5349 70.3278 62.2789C69.9376 62.3726 69.5272 62.4369 69.0812 62.4369H43.1537H39.2581H10.1622C7.09382 62.4369 5.78106 60.0392 5.78106 57.6425C5.78533 56.8749 5.79387 56.8329 5.78106 56.4887L8.12969 35.7212Z" fill="#DAE7FC"/>
<path fill-rule="evenodd" clip-rule="evenodd" d="M14.75 59.5479L11.4574 61.2484H62.0749L61.9417 59.5479H14.75Z" fill="#498FFD"/>
<path d="M60.5348 35.9058L62.1214 61.2491H11.4582L13.0447 35.9058" stroke="#E5EDFF" stroke-linecap="round" stroke-linejoin="round"/>
<path d="M68.7619 38.8802C68.7619 37.1099 67.3467 35.6846 65.5888 35.6846H8.47387C6.71601 35.6846 5.30084 37.1099 5.30084 38.8802L2.95246 59.6512C2.95246 62.0479 4.26602 64.4445 7.33436 64.4445H36.4295H40.3247H66.2532C69.3237 64.4445 71.111 62.0479 71.111 59.6512L68.7619 38.8802Z" stroke="#E5EDFF"/>
<path d="M65.579 51.6741C66.4581 51.6927 67.0661 50.9921 66.937 50.1094C66.8079 49.2266 65.9906 48.496 65.1115 48.4775C64.2324 48.4589 63.6243 49.1594 63.7534 50.0421C63.8825 50.9248 64.6998 51.6556 65.579 51.6741Z" fill="#6290FB"/>
<path d="M65.0292 47.8901C63.8312 47.8647 62.999 48.8291 63.1729 50.0183C63.3469 51.2076 64.4671 52.2133 65.6651 52.2386C66.8631 52.2641 67.6953 51.2997 67.5214 50.1103C67.3476 48.921 66.2273 47.9155 65.0292 47.8901ZM65.1978 49.0431C65.7577 49.0547 66.2723 49.5101 66.3564 50.0856C66.4406 50.6612 66.0563 51.0974 65.4965 51.0856C64.9367 51.0741 64.4221 50.6186 64.338 50.043C64.2538 49.4674 64.638 49.0312 65.1978 49.0431Z" fill="#E5EDFF"/>
<path d="M25.4384 23.7031H48.5634C49.5243 23.7031 50.2978 24.4767 50.2978 25.4375V48.4736C50.2978 49.4344 49.5243 50.208 48.5634 50.208H25.4384C24.4775 50.208 23.704 49.4344 23.704 48.4736V25.4375C23.704 24.4767 24.4775 23.7031 25.4384 23.7031Z" fill="#5084FC"/>
<path d="M48.5634 50.2088C49.5242 50.2088 50.2978 49.4353 50.2978 48.4744V25.4375C50.2978 24.4767 49.5242 23.7031 48.5634 23.7031V46.7401C48.5634 47.7009 47.7899 48.4744 46.829 48.4744H23.704C23.704 49.4353 24.4776 50.2088 25.4384 50.2088H48.5634Z" fill="#6290FB"/>
<path d="M25.4384 23.7031C24.4776 23.7031 23.704 24.4767 23.704 25.4375V48.4744C23.704 49.4353 24.4776 50.2088 25.4384 50.2088V27.1719C25.4384 26.211 26.2119 25.4375 27.1728 25.4375H50.2978C50.2978 24.4767 49.5242 23.7031 48.5634 23.7031H25.4384Z" fill="#498FFD"/>
<path d="M23.7037 23.124C23.5504 23.124 23.4033 23.185 23.2949 23.2934C23.1865 23.4018 23.1256 23.5488 23.1256 23.7021V50.2078C23.1256 50.3611 23.1865 50.5082 23.2949 50.6166C23.4033 50.725 23.5504 50.7859 23.7037 50.7859H50.2975C50.4508 50.7859 50.5978 50.725 50.7062 50.6166C50.8146 50.5082 50.8756 50.3611 50.8756 50.2078V23.7021C50.8756 23.5488 50.8146 23.4018 50.7062 23.2934C50.5978 23.185 50.4508 23.124 50.2975 23.124H23.7037ZM24.2818 24.2803H49.7193V49.6297H24.2818V24.2803Z" fill="#E5EDFF"/>
<path d="M37.0657 41.6635C36.4507 41.8283 36.0888 42.4581 36.2544 43.076L37.4494 47.5359L36.2004 47.8704C35.6623 48.0146 35.3624 48.6282 35.5279 49.246L35.5552 49.3476C35.5587 49.3592 35.5621 49.3592 35.5621 49.3592C35.8383 50.313 36.3548 51.18 37.0618 51.8758C37.7687 52.5716 38.6421 53.0728 39.5976 53.3313C40.5725 53.5945 41.5987 53.5957 42.573 53.3346C43.5474 53.0736 44.4355 52.5593 45.1483 51.8439C45.8596 51.1298 46.3712 50.2403 46.6317 49.2643C46.8923 48.2884 46.8927 47.2604 46.6329 46.2831L46.3312 45.1571C46.1656 44.5393 45.5992 44.1584 45.061 44.3026L39.3716 45.8269L38.4753 42.4821C38.3097 41.8642 37.6814 41.4998 37.0664 41.6646L37.0657 41.6635Z" fill="#F4F7F8"/>
<path d="M45.4627 44.2876C45.3314 44.2622 45.1953 44.2679 45.0608 44.3037L44.1958 44.5363C44.377 44.691 44.5278 44.8959 44.5978 45.1574L44.9004 46.2843C45.4285 48.2731 44.8624 50.3915 43.4145 51.8442C42.5488 52.7114 41.4293 53.278 40.219 53.4611C42.0266 53.7405 43.857 53.14 45.1488 51.8442C46.5959 50.391 47.1612 48.2727 46.6326 46.2843L46.3322 45.1574C46.208 44.6941 45.8569 44.3632 45.4627 44.2879V44.2876Z" fill="#DAE7FC"/>
<path d="M37.0661 41.0863C37.0157 41.0863 36.9656 41.093 36.917 41.1061L37.0661 41.0863ZM36.917 41.1061C36.0011 41.3516 35.4498 42.3104 35.6953 43.2266L35.9956 44.3399L36.5918 46.5689L36.7409 47.1267L36.0498 47.3119C35.1676 47.5483 34.7349 48.5152 34.9704 49.394L34.9975 49.4956C34.9989 49.5018 35.0004 49.5081 35.002 49.5143C35.0104 49.542 35.0212 49.5755 35.0404 49.6136C35.0596 49.6518 35.13 49.7439 35.1307 49.7446C35.1308 49.7447 35.1455 49.7561 35.1488 49.7585C35.8266 51.7587 37.4005 53.3356 39.4463 53.8889C41.6295 54.4783 43.9613 53.8542 45.5573 52.2516C47.1502 50.6528 47.7736 48.3202 47.1923 46.1339L46.8897 45.007C46.6542 44.1281 45.7934 43.5083 44.9114 43.7446L39.7805 45.1176L39.033 42.3332C38.7876 41.4169 37.8329 40.8615 36.917 41.1069L36.917 41.1061ZM37.2151 42.2217C37.5293 42.1373 37.8318 42.3107 37.9174 42.6304L38.814 45.975C38.8537 46.1228 38.9504 46.2489 39.0829 46.3256C39.2154 46.4022 39.3729 46.423 39.5208 46.3837L45.2118 44.8594C45.4061 44.8073 45.6762 44.9494 45.7718 45.3065L46.0744 46.4311C46.5507 48.2225 46.0423 50.1282 44.7398 51.4355C43.4347 52.7457 41.5342 53.2544 39.7489 52.7724C38.0006 52.2996 36.6235 50.9449 36.1176 49.1975C36.1125 49.1791 36.1064 49.1609 36.0995 49.1431C36.0987 49.1431 36.098 49.1431 36.0972 49.1431L36.0859 49.1004C35.9903 48.7437 36.1561 48.4839 36.3501 48.432L37.5989 48.0978C37.6724 48.0781 37.7412 48.0441 37.8015 47.9978C37.8618 47.9515 37.9124 47.8938 37.9504 47.8279C37.9883 47.762 38.013 47.6893 38.0228 47.6139C38.0326 47.5385 38.0275 47.4621 38.0077 47.3886L37.8586 46.8331L37.7096 46.2753L37.1111 44.0464L36.813 42.9308C36.7274 42.6111 36.9009 42.3103 37.215 42.2262L37.2151 42.2217Z" fill="#E5EDFF"/>
<path d="M49.1418 28.3276C51.0575 28.3276 52.6105 26.7746 52.6105 24.8589C52.6105 22.9431 51.0575 21.3901 49.1418 21.3901C47.226 21.3901 45.673 22.9431 45.673 24.8589C45.673 26.7746 47.226 28.3276 49.1418 28.3276Z" fill="#5084FC"/>
<path fill-rule="evenodd" clip-rule="evenodd" d="M49.9593 23.2227L49.5505 23.6314L47.9155 25.2664L47.5068 25.6752L48.3243 26.4949L48.733 26.0862L50.368 24.4489L50.7768 24.0402L49.9593 23.2227Z" fill="#E5EDFF"/>
<path d="M48.5637 21.39C48.1081 21.39 47.6571 21.4798 47.2362 21.6541C46.8154 21.8284 46.433 22.0839 46.1109 22.406C45.7888 22.7281 45.5333 23.1105 45.359 23.5313C45.1846 23.9521 45.0949 24.4032 45.0949 24.8588C45.0949 25.3143 45.1846 25.7654 45.359 26.1862C45.5333 26.6071 45.7888 26.9895 46.1109 27.3116C46.433 27.6337 46.8154 27.8891 47.2362 28.0634C47.6571 28.2377 48.1081 28.3275 48.5637 28.3275C48.8586 28.327 49.1523 28.2889 49.4376 28.2142C48.6922 28.0233 48.0315 27.59 47.5593 26.9825C47.0871 26.375 46.8303 25.6279 46.8293 24.8585C46.8295 24.0908 47.0843 23.3449 47.5539 22.7376C48.0234 22.1304 48.6812 21.6959 49.4241 21.5025C49.1431 21.4289 48.8541 21.3908 48.5637 21.3892V21.39Z" fill="#498FFD"/>
<path d="M49.7197 21.39C50.1752 21.39 50.6263 21.4798 51.0472 21.6541C51.468 21.8284 51.8504 22.0839 52.1725 22.406C52.4946 22.7281 52.7501 23.1105 52.9245 23.5313C53.0988 23.9521 53.1885 24.4032 53.1885 24.8588C53.1885 25.3143 53.0988 25.7654 52.9245 26.1862C52.7501 26.6071 52.4946 26.9895 52.1725 27.3116C51.8504 27.6337 51.468 27.8891 51.0472 28.0634C50.6263 28.2377 50.1752 28.3275 49.7197 28.3275C49.4248 28.327 49.1311 28.2889 48.8458 28.2142C49.5911 28.0233 50.2519 27.59 50.7241 26.9825C51.1963 26.375 51.4531 25.6279 51.4541 24.8585C51.4539 24.0908 51.1991 23.3449 50.7295 22.7376C50.2599 22.1304 49.6022 21.6959 48.8593 21.5025C49.1402 21.4289 49.4293 21.3908 49.7197 21.3892V21.39Z" fill="#F4F7F8"/>
<path fill-rule="evenodd" clip-rule="evenodd" d="M48.3243 23.2227L47.5068 24.0402L47.9155 24.4489L49.5505 26.0862L49.9593 26.4949L50.7768 25.6752L50.368 25.2664L48.733 23.6314L48.3243 23.2227Z" fill="#E5EDFF"/>
<path d="M49.1418 20.811C46.9136 20.811 45.0949 22.6298 45.0949 24.8579C45.0949 27.0861 46.9136 28.9048 49.1418 28.9048C51.37 28.9048 53.1887 27.0861 53.1887 24.8579C53.1887 22.6298 51.37 20.811 49.1418 20.811ZM49.1418 21.9673C50.7451 21.9673 52.0324 23.2547 52.0324 24.8579C52.0324 26.4613 50.7451 27.7485 49.1418 27.7485C47.5385 27.7485 46.2511 26.4613 46.2512 24.8579C46.2511 23.2547 47.5385 21.9673 49.1418 21.9673Z" fill="#E5EDFF"/>
<path d="M37.5837 7.51514C38.6774 7.51514 39.7605 7.73049 40.7709 8.14887C41.7814 8.56725 42.6996 9.18048 43.473 9.95354C44.2463 10.7266 44.8598 11.6444 45.2784 12.6545C45.6969 13.6645 45.9123 14.7471 45.9123 15.8404C45.9123 16.9336 45.6969 18.0162 45.2784 19.0263C44.8598 20.0363 44.2463 20.9538 43.473 21.7269C42.6996 22.5 41.7814 23.1132 40.7709 23.5316C39.7605 23.9499 38.6774 24.1653 37.5837 24.1653C36.9423 24.1618 36.3035 24.0842 35.6799 23.9341L32.0747 26.0154V22.0696C31.1903 21.29 30.4817 20.3313 29.9956 19.2575C29.5095 18.1836 29.2571 17.019 29.2551 15.8404C29.2551 14.7471 29.4705 13.6645 29.889 12.6545C30.3076 11.6444 30.9211 10.7266 31.6945 9.95354C32.4678 9.18048 33.386 8.56725 34.3965 8.14887C35.4069 7.73049 36.49 7.51514 37.5837 7.51514Z" fill="#DAE7FC"/>
<path fill-rule="evenodd" clip-rule="evenodd" d="M34.7247 10.9839V10.9955H34.6976V12.1517H35.8855C36.9646 12.1517 37.5093 12.6625 37.7057 13.2967H34.7247V14.4532H37.7057C37.5099 15.0879 36.9659 15.6004 35.8855 15.6004H35.5151H35.5105H35.5059H34.6974V16.7564H35.0384L38.5659 20.2345L39.3789 19.4121L36.6102 16.6796C37.8644 16.4167 38.6696 15.4834 38.8911 14.4532H40.4696V13.2967H38.8911C38.8014 12.8808 38.6069 12.4874 38.3355 12.1404H40.4696V10.9842H34.7245L34.7247 10.9839Z" fill="#E5EDFF"/>
<path d="M13.3676 18.3956C11.4109 19.4205 9.94133 21.1802 9.28213 23.288C8.62292 25.3957 8.82811 27.6788 9.85255 29.6346C10.877 31.5905 12.6368 33.0591 14.7448 33.7174C16.8528 34.3757 19.1364 34.1698 21.0931 33.1449C21.6596 32.8441 22.1895 32.4787 22.6723 32.0564L26.8316 32.2274L25.0008 28.7322C25.4224 27.6312 25.6055 26.4532 25.5378 25.2764C25.4701 24.0996 25.1533 22.9506 24.6082 21.9056C23.5837 19.9497 21.8239 18.4811 19.7159 17.8229C17.6079 17.1646 15.3244 17.3707 13.3676 18.3956Z" fill="#6290FB"/>
<path fill-rule="evenodd" clip-rule="evenodd" d="M17.2229 20.2323C17.147 20.2335 17.072 20.2496 17.0023 20.2797C16.9327 20.3099 16.8696 20.3534 16.8167 20.4079C16.7639 20.4624 16.7223 20.527 16.6943 20.5976C16.6664 20.6682 16.6526 20.7435 16.6538 20.8195V21.3276C15.5205 21.5659 14.6326 22.4817 14.6326 23.6356C14.6326 24.9799 15.8361 26.0113 17.2319 26.0113C18.0761 26.0113 18.675 26.5847 18.675 27.2308C18.675 27.8772 18.0761 28.448 17.2319 28.448C16.3878 28.448 15.7889 27.8772 15.7889 27.2308C15.8004 26.4489 14.6215 26.4489 14.6326 27.2308C14.6326 28.4162 15.5388 29.2904 16.6538 29.541V30.0537C16.6527 30.1303 16.6669 30.2061 16.6954 30.2772C16.724 30.3483 16.7664 30.4132 16.8202 30.4678C16.874 30.5223 16.9381 30.5655 17.0088 30.5951C17.0795 30.6247 17.1553 30.64 17.2319 30.64C17.3085 30.64 17.3844 30.6247 17.4551 30.5951C17.5258 30.5655 17.5898 30.5223 17.6436 30.4678C17.6974 30.4132 17.7398 30.3483 17.7684 30.2772C17.797 30.2061 17.8111 30.1303 17.81 30.0537V29.5388C18.9434 29.3005 19.8312 28.3846 19.8312 27.2308C19.8312 25.8864 18.6277 24.8551 17.2319 24.8551C16.3878 24.8551 15.7889 24.2817 15.7889 23.6356C15.7889 22.9978 16.3741 22.438 17.2003 22.4229C17.2221 22.4241 17.244 22.4241 17.2658 22.4229C18.0904 22.439 18.6749 22.9962 18.6749 23.6333C18.6634 24.4152 19.8423 24.4152 19.8312 23.6333C19.8312 22.4479 18.925 21.5737 17.81 21.3231V20.8172C17.8112 20.7398 17.7969 20.6629 17.7678 20.5911C17.7387 20.5193 17.6955 20.4539 17.6407 20.3991C17.586 20.3444 17.5208 20.3012 17.449 20.2721C17.3772 20.243 17.3003 20.2288 17.2228 20.2301L17.2229 20.2323Z" fill="#E5EDFF"/>
<path d="M17.1346 17.4454C15.8217 17.4611 14.531 17.7868 13.3678 18.3962C11.4113 19.4209 9.94183 21.1803 9.28245 23.2877C8.62306 25.395 8.82778 27.6777 9.8516 29.6335C10.6143 31.0868 11.7897 32.2821 13.2302 33.0692C14.6707 33.8564 16.3119 34.2002 17.9476 34.0575C16.5675 33.9269 15.2419 33.4539 14.0912 32.6813C12.9405 31.9088 12.001 30.8611 11.3579 29.6335C10.3339 27.6779 10.1288 25.3955 10.7878 23.2882C11.4467 21.1809 12.9158 19.4213 14.8718 18.3962C15.8497 17.8869 16.919 17.5768 18.0176 17.4838C17.7242 17.4555 17.4294 17.4428 17.1346 17.4457V17.4454ZM24.176 32.0566C24.1528 32.0764 24.1294 32.0961 24.106 32.1156L26.8318 32.2288L26.7979 32.1653L24.176 32.0566H24.176Z" fill="#5084FC"/>
<path d="M17.1346 17.4455C16.8735 17.4498 16.6128 17.4664 16.3532 17.4952C17.7201 17.6352 19.031 18.1111 20.1689 18.8806C21.3069 19.6502 22.2366 20.6895 22.8752 21.9056C23.4201 22.9509 23.7366 24.0998 23.804 25.2767C23.8713 26.4536 23.6879 27.6316 23.2659 28.7325L25.059 32.1561L26.8318 32.2278L25.0003 28.7319C25.422 27.6309 25.605 26.4527 25.5372 25.2759C25.4695 24.099 25.1525 22.9501 24.6073 21.9051C23.8947 20.5447 22.8194 19.4081 21.5006 18.6209C20.1818 17.8338 18.6707 17.4268 17.1346 17.4449V17.4455ZM20.9376 32.0567C20.4551 32.479 19.9254 32.8443 19.359 33.1452C18.4294 33.6308 17.4165 33.9365 16.3736 34.0462C18.0011 34.216 19.6427 33.9026 21.0934 33.1452C21.6281 32.8604 22.1302 32.5181 22.5907 32.1244L20.9376 32.0561V32.0567Z" fill="#F4F7F8"/>
<path d="M16.493 16.8957C15.34 16.9905 14.1865 17.3127 13.0987 17.8825C8.74745 20.1617 7.06259 25.5537 9.34091 29.9035C11.6193 34.2533 17.0105 35.9359 21.3619 33.6568C21.3626 33.6568 21.3634 33.6568 21.3642 33.6568C21.8923 33.3764 22.3754 33.0226 22.8366 32.6428L26.8089 32.8077C26.9104 32.8118 27.0112 32.7894 27.1011 32.7422C27.1911 32.695 27.267 32.6248 27.3212 32.5389C27.3755 32.4531 27.4062 32.3544 27.4102 32.253C27.4142 32.1515 27.3914 32.0507 27.3441 31.9608L25.5917 28.614C26.3732 26.3159 26.2465 23.8007 25.1197 21.6404C23.4109 18.378 19.9518 16.6137 16.493 16.8979L16.493 16.8957ZM16.5923 18.0451C19.6023 17.7943 22.6054 19.3264 24.0967 22.1733C25.1228 24.1407 25.2541 26.4532 24.4602 28.5259C24.4313 28.6025 24.4189 28.6844 24.424 28.7661C24.429 28.8479 24.4514 28.9277 24.4896 29.0002L25.8536 31.6085L22.6965 31.4798C22.5485 31.4737 22.4038 31.5246 22.2923 31.622C21.8438 32.0144 21.3506 32.3518 20.8244 32.6315C17.0264 34.6208 12.3522 33.1621 10.3639 29.366C8.37567 25.57 9.83823 20.8971 13.6362 18.9078C14.5857 18.4105 15.589 18.1287 16.5923 18.0451H16.5923Z" fill="#E5EDFF"/>
<path d="M37.5835 7.51562C37.3043 7.51819 37.0255 7.53475 36.748 7.56531C38.7889 7.78676 40.6761 8.75379 42.0473 10.2809C43.4186 11.808 44.1773 13.7877 44.1778 15.8397C44.1758 17.897 43.4118 19.8806 42.0332 21.4081C40.6545 22.9356 38.7589 23.8988 36.7118 24.1119C37.0012 24.1452 37.2922 24.1632 37.5835 24.1661C38.6774 24.1661 39.7605 23.9508 40.7711 23.5323C41.7816 23.1139 42.6998 22.5006 43.4732 21.7274C44.2466 20.9542 44.8601 20.0361 45.2786 19.0259C45.697 18.0157 45.9123 16.9331 45.9121 15.8397C45.9119 13.632 45.0343 11.5148 43.4724 9.95374C41.9105 8.3927 39.7923 7.51563 37.5835 7.51562ZM33.9454 23.9335L32.0755 25.0129V26.0156L35.3275 24.1367C34.8619 24.1078 34.3996 24.0398 33.9454 23.9335Z" fill="#F4F7F8"/>
<path d="M37.5835 7.51562C35.3748 7.51563 33.2565 8.39242 31.6946 9.95346C30.1328 11.5145 29.2552 13.632 29.2549 15.8397C29.2569 17.0187 29.5093 18.1838 29.9956 19.2579C30.4819 20.3321 31.1908 21.2907 32.0755 22.0704V26.0156L33.8099 25.0129V22.0704C32.9252 21.2907 32.2162 20.3321 31.73 19.2579C31.2437 18.1838 30.9912 17.0187 30.9893 15.8397C30.9914 13.7779 31.759 11.79 33.1432 10.2614C34.5275 8.73283 36.43 7.77216 38.4823 7.56531C38.1839 7.53255 37.8838 7.51599 37.5835 7.51562ZM37.4142 23.9335L37.0619 24.1367C37.2354 24.1518 37.4094 24.1613 37.5835 24.1655C37.8718 24.1623 38.1598 24.1443 38.4462 24.1113C38.0988 24.0735 37.7541 24.014 37.4142 23.9329V23.9335Z" fill="#6290FB"/>
<path d="M37.5832 6.93652C32.6711 6.93652 28.6764 10.9306 28.6765 15.841C28.6806 18.2793 29.7361 20.5677 31.4971 22.241V26.0146C31.497 26.1162 31.5236 26.216 31.5743 26.304C31.625 26.392 31.698 26.4649 31.7859 26.5157C31.8738 26.5665 31.9735 26.5933 32.0751 26.5933C32.1766 26.5934 32.2763 26.5667 32.3643 26.516L35.8037 24.5287C36.3889 24.6514 36.9825 24.7399 37.581 24.7432C37.5817 24.7432 37.5825 24.7432 37.5833 24.7432C42.4954 24.7432 46.4901 20.7514 46.49 15.841C46.4901 10.9306 42.4954 6.93652 37.5833 6.93652H37.5832ZM37.5832 8.09277C41.8707 8.09277 45.3338 11.5557 45.3337 15.841C45.3338 20.1247 41.8731 23.5844 37.5877 23.587C36.9908 23.587 36.3953 23.5118 35.815 23.3724C35.6708 23.3377 35.5188 23.3596 35.3904 23.4337L32.6534 25.0145V22.0697C32.6533 21.9876 32.6357 21.9065 32.6018 21.8317C32.5679 21.757 32.5185 21.6903 32.4569 21.6361C30.7925 20.1688 29.8372 18.0593 29.8327 15.8413C29.8339 11.5571 33.2965 8.09531 37.5832 8.09531V8.09277Z" fill="#E5EDFF"/>
<path fill-rule="evenodd" clip-rule="evenodd" d="M19.6568 8.09277V8.6709V10.9834V11.5615H20.8131V10.9834V8.6709V8.09277H19.6568Z" fill="#E5EDFF"/>
<path fill-rule="evenodd" clip-rule="evenodd" d="M18.5006 9.24902V10.4053H19.0787H21.3912H21.9693V9.24902H21.3912H19.0787H18.5006ZM54.3443 12.1396V12.7178V15.0303V15.6084H55.5006V15.0303V12.7178V12.1396H54.3443Z" fill="#E5EDFF"/>
<path fill-rule="evenodd" clip-rule="evenodd" d="M53.1881 13.2959V14.4521H53.7662H56.0787H56.6568V13.2959H56.0787H53.7662H53.1881Z" fill="#E5EDFF"/>
<path d="M25.554 13.2388C25.554 13.4074 25.487 13.5692 25.3678 13.6885C25.2485 13.8077 25.0867 13.8748 24.9181 13.8748C24.7494 13.8748 24.5877 13.8077 24.4684 13.6885C24.3491 13.5692 24.2821 13.4074 24.2821 13.2388C24.2821 13.0701 24.3491 12.9083 24.4684 12.7891C24.5877 12.6698 24.7494 12.6028 24.9181 12.6028C25.0867 12.6028 25.2485 12.6698 25.3678 12.7891C25.487 12.9083 25.554 13.0701 25.554 13.2388ZM49.7194 7.80445C49.7194 7.97311 49.6524 8.13487 49.5331 8.25414C49.4138 8.3734 49.2521 8.44044 49.0834 8.44044C48.9148 8.44044 48.753 8.3734 48.6337 8.25414C48.5145 8.13487 48.4475 7.97311 48.4475 7.80445C48.4475 7.63579 48.5145 7.47403 48.6337 7.35477C48.753 7.23551 48.9148 7.16846 49.0834 7.16846C49.2521 7.16846 49.4138 7.23551 49.5331 7.35477C49.6524 7.47403 49.7194 7.63579 49.7194 7.80445ZM56.7728 31.7388C56.7728 31.9074 56.7058 32.0692 56.5865 32.1885C56.4672 32.3077 56.3055 32.3748 56.1368 32.3748C55.9682 32.3748 55.8064 32.3077 55.6872 32.1885C55.5679 32.0692 55.5009 31.9074 55.5009 31.7388C55.5009 31.5701 55.5679 31.4083 55.6872 31.2891C55.8064 31.1698 55.9682 31.1028 56.1368 31.1028C56.3055 31.1028 56.4672 31.1698 56.5865 31.2891C56.7058 31.4083 56.7728 31.5701 56.7728 31.7388ZM6.93811 30.9295C6.93811 31.0981 6.87111 31.2599 6.75185 31.3791C6.63259 31.4984 6.47083 31.5654 6.30217 31.5654C6.13351 31.5654 5.97176 31.4984 5.8525 31.3791C5.73324 31.2599 5.66624 31.0981 5.66624 30.9295C5.66624 30.7608 5.73324 30.599 5.8525 30.4798C5.97176 30.3605 6.13351 30.2935 6.30217 30.2935C6.47083 30.2935 6.63259 30.3605 6.75185 30.4798C6.87111 30.599 6.93811 30.7608 6.93811 30.9295Z" fill="#E5EDFF"/>
<path d="M60.7043 10.9844C61.3429 10.9844 61.8605 10.4667 61.8605 9.82812C61.8605 9.18955 61.3429 8.67188 60.7043 8.67188C60.0657 8.67188 59.548 9.18955 59.548 9.82812C59.548 10.4667 60.0657 10.9844 60.7043 10.9844Z" fill="#2DBCA4"/>
<path fill-rule="evenodd" clip-rule="evenodd" d="M62.0993 24.479L61.6906 24.8878L60.0556 26.5228L59.6468 26.9315L60.4643 27.749L60.8731 27.3403L62.5081 25.7053L62.9168 25.2965L62.0993 24.479Z" fill="#E5EDFF"/>
<path fill-rule="evenodd" clip-rule="evenodd" d="M60.4643 24.479L59.6468 25.2965L60.0556 25.7053L61.6906 27.3403L62.0993 27.749L62.9168 26.9315L62.5081 26.5228L60.8731 24.8878L60.4643 24.479Z" fill="#E5EDFF"/>
<path d="M60.7037 8.09277C59.7527 8.09277 58.9693 8.87613 58.9693 9.82715C58.9693 10.7782 59.7527 11.5615 60.7037 11.5615C61.6547 11.5615 62.4381 10.7782 62.4381 9.82715C62.4381 8.87613 61.6547 8.09277 60.7037 8.09277ZM60.7037 9.24902C61.0298 9.24902 61.2818 9.50097 61.2818 9.82715C61.2818 10.1533 61.0298 10.4053 60.7037 10.4053C60.3776 10.4053 60.1256 10.1533 60.1256 9.82715C60.1256 9.50097 60.3776 9.24902 60.7037 9.24902Z" fill="#E5EDFF"/>
</svg>
