<svg width="64" height="64" viewBox="0 0 64 64" fill="none" xmlns="http://www.w3.org/2000/svg">
<path d="M59 9H5C2.79086 9 1 10.7909 1 13V59C1 61.2091 2.79086 63 5 63H59C61.2091 63 63 61.2091 63 59V13C63 10.7909 61.2091 9 59 9Z" fill="#5084FC"/>
<path d="M5 9H59C60.0609 9 61.0783 9.42143 61.8284 10.1716C62.5786 10.9217 63 11.9391 63 13V23H1V13C1 11.9391 1.42143 10.9217 2.17157 10.1716C2.92172 9.42143 3.93913 9 5 9Z" fill="#E6EDFF"/>
<path d="M13 4C13 2.34315 11.6569 1 10 1C8.34315 1 7 2.34315 7 4V14C7 15.6569 8.34315 17 10 17C11.6569 17 13 15.6569 13 14V4Z" fill="#5084FC"/>
<path d="M57 4C57 2.34315 55.6569 1 54 1C52.3431 1 51 2.34315 51 4V14C51 15.6569 52.3431 17 54 17C55.6569 17 57 15.6569 57 14V4Z" fill="#5084FC"/>
<path d="M46.2 56.1599C46.2004 56.9143 45.9062 57.6392 45.38 58.1799C44.8447 58.7087 44.1225 59.0053 43.37 59.0053C42.6175 59.0053 41.8953 58.7087 41.36 58.1799L33.42 50.2199L32 48.8199L23.96 40.7599C22.6657 41.2916 21.2466 41.4435 19.8691 41.1977C18.4916 40.9519 17.2127 40.3186 16.1822 39.372C15.1517 38.4255 14.4122 37.2048 14.0505 35.8531C13.6889 34.5014 13.7199 33.0746 14.14 31.7399L18.04 35.6399C18.1329 35.7336 18.2435 35.808 18.3654 35.8588C18.4873 35.9095 18.618 35.9357 18.75 35.9357C18.882 35.9357 19.0127 35.9095 19.1346 35.8588C19.2564 35.808 19.367 35.7336 19.46 35.6399L22.86 32.2599C23.0431 32.0688 23.1453 31.8145 23.1453 31.5499C23.1453 31.2853 23.0431 31.0309 22.86 30.8399L18.94 26.9399C20.2751 26.5154 21.7038 26.4812 23.0577 26.8413C24.4116 27.2015 25.6345 27.941 26.5822 28.9728C27.5299 30.0046 28.1631 31.2857 28.4072 32.6653C28.6513 34.0449 28.4962 35.4655 27.96 36.7599L36.02 44.7999L37.42 46.2199L45.38 54.1599C45.9023 54.695 46.1963 55.4121 46.2 56.1599Z" fill="white"/>
<path d="M37.638 28.7478C38.5902 27.7958 39.7854 27.1234 41.0935 26.8039C42.4015 26.4843 43.7721 26.53 45.056 26.9358L41.148 30.8438C40.9605 31.0313 40.8552 31.2856 40.8552 31.5508C40.8552 31.816 40.9605 32.0703 41.148 32.2578L44.548 35.6578C44.7355 35.8453 44.9898 35.9506 45.255 35.9506C45.5202 35.9506 45.7745 35.8453 45.962 35.6578L49.87 31.7498C50.2912 33.0848 50.323 34.5123 49.9616 35.8647C49.6001 37.2172 48.8605 38.4385 47.8294 39.3854C46.7983 40.3323 45.5186 40.9655 44.1403 41.2107C42.762 41.4559 41.3424 41.303 40.048 40.7698L22.648 58.1698C22.1171 58.6993 21.3979 58.9967 20.648 58.9967C19.8981 58.9967 19.1789 58.6993 18.648 58.1698C18.1184 57.6389 17.821 56.9196 17.821 56.1698C17.821 55.4199 18.1184 54.7007 18.648 54.1698L36.048 36.7698C35.4903 35.4253 35.3437 33.9456 35.6267 32.5177C35.9097 31.0899 36.6096 29.778 37.638 28.7478Z" fill="white"/>
<path d="M37.42 46.2198L33.42 50.2198L32 48.8198L36.02 44.7998L37.42 46.2198Z" fill="#5084FC"/>
<path d="M32 40.7999L28 44.7999L26.58 43.3999L30.6 39.3799L32 40.7999Z" fill="#5084FC"/>
</svg>
