<svg width="74" height="74" viewBox="0 0 74 74" fill="none" xmlns="http://www.w3.org/2000/svg">
<path d="M26.2633 10.4734L23.6223 3.68018L20.9812 10.4741L14.1895 13.1159L20.9812 15.7577L23.6223 22.5494L26.2633 15.7577L33.055 13.1167L26.2633 10.4734Z" fill="#E5EDFF"/>
<path d="M13.1528 18.8457L10.9809 15.603L8.80822 18.8464L5.56628 21.0191L8.80822 23.191L10.9809 26.4344L13.1528 23.1902L16.3962 21.0198L13.1528 18.8457Z" fill="#E5EDFF"/>
<path d="M67.5243 31.3267L68.4337 29.9362L66.8005 29.6284C61.0152 28.5398 58.6117 23.9067 56.0676 19.0012C53.3902 13.8382 50.6227 8.50062 43.7732 7.21228L43.4506 7.15234L43.1472 7.27666C39.7602 8.66416 38.0427 10.2722 35.8093 12.5662C34.2235 14.1949 32.8042 16.2011 31.4315 18.1399C30.1084 20.0106 28.7394 21.9449 27.2749 23.4501L27.0307 23.7002H17.3648L14.0563 37.7602H6.26483V42.9402L12.005 43.7594L9.96483 48.8602V70.3202H18.8448L19.3369 64.4158L53.872 64.4039L54.3648 70.3202H63.2448V48.8602L61.2047 43.7594L66.9448 42.9402V37.7602H61.0981C63.0872 36.4852 65.1629 34.9393 67.5243 31.3267ZM56.2074 41.3936L56.223 41.4602H56.1423C56.163 41.438 56.1852 41.4151 56.2074 41.3936ZM41.1647 44.1161C38.3897 41.6793 36.9475 38.3411 35.4253 34.8209C34.1236 31.8114 32.7864 28.7226 30.5398 26.1718C34.4685 27.9989 36.4872 31.8735 38.5977 35.9428C39.8712 38.3988 41.1721 40.8912 42.9163 42.972L41.1647 44.1161ZM20.2952 27.4002H28.6387C30.7788 29.7149 32.0605 32.6335 33.3873 35.7023C34.2265 37.6433 35.0812 39.6184 36.1838 41.4602H16.9867L20.2952 27.4002ZM17.7348 57.0002C15.4875 57.0002 13.6648 55.1776 13.6648 52.9302C13.6648 50.6828 15.4875 48.8602 17.7348 48.8602C19.9822 48.8602 21.8048 50.6828 21.8048 52.9302C21.8048 55.1776 19.9822 57.0002 17.7348 57.0002ZM46.2248 59.9602H26.9848L26.2448 54.7802H46.9648L46.2248 59.9602ZM55.4748 57.0002C53.2275 57.0002 51.4048 55.1776 51.4048 52.9302C51.4048 50.6828 53.2275 48.8602 55.4748 48.8602C57.7222 48.8602 59.5448 50.6828 59.5448 52.9302C59.5448 55.1776 57.7222 57.0002 55.4748 57.0002ZM59.1445 36.3683C56.553 37.9911 53.8772 39.6687 50.5383 45.3807C45.2984 44.0421 42.9977 39.6058 40.5683 34.9208C38.1455 30.2485 35.648 25.4318 30.1165 23.6048C31.2147 22.2905 32.2418 20.8394 33.2445 19.423C34.5684 17.553 35.9366 15.6194 37.4011 14.1143C39.422 12.0386 40.8332 10.6777 43.6822 9.45892C49.2396 10.6548 51.5994 15.208 54.0962 20.0224C56.55 24.7555 59.0801 29.635 64.7633 31.4073C62.7505 34.1091 60.9915 35.2109 59.1445 36.3683Z" fill="#5084FC"/>
</svg>
