<svg width="86" height="86" viewBox="0 0 86 86" fill="none" xmlns="http://www.w3.org/2000/svg">
<g clip-path="url(#clip0_1259_314006)">
<path d="M43 86.0001C66.7482 86.0001 86 66.7482 86 43C86 19.2518 66.7482 0 43 0C19.2518 0 0 19.2518 0 43C0 66.7482 19.2518 86.0001 43 86.0001Z" fill="#ECF2FF"/>
<path d="M61.5258 41.1724C62.4936 42.4382 62.4936 44.1471 61.5258 45.4109C58.4776 49.3901 51.1644 57.5833 42.6261 57.5833C34.0879 57.5833 26.7746 49.3901 23.7264 45.4109C23.2556 44.8048 23 44.0592 23 43.2917C23 42.5242 23.2556 41.7785 23.7264 41.1724C26.7746 37.1932 34.0879 29 42.6261 29C51.1644 29 58.4776 37.1932 61.5258 41.1724V41.1724Z" stroke="#5084FC" stroke-width="4" stroke-linecap="round" stroke-linejoin="round"/>
<path d="M42.6261 49.4165C46.0089 49.4165 48.7511 46.6742 48.7511 43.2915C48.7511 39.9088 46.0089 37.1665 42.6261 37.1665C39.2434 37.1665 36.5011 39.9088 36.5011 43.2915C36.5011 46.6742 39.2434 49.4165 42.6261 49.4165Z" stroke="#5084FC" stroke-width="4" stroke-linecap="round" stroke-linejoin="round"/>
</g>
<defs>
<clipPath id="clip0_1259_314006">
<rect width="86" height="86" fill="white"/>
</clipPath>
</defs>
</svg>
