<svg width="80" height="80" viewBox="0 0 80 80" fill="none" xmlns="http://www.w3.org/2000/svg">
<path d="M12.4442 8.88867C11.5012 8.88867 10.5969 9.26327 9.93007 9.93007C9.26327 10.5969 8.88867 11.5012 8.88867 12.4442V26.6664H26.6665V8.88867H12.4442ZM22.222 22.222H13.3331V13.3331H22.222V22.222Z" fill="black"/>
<path d="M8.88867 67.5552C8.88867 68.4982 9.26327 69.4026 9.93007 70.0694C10.5969 70.7362 11.5012 71.1108 12.4442 71.1108H26.6665V53.333H8.88867V67.5552ZM13.3331 57.7775H22.222V66.6663H13.3331V57.7775Z" fill="black"/>
<path d="M53.3335 71.1108H67.5557C68.4987 71.1108 69.4031 70.7362 70.0699 70.0694C70.7367 69.4026 71.1113 68.4982 71.1113 67.5552V53.333H53.3335V71.1108ZM57.7779 57.7775H66.6668V66.6663H57.7779V57.7775Z" fill="black"/>
<path d="M67.5557 8.88867H53.3335V26.6664H71.1113V12.4442C71.1113 11.5012 70.7367 10.5969 70.0699 9.93007C69.4031 9.26327 68.4987 8.88867 67.5557 8.88867ZM66.6668 22.222H57.7779V13.3331H66.6668V22.222Z" fill="black"/>
<path d="M44.4446 22.2218V17.7773H35.5557V26.6662H40.0001V22.2218H44.4446Z" fill="black"/>
<path d="M26.6665 26.667H31.1109V31.1114H26.6665V26.667Z" fill="black"/>
<path d="M31.1113 31.1113H40.0002V35.5558H31.1113V31.1113Z" fill="black"/>
<path d="M44.4447 13.3331V17.7776H48.8891V8.88867H31.1113V17.7776H35.5558V13.3331H44.4447Z" fill="black"/>
<path d="M8.88867 31.1113H13.3331V40.0002H8.88867V31.1113Z" fill="black"/>
<path d="M26.6665 35.5558V40.0002H22.222V31.1113H17.7776V40.0002H13.3331V44.4447H8.88867V48.8891H17.7776V44.4447H22.222V48.8891H26.6665V44.4447H31.1109V35.5558H26.6665Z" fill="black"/>
<path d="M44.4444 35.556H48.8889V40.0004H53.3333V35.556H57.7778V31.1115H48.8889V22.2227H44.4444V26.6671H40V31.1115H44.4444V35.556Z" fill="black"/>
<path d="M40.0002 66.6671H31.1113V71.1115H48.8891V66.6671H44.4447V62.2227H40.0002V66.6671Z" fill="black"/>
<path d="M48.889 44.4446V40.0001H44.4446V35.5557H40.0001V40.0001H35.5557V44.4446H40.0001V48.889H44.4446V44.4446H48.889Z" fill="black"/>
<path d="M66.6665 44.4443H71.111V48.8888H66.6665V44.4443Z" fill="black"/>
<path d="M48.8887 44.4443H62.222V48.8888H48.8887V44.4443Z" fill="black"/>
<path d="M66.6667 31.1113H62.2223V35.5558H57.7778V40.0002H62.2223V44.4447H66.6667V40.0002H71.1112V35.5558H66.6667V31.1113Z" fill="black"/>
<path d="M44.4443 48.8887H48.8888V62.222H44.4443V48.8887Z" fill="black"/>
<path d="M31.1113 62.2221H35.5558V57.7777H40.0002V53.3332H35.5558V44.4443H31.1113V62.2221Z" fill="black"/>
</svg>
